<?xml version="1.0" encoding="UTF-8"?>
<!DOCTYPE svg PUBLIC "-//W3C//DTD SVG 1.1//EN" "http://www.w3.org/Graphics/SVG/1.1/DTD/svg11.dtd">
<svg version="1.2"  viewBox="0 0 92710 184150" preserveAspectRatio="xMidYMid" fill-rule="evenodd" stroke-width="28.222" stroke-linejoin="round" xmlns="http://www.w3.org/2000/svg" xmlns:ooo="http://xml.openoffice.org/svg/export" xmlns:xlink="http://www.w3.org/1999/xlink" xmlns:presentation="http://sun.com/xmlns/staroffice/presentation" xmlns:smil="http://www.w3.org/2001/SMIL20/" xmlns:anim="urn:oasis:names:tc:opendocument:xmlns:animation:1.0" xml:space="preserve">
 <defs class="ClipPathGroup">
  <clipPath id="presentation_clip_path" clipPathUnits="userSpaceOnUse">
   <rect x="0" y="0" width="92710" height="184150"/>
  </clipPath>
 </defs>
 <defs class="TextShapeIndex">
  <g ooo:slide="id1" ooo:id-list="id3 id4 id5 id6 id7 id8 id9 id10 id11 id12 id13 id14 id15 id16 id17 id18 id19 id20 id21 id22 id23 id24 id25 id26 id27 id28 id29 id30 id31 id32 id33 id34 id35 id36 id37 id38 id39 id40 id41 id42 id43 id44 id45 id46 id47 id48 id49 id50 id51 id52 id53 id54 id55 id56 id57 id58 id59 id60 id61 id62 id63 id64 id65 id66 id67 id68 id69 id70 id71 id72 id73 id74 id75 id76 id77 id78 id79 id80 id81 id82 id83 id84"/>
 </defs>
 <defs class="EmbeddedBulletChars">
  <g id="bullet-char-template(57356)" transform="scale(0.00048828125,-0.00048828125)">
   <path d="M 580,1141 L 1163,571 580,0 -4,571 580,1141 Z"/>
  </g>
  <g id="bullet-char-template(57354)" transform="scale(0.00048828125,-0.00048828125)">
   <path d="M 8,1128 L 1137,1128 1137,0 8,0 8,1128 Z"/>
  </g>
  <g id="bullet-char-template(10146)" transform="scale(0.00048828125,-0.00048828125)">
   <path d="M 174,0 L 602,739 174,1481 1456,739 174,0 Z M 1358,739 L 309,1346 659,739 1358,739 Z"/>
  </g>
  <g id="bullet-char-template(10132)" transform="scale(0.00048828125,-0.00048828125)">
   <path d="M 2015,739 L 1276,0 717,0 1260,543 174,543 174,936 1260,936 717,1481 1274,1481 2015,739 Z"/>
  </g>
  <g id="bullet-char-template(10007)" transform="scale(0.00048828125,-0.00048828125)">
   <path d="M 0,-2 C -7,14 -16,27 -25,37 L 356,567 C 262,823 215,952 215,954 215,979 228,992 255,992 264,992 276,990 289,987 310,991 331,999 354,1012 L 381,999 492,748 772,1049 836,1024 860,1049 C 881,1039 901,1025 922,1006 886,937 835,863 770,784 769,783 710,716 594,584 L 774,223 C 774,196 753,168 711,139 L 727,119 C 717,90 699,76 672,76 641,76 570,178 457,381 L 164,-76 C 142,-110 111,-127 72,-127 30,-127 9,-110 8,-76 1,-67 -2,-52 -2,-32 -2,-23 -1,-13 0,-2 Z"/>
  </g>
  <g id="bullet-char-template(10004)" transform="scale(0.00048828125,-0.00048828125)">
   <path d="M 285,-33 C 182,-33 111,30 74,156 52,228 41,333 41,471 41,549 55,616 82,672 116,743 169,778 240,778 293,778 328,747 346,684 L 369,508 C 377,444 397,411 428,410 L 1163,1116 C 1174,1127 1196,1133 1229,1133 1271,1133 1292,1118 1292,1087 L 1292,965 C 1292,929 1282,901 1262,881 L 442,47 C 390,-6 338,-33 285,-33 Z"/>
  </g>
  <g id="bullet-char-template(9679)" transform="scale(0.00048828125,-0.00048828125)">
   <path d="M 813,0 C 632,0 489,54 383,161 276,268 223,411 223,592 223,773 276,916 383,1023 489,1130 632,1184 813,1184 992,1184 1136,1130 1245,1023 1353,916 1407,772 1407,592 1407,412 1353,268 1245,161 1136,54 992,0 813,0 Z"/>
  </g>
  <g id="bullet-char-template(8226)" transform="scale(0.00048828125,-0.00048828125)">
   <path d="M 346,457 C 273,457 209,483 155,535 101,586 74,649 74,723 74,796 101,859 155,911 209,963 273,989 346,989 419,989 480,963 531,910 582,859 608,796 608,723 608,648 583,586 532,535 482,483 420,457 346,457 Z"/>
  </g>
  <g id="bullet-char-template(8211)" transform="scale(0.00048828125,-0.00048828125)">
   <path d="M -4,459 L 1135,459 1135,606 -4,606 -4,459 Z"/>
  </g>
 </defs>
 <defs class="TextEmbeddedBitmaps"/>
 <g>
  <g id="id2" class="Master_Slide">
   <g id="bg-id2" class="Background"/>
   <g id="bo-id2" class="BackgroundObjects"/>
  </g>
 </g>
 <g class="SlideGroup">
  <g>
   <g id="id1" class="Slide" clip-path="url(#presentation_clip_path)">
    <g class="Page">
     <g class="com.sun.star.drawing.PolyPolygonShape">
      <g id="id3">
       <rect class="BoundingBox" stroke="none" fill="none" x="-18" y="-18" width="92747" height="184187"/>
       <path fill="rgb(240,248,209)" stroke="none" d="M 92710,184150 L 0,184150 0,0 92710,0 92710,184150 Z"/>
       <path fill="none" stroke="rgb(35,31,32)" stroke-width="35" stroke-linejoin="miter" d="M 92710,184150 L 0,184150 0,0 92710,0 92710,184150 Z"/>
      </g>
     </g>
     <g class="com.sun.star.drawing.ClosedBezierShape">
      <g id="id4">
       <rect class="BoundingBox" stroke="none" fill="none" x="67858" y="18691" width="9793" height="12726"/>
       <path fill="rgb(219,239,155)" stroke="none" d="M 70156,29201 C 70486,29027 70857,29291 71203,29292 71665,30506 72838,30373 73670,30962 73975,29638 72064,28064 71090,29094 70875,28985 70665,28918 70459,28903 70976,27890 71516,28114 72437,27832 73263,27579 74139,27250 74852,26870 75184,26692 75737,25894 75964,25107 75096,25061 74358,25397 73757,26256 73538,26570 73442,27005 73230,27213 72658,27778 72012,27599 71307,27856 72125,26638 73055,25499 73524,24225 74232,23989 74928,24251 75639,24141 76398,24024 76891,23560 77650,22909 76536,22418 75498,22774 74532,23899 74276,24021 73992,23841 73733,23937 73570,22743 74822,21563 74818,20331 74816,19757 74570,19165 74385,18692 73260,20019 73782,21610 73553,23009 73221,22198 72446,20193 71094,20388 71012,20469 71070,20532 71019,20608 71321,21759 72634,22129 73118,22900 73824,24025 72457,25446 71594,26873 71575,25432 72228,23636 70912,22520 70732,23484 70510,24459 70890,25371 70998,25631 71298,25832 71382,26106 71724,27212 70686,27883 70034,28899 69892,28616 70012,28303 69999,28005 71190,26731 70574,25315 70163,24135 68753,25793 70225,27574 69740,29302 69143,30024 68294,30645 67858,31416 68667,31147 69405,30110 70156,29201 Z"/>
      </g>
     </g>
     <g class="com.sun.star.drawing.ClosedBezierShape">
      <g id="id5">
       <rect class="BoundingBox" stroke="none" fill="none" x="35189" y="3356" width="9569" height="6597"/>
       <path fill="rgb(219,239,155)" stroke="none" d="M 41231,5073 C 40648,5479 40047,5767 39467,6197 38963,6170 38444,6047 37949,6077 38811,5141 40086,4899 41231,5073 Z M 40051,7488 C 40088,6962 40412,6383 40349,5875 40673,5648 41014,5541 41335,5294 41080,5910 40560,6804 40051,7488 Z M 38814,8555 C 38788,8013 38979,7432 38823,6915 39229,6523 39672,6371 40082,6004 40175,6871 39666,8171 38814,8555 Z M 37318,9070 C 37415,8169 37838,7335 38625,7031 38646,7534 38812,8283 38478,8696 38198,9042 37676,8892 37318,9070 Z M 36094,9255 C 36354,8753 36961,8507 37337,7988 37298,8334 37306,8807 37097,9030 36843,9303 36366,9032 36094,9255 Z M 36554,7772 C 36870,7572 37228,7651 37546,7469 37206,7990 36542,8410 36077,8899 36088,8576 36381,7991 36554,7772 Z M 39061,6352 C 38497,7131 37538,7331 36758,7455 37222,5997 38249,6258 39061,6352 Z M 40351,4422 C 38170,4472 35951,6748 35189,9887 37352,10218 39296,9265 40892,7119 41608,6156 41659,5234 42432,4718 43193,4212 44104,3967 44757,3356 L 44271,3357 C 43476,4119 42511,4667 41893,4698 41353,4724 40855,4411 40351,4422 Z"/>
      </g>
     </g>
     <g class="com.sun.star.drawing.ClosedBezierShape">
      <g id="id6">
       <rect class="BoundingBox" stroke="none" fill="none" x="62832" y="43444" width="6252" height="10240"/>
       <path fill="rgb(219,239,155)" stroke="none" d="M 64217,49400 C 64259,48529 65516,47491 65906,46932 66418,48468 66171,49703 65458,50966 64737,50824 64184,50074 64217,49400 Z M 66400,46561 C 66679,46043 67252,45727 67592,45250 67657,46112 66901,47091 66646,47994 66410,47724 66506,47006 66400,46561 Z M 68448,46552 C 68249,47020 67764,47291 67411,47653 67584,46877 67954,45553 68424,44719 68352,45274 68363,45887 68448,46552 Z M 66447,50225 C 66528,49202 67159,47874 68358,47358 68477,48835 67799,49762 66447,50225 Z M 65406,52114 C 65572,51070 66375,50466 67500,50082 66958,50867 66773,51898 65406,52114 Z M 63831,50109 C 64094,50769 64680,50993 65131,51400 65001,51902 64807,52360 64578,52794 L 64899,53114 C 65032,52912 65149,52706 65166,52530 65642,52488 65903,52300 66193,52131 65925,52595 65523,52967 65131,53346 L 65468,53683 C 68121,51181 69888,47870 68711,43444 66255,45722 63449,47776 62832,51049 L 63447,51664 C 63506,51062 63637,50495 63831,50109 Z"/>
      </g>
     </g>
     <g class="com.sun.star.drawing.ClosedBezierShape">
      <g id="id7">
       <rect class="BoundingBox" stroke="none" fill="none" x="46183" y="29396" width="6298" height="9926"/>
       <path fill="rgb(219,239,155)" stroke="none" d="M 46976,38952 C 47820,34966 51040,32721 52479,29396 L 51750,29396 C 50215,32467 46960,34806 46183,39118 46336,39516 46911,39257 46976,38952 Z"/>
      </g>
     </g>
     <g class="com.sun.star.drawing.ClosedBezierShape">
      <g id="id8">
       <rect class="BoundingBox" stroke="none" fill="none" x="59759" y="69097" width="242" height="252"/>
       <path fill="rgb(219,239,155)" stroke="none" d="M 59917,69146 C 59866,69214 59811,69279 59759,69347 59845,69262 59928,69179 60000,69097 59972,69113 59944,69130 59917,69146 Z"/>
      </g>
     </g>
     <g class="com.sun.star.drawing.ClosedBezierShape">
      <g id="id9">
       <rect class="BoundingBox" stroke="none" fill="none" x="10438" y="15101" width="2307" height="678"/>
       <path fill="rgb(219,239,155)" stroke="none" d="M 12744,15444 C 12605,15323 12467,15211 12329,15101 L 10438,15102 C 11223,15585 12068,16153 12744,15444 Z"/>
      </g>
     </g>
     <g class="com.sun.star.drawing.ClosedBezierShape">
      <g id="id10">
       <rect class="BoundingBox" stroke="none" fill="none" x="35558" y="30313" width="1336" height="1445"/>
       <path fill="rgb(219,239,155)" stroke="none" d="M 36892,31035 C 36891,30073 35557,30074 35558,31036 35558,31997 36892,31997 36892,31035 Z"/>
      </g>
     </g>
     <g class="com.sun.star.drawing.ClosedBezierShape">
      <g id="id11">
       <rect class="BoundingBox" stroke="none" fill="none" x="44761" y="22493" width="2520" height="2984"/>
       <path fill="rgb(219,239,155)" stroke="none" d="M 46941,23984 C 46941,23984 47685,23011 46964,22566 46215,22105 44761,23985 44761,23985 44761,23985 46217,25864 46966,25403 47686,24956 46941,23984 46941,23984 Z"/>
      </g>
     </g>
     <g class="com.sun.star.drawing.ClosedBezierShape">
      <g id="id12">
       <rect class="BoundingBox" stroke="none" fill="none" x="13350" y="8182" width="2521" height="2983"/>
       <path fill="rgb(219,239,155)" stroke="none" d="M 15530,9672 C 15530,9672 16275,8700 15554,8255 14806,7794 13350,9674 13350,9674 13350,9674 14808,11553 15555,11091 16276,10646 15530,9672 15530,9672 Z"/>
      </g>
     </g>
     <g class="com.sun.star.drawing.ClosedBezierShape">
      <g id="id13">
       <rect class="BoundingBox" stroke="none" fill="none" x="12469" y="22341" width="2520" height="2983"/>
       <path fill="rgb(219,239,155)" stroke="none" d="M 14649,23832 C 14649,23832 15393,22859 14672,22414 13924,21953 12469,23833 12469,23833 12469,23833 13926,25712 14674,25249 15394,24804 14649,23832 14649,23832 Z"/>
      </g>
     </g>
     <g class="com.sun.star.drawing.ClosedBezierShape">
      <g id="id14">
       <rect class="BoundingBox" stroke="none" fill="none" x="60378" y="7535" width="2521" height="2983"/>
       <path fill="rgb(219,239,155)" stroke="none" d="M 62558,9026 C 62558,9026 63303,8053 62582,7608 61834,7147 60378,9027 60378,9027 60378,9027 61836,10906 62583,10444 63304,9998 62558,9026 62558,9026 Z"/>
      </g>
     </g>
     <g class="com.sun.star.drawing.ClosedBezierShape">
      <g id="id15">
       <rect class="BoundingBox" stroke="none" fill="none" x="52027" y="21761" width="1003" height="1084"/>
       <path fill="rgb(219,239,155)" stroke="none" d="M 53028,22302 C 53028,21580 52027,21580 52027,22303 52028,23023 53029,23023 53028,22302 Z"/>
      </g>
     </g>
     <g class="com.sun.star.drawing.ClosedBezierShape">
      <g id="id16">
       <rect class="BoundingBox" stroke="none" fill="none" x="77398" y="26534" width="2521" height="2984"/>
       <path fill="rgb(219,239,155)" stroke="none" d="M 79578,28025 C 79578,28025 80323,27053 79602,26608 78853,26147 77398,28027 77398,28027 77398,28027 78855,29906 79604,29444 80324,28999 79578,28025 79578,28025 Z"/>
      </g>
     </g>
     <g class="com.sun.star.drawing.ClosedBezierShape">
      <g id="id17">
       <rect class="BoundingBox" stroke="none" fill="none" x="81342" y="37671" width="2521" height="2984"/>
       <path fill="rgb(219,239,155)" stroke="none" d="M 83523,39163 C 83523,39163 84267,38190 83547,37745 82798,37285 81343,39164 81343,39164 81343,39164 82800,41043 83548,40581 84268,40135 83523,39163 83523,39163 Z"/>
      </g>
     </g>
     <g class="com.sun.star.drawing.ClosedBezierShape">
      <g id="id18">
       <rect class="BoundingBox" stroke="none" fill="none" x="4749" y="15749" width="1542" height="1668"/>
       <path fill="rgb(219,239,155)" stroke="none" d="M 6289,16582 C 6288,15471 4748,15472 4749,16583 4749,17693 6290,17693 6289,16582 Z"/>
      </g>
     </g>
     <g class="com.sun.star.drawing.ClosedBezierShape">
      <g id="id19">
       <rect class="BoundingBox" stroke="none" fill="none" x="38813" y="15855" width="1543" height="1668"/>
       <path fill="rgb(219,239,155)" stroke="none" d="M 40355,16688 C 40354,15578 38814,15579 38814,16689 38815,17800 40355,17799 40355,16688 Z"/>
      </g>
     </g>
     <g class="com.sun.star.drawing.ClosedBezierShape">
      <g id="id20">
       <rect class="BoundingBox" stroke="none" fill="none" x="59316" y="17450" width="1542" height="1667"/>
       <path fill="rgb(219,239,155)" stroke="none" d="M 60856,18283 C 60855,17172 59315,17173 59316,18283 59316,19394 60857,19393 60856,18283 Z"/>
      </g>
     </g>
     <g class="com.sun.star.drawing.ClosedBezierShape">
      <g id="id21">
       <rect class="BoundingBox" stroke="none" fill="none" x="48830" y="17674" width="1003" height="1084"/>
       <path fill="rgb(219,239,155)" stroke="none" d="M 49831,18215 C 49831,17493 48830,17493 48830,18216 48831,18937 49832,18936 49831,18215 Z"/>
      </g>
     </g>
     <g class="com.sun.star.drawing.ClosedBezierShape">
      <g id="id22">
       <rect class="BoundingBox" stroke="none" fill="none" x="9123" y="33277" width="1004" height="1083"/>
       <path fill="rgb(219,239,155)" stroke="none" d="M 10125,33817 C 10125,33096 9124,33097 9124,33818 9124,34539 10126,34539 10125,33817 Z"/>
      </g>
     </g>
     <g class="com.sun.star.drawing.ClosedBezierShape">
      <g id="id23">
       <rect class="BoundingBox" stroke="none" fill="none" x="20054" y="24835" width="9079" height="10960"/>
       <path fill="rgb(219,239,155)" stroke="none" d="M 21292,33750 L 21984,33689 C 21984,33689 21982,33621 21950,33545 21918,33469 21831,33405 21831,33405 21831,33405 21874,33243 21939,33210 22004,33178 22101,33210 22177,33243 22252,33275 22328,33188 22490,33124 22651,33059 22879,33156 22879,33156 23168,32809 22877,31856 22857,31202 22857,31202 22597,31439 22543,31483 22489,31526 22251,31807 22251,31807 22251,31807 22187,32152 22122,32239 22057,32325 21313,33254 21313,33254 21313,33254 21237,33416 21259,33513 21281,33610 21292,33750 21292,33750 Z M 24768,24835 C 24768,24835 25036,24893 25050,25006 25064,25119 24994,25217 24994,25217 24994,25217 25332,25429 25332,25584 25332,25739 25290,25767 25290,25767 25290,25767 25515,26049 25516,26190 25516,26331 25530,26979 25530,26979 25530,26979 25544,27374 25573,27530 25601,27685 25728,28221 25841,28390 25954,28559 26089,28683 26332,28771 26575,28859 26740,28926 26884,29069 27027,29212 27005,29687 27160,29940 27314,30194 27414,30415 27502,30547 27590,30679 27657,31109 27657,31109 27657,31109 27902,31578 28048,31824 28194,32071 28486,33047 28486,33047 28486,33047 28721,33305 28789,33417 28856,33529 28969,33877 29058,33944 29148,34011 29159,34325 29070,34471 28980,34617 29175,34599 29080,35127 28985,35655 28038,35709 28038,35709 28038,35709 27574,35702 27286,35762 26999,35821 26712,35782 26622,35772 26533,35762 26177,35792 26018,35792 25859,35792 24120,35504 23972,35464 23933,35454 22207,35670 21666,35670 21625,35670 20588,35781 20344,35408 20103,35038 20095,34941 20054,34810 L 20240,34476 C 20150,34330 20162,34016 20251,33949 20341,33881 20453,33533 20520,33421 20587,33309 20823,33051 20823,33051 20823,33051 21114,32075 21260,31828 21405,31581 21650,31112 21650,31112 21650,31112 21716,30682 21804,30550 21892,30417 21991,30197 22146,29943 22300,29689 22278,29215 22421,29071 22564,28928 22731,28861 22974,28773 23216,28685 23351,28560 23464,28391 23577,28222 23703,27686 23731,27531 23760,27375 23773,26980 23773,26980 23773,26980 23787,26332 23787,26191 23787,26050 24012,25768 24012,25768 24012,25768 23970,25740 23970,25584 23970,25429 24308,25218 24308,25218 24308,25218 24238,25119 24252,25006 24266,24894 24534,24835 24534,24835 24612,24835 24690,24835 24768,24835 Z M 28014,33747 C 28014,33747 28025,33607 28047,33509 28068,33412 27992,33250 27992,33250 27992,33250 27247,32322 27182,32236 27117,32150 27053,31804 27053,31804 27053,31804 26815,31524 26761,31481 26707,31437 26448,31200 26448,31200 26428,31854 26137,32808 26427,33154 26427,33154 26654,33057 26816,33121 26978,33186 27053,33273 27129,33240 27204,33208 27302,33175 27366,33208 27431,33240 27474,33402 27474,33402 27474,33402 27388,33467 27356,33542 27323,33618 27302,33834 27302,33834 L 28014,33747 Z"/>
      </g>
     </g>
     <g class="com.sun.star.drawing.ClosedBezierShape">
      <g id="id24">
       <rect class="BoundingBox" stroke="none" fill="none" x="75363" y="70242" width="13670" height="8888"/>
       <path fill="rgb(219,239,155)" stroke="none" d="M 84904,77624 L 84866,77525 86145,77373 C 86145,77373 86572,77397 86730,77282 86889,77167 87076,77282 87076,77282 87076,77282 86983,77432 86996,77604 87008,77775 86669,77826 86669,77826 86669,77826 86069,77668 85799,77650 85528,77632 84904,77624 84904,77624 Z M 84240,77638 C 84240,77638 82167,77734 81778,77739 81390,77745 79651,77816 79577,77851 79504,77886 78684,77972 78625,77979 78565,77987 78552,77608 78552,77608 L 78652,77439 79321,77252 79716,77020 C 79716,77020 81470,77285 81907,77247 82343,77210 82540,77263 82540,77263 L 84260,77523 84240,77638 Z M 84387,77453 L 84380,77498 84767,77563 C 84767,77563 84654,77768 84655,77845 84656,77923 84576,78245 84530,78294 84484,78343 84590,78425 84570,78479 84551,78533 84362,78747 84362,78747 L 84289,79129 C 84289,79129 84095,79032 84030,78997 83965,78962 83898,78771 83943,78722 83989,78673 84054,78431 84081,78367 84107,78303 84086,78272 84019,78219 83952,78167 84028,78019 84028,78019 84028,78019 84183,77939 84260,77869 84338,77799 84387,77453 84387,77453 Z M 80247,76229 L 81153,76391 80920,75468 C 80920,75468 80554,75311 80438,75258 80321,75205 80196,75085 80196,75085 L 79917,75078 C 79917,75078 79997,75517 80060,75619 80124,75721 80239,76312 80247,76229 Z M 82555,73999 C 82555,73999 83081,73029 83261,72780 83441,72532 84169,71973 84345,71816 84521,71658 85137,70677 85137,70677 85137,70677 85192,70399 85060,70310 84929,70221 84495,70245 84495,70245 84495,70245 84430,70690 84365,70894 84301,71098 83444,71838 83409,71918 83374,71998 82479,72668 82479,72668 L 82008,73600 81886,73947 82555,73999 Z M 79334,77146 C 79334,77146 78541,77426 78298,77532 78055,77638 77434,77852 77303,77883 77171,77915 76711,77731 76711,77731 L 76919,77585 C 76919,77585 77456,77668 77836,77455 78216,77241 78621,77100 78621,77100 L 79127,76918 79561,77027 79334,77146 Z M 84906,76643 C 84908,76736 83919,75983 83632,75853 83344,75724 82592,75495 82623,75376 82654,75258 81447,75132 81373,75142 81299,75151 80346,75120 80346,75120 80346,75120 81095,75448 81225,75523 81355,75597 81557,75767 81657,75845 81757,75923 82076,76064 82076,76064 82076,76064 82566,76243 82725,76314 82885,76384 83437,76586 83437,76586 L 84906,76643 Z M 84393,74597 C 84366,74683 85646,73536 85878,73341 86109,73146 87042,72532 87042,72532 87042,72532 87231,72237 86999,72070 86767,71903 86550,72096 86550,72096 86550,72096 84749,73588 84524,73722 84300,73855 83783,74297 83783,74297 L 84393,74597 Z M 87906,72574 C 88034,72597 87795,72648 87661,72545 87527,72441 87498,72230 87498,72230 L 87906,72574 Z M 86396,75189 L 87153,75577 C 87153,75577 87258,74976 87336,74875 87414,74775 87654,74052 87719,73969 87784,73885 88004,73481 88004,73481 88004,73481 88247,73375 88321,73366 88396,73356 88524,73416 88616,73434 88709,73453 88960,73647 88960,73647 L 89031,73367 C 89031,73367 88811,73063 88594,73015 88377,72967 87878,73316 87878,73316 87878,73316 87989,72880 88048,72511 88108,72142 87609,72129 87609,72129 87609,72129 87197,72452 86873,73110 86549,73769 86396,75189 86396,75189 Z M 86871,76456 C 86897,76355 85961,76646 85531,76700 85101,76754 84060,76749 83619,76714 83178,76679 81546,76401 81153,76391 80760,76380 80024,76276 79844,76284 79664,76291 78995,76360 78609,76408 78223,76457 78129,76424 78129,76424 78129,76424 77992,76893 78324,76896 78656,76900 79624,76929 79929,76966 80235,77003 81789,77139 82075,77134 82360,77128 83314,77400 83708,77426 84103,77451 85147,77486 85470,77416 85792,77345 86794,77159 86794,77159 86794,77159 87322,76807 87416,76719 87511,76632 87507,76361 87507,76361 L 86871,76456 Z M 80098,76146 C 80098,76146 78824,75477 78419,75377 78015,75277 78074,75269 77614,74845 77154,74421 76859,73991 76806,73922 76752,73853 76468,73874 76344,73965 76220,74056 76246,74263 76246,74263 76246,74263 76502,74382 76606,74489 76710,74597 76763,74907 76763,74907 76763,74907 76318,74601 76092,74358 75866,74115 75675,73913 75541,73930 75408,73947 75232,74104 75512,74295 75792,74486 75999,74701 76116,74792 76233,74883 76487,74986 76502,75105 76517,75224 76601,75409 76601,75409 76601,75409 77101,75437 77416,75669 77732,75901 78149,76225 78149,76225 L 78444,76294 C 78444,76294 78774,76162 79134,76147 79493,76132 80098,76146 80098,76146 Z M 87153,76421 C 87153,76421 82701,75276 82061,75100 81421,74925 79443,75007 79370,75031 79298,75055 78851,74976 78714,74722 78577,74468 78599,74164 78741,74101 78884,74038 79303,74015 79303,74015 79303,74015 81732,73921 82919,74255 84106,74588 86253,75252 86771,75535 87288,75816 87611,76107 87611,76107 87611,76107 87555,76265 87507,76361 87459,76458 87153,76421 87153,76421 Z"/>
      </g>
     </g>
     <g class="com.sun.star.drawing.ClosedBezierShape">
      <g id="id25">
       <rect class="BoundingBox" stroke="none" fill="none" x="10370" y="65691" width="11000" height="7311"/>
       <path fill="rgb(219,239,155)" stroke="none" d="M 21348,68792 C 21115,70164 18752,71243 15869,71245 12987,71246 10623,70170 10389,68797 10376,68904 10370,69012 10370,69121 10371,71265 12833,73001 15870,73000 18908,72998 21369,71260 21368,69116 21368,69007 21361,68898 21348,68792 Z M 15867,67156 C 13260,67157 11147,67935 11147,68894 11148,69853 13262,70629 15869,70628 18477,70627 20590,69848 20590,68889 20589,67930 18475,67154 15867,67156 Z M 15866,65692 C 18798,65691 21174,66886 21175,68362 21175,69839 18800,71037 15869,71038 12939,71039 10563,69844 10562,68367 10561,66891 12936,65694 15866,65692 Z"/>
      </g>
     </g>
     <g class="com.sun.star.drawing.ClosedBezierShape">
      <g id="id26">
       <rect class="BoundingBox" stroke="none" fill="none" x="73686" y="5295" width="13441" height="8629"/>
       <path fill="rgb(219,239,155)" stroke="none" d="M 83248,10644 C 83248,10644 83543,10604 83834,10439 84125,10274 84981,10092 84981,10092 84981,10092 85163,9921 85305,9454 85447,8988 85759,7978 85759,7978 85759,7978 85474,7966 84917,8163 84360,8360 83737,8833 83737,8833 83737,8833 83700,9031 83594,9600 83487,10169 83248,10644 83248,10644 Z M 80073,13561 C 83586,14451 84612,13721 86314,11123 86744,10467 87126,10101 87126,10101 87126,10101 85269,9916 83524,10861 81779,11805 80073,13561 80073,13561 Z M 79785,13218 C 79785,13218 79709,11743 80776,9942 81843,8140 83427,7328 83427,7328 83427,7328 83593,8468 83365,9398 83137,10329 82470,11150 82470,11150 82470,11150 81619,11505 80702,12361 L 79785,13218 Z M 79485,8115 C 79617,7542 79876,6817 80259,6259 80641,5700 81050,5295 81050,5295 81050,5295 81447,6444 81506,7122 81564,7800 81515,8161 81515,8161 80962,8892 80415,9533 80095,10305 80010,9568 79859,8852 79485,8115 Z M 77107,9497 C 77107,9497 77056,8967 77162,8398 77269,7829 77306,7630 77306,7630 77306,7630 76896,6965 76448,6580 75999,6195 75729,6103 75729,6103 75729,6103 75655,7157 75619,7644 75583,8130 75691,8355 75691,8355 75691,8355 76423,8835 76635,9093 76847,9352 77107,9497 77107,9497 Z M 79015,13364 C 75418,12923 74724,11872 74075,8836 73910,8068 73686,7589 73686,7589 73686,7589 75486,8088 76772,9599 78057,11109 79015,13364 79015,13364 Z M 79407,13147 C 79407,13147 80010,11799 79666,9734 79322,7669 78138,6339 78138,6339 78138,6339 77572,7342 77448,8292 77325,9242 77650,10249 77650,10249 77650,10249 78315,10887 78861,12017 L 79407,13147 Z"/>
      </g>
     </g>
     <g class="com.sun.star.drawing.ClosedBezierShape">
      <g id="id27">
       <rect class="BoundingBox" stroke="none" fill="none" x="21603" y="6834" width="8446" height="8095"/>
       <path fill="rgb(219,239,155)" stroke="none" d="M 26111,11151 C 26111,11151 26809,11151 28154,11793 29499,12435 29311,12988 29031,13415 28751,13842 28567,13525 28410,13597 28254,13669 28473,13900 28254,14301 28035,14702 27331,14611 26947,14033 26564,13454 26111,11151 26111,11151 Z M 25461,11036 C 25461,11036 25142,11657 23957,12561 22772,13464 22366,13045 22114,12601 21862,12157 22229,12137 22236,11965 22243,11793 21938,11882 21681,11504 21425,11125 21827,10541 22517,10464 23206,10387 25461,11036 25461,11036 Z M 25736,11272 C 25736,11272 26071,11884 26154,13373 26237,14861 25662,14962 25153,14921 24644,14881 24834,14567 24696,14464 24557,14362 24460,14665 24003,14665 23546,14665 23287,14005 23611,13390 23934,12776 25736,11272 25736,11272 Z M 25880,10513 C 25880,10513 25504,9925 25320,8447 25136,6968 25703,6828 26213,6834 26723,6840 26556,7166 26700,7259 26845,7351 26922,7042 27378,7011 27834,6980 28137,7621 27856,8256 27575,8891 25880,10513 25880,10513 Z M 25514,10660 C 25514,10660 24905,8394 24483,7843 24061,7292 23353,7250 23162,7665 22970,8080 23204,8295 23053,8378 22903,8460 22697,8156 22447,8601 22197,9046 22047,9611 23433,10159 24818,10708 25514,10660 25514,10660 Z M 26185,10763 C 26185,10763 28421,11472 29113,11413 29806,11354 30223,10781 29977,10396 29730,10011 29421,10092 29433,9920 29445,9749 29813,9739 29573,9289 29332,8838 28937,8408 27728,9280 26519,10151 26185,10763 26185,10763 Z"/>
      </g>
     </g>
     <g class="com.sun.star.drawing.ClosedBezierShape">
      <g id="id28">
       <rect class="BoundingBox" stroke="none" fill="none" x="74592" y="37353" width="1543" height="1668"/>
       <path fill="rgb(219,239,155)" stroke="none" d="M 76133,38186 C 76133,37075 74592,37076 74593,38187 74593,39297 76134,39297 76133,38186 Z"/>
      </g>
     </g>
     <g class="com.sun.star.drawing.ClosedBezierShape">
      <g id="id29">
       <rect class="BoundingBox" stroke="none" fill="none" x="5957" y="55567" width="1543" height="1668"/>
       <path fill="rgb(219,239,155)" stroke="none" d="M 7499,56400 C 7498,55289 5958,55290 5958,56401 5959,57511 7499,57511 7499,56400 Z"/>
      </g>
     </g>
     <g class="com.sun.star.drawing.ClosedBezierShape">
      <g id="id30">
       <rect class="BoundingBox" stroke="none" fill="none" x="5033" y="26157" width="1542" height="1668"/>
       <path fill="rgb(219,239,155)" stroke="none" d="M 6573,26990 C 6573,25881 5032,25881 5033,26991 5034,28102 6574,28101 6573,26990 Z"/>
      </g>
     </g>
     <g class="com.sun.star.drawing.ClosedBezierShape">
      <g id="id31">
       <rect class="BoundingBox" stroke="none" fill="none" x="4250" y="39603" width="2480" height="7742"/>
       <path fill="rgb(219,239,155)" stroke="none" d="M 5792,42114 C 5695,42591 5533,43016 5449,43502 5186,43726 4872,43909 4640,44158 4626,43288 5143,42568 5792,42114 Z M 6346,43866 C 6116,43588 6004,43149 5733,42927 5787,42663 5905,42448 5948,42174 6111,42600 6277,43288 6346,43866 Z M 6237,44976 C 5968,44721 5788,44343 5468,44161 5484,43775 5632,43492 5662,43117 6117,43502 6477,44386 6237,44976 Z M 5738,45936 C 5361,45445 5178,44833 5425,44312 5672,44550 6107,44843 6136,45205 6160,45508 5831,45680 5738,45936 Z M 5219,46604 C 5112,46234 5296,45826 5237,45392 5381,45582 5608,45812 5610,46021 5612,46275 5248,46366 5219,46604 Z M 4749,45653 C 4811,45406 5025,45277 5097,45037 5174,45455 5043,45975 5043,46436 4896,46271 4766,45844 4749,45653 Z M 5320,43770 C 5408,44422 5028,44972 4700,45401 4243,44461 4874,44106 5320,43770 Z M 5050,42206 C 3994,43259 3967,45431 5069,47344 6296,46488 6810,45101 6589,43287 6490,42473 6080,41992 6221,41373 6358,40764 6694,40213 6729,39604 L 6489,39833 C 6454,40584 6236,41310 5943,41616 5688,41884 5294,41963 5050,42206 Z"/>
      </g>
     </g>
     <g class="com.sun.star.drawing.ClosedBezierShape">
      <g id="id32">
       <rect class="BoundingBox" stroke="none" fill="none" x="51415" y="54192" width="2983" height="2522"/>
       <path fill="rgb(219,239,155)" stroke="none" d="M 52906,54532 C 52906,54532 51933,53787 51488,54509 51027,55257 52907,56712 52907,56712 52907,56712 54786,55255 54324,54507 53879,53786 52906,54532 52906,54532 Z"/>
      </g>
     </g>
     <g class="com.sun.star.drawing.ClosedBezierShape">
      <g id="id33">
       <rect class="BoundingBox" stroke="none" fill="none" x="38581" y="46045" width="2984" height="2521"/>
       <path fill="rgb(219,239,155)" stroke="none" d="M 40072,46385 C 40072,46385 39100,45641 38655,46361 38194,47111 40073,48565 40073,48565 40073,48565 41953,47109 41491,46360 41045,45640 40072,46385 40072,46385 Z"/>
      </g>
     </g>
     <g class="com.sun.star.drawing.ClosedBezierShape">
      <g id="id34">
       <rect class="BoundingBox" stroke="none" fill="none" x="46770" y="59424" width="1542" height="1668"/>
       <path fill="rgb(219,239,155)" stroke="none" d="M 48310,60256 C 48310,59147 46769,59148 46770,60257 46770,61368 48311,61367 48310,60256 Z"/>
      </g>
     </g>
     <g class="com.sun.star.drawing.ClosedBezierShape">
      <g id="id35">
       <rect class="BoundingBox" stroke="none" fill="none" x="81342" y="50433" width="2521" height="2984"/>
       <path fill="rgb(219,239,155)" stroke="none" d="M 83523,51925 C 83523,51925 84267,50952 83547,50507 82798,50047 81343,51926 81343,51926 81343,51926 82800,53805 83548,53343 84268,52898 83523,51925 83523,51925 Z"/>
      </g>
     </g>
     <g class="com.sun.star.drawing.ClosedBezierShape">
      <g id="id36">
       <rect class="BoundingBox" stroke="none" fill="none" x="58972" y="37902" width="2985" height="2521"/>
       <path fill="rgb(219,239,155)" stroke="none" d="M 60464,38242 C 60464,38242 59492,37498 59046,38218 58586,38967 60465,40422 60465,40422 60465,40422 62344,38965 61883,38217 61437,37497 60464,38242 60464,38242 Z"/>
      </g>
     </g>
     <g class="com.sun.star.drawing.ClosedBezierShape">
      <g id="id37">
       <rect class="BoundingBox" stroke="none" fill="none" x="79146" y="43473" width="1542" height="1666"/>
       <path fill="rgb(219,239,155)" stroke="none" d="M 80687,44305 C 80686,43195 79146,43196 79146,44306 79147,45415 80687,45415 80687,44305 Z"/>
      </g>
     </g>
     <g class="com.sun.star.drawing.ClosedBezierShape">
      <g id="id38">
       <rect class="BoundingBox" stroke="none" fill="none" x="74098" y="52465" width="12473" height="10972"/>
       <path fill="rgb(219,239,155)" stroke="none" d="M 81136,61218 C 80049,60651 78754,59825 77468,61144 77187,61108 76884,61228 76627,61042 77631,60341 78337,59162 79358,59642 79611,59761 79780,60128 80018,60274 80854,60786 81791,60591 82714,60446 81750,58814 80007,59461 78648,59338 80056,58419 81494,56905 82507,57815 83202,58439 83461,60015 84528,60451 84603,60396 84659,60470 84741,60379 85018,58794 83178,57742 82435,57294 83772,57121 85239,57846 86570,56611 86136,56359 85594,56028 85052,55986 83889,55897 82687,57292 81570,57018 81679,56719 81528,56372 81662,56078 82791,55015 83199,53815 82813,52465 82145,53316 81672,53866 81509,54753 81356,55585 81556,56425 81283,57245 80047,57709 78907,58728 77699,59610 77991,58795 77866,58020 78439,57384 78650,57149 79068,57066 79380,56829 80233,56179 80602,55332 80619,54303 79859,54518 79067,55114 78876,55495 78467,56310 78097,57320 77800,58277 77470,59345 77644,59998 76652,60539 76651,60294 76603,60041 76515,59780 77555,58702 76200,56338 74929,56607 75427,57629 75221,59004 76335,59634 76313,60042 76536,60498 76349,60876 75438,61699 74408,62499 74098,63436 74856,62974 75502,62015 76225,61360 77891,60908 79472,62768 81136,61218 Z"/>
      </g>
     </g>
     <g class="com.sun.star.drawing.ClosedBezierShape">
      <g id="id39">
       <rect class="BoundingBox" stroke="none" fill="none" x="42369" y="66153" width="7948" height="5480"/>
       <path fill="rgb(219,239,155)" stroke="none" d="M 47388,67579 C 46904,67916 46405,68155 45923,68513 45504,68491 45074,68387 44662,68413 45378,67635 46437,67434 47388,67579 Z M 46408,69585 C 46439,69148 46708,68667 46655,68245 46925,68056 47208,67967 47475,67762 47263,68273 46831,69017 46408,69585 Z M 45381,70471 C 45359,70021 45518,69539 45388,69109 45726,68784 46093,68657 46434,68352 46511,69073 46088,70153 45381,70471 Z M 44138,70899 C 44219,70151 44570,69458 45224,69206 45242,69623 45379,70246 45101,70589 44869,70875 44435,70751 44138,70899 Z M 43121,71052 C 43337,70636 43841,70432 44154,70000 44122,70288 44128,70681 43955,70866 43744,71092 43346,70867 43121,71052 Z M 43503,69821 C 43766,69655 44063,69721 44328,69570 44045,70002 43492,70351 43107,70757 43116,70489 43359,70003 43503,69821 Z M 45586,68641 C 45117,69289 44321,69455 43672,69558 44059,68346 44912,68564 45586,68641 Z M 46657,67038 C 44846,67079 43002,68971 42369,71578 44166,71852 45781,71061 47106,69279 47701,68479 47743,67713 48385,67284 49016,66863 49773,66660 50315,66153 L 49912,66153 C 49252,66786 48451,67242 47938,67267 47489,67289 47076,67029 46657,67038 Z"/>
      </g>
     </g>
     <g class="com.sun.star.drawing.ClosedBezierShape">
      <g id="id40">
       <rect class="BoundingBox" stroke="none" fill="none" x="63799" y="58173" width="2521" height="2984"/>
       <path fill="rgb(219,239,155)" stroke="none" d="M 65979,59663 C 65979,59663 66724,58691 66003,58246 65255,57784 63799,59664 63799,59664 63799,59664 65256,61544 66004,61082 66725,60635 65979,59663 65979,59663 Z"/>
      </g>
     </g>
     <g class="com.sun.star.drawing.ClosedBezierShape">
      <g id="id41">
       <rect class="BoundingBox" stroke="none" fill="none" x="12965" y="41298" width="9472" height="12307"/>
       <path fill="rgb(219,239,155)" stroke="none" d="M 15189,51461 C 15508,51293 15867,51548 16201,51550 16648,52723 17782,52595 18586,53164 18882,51884 17034,50362 16092,51358 15885,51253 15681,51188 15482,51173 15982,50194 16504,50411 17395,50138 18194,49892 19040,49575 19729,49207 20051,49035 20585,48263 20805,47502 19965,47458 19252,47783 18671,48614 18459,48917 18366,49338 18162,49539 17609,50085 16984,49912 16302,50160 17093,48983 17992,47881 18445,46650 19130,46421 19803,46674 20491,46568 21225,46455 21701,46006 22436,45376 21358,44902 20355,45246 19420,46334 19172,46452 18897,46278 18647,46371 18490,45216 19701,44075 19697,42883 19695,42327 19457,41755 19277,41298 18191,42580 18695,44120 18474,45473 18153,44689 17404,42749 16096,42938 16016,43015 16073,43078 16024,43151 16316,44265 17586,44623 18053,45368 18735,46456 17415,47830 16580,49210 16561,47817 17193,46080 15920,45000 15746,45933 15531,46876 15899,47758 16004,48009 16293,48203 16375,48469 16706,49538 15702,50186 15071,51169 14934,50895 15050,50593 15037,50305 16189,49072 15593,47703 15196,46563 13831,48165 15256,49888 14787,51559 14210,52257 13387,52858 12965,53604 13748,53343 14463,52341 15189,51461 Z"/>
      </g>
     </g>
     <g class="com.sun.star.drawing.ClosedBezierShape">
      <g id="id42">
       <rect class="BoundingBox" stroke="none" fill="none" x="20190" y="158321" width="9794" height="12725"/>
       <path fill="rgb(219,239,155)" stroke="none" d="M 22489,168829 C 22819,168656 23189,168920 23535,168921 23997,170134 25171,170002 26002,170590 26308,169267 24397,167692 23423,168723 23208,168614 22998,168547 22791,168531 23308,167519 23848,167743 24771,167461 25596,167207 26471,166879 27184,166498 27517,166320 28069,165523 28297,164735 27428,164690 26691,165026 26090,165885 25871,166199 25775,166634 25564,166842 24991,167407 24344,167227 23639,167484 24458,166267 25388,165127 25856,163854 26565,163617 27261,163880 27972,163770 28731,163653 29224,163188 29983,162537 28868,162047 27831,162402 26864,163527 26608,163650 26324,163469 26066,163566 25903,162371 27155,161192 27151,159960 27149,159386 26903,158793 26717,158321 25594,159647 26115,161238 25886,162637 25554,161827 24780,159822 23427,160017 23344,160097 23403,160160 23352,160237 23654,161388 24968,161758 25451,162529 26156,163653 24791,165075 23927,166502 23908,165061 24562,163265 23244,162148 23065,163112 22843,164088 23223,165000 23331,165259 23630,165460 23715,165735 24057,166841 23019,167511 22366,168527 22225,168244 22344,167932 22332,167634 23523,166359 22907,164944 22496,163764 21085,165421 22557,167203 22073,168930 21476,169653 20627,170274 20190,171045 21000,170775 21738,169739 22489,168829 Z"/>
      </g>
     </g>
     <g class="com.sun.star.drawing.ClosedBezierShape">
      <g id="id43">
       <rect class="BoundingBox" stroke="none" fill="none" x="40974" y="118241" width="7154" height="4932"/>
       <path fill="rgb(219,239,155)" stroke="none" d="M 45492,119525 C 45055,119828 44606,120044 44173,120365 43796,120345 43408,120253 43037,120275 43682,119575 44635,119394 45492,119525 Z M 44609,121331 C 44637,120937 44879,120504 44832,120124 45074,119955 45329,119874 45569,119690 45378,120150 44990,120820 44609,121331 Z M 43685,122128 C 43665,121724 43808,121289 43691,120902 43995,120608 44326,120495 44632,120221 44702,120870 44321,121842 43685,122128 Z M 42566,122513 C 42638,121840 42955,121217 43543,120989 43559,121365 43683,121925 43433,122234 43224,122492 42833,122380 42566,122513 Z M 41651,122652 C 41845,122277 42299,122093 42580,121704 42551,121963 42557,122317 42401,122484 42211,122688 41854,122485 41651,122652 Z M 41995,121543 C 42231,121394 42498,121453 42737,121317 42482,121706 41986,122020 41638,122385 41646,122144 41866,121707 41995,121543 Z M 43869,120480 C 43447,121064 42730,121213 42147,121306 42494,120216 43262,120410 43869,120480 Z M 44834,119038 C 43203,119075 41544,120778 40974,123124 42591,123371 44045,122659 45238,121055 45773,120334 45811,119645 46389,119259 46958,118880 47639,118697 48127,118241 L 47764,118241 C 47170,118811 46448,119221 45986,119244 45582,119264 45210,119030 44834,119038 Z"/>
      </g>
     </g>
     <g class="com.sun.star.drawing.ClosedBezierShape">
      <g id="id44">
       <rect class="BoundingBox" stroke="none" fill="none" x="66899" y="157699" width="5143" height="8423"/>
       <path fill="rgb(219,239,155)" stroke="none" d="M 68038,162597 C 68073,161881 69107,161027 69428,160567 69849,161830 69646,162846 69060,163885 68467,163769 68011,163151 68038,162597 Z M 69834,160262 C 70064,159836 70535,159576 70815,159184 70868,159893 70246,160697 70037,161441 69843,161218 69922,160628 69834,160262 Z M 71519,160254 C 71355,160639 70956,160862 70665,161160 70808,160522 71113,159433 71499,158747 71440,159204 71449,159708 71519,160254 Z M 69873,163276 C 69940,162435 70459,161342 71445,160917 71543,162132 70985,162895 69873,163276 Z M 69017,164831 C 69152,163971 69814,163474 70739,163158 70293,163804 70141,164653 69017,164831 Z M 67721,163180 C 67937,163723 68419,163908 68791,164243 68683,164656 68524,165033 68335,165390 L 68600,165653 C 68709,165487 68805,165318 68819,165173 69209,165138 69425,164983 69664,164844 69443,165226 69112,165532 68790,165844 L 69068,166121 C 71250,164062 72703,161339 71735,157699 69715,159573 67407,161261 66899,163954 L 67405,164460 C 67453,163964 67561,163498 67721,163180 Z"/>
      </g>
     </g>
     <g class="com.sun.star.drawing.ClosedBezierShape">
      <g id="id45">
       <rect class="BoundingBox" stroke="none" fill="none" x="81207" y="105692" width="6297" height="9927"/>
       <path fill="rgb(219,239,155)" stroke="none" d="M 82000,115248 C 82843,111262 86065,109018 87503,105692 L 86774,105693 C 85240,108764 81984,111102 81207,115414 81360,115812 81935,115554 82000,115248 Z"/>
      </g>
     </g>
     <g class="com.sun.star.drawing.ClosedBezierShape">
      <g id="id46">
       <rect class="BoundingBox" stroke="none" fill="none" x="60252" y="145275" width="243" height="251"/>
       <path fill="rgb(219,239,155)" stroke="none" d="M 60411,145325 C 60361,145392 60305,145458 60252,145525 60339,145441 60421,145358 60494,145275 60466,145291 60438,145308 60411,145325 Z"/>
      </g>
     </g>
     <g class="com.sun.star.drawing.ClosedBezierShape">
      <g id="id47">
       <rect class="BoundingBox" stroke="none" fill="none" x="36052" y="106492" width="1336" height="1444"/>
       <path fill="rgb(219,239,155)" stroke="none" d="M 37386,107213 C 37385,106252 36051,106252 36052,107213 36052,108176 37386,108175 37386,107213 Z"/>
      </g>
     </g>
     <g class="com.sun.star.drawing.ClosedBezierShape">
      <g id="id48">
       <rect class="BoundingBox" stroke="none" fill="none" x="45254" y="98670" width="2521" height="2984"/>
       <path fill="rgb(219,239,155)" stroke="none" d="M 47435,100162 C 47435,100162 48179,99189 47458,98744 46710,98283 45255,100163 45255,100163 45255,100163 46712,102042 47460,101580 48180,101135 47435,100162 47435,100162 Z"/>
      </g>
     </g>
     <g class="com.sun.star.drawing.ClosedBezierShape">
      <g id="id49">
       <rect class="BoundingBox" stroke="none" fill="none" x="13613" y="84591" width="2985" height="2521"/>
       <path fill="rgb(219,239,155)" stroke="none" d="M 15104,84930 C 15104,84930 14132,84185 13687,84907 13225,85655 15105,87110 15105,87110 15105,87110 16985,85653 16523,84905 16077,84184 15104,84930 15104,84930 Z"/>
      </g>
     </g>
     <g class="com.sun.star.drawing.ClosedBezierShape">
      <g id="id50">
       <rect class="BoundingBox" stroke="none" fill="none" x="12963" y="98519" width="2520" height="2983"/>
       <path fill="rgb(219,239,155)" stroke="none" d="M 15143,100010 C 15143,100010 15887,99037 15166,98592 14418,98131 12963,100011 12963,100011 12963,100011 14420,101890 15168,101428 15888,100982 15143,100010 15143,100010 Z"/>
      </g>
     </g>
     <g class="com.sun.star.drawing.ClosedBezierShape">
      <g id="id51">
       <rect class="BoundingBox" stroke="none" fill="none" x="60872" y="83713" width="2520" height="2984"/>
       <path fill="rgb(219,239,155)" stroke="none" d="M 63052,85204 C 63052,85204 63796,84231 63076,83785 62328,83325 60872,85205 60872,85205 60872,85205 62330,87084 63077,86622 63797,86176 63052,85204 63052,85204 Z"/>
      </g>
     </g>
     <g class="com.sun.star.drawing.ClosedBezierShape">
      <g id="id52">
       <rect class="BoundingBox" stroke="none" fill="none" x="52521" y="97938" width="1003" height="1086"/>
       <path fill="rgb(219,239,155)" stroke="none" d="M 53522,98481 C 53522,97758 52521,97759 52521,98481 52521,99203 53523,99202 53522,98481 Z"/>
      </g>
     </g>
     <g class="com.sun.star.drawing.ClosedBezierShape">
      <g id="id53">
       <rect class="BoundingBox" stroke="none" fill="none" x="77891" y="102713" width="2521" height="2983"/>
       <path fill="rgb(219,239,155)" stroke="none" d="M 80072,104204 C 80072,104204 80817,103231 80096,102786 79348,102325 77892,104205 77892,104205 77892,104205 79350,106084 80097,105621 80817,105176 80072,104204 80072,104204 Z"/>
      </g>
     </g>
     <g class="com.sun.star.drawing.ClosedBezierShape">
      <g id="id54">
       <rect class="BoundingBox" stroke="none" fill="none" x="82866" y="117726" width="2983" height="2521"/>
       <path fill="rgb(219,239,155)" stroke="none" d="M 84356,118066 C 84356,118066 83384,117321 82939,118042 82478,118790 84357,120245 84357,120245 84357,120245 86237,118788 85775,118040 85330,117320 84356,118066 84356,118066 Z"/>
      </g>
     </g>
     <g class="com.sun.star.drawing.ClosedBezierShape">
      <g id="id55">
       <rect class="BoundingBox" stroke="none" fill="none" x="5242" y="91927" width="1542" height="1668"/>
       <path fill="rgb(219,239,155)" stroke="none" d="M 6783,92760 C 6782,91650 5242,91651 5242,92761 5243,93871 6783,93870 6783,92760 Z"/>
      </g>
     </g>
     <g class="com.sun.star.drawing.ClosedBezierShape">
      <g id="id56">
       <rect class="BoundingBox" stroke="none" fill="none" x="39307" y="92034" width="1543" height="1667"/>
       <path fill="rgb(219,239,155)" stroke="none" d="M 40849,92867 C 40848,91756 39308,91757 39308,92868 39309,93977 40849,93976 40849,92867 Z"/>
      </g>
     </g>
     <g class="com.sun.star.drawing.ClosedBezierShape">
      <g id="id57">
       <rect class="BoundingBox" stroke="none" fill="none" x="59809" y="93628" width="1542" height="1667"/>
       <path fill="rgb(219,239,155)" stroke="none" d="M 61350,94460 C 61349,93350 59809,93350 59809,94461 59810,95570 61350,95570 61350,94460 Z"/>
      </g>
     </g>
     <g class="com.sun.star.drawing.ClosedBezierShape">
      <g id="id58">
       <rect class="BoundingBox" stroke="none" fill="none" x="49324" y="93852" width="1003" height="1083"/>
       <path fill="rgb(219,239,155)" stroke="none" d="M 50325,94392 C 50325,93671 49324,93672 49324,94393 49324,95114 50326,95114 50325,94392 Z"/>
      </g>
     </g>
     <g class="com.sun.star.drawing.ClosedBezierShape">
      <g id="id59">
       <rect class="BoundingBox" stroke="none" fill="none" x="9618" y="109455" width="1002" height="1083"/>
       <path fill="rgb(219,239,155)" stroke="none" d="M 10619,109997 C 10619,109275 9618,109275 9618,109997 9618,110718 10619,110717 10619,109997 Z"/>
      </g>
     </g>
     <g class="com.sun.star.drawing.ClosedBezierShape">
      <g id="id60">
       <rect class="BoundingBox" stroke="none" fill="none" x="20548" y="101013" width="9079" height="10960"/>
       <path fill="rgb(219,239,155)" stroke="none" d="M 21785,109929 L 22478,109868 C 22478,109868 22476,109799 22444,109723 22411,109648 22325,109583 22325,109583 22325,109583 22368,109421 22433,109389 22498,109356 22595,109389 22670,109421 22747,109453 22823,109367 22984,109302 23146,109237 23373,109334 23373,109334 23662,108988 23371,108034 23350,107380 23350,107380 23092,107618 23038,107661 22984,107704 22746,107985 22746,107985 22746,107985 22681,108331 22616,108417 22551,108503 21807,109432 21807,109432 21807,109432 21731,109594 21753,109691 21775,109788 21785,109929 21785,109929 Z M 25262,101013 C 25262,101013 25530,101072 25544,101184 25558,101297 25487,101396 25487,101396 25487,101396 25826,101607 25826,101762 25826,101917 25784,101945 25784,101945 25784,101945 26009,102227 26009,102368 26010,102509 26024,103158 26024,103158 26024,103158 26038,103552 26067,103707 26095,103862 26222,104399 26335,104568 26448,104737 26583,104862 26826,104950 27068,105038 27234,105104 27377,105247 27521,105391 27499,105865 27654,106119 27808,106372 27908,106593 27996,106725 28084,106858 28151,107288 28151,107288 28151,107288 28396,107756 28542,108003 28688,108250 28980,109225 28980,109225 28980,109225 29215,109483 29283,109595 29350,109707 29462,110055 29552,110122 29642,110190 29653,110504 29564,110650 29474,110795 29669,110777 29574,111305 29479,111834 28532,111887 28532,111887 28532,111887 28068,111880 27780,111940 27493,111999 27205,111960 27116,111950 27027,111940 26670,111970 26512,111970 26353,111970 24614,111682 24465,111642 24427,111632 22702,111849 22159,111849 22119,111849 21082,111960 20838,111586 20597,111217 20589,111120 20548,110989 L 20734,110654 C 20644,110508 20655,110194 20745,110127 20835,110060 20947,109712 21014,109599 21081,109487 21317,109229 21317,109229 21317,109229 21608,108253 21754,108006 21899,107759 22144,107291 22144,107291 22144,107291 22210,106861 22298,106728 22386,106596 22485,106375 22640,106121 22795,105867 22773,105393 22916,105250 23059,105106 23225,105040 23467,104951 23710,104863 23845,104738 23958,104569 24071,104400 24197,103863 24225,103708 24253,103553 24267,103158 24267,103158 24267,103158 24281,102510 24281,102369 24281,102228 24506,101946 24506,101946 24506,101946 24464,101918 24464,101763 24464,101608 24802,101396 24802,101396 24802,101396 24732,101298 24746,101185 24760,101072 25027,101014 25027,101014 25106,101014 25184,101013 25262,101013 Z M 28508,109925 C 28508,109925 28519,109785 28540,109688 28562,109591 28486,109429 28486,109429 28486,109429 27741,108501 27676,108414 27611,108328 27546,107983 27546,107983 27546,107983 27309,107702 27255,107659 27201,107616 26942,107378 26942,107378 26921,108033 26631,108986 26921,109332 26921,109332 27148,109235 27310,109300 27472,109365 27547,109451 27623,109418 27698,109386 27795,109354 27860,109386 27925,109418 27968,109580 27968,109580 27968,109580 27882,109645 27850,109721 27817,109796 27796,110012 27796,110012 L 28508,109925 Z"/>
      </g>
     </g>
     <g class="com.sun.star.drawing.ClosedBezierShape">
      <g id="id61">
       <rect class="BoundingBox" stroke="none" fill="none" x="72135" y="124538" width="11552" height="7511"/>
       <path fill="rgb(219,239,155)" stroke="none" d="M 80199,130774 L 80167,130691 81248,130562 C 81248,130562 81608,130583 81742,130486 81876,130388 82035,130486 82035,130486 82035,130486 81956,130612 81967,130757 81977,130902 81690,130945 81690,130945 81690,130945 81184,130812 80955,130796 80727,130781 80199,130774 80199,130774 Z M 79638,130786 C 79638,130786 77886,130867 77558,130872 77229,130877 75760,130937 75698,130966 75636,130996 74942,131068 74892,131075 74842,131081 74831,130761 74831,130761 L 74915,130619 75481,130460 75815,130265 C 75815,130265 77298,130488 77667,130456 78035,130425 78202,130469 78202,130469 L 79655,130689 79638,130786 Z M 79762,130630 L 79756,130668 80083,130723 C 80083,130723 79988,130896 79989,130962 79990,131027 79922,131299 79883,131340 79844,131383 79934,131452 79917,131498 79901,131544 79741,131725 79741,131725 L 79679,132047 C 79679,132047 79515,131965 79460,131935 79406,131906 79349,131745 79387,131703 79426,131662 79481,131458 79503,131404 79526,131349 79508,131322 79451,131278 79394,131234 79459,131109 79459,131109 79459,131109 79590,131041 79655,130982 79721,130922 79762,130630 79762,130630 Z M 76264,129596 L 77029,129732 76833,128953 C 76833,128953 76523,128821 76425,128776 76327,128731 76221,128630 76221,128630 L 75985,128624 C 75985,128624 76053,128994 76106,129080 76160,129166 76257,129666 76264,129596 Z M 78214,127712 C 78214,127712 78659,126892 78811,126682 78963,126472 79578,126001 79727,125867 79876,125734 80396,124905 80396,124905 80396,124905 80443,124670 80331,124595 80220,124520 79853,124540 79853,124540 79853,124540 79799,124916 79744,125088 79689,125261 78966,125886 78936,125954 78906,126021 78150,126587 78150,126587 L 77752,127375 77649,127669 78214,127712 Z M 75493,130371 C 75493,130371 74821,130608 74616,130697 74411,130786 73886,130967 73775,130994 73664,131020 73275,130865 73275,130865 L 73450,130741 C 73450,130741 73905,130812 74226,130631 74547,130451 74888,130332 74888,130332 L 75318,130178 75684,130270 75493,130371 Z M 80201,129945 C 80202,130024 79367,129388 79124,129278 78881,129169 78245,128977 78271,128876 78298,128776 77278,128670 77215,128678 77153,128686 76347,128659 76347,128659 76347,128659 76980,128936 77090,128999 77200,129062 77371,129206 77455,129271 77540,129337 77810,129456 77810,129456 77810,129456 78223,129608 78358,129667 78493,129727 78960,129897 78960,129897 L 80201,129945 Z M 79767,128217 C 79745,128290 80826,127321 81022,127156 81218,126991 82005,126472 82005,126472 82005,126472 82165,126223 81969,126082 81773,125941 81590,126104 81590,126104 81590,126104 80068,127365 79878,127478 79689,127591 79252,127964 79252,127964 L 79767,128217 Z M 82736,126508 C 82844,126527 82642,126571 82529,126483 82416,126395 82391,126217 82391,126217 L 82736,126508 Z M 81460,128718 L 82099,129045 C 82099,129045 82188,128537 82254,128453 82320,128368 82523,127757 82578,127686 82633,127616 82819,127274 82819,127274 82819,127274 83024,127185 83087,127177 83150,127169 83258,127219 83336,127235 83414,127250 83626,127415 83626,127415 L 83685,127178 C 83685,127178 83500,126921 83317,126881 83134,126840 82712,127135 82712,127135 82712,127135 82806,126767 82856,126455 82906,126143 82485,126132 82485,126132 82485,126132 82137,126405 81863,126961 81589,127518 81460,128718 81460,128718 Z M 81861,129788 C 81883,129702 81092,129948 80729,129994 80365,130039 79486,130035 79113,130005 78741,129976 77362,129741 77029,129732 76697,129723 76075,129636 75923,129642 75771,129648 75206,129707 74879,129747 74553,129788 74473,129760 74473,129760 74473,129760 74357,130157 74638,130160 74918,130163 75737,130187 75996,130218 76254,130250 77567,130365 77808,130360 78050,130355 78855,130585 79189,130607 79523,130629 80405,130658 80677,130598 80950,130539 81796,130382 81796,130382 81796,130382 82242,130084 82322,130010 82402,129936 82399,129708 82399,129708 L 81861,129788 Z M 76138,129526 C 76138,129526 75060,128961 74719,128876 74377,128792 74427,128786 74038,128427 73650,128068 73400,127705 73355,127647 73309,127589 73070,127606 72965,127683 72860,127760 72882,127936 72882,127936 72882,127936 73098,128036 73186,128127 73274,128217 73319,128479 73319,128479 73319,128479 72943,128221 72752,128016 72561,127810 72399,127640 72286,127654 72174,127668 72025,127801 72261,127963 72498,128124 72674,128306 72772,128382 72871,128459 73086,128547 73098,128647 73111,128747 73182,128904 73182,128904 73182,128904 73605,128927 73871,129123 74137,129318 74490,129592 74490,129592 L 74739,129650 C 74739,129650 75018,129539 75323,129526 75627,129514 76138,129526 76138,129526 Z M 82100,129758 C 82100,129758 78337,128792 77797,128643 77256,128494 75584,128564 75523,128585 75462,128605 75084,128538 74967,128323 74851,128109 74870,127852 74991,127798 75112,127745 75466,127726 75466,127726 75466,127726 77519,127647 78522,127928 79525,128210 81339,128771 81776,129009 82214,129247 82486,129493 82486,129493 82486,129493 82439,129626 82399,129708 82358,129789 82100,129758 82100,129758 Z"/>
      </g>
     </g>
     <g class="com.sun.star.drawing.ClosedBezierShape">
      <g id="id62">
       <rect class="BoundingBox" stroke="none" fill="none" x="79641" y="154139" width="7526" height="5002"/>
       <path fill="rgb(219,239,155)" stroke="none" d="M 87152,156259 C 86993,157198 85375,157937 83403,157938 81431,157939 79814,157201 79654,156263 79645,156336 79641,156410 79641,156485 79641,157952 81326,159140 83404,159139 85481,159138 87166,157948 87165,156481 87165,156406 87160,156333 87152,156259 Z M 83402,155140 C 81618,155141 80172,155674 80173,156329 80173,156985 81619,157517 83403,157516 85187,157515 86633,156982 86633,156326 86632,155670 85185,155139 83402,155140 Z M 83401,154139 C 85406,154138 87032,154956 87033,155965 87033,156975 85408,157796 83403,157797 81398,157798 79773,156979 79772,155969 79772,154959 81396,154140 83401,154139 Z"/>
      </g>
     </g>
     <g class="com.sun.star.drawing.ClosedBezierShape">
      <g id="id63">
       <rect class="BoundingBox" stroke="none" fill="none" x="74180" y="81473" width="13442" height="8630"/>
       <path fill="rgb(219,239,155)" stroke="none" d="M 83741,86824 C 83741,86824 84036,86783 84327,86619 84618,86454 85473,86271 85473,86271 85473,86271 85656,86100 85798,85634 85940,85167 86252,84157 86252,84157 86252,84157 85967,84145 85410,84342 84853,84539 84230,85012 84230,85012 84230,85012 84193,85210 84087,85779 83980,86348 83741,86824 83741,86824 Z M 80565,89740 C 84079,90630 85105,89900 86807,87303 87237,86646 87620,86281 87620,86281 87620,86281 85761,86096 84017,87040 82272,87985 80565,89740 80565,89740 Z M 80278,89396 C 80278,89396 80202,87922 81269,86121 82336,84320 83920,83508 83920,83508 83920,83508 84086,84647 83858,85578 83630,86508 82962,87330 82962,87330 82962,87330 82112,87684 81195,88540 L 80278,89396 Z M 79978,84295 C 80110,83721 80369,82996 80751,82438 81134,81878 81543,81473 81543,81473 81543,81473 81940,82623 81998,83301 82057,83979 82008,84341 82008,84341 81454,85071 80908,85713 80588,86484 80503,85747 80352,85031 79978,84295 Z M 77600,85676 C 77600,85676 77549,85146 77655,84577 77761,84008 77799,83810 77799,83810 77799,83810 77389,83144 76941,82759 76492,82374 76222,82282 76222,82282 76222,82282 76148,83337 76112,83823 76076,84309 76184,84535 76184,84535 76184,84535 76916,85014 77128,85273 77340,85531 77600,85676 77600,85676 Z M 79508,89542 C 75911,89102 75217,88051 74568,85015 74404,84247 74180,83768 74180,83768 74180,83768 75979,84267 77265,85778 78550,87289 79508,89542 79508,89542 Z M 79900,89325 C 79900,89325 80503,87978 80159,85913 79815,83849 78631,82519 78631,82519 78631,82519 78065,83521 77941,84472 77818,85422 78143,86429 78143,86429 78143,86429 78808,87067 79354,88196 L 79900,89325 Z"/>
      </g>
     </g>
     <g class="com.sun.star.drawing.ClosedBezierShape">
      <g id="id64">
       <rect class="BoundingBox" stroke="none" fill="none" x="5396" y="154696" width="8446" height="8096"/>
       <path fill="rgb(219,239,155)" stroke="none" d="M 9904,159015 C 9904,159015 10602,159014 11947,159656 13293,160298 13105,160851 12825,161278 12544,161705 12359,161388 12203,161460 12047,161531 12266,161762 12047,162163 11827,162565 11124,162474 10740,161895 10357,161317 9904,159015 9904,159015 Z M 9254,158900 C 9254,158900 8935,159521 7750,160424 6564,161327 6159,160907 5907,160463 5655,160019 6021,160000 6029,159828 6036,159657 5731,159746 5474,159368 5217,158989 5619,158405 6309,158328 6999,158251 9254,158900 9254,158900 Z M 9529,159136 C 9529,159136 9864,159748 9947,161236 10029,162724 9454,162825 8946,162784 8437,162743 8626,162429 8488,162327 8350,162225 8253,162528 7796,162528 7338,162528 7080,161867 7403,161253 7727,160639 9529,159136 9529,159136 Z M 9673,158377 C 9673,158377 9297,157788 9113,156309 8929,154831 9495,154691 10006,154697 10516,154702 10348,155029 10493,155121 10638,155214 10714,154905 11171,154874 11627,154842 11930,155484 11649,156119 11368,156754 9673,158377 9673,158377 Z M 9307,158524 C 9307,158524 8698,156257 8276,155706 7854,155155 7146,155112 6954,155528 6763,155943 6997,156158 6846,156241 6695,156323 6490,156019 6240,156464 5990,156909 5840,157473 7225,158023 8611,158572 9307,158524 9307,158524 Z M 9977,158627 C 9977,158627 12214,159336 12907,159277 13599,159218 14016,158645 13769,158260 13523,157874 13215,157956 13227,157783 13239,157612 13606,157602 13366,157152 13125,156701 12731,156271 11521,157143 10312,158015 9977,158627 9977,158627 Z"/>
      </g>
     </g>
     <g class="com.sun.star.drawing.ClosedBezierShape">
      <g id="id65">
       <rect class="BoundingBox" stroke="none" fill="none" x="75086" y="113531" width="1543" height="1667"/>
       <path fill="rgb(219,239,155)" stroke="none" d="M 76627,114363 C 76627,113253 75086,113253 75087,114364 75087,115474 76628,115473 76627,114363 Z"/>
      </g>
     </g>
     <g class="com.sun.star.drawing.ClosedBezierShape">
      <g id="id66">
       <rect class="BoundingBox" stroke="none" fill="none" x="5333" y="129345" width="1543" height="1668"/>
       <path fill="rgb(219,239,155)" stroke="none" d="M 6875,130178 C 6874,129068 5334,129069 5334,130179 5335,131289 6875,131288 6875,130178 Z"/>
      </g>
     </g>
     <g class="com.sun.star.drawing.ClosedBezierShape">
      <g id="id67">
       <rect class="BoundingBox" stroke="none" fill="none" x="5527" y="102337" width="1542" height="1667"/>
       <path fill="rgb(219,239,155)" stroke="none" d="M 7067,103170 C 7067,102059 5526,102060 5527,103170 5527,104281 7068,104280 7067,103170 Z"/>
      </g>
     </g>
     <g class="com.sun.star.drawing.ClosedBezierShape">
      <g id="id68">
       <rect class="BoundingBox" stroke="none" fill="none" x="4744" y="115783" width="2480" height="7740"/>
       <path fill="rgb(219,239,155)" stroke="none" d="M 6287,118292 C 6189,118768 6027,119194 5942,119680 5680,119904 5365,120088 5134,120336 5120,119466 5637,118746 6287,118292 Z M 6840,120044 C 6611,119765 6499,119326 6228,119105 6282,118840 6400,118626 6443,118352 6606,118777 6771,119465 6840,120044 Z M 6731,121155 C 6463,120899 6283,120522 5961,120339 5978,119954 6125,119669 6156,119294 6611,119679 6971,120564 6731,121155 Z M 6232,122115 C 5855,121623 5672,121011 5919,120490 6166,120729 6602,121022 6631,121384 6655,121686 6326,121858 6232,122115 Z M 5713,122783 C 5605,122412 5790,122005 5731,121570 5875,121760 6102,121991 6104,122199 6106,122454 5742,122544 5713,122783 Z M 5242,121832 C 5305,121584 5519,121455 5591,121215 5668,121633 5536,122154 5537,122614 5390,122450 5260,122022 5242,121832 Z M 5814,119948 C 5902,120600 5521,121150 5194,121579 4737,120639 5368,120284 5814,119948 Z M 5544,118385 C 4488,119436 4461,121609 5563,123522 6790,122667 7304,121279 7083,119465 6984,118651 6575,118171 6715,117551 6852,116942 7188,116392 7223,115783 L 6983,116011 C 6948,116763 6730,117489 6438,117795 6182,118062 5788,118142 5544,118385 Z"/>
      </g>
     </g>
     <g class="com.sun.star.drawing.ClosedBezierShape">
      <g id="id69">
       <rect class="BoundingBox" stroke="none" fill="none" x="48804" y="155380" width="2984" height="2520"/>
       <path fill="rgb(219,239,155)" stroke="none" d="M 50295,155719 C 50295,155719 49323,154975 48877,155696 48416,156444 50296,157899 50296,157899 50296,157899 52176,156442 51713,155694 51268,154974 50295,155719 50295,155719 Z"/>
      </g>
     </g>
     <g class="com.sun.star.drawing.ClosedBezierShape">
      <g id="id70">
       <rect class="BoundingBox" stroke="none" fill="none" x="41587" y="128087" width="2984" height="2520"/>
       <path fill="rgb(219,239,155)" stroke="none" d="M 43079,128426 C 43079,128426 42106,127682 41661,128402 41201,129150 43080,130606 43080,130606 43080,130606 44959,129148 44497,128401 44052,127681 43079,128426 43079,128426 Z"/>
      </g>
     </g>
     <g class="com.sun.star.drawing.ClosedBezierShape">
      <g id="id71">
       <rect class="BoundingBox" stroke="none" fill="none" x="57352" y="155495" width="1543" height="1667"/>
       <path fill="rgb(219,239,155)" stroke="none" d="M 58894,156327 C 58893,155217 57353,155218 57353,156328 57354,157439 58894,157438 58894,156327 Z"/>
      </g>
     </g>
     <g class="com.sun.star.drawing.ClosedBezierShape">
      <g id="id72">
       <rect class="BoundingBox" stroke="none" fill="none" x="81837" y="126612" width="2520" height="2983"/>
       <path fill="rgb(219,239,155)" stroke="none" d="M 84016,128102 C 84016,128102 84761,127130 84040,126685 83291,126223 81837,128103 81837,128103 81837,128103 83293,129983 84041,129520 84762,129075 84016,128102 84016,128102 Z"/>
      </g>
     </g>
     <g class="com.sun.star.drawing.ClosedBezierShape">
      <g id="id73">
       <rect class="BoundingBox" stroke="none" fill="none" x="59467" y="114081" width="2983" height="2520"/>
       <path fill="rgb(219,239,155)" stroke="none" d="M 60958,114420 C 60958,114420 59986,113676 59540,114397 59080,115146 60959,116600 60959,116600 60959,116600 62838,115144 62376,114395 61931,113675 60958,114420 60958,114420 Z"/>
      </g>
     </g>
     <g class="com.sun.star.drawing.ClosedBezierShape">
      <g id="id74">
       <rect class="BoundingBox" stroke="none" fill="none" x="79640" y="119652" width="1542" height="1667"/>
       <path fill="rgb(219,239,155)" stroke="none" d="M 81181,120483 C 81180,119374 79640,119375 79640,120484 79641,121595 81181,121594 81181,120483 Z"/>
      </g>
     </g>
     <g class="com.sun.star.drawing.ClosedBezierShape">
      <g id="id75">
       <rect class="BoundingBox" stroke="none" fill="none" x="74943" y="136051" width="12474" height="10973"/>
       <path fill="rgb(219,239,155)" stroke="none" d="M 81983,144805 C 80896,144238 79601,143413 78315,144731 78034,144695 77731,144815 77473,144628 78478,143928 79183,142749 80204,143229 80458,143348 80627,143715 80865,143861 81701,144373 82638,144178 83561,144033 82597,142401 80854,143048 79494,142926 80902,142006 82340,140492 83354,141403 84049,142026 84308,143602 85374,144038 85450,143983 85506,144057 85587,143965 85865,142382 84024,141330 83282,140882 84619,140709 86086,141433 87416,140199 86983,139947 86441,139616 85898,139574 84735,139484 83534,140880 82417,140606 82526,140307 82375,139960 82508,139665 83638,138602 84046,137402 83659,136051 82992,136903 82519,137453 82356,138341 82203,139173 82403,140013 82130,140833 80894,141297 79753,142316 78546,143198 78838,142383 78713,141608 79286,140972 79497,140737 79915,140654 80227,140417 81081,139767 81449,138919 81466,137891 80706,138106 79914,138702 79723,139082 79314,139897 78943,140908 78647,141865 78316,142933 78491,143586 77499,144126 77498,143882 77450,143628 77361,143368 78402,142289 77046,139926 75775,140195 76274,141216 76068,142592 77182,143221 77159,143630 77383,144085 77196,144463 76285,145286 75255,146086 74944,147023 75703,146561 76348,145601 77072,144947 78737,144494 80319,146355 81983,144805 Z"/>
      </g>
     </g>
     <g class="com.sun.star.drawing.ClosedBezierShape">
      <g id="id76">
       <rect class="BoundingBox" stroke="none" fill="none" x="28752" y="142331" width="7947" height="5480"/>
       <path fill="rgb(219,239,155)" stroke="none" d="M 33770,143757 C 33286,144094 32786,144333 32305,144691 31886,144668 31456,144566 31044,144591 31760,143813 32819,143612 33770,143757 Z M 32790,145763 C 32821,145326 33090,144845 33037,144423 33306,144235 33590,144146 33857,143940 33644,144452 33213,145196 32790,145763 Z M 31763,146649 C 31741,146200 31899,145717 31770,145288 32107,144961 32475,144835 32816,144530 32893,145251 32470,146331 31763,146649 Z M 30520,147077 C 30600,146329 30952,145637 31606,145384 31623,145802 31761,146424 31483,146767 31251,147054 30817,146929 30520,147077 Z M 29504,147231 C 29719,146814 30223,146610 30536,146178 30503,146466 30510,146859 30337,147044 30125,147271 29729,147046 29504,147231 Z M 29886,145999 C 30148,145833 30445,145899 30710,145748 30427,146181 29875,146529 29489,146935 29498,146667 29742,146181 29886,145999 Z M 31968,144819 C 31499,145467 30703,145633 30055,145736 30440,144525 31293,144741 31968,144819 Z M 33039,143217 C 31228,143258 29385,145149 28752,147756 30548,148030 32163,147239 33488,145457 34083,144656 34125,143891 34767,143462 35398,143041 36156,142838 36698,142331 L 36295,142331 C 35634,142964 34833,143420 34319,143445 33871,143467 33458,143207 33039,143217 Z"/>
      </g>
     </g>
     <g class="com.sun.star.drawing.ClosedBezierShape">
      <g id="id77">
       <rect class="BoundingBox" stroke="none" fill="none" x="59467" y="159052" width="2983" height="2525"/>
       <path fill="rgb(219,239,155)" stroke="none" d="M 60955,159395 C 60955,159395 59979,158655 59538,159378 59081,160130 60968,161575 60968,161575 60968,161575 62840,160109 62374,159362 61925,158645 60955,159395 60955,159395 Z"/>
      </g>
     </g>
     <g class="com.sun.star.drawing.ClosedBezierShape">
      <g id="id78">
       <rect class="BoundingBox" stroke="none" fill="none" x="7462" y="130529" width="9472" height="12307"/>
       <path fill="rgb(219,239,155)" stroke="none" d="M 9685,140691 C 10004,140523 10362,140779 10697,140780 11144,141954 12278,141826 13082,142395 13377,141115 11530,139592 10588,140588 10381,140483 10177,140418 9978,140403 10477,139424 11000,139641 11891,139368 12689,139123 13535,138805 14226,138437 14547,138265 15082,137493 15302,136732 14462,136688 13748,137013 13166,137844 12954,138147 12862,138568 12658,138770 12104,139316 11479,139142 10798,139391 11589,138213 12488,137111 12941,135880 13626,135651 14300,135905 14988,135799 15722,135685 16198,135236 16933,134607 15854,134132 14851,134476 13915,135564 13668,135682 13393,135508 13143,135601 12986,134446 14196,133305 14192,132114 14191,131558 13953,130986 13773,130529 12687,131812 13190,133350 12969,134703 12649,133920 11900,131980 10592,132169 10512,132247 10569,132308 10520,132382 10811,133495 12082,133853 12549,134598 13231,135686 11910,137060 11076,138440 11057,137047 11689,135310 10416,134230 10242,135163 10027,136106 10395,136988 10499,137239 10789,137433 10871,137699 11201,138768 10197,139417 9566,140399 9429,140125 9545,139823 9533,139535 10685,138303 10089,136934 9692,135793 8328,137395 9751,139118 9283,140789 8706,141487 7884,142089 7462,142835 8245,142574 8959,141572 9685,140691 Z"/>
      </g>
     </g>
     <g class="com.sun.star.drawing.ClosedBezierShape">
      <g id="id79">
       <rect class="BoundingBox" stroke="none" fill="none" x="39781" y="163160" width="1542" height="1667"/>
       <path fill="rgb(219,239,155)" stroke="none" d="M 41321,163993 C 41321,162882 39780,162883 39781,163994 39781,165103 41322,165102 41321,163993 Z"/>
      </g>
     </g>
     <g class="com.sun.star.drawing.ClosedBezierShape">
      <g id="id80">
       <rect class="BoundingBox" stroke="none" fill="none" x="72405" y="153638" width="2983" height="2520"/>
       <path fill="rgb(219,239,155)" stroke="none" d="M 73896,153977 C 73896,153977 72923,153233 72478,153953 72017,154701 73898,156157 73898,156157 73898,156157 75776,154700 75314,153952 74869,153232 73896,153977 73896,153977 Z"/>
      </g>
     </g>
     <g class="com.sun.star.drawing.ClosedBezierShape">
      <g id="id81">
       <rect class="BoundingBox" stroke="none" fill="none" x="80592" y="167017" width="1542" height="1667"/>
       <path fill="rgb(219,239,155)" stroke="none" d="M 82132,167849 C 82132,166739 80591,166740 80592,167850 80593,168961 82133,168960 82132,167849 Z"/>
      </g>
     </g>
     <g class="com.sun.star.drawing.ClosedBezierShape">
      <g id="id82">
       <rect class="BoundingBox" stroke="none" fill="none" x="67774" y="178337" width="1730" height="1730"/>
       <path fill="rgb(165,215,30)" stroke="none" d="M 69350,179589 C 69350,179767 69204,179913 69026,179913 L 68251,179913 C 68072,179913 67927,179767 67927,179589 L 67927,178814 C 67927,178635 68072,178490 68251,178490 L 69026,178490 C 69204,178490 69350,178635 69350,178814 L 69350,179589 Z M 69026,178337 L 68251,178337 C 67987,178337 67774,178551 67774,178814 L 67774,179589 C 67774,179852 67987,180066 68251,180066 L 69026,180066 C 69289,180066 69503,179852 69503,179589 L 69503,178814 C 69503,178551 69289,178337 69026,178337 Z"/>
      </g>
     </g>
     <g class="com.sun.star.drawing.ClosedBezierShape">
      <g id="id83">
       <rect class="BoundingBox" stroke="none" fill="none" x="68192" y="178755" width="893" height="893"/>
       <path fill="rgb(165,215,30)" stroke="none" d="M 68638,179494 C 68477,179494 68346,179363 68346,179201 68346,179040 68477,178909 68638,178909 68799,178909 68930,179040 68930,179201 68930,179363 68799,179494 68638,179494 Z M 68638,178755 C 68392,178755 68192,178955 68192,179201 68192,179447 68392,179647 68638,179647 68883,179647 69084,179447 69084,179201 69084,178955 68883,178755 68638,178755 Z"/>
      </g>
     </g>
     <g class="com.sun.star.drawing.ClosedBezierShape">
      <g id="id84">
       <rect class="BoundingBox" stroke="none" fill="none" x="68989" y="178625" width="227" height="227"/>
       <path fill="rgb(165,215,30)" stroke="none" d="M 69102,178625 C 69072,178625 69043,178637 69022,178659 69001,178680 68989,178709 68989,178739 68989,178768 69001,178797 69022,178818 69043,178839 69072,178851 69102,178851 69132,178851 69161,178839 69182,178818 69203,178797 69215,178768 69215,178739 69215,178709 69203,178680 69182,178659 69161,178637 69132,178625 69102,178625 Z"/>
      </g>
     </g>
    </g>
   </g>
  </g>
 </g>
</svg>