<?xml version="1.0" encoding="UTF-8" standalone="no"?>
<!-- Created with Inkscape (http://www.inkscape.org/) -->
<svg xmlns:rdf="http://www.w3.org/1999/02/22-rdf-syntax-ns#" xmlns="http://www.w3.org/2000/svg" height="200px" width="200px" version="1.1" xmlns:cc="http://creativecommons.org/ns#" xmlns:dc="http://purl.org/dc/elements/1.1/" viewBox="0 0 200 200">
 <defs>
  <clipPath id="clipPath3008" clipPathUnits="userSpaceOnUse">
   <path d="m3429.3 2676.8c-34.36-78.51 93.25-358.28 93.25-358.28h68.71s34.36 147.25 39.27 171.79c4.91 24.53-68.71 191.4-68.71 191.4s-98.16 73.64-132.52-4.91zm947.26-63.79c-4.92 14.72-19.63 220.86-19.63 220.86l-107.98 68.71-206.13-279.75s-88.35-215.96-88.35-265.04c0-49.07 66.07-174.7 66.07-174.7 213.8 87.27 191.97 346.87 191.97 346.87 45.82-89.45 30.54-257.42-52.35-320.69l88.79 30.72 54 58.9s63.79 147.25 63.79 161.97 14.73 137.43 9.82 152.15z"/>
  </clipPath>
  <linearGradient id="linearGradient3014" gradientUnits="userSpaceOnUse" gradientTransform="matrix(0 -279.76 -279.76 0 3900.5 2343.1)">
   <stop stop-color="#100f0d" offset="0"/>
   <stop stop-color="#39566e" offset="1"/>
  </linearGradient>
  <clipPath id="clipPath3024" clipPathUnits="userSpaceOnUse">
   <path d="m4160.5 2208.7c46.6 35.17 68 94.7 75.94 150.62 8.07 56.75 3.98 119.84-22.21 171.69-0.88 1.74-3.91 0.96-3.75-1.01 1.85-22.17 0.46-44.87-1.79-66.94-5.14-50.04-18.32-99.64-41.55-144.4-31.74-61.16-83.59-108.13-146.94-134.97-0.66-0.28-0.18-1.43 0.5-1.17 59.17 23.71 107.84 65.08 140.83 119.59 26.48 43.78 41.82 93.89 48.99 144.34 3.89 27.34 6.27 55.92 3.99 83.55-1.25-0.35-2.49-0.69-3.75-1.02 25.84-51.03 29.49-112.78 21.97-168.63-7.42-55.05-28.2-114.9-73.09-150.52-0.63-0.52 0.22-1.62 0.86-1.13z"/>
  </clipPath>
  <linearGradient id="linearGradient3030" gradientUnits="userSpaceOnUse" gradientTransform="matrix(0 -135.89 -135.89 0 4130 2260.2)">
   <stop stop-color="#100f0d" offset="0"/>
   <stop stop-color="#2d4355" offset="1"/>
  </linearGradient>
  <clipPath id="clipPath3040" clipPathUnits="userSpaceOnUse">
   <path d="m4173.5 2104.6c-74.52 19.63-137.58 45.81-171.97 127.62-54.46 130.88-28.65 255.24-28.65 392.66h-432.79c0-137.42 25.79-261.78-28.66-392.66-34.39-81.81-97.45-107.99-171.97-127.62h5.73c126.11 0 246.41-46.88 369.74-58.9 235.02-22.91 295.2 45.81 464.3 55.62z"/>
  </clipPath>
  <linearGradient id="linearGradient3046" gradientUnits="userSpaceOnUse" gradientTransform="matrix(0 -278.19 -278.19 0 3759.4 2536)">
   <stop stop-color="#d37663" offset="0"/>
   <stop stop-color="#fab79e" offset="1"/>
  </linearGradient>
  <clipPath id="clipPath3056" clipPathUnits="userSpaceOnUse">
   <path d="m4179.2 2102c-56.08-2.49-110.59-14.76-165.18-28.86-56.25-14.53-112.46-26.65-170.22-29.81-81.41-4.48-162.49 5.47-242.49 22.18-84.9 17.74-169.39 39.62-256.15 39.18-0.11 0-0.11-0.19 0-0.19 90.93-0.94 179.82-25.53 268.82-43.88 80.42-16.58 162.22-24.84 243.92-18.91 53.6 3.89 105.94 15.88 158.21 29.37 53.91 13.92 107.84 25.45 163.09 29.58 0.75 0.07 0.75 1.36 0 1.34zm-170.41 109.85c16.12-30.39 39.6-54.21 66.94-70.89 30.46-18.56 64.22-28.08 97.73-36.39 0.03 0 0.04 0.04 0.01 0.05-32.41 9.14-65.07 20.11-94.54 38.38-29.24 18.09-53.18 44.39-69.67 77.42-42.21 84.6-42.55 185.8-38.57 280.1 1.76 41.43 4.21 82.85 3.25 124.36-0.04 1.64-2.15 1.63-2.19 0-2.42-93.49-14.05-188.34-1.95-281.48 5.9-45.47 18.05-92.02 38.99-131.55zm-507.97-5.89c22.22 37.86 34.33 84.59 41.11 129.1 6.9 45.27 7.2 91.46 5.67 137.23-1.71 50.89-5.14 101.68-6.44 152.59-0.05 1.63-2.16 1.64-2.2 0-2.19-95.31 12.53-190.8-0.83-285.72-6.47-45.99-19.3-93.68-42.02-132.73-18.19-31.23-44.49-54.17-73.87-70.26-26.22-14.38-54.65-23.62-82.81-31.55-0.03-0.01-0.02-0.05 0.01-0.05 31.81 7.89 63.38 17.03 92.73 33.47 27.75 15.56 51.43 38.56 68.65 67.92z"/>
  </clipPath>
  <linearGradient id="linearGradient3062" gradientUnits="userSpaceOnUse" gradientTransform="matrix(0 -279.37 -279.37 0 3759.6 2536.9)">
   <stop stop-color="#d37663" offset="0"/>
   <stop stop-color="#fab79e" offset="1"/>
  </linearGradient>
  <clipPath id="clipPath3074" clipPathUnits="userSpaceOnUse">
   <path d="m3934.3 2715.8c-93.85 5.11-172.83-44.12-176.43-109.99-3.58-65.86 69.58-123.4 163.4-128.53 93.85-5.12 172.82 44.14 176.41 110 3.59 65.85-69.55 123.41-163.38 128.52z"/>
  </clipPath>
  <radialGradient id="radialGradient3080" gradientUnits="userSpaceOnUse" cy="0" cx="0" gradientTransform="matrix(169.89 -9.249 -6.4907 -119.27 3927.8 2596.5)" r="1">
   <stop stop-color="#fcd3b5" offset="0"/>
   <stop stop-color="#fab79e" offset="1"/>
  </radialGradient>
  <clipPath id="clipPath3090" clipPathUnits="userSpaceOnUse">
   <path d="m3636.1 2545c86.17 20.11 132.77 135.9 104.11 258.66-28.65 122.74-121.74 205.93-207.89 185.82-1.49-0.34-2.95-0.8-4.43-1.21-50.96-88.54-79.47-265.21-79.47-265.21 13.08-42.53 21.27-85.08 50.71-121.06 0 0 4.69-7.55 14.1-19.91 37.07-32.05 80.79-46.92 122.87-37.09z"/>
  </clipPath>
  <radialGradient id="radialGradient3096" gradientUnits="userSpaceOnUse" cy="0" cx="0" gradientTransform="matrix(51.89 -222.23 -155.99 -36.411 3584.2 2767.2)" r="1">
   <stop stop-color="#f78d88" offset="0"/>
   <stop stop-color="#fab79e" offset="1"/>
  </radialGradient>
  <clipPath id="clipPath3106" clipPathUnits="userSpaceOnUse">
   <path d="m4266 2914.5 9.25 65.12c-72.71-3.88-147.79-72.06-180.91-171.69-39.08-117.62-5.04-235.14 75.93-265.55 37.27 66.62 77.72 141.45 92.44 215.05 23.38 116.85 3.29 157.07 3.29 157.07z"/>
  </clipPath>
  <radialGradient id="radialGradient3112" gradientUnits="userSpaceOnUse" cy="0" cx="0" gradientTransform="matrix(-71.935 -216.52 -151.98 50.52 4246.4 2757.4)" r="1">
   <stop stop-color="#f78d88" offset="0"/>
   <stop stop-color="#fab79e" offset="1"/>
  </radialGradient>
  <clipPath id="clipPath3122" clipPathUnits="userSpaceOnUse">
   <path d="m3823.1 3043.7s117.78-32.73 219.22-3.27c101.45 29.44 140.72 45.8 140.72 45.8s3.26 75.27-32.73 111.26c-35.99 36-111.26 189.79-143.98 212.69-32.72 22.91-42.54 81.81-98.16 88.37-55.63 6.53-166.89-32.74-206.15-72-39.28-39.27-107.99-179.98-111.26-189.8-3.27-9.81 3.27-88.35 6.54-111.25 3.27-22.92 26.19-39.27 42.55-49.08 16.35-9.81 183.25-32.72 183.25-32.72z"/>
  </clipPath>
  <linearGradient id="linearGradient3128" gradientUnits="userSpaceOnUse" gradientTransform="matrix(0 -370.27 -370.27 0 3886.5 3469.1)">
   <stop stop-color="#fcd3b5" offset="0"/>
   <stop stop-color="#fab79e" offset="1"/>
  </linearGradient>
  <clipPath id="clipPath3138" clipPathUnits="userSpaceOnUse">
   <path d="m3582.6 2950.4s-57.27-3.26-54 29.47c3.28 32.71 58.91 114.52 98.17 114.52 39.27 0 129.26-16.36 129.26-16.36l44.18-13.08 22.91 3.26s29.44-91.62-19.65-135.79c0 0-75.26 3.27-81.8 3.27-6.55 0-139.07 14.71-139.07 14.71z"/>
  </clipPath>
  <linearGradient id="linearGradient3144" gradientUnits="userSpaceOnUse" gradientTransform="matrix(0 -191.74 -191.74 0 3680.2 3129.4)">
   <stop stop-color="#d37663" offset="0"/>
   <stop stop-color="#fab79e" offset="1"/>
  </linearGradient>
  <clipPath id="clipPath3154" clipPathUnits="userSpaceOnUse">
   <path d="m4047.3 2932.4s-31.07 52.35-17.99 134.17l40.9 1.62 45.81 16.36s91.62 11.46 145.62-14.72c0 0 26.18-42.54 24.54-47.44-1.64-4.92-19.63-70.37-19.63-70.37l-49.08-6.54z"/>
  </clipPath>
  <linearGradient id="linearGradient3160" gradientUnits="userSpaceOnUse" gradientTransform="matrix(0 -183.07 -183.07 0 4156.1 3120.5)">
   <stop stop-color="#d37663" offset="0"/>
   <stop stop-color="#fab79e" offset="1"/>
  </linearGradient>
  <clipPath id="clipPath3170" clipPathUnits="userSpaceOnUse">
   <path d="m4271.4 2924.3 15.26 107.43-2.18 74.18-58.9 41.45s-200.68 141.8-229.05 194.15c-28.36 52.35-93.81 159.26-93.81 159.26s-93.8-30.56-143.98-117.82c-50.17-87.26-159.24-296.68-218.14-375.21s-92.17-284.69-92.17-284.69c13.08-42.53 21.27-85.08 50.71-121.06 0 0 26.14-42.16 80.01-91.36-7.47 26.35-71.05 262.7 5.07 427.3 80.72 174.53 159.25 283.59 196.34 373.03 37.08 89.45 100.34 133.09 100.34 133.09s17.45-122.18 82.9-211.61c65.45-89.45 76.35-111.27 167.98-148.35 0 0 111.24-45.81 109.08-133.07-2.07-82.25 26.89-145.14 19.24-216.03 3.16 10.76 5.88 21.51 8.02 32.24 23.38 116.86 3.28 157.07 3.28 157.07z"/>
  </clipPath>
  <linearGradient id="linearGradient3176" gradientUnits="userSpaceOnUse" gradientTransform="matrix(0 -677.73 -677.73 0 3867.6 3089.8)">
   <stop stop-color="#d37663" offset="0"/>
   <stop stop-color="#f89d8c" offset="1"/>
  </linearGradient>
  <clipPath id="clipPath3186" clipPathUnits="userSpaceOnUse">
   <path d="m3857.5 2694.4c1.62-10.79 15.09-3.94 19.64 0.8 5.94 6.16 13.79 21.58 10 30.28-9.94 22.84-26.12-20.7-28.82-27z"/>
  </clipPath>
  <linearGradient id="linearGradient3192" gradientUnits="userSpaceOnUse" gradientTransform="matrix(18.137 -14.649 -14.649 -18.137 3865.7 2715.1)">
   <stop stop-color="#fcd3b5" offset="0"/>
   <stop stop-color="#fab79e" offset="1"/>
  </linearGradient>
  <clipPath id="clipPath3202" clipPathUnits="userSpaceOnUse">
   <path d="m4032.5 2686.2c-6.86 3.26-23.89 32.22-14.73 37.46 12.63 7.21 15.3-27.61 16.37-32.56z"/>
  </clipPath>
  <linearGradient id="linearGradient3208" gradientUnits="userSpaceOnUse" gradientTransform="matrix(-16.619 -12.842 -12.842 16.619 4033.1 2711.1)">
   <stop stop-color="#fcd3b5" offset="0"/>
   <stop stop-color="#fab79e" offset="1"/>
  </linearGradient>
  <clipPath id="clipPath3218" clipPathUnits="userSpaceOnUse">
   <path d="m4026 2723s-23.72 18.82-27.81 29.46c-4.09 10.63-17.18 50.72-9.01 107.98 0 0 8.19 40.08 13.1 44.17 4.9 4.1 55.62-91.63 54.8-141.52-0.81-49.9-22.9-71.99-22.9-71.99s-0.81 18-2.46 22.9z"/>
  </clipPath>
  <linearGradient id="linearGradient3224" gradientUnits="userSpaceOnUse" gradientTransform="matrix(124.64 106.31 106.31 -124.64 3935.2 2727.1)">
   <stop stop-color="#d37663" offset="0"/>
   <stop stop-color="#fab79e" offset="1"/>
  </linearGradient>
  <clipPath id="clipPath3234" clipPathUnits="userSpaceOnUse">
   <path d="m3862.4 2711s8.12 20.53 19.64 33.81c33.54 38.72 26.99 146.17 17.17 158.15-9.81 12.01-79.35-31.63-92.44-83.98-13.09-52.36-7.63-105.8 49.09-143.99 0 0-3.27 17.47 3.26 28.36z"/>
  </clipPath>
  <linearGradient id="linearGradient3240" gradientUnits="userSpaceOnUse" gradientTransform="matrix(-212.73 158.36 158.36 212.73 4025.4 2678.9)">
   <stop stop-color="#d37663" offset="0"/>
   <stop stop-color="#fab79e" offset="1"/>
  </linearGradient>
  <clipPath id="clipPath3250" clipPathUnits="userSpaceOnUse">
   <path d="m3994.4 2702.3c-3.72-19.56-23.43-21.86-39.42-16-43.95 16.08-20.56 68.13-20.56 102.17 0 58.9-10.92 142.88-10.92 142.88l55.63-7.62s0-119.99 4.36-151.62c4.37-31.63 18.56-35.98 10.91-69.81z"/>
  </clipPath>
  <linearGradient id="linearGradient3256" gradientUnits="userSpaceOnUse" gradientTransform="matrix(0 187.53 187.53 0 3960 2750.7)">
   <stop stop-color="#fcd3b5" offset="0"/>
   <stop stop-color="#fab79e" offset="1"/>
  </linearGradient>
  <clipPath id="clipPath3268" clipPathUnits="userSpaceOnUse">
   <path d="m3858 2679.4s8.71-3.28 20.72 2.19c12 5.45 31.64 17.43 40.36 17.43 0 0 16.36-10.91 21.81-16.36 5.46-5.45 25.09-14.18 39.27-10.9 14.18 3.26 22.91 26.18 22.91 26.18s20.72-2.19 25.09-26.18c0 0-5.46-10.91-15.28-14.18 0 0-10.89-38.17-61.07-40.36-50.19-2.19-75.26 25.09-86.18 41.46 0 0-5.45 8.72-6.55 14.18z"/>
  </clipPath>
  <linearGradient id="linearGradient3274" gradientUnits="userSpaceOnUse" gradientTransform="matrix(0 -95.412 -95.412 0 3943.1 2684.7)">
   <stop stop-color="#d37663" offset="0"/>
   <stop stop-color="#fab79e" offset="1"/>
  </linearGradient>
  <clipPath id="clipPath3288" clipPathUnits="userSpaceOnUse">
   <path d="m3996.3 2745.6c4.54-12.51 10.13-23.02 10.02-36.72 0-0.06 0.11-0.06 0.11 0 1.23 22.9-10.78 44.45-15.65 66.32-0.97 4.28-1.67 8.64-2.29 13.02 0.18-1.45 0.33-2.88 0.53-4.32 1.76-12.82 2.88-26.12 7.28-38.3zm-7.12 114.9c0.03 0.29-0.46 0.35-0.49 0.07-2.92-19.94-3.18-40.01-1.48-59.99-1.49 19.97-0.16 40.4 1.97 59.92zm-1.97-59.92c0.3-4.15 0.72-8.28 1.28-12.36-0.5 4.12-0.94 8.24-1.28 12.36zm39.1-77.22c-0.31 0.4-0.86-0.09-0.66-0.5 10.48-20.85 12.23-52.31-11.91-64.77-0.56-0.27-0.16-1.2 0.42-1 26.52 9.08 27.66 46.64 12.15 66.27zm-20.36-40.94c-1.26 0.34-3.04 0.63-4.59 0.45 1.46 3.75 2.51 7.69 3.07 11.77 0.05 0.31-0.38 0.45-0.47 0.13-5.36-19.45-22.69-39.1-41.24-46.85-0.13-0.05-0.09-0.27 0.06-0.22 16.58 5.09 30.78 17.31 37.66 33.02 1.18-0.19 2.48 0.03 3.65-0.06 1.64-0.11 3.19-0.6 4.58-1.47 2.95-1.87 2.58-5.47 1.53-8.33-0.2-0.59 0.76-1 1.02-0.43 1.48 3.35 1.69 6.72-0.83 9.6-1.11 1.29-2.85 1.96-4.44 2.39zm-88.77-0.06c-10.24 0.86-20.74-5.9-28.63-11.58-0.09-0.06-0.02-0.19 0.07-0.13 6.89 4.34 14.01 7.21 22.06 8.54 10.94 1.81 17.11-2.68 22.15-12.04 0.31-0.56 1.09-0.14 1.01 0.43-1.46 8.7-8.09 14.06-16.66 14.78zm-58.27-5.22c-4.1 13.03 1.18 26.23 6.07 38.18 0.18 0.45-0.52 0.68-0.75 0.32-7.73-11.98-11.67-27.21-8.47-41.29 3.21-14.14 16.63-21.15 29.49-24.57 0.27-0.09 0.37 0.31 0.12 0.41-12.55 5.02-22.35 13.88-26.46 26.95z"/>
  </clipPath>
  <linearGradient id="linearGradient3294" gradientUnits="userSpaceOnUse" gradientTransform="matrix(0 100.58 100.58 0 3945.5 2745.8)">
   <stop stop-color="#a74737" offset="0"/>
   <stop stop-color="#e99981" offset="1"/>
  </linearGradient>
  <clipPath id="clipPath3308" clipPathUnits="userSpaceOnUse">
   <path d="m3857.5 2523.3s29.67 3.3 77.13 2.36c47.47-0.97 87.9 4.22 90.99 0.77 3.1-3.46-4.87-29.24-72.94-30.43-68.06-1.2-89.77 6.52-95.18 27.3z"/>
  </clipPath>
  <radialGradient id="radialGradient3314" gradientUnits="userSpaceOnUse" cy="0" cx="0" gradientTransform="matrix(83.614 -4.5588 -4.5588 -83.614 3947.3 2505.3)" r="1">
   <stop stop-color="#f47b69" offset="0"/>
   <stop stop-color="#f25950" offset="1"/>
  </radialGradient>
  <clipPath id="clipPath3330" clipPathUnits="userSpaceOnUse">
   <path d="m3481.7 3061.7s90.55 26.18 168.9 18c0 0 59.2-9.82 80.1-18 20.91-8.19 73.14-9.82 94.04 6.54 0 0-48.77 8.19-88.81 19.64-40.05 11.45-142.79 32.72-254.23-26.18z"/>
  </clipPath>
  <linearGradient id="linearGradient3336" gradientUnits="userSpaceOnUse" gradientTransform="matrix(0 17.914 17.914 0 3653.2 3081.6)">
   <stop stop-color="#100f0d" offset="0"/>
   <stop stop-color="#1a2024" offset="1"/>
  </linearGradient>
  <clipPath id="clipPath3346" clipPathUnits="userSpaceOnUse">
   <path d="m4273 3061.7s-64.93 26.18-121.1 18c0 0-42.46-9.82-57.43-18-14.99-8.19-52.46-9.82-67.44 6.54 0 0 34.97 8.19 63.69 19.64 28.71 11.45 102.37 32.72 182.28-26.18z"/>
  </clipPath>
  <linearGradient id="linearGradient3352" gradientUnits="userSpaceOnUse" gradientTransform="matrix(0 17.914 -11.73 0 4150.1 3081.6)">
   <stop stop-color="#100f0d" offset="0"/>
   <stop stop-color="#1a2024" offset="1"/>
  </linearGradient>
  <clipPath id="clipPath3362" clipPathUnits="userSpaceOnUse">
   <path d="m4435 2765.6c-16.35 104.71-22.89 278.14-22.89 278.14-6.55 212.68-68.73 356.67-163.61 484.28-94.9 127.64-261.79 215.97-422.13 219.26-160.34 3.26-307.59-71.99-307.59-71.99-189.79-215.98-304.32-435.23-356.68-693.73-29.44-130.89-42.53-278.15-3.27-409.04 39.27-127.6 170.16-278.12 314.14-284.67 68.71-58.91 227.41-93.26 292.86-8.2l1.64 1.64c-91.56-40.52-169.33-11.48-229.87 46.95l0.81 0.51c-83.44 145.61-73.63 381.22-73.63 381.22 3.28 101.44 88.36 287.96 125.99 335.4 37.63 47.45 112.89 150.52 166.88 271.6 53.98 121.07 129.26 157.07 129.26 157.07 45.81-24.55 39.27-160.34 117.8-269.96 78.53-109.63 196.33-119.45 196.33-119.45-99.8 37.64-134.16 119.45-134.16 119.45 39.28-78.54 184.88-134.17 184.88-134.17-22.71 11.95-62.86 59.69-82.86 84.54 35.36-41.04 95.95-86.18 95.95-86.18s0-57.26-4.91-91.62c-4.9-34.36 6.55-91.62 9.82-107.98s21.26-99.8 21.26-99.8c32.72-143.99-6.54-431.94-55.63-500.66-49.08-68.71-153.78-81.8-153.78-81.8 350.12-22.91 369.77 474.47 353.39 579.19z"/>
  </clipPath>
  <linearGradient id="linearGradient3368" gradientUnits="userSpaceOnUse" gradientTransform="matrix(1e-7 2022.5 2022.5 -1e-7 3786.7 2210.1)">
   <stop stop-color="#100f0d" offset="0"/>
   <stop stop-color="#2c414f" offset="1"/>
  </linearGradient>
  <clipPath id="clipPath3378" clipPathUnits="userSpaceOnUse">
   <path d="m4081.1 3647.4c-10.45 11.45-33.95 20.72-46.28 25.01 24.77-33.68-21.99-89.38-55.84-101.21-43.28-15.14-111.65 5.16-152.16 13.47-65.63 13.47-232.77 4.01-240.47 98.3l-39.27-14.72c-2.82-6.33-3.49-17.35-4.28-23.79 8.23 1.61 20.16-3.13 28.33-1.74-54.29-92.42 126.03-70.74 167.49-72.52 40.01-1.72 62.64-19.81 98.17-33.27 23.66-8.94 60.99-4.31 68.57-28.91 20.55 67.06 87.13 0.56 121.71 33.61 21.13 20.19-5.85 46.6 20.79 62.68 18.29 11.05 43.62-2.31 63.27-7.6-22.53 13.3-14.46 33.63-30.03 50.69zm167.41-119.43c-94.9 127.64-261.79 215.97-422.13 219.26-160.34 3.26-307.59-71.99-307.59-71.99-6.74-7.67-13.35-15.34-19.9-23.02l6.81-0.99 41.45 17.46s174.52 80.71 338.13 52.35c146.92-25.47 283.27-107.26 375.91-210.56-4.17 5.87-8.38 11.7-12.68 17.49z"/>
  </clipPath>
  <linearGradient id="linearGradient3384" gradientUnits="userSpaceOnUse" gradientTransform="matrix(0 523.64 523.64 0 3880 3163.3)">
   <stop stop-color="#100f0d" offset="0"/>
   <stop stop-color="#385e74" offset="1"/>
  </linearGradient>
  <clipPath id="clipPath3394" clipPathUnits="userSpaceOnUse">
   <path d="m4435 2765.6c-16.35 104.71-22.89 278.14-22.89 278.14-5.43 176.11-49.01 305.07-117.7 416.69-0.63-22.56-3.79-43.98-14.57-52.5-27.77-21.96-61.19 18.21-65.37 47.83-1.48-25.28-1.7-55.87-19.54-72.62-43.38 27.89-92.69 58.52-146.01 38.53-25.4-9.52-41.25-39.82-69.93-38.28-25.06 1.33-53.73 33.89-63.81 54.22l-1.27-1.55c20.97-53.84 32.2-150.2 90.8-231.98 78.53-109.63 196.33-119.45 196.33-119.45-99.8 37.64-134.16 119.45-134.16 119.45 39.28-78.54 184.88-134.17 184.88-134.17-22.71 11.95-62.86 59.69-82.86 84.54 35.36-41.04 95.95-86.18 95.95-86.18s0-57.26-4.91-91.62c-4.9-34.36 6.55-91.62 9.82-107.98s21.26-99.8 21.26-99.8c32.72-143.99-6.54-431.94-55.63-500.66-49.08-68.71-153.78-81.8-153.78-81.8 350.12-22.91 369.77 474.47 353.39 579.19zm-824.13 614.21c-46.47 6.26-73.23 32.81-94.47 72.4-19.49 36.32-23.39 84.32-76.57 74.5-1.07 46.86 41.58 80.89 55.26 121.07-175.65-207.14-282.85-418.68-332.99-666.22-29.44-130.89-42.53-278.15-3.27-409.04 39.27-127.6 170.16-278.12 314.14-284.67 68.71-58.91 227.41-93.26 292.86-8.2l1.64 1.64c-91.56-40.52-169.33-11.48-229.87 46.95l0.81 0.51c-83.44 145.61-73.63 381.22-73.63 381.22 3.28 101.44 88.36 287.96 125.99 335.4 37.63 47.45 112.89 150.52 166.88 271.6 26.55 59.53 58.23 98.47 83.59 122.68-66.24-31.62-155.82-69.87-230.37-59.84z"/>
  </clipPath>
  <linearGradient id="linearGradient3400" gradientUnits="userSpaceOnUse" gradientTransform="matrix(-372.86 -1675.6 -1675.6 372.86 3938.2 3410.8)">
   <stop stop-color="#100f0d" offset="0"/>
   <stop stop-color="#39566e" offset="1"/>
  </linearGradient>
  <clipPath id="clipPath3410" clipPathUnits="userSpaceOnUse">
   <path d="m4284.5 3186.2c0.13 1.34 0.13 3 0.05 4.83-0.23-1.49-0.27-3.08-0.05-4.83zm82.42 91.25c-15.32-23.33-56.58-43.59-84.59-40.73l-6.55-6.54c4.15-10.5 8.23-28.33 8.77-39.15 2.8 19.15 39.21 17.57 51.82 28.67 13.05 11.51 14.04 49.05 37.12 32.5-0.05 8.6-3.41 16.6-6.57 25.25zm-239.48-42.91c-44.51-2.32-92.57 9.03-130.89 30.54l10.91-23.99c5.54-20.5 23.77-35.25 39.42-49.41-2.44 7.15-3.34 15.27-2 22.9 21.88 0.39 35.17-10.56 58.49-4.52 21.11 5.47 36.16 13.67 59.04 11.45 25.62-2.49 84.51-17.84 96.03-42.9-3.6 18.9 0.91 55.32-12.66 68.8-9.42-24.63-92.53-11.52-118.34-12.87zm-482.12-17.46c-35.44-5.67-70.08-14.46-106.89-3.92-31.98 9.18-62.88 28.53-91.55 44.77-20.79 11.78-42.23 29.07-67.15 28.95-17.04-0.07-21.93-8.68-33.81 4.29-9.58 10.46-1.5 33.29-20.94 30.96-0.4 3.66-1.25 9.14-0.34 12.76l4.37 26.18c-37.18-29.1-45.02-98.33-63.42-138.84 9.11 10.35 22.4 22.46 37.24 23.33 20.42 1.21 22.95-13.15 37.69-21.36 16.01-8.93 27.36-1.12 44.66 3.25 23.44 5.91 46.8 6.08 70.83 2.78 40.75-5.62 73.52-29.18 112.95-39.31 14.58-3.76 34.94-3.91 48-12.51 16.66-10.95 10.67-19.12 10.76-37.01 28.12 35.31 57.14 70.12 84.78 105.58-17.49-20.1-41.55-25.78-67.18-29.9zm72.32 36.44c-1.69-2.19-3.44-4.36-5.14-6.54 1.78 2.05 3.51 4.18 5.14 6.54z"/>
  </clipPath>
  <linearGradient id="linearGradient3416" gradientUnits="userSpaceOnUse" gradientTransform="matrix(1e-7 -1138.7 -1138.7 -1e-7 3819.5 3854.8)">
   <stop stop-color="#100f0d" offset="0"/>
   <stop stop-color="#2c414f" offset="1"/>
  </linearGradient>
  <clipPath id="clipPath3428" clipPathUnits="userSpaceOnUse">
   <path d="m3765.8 2279.6 1.64 1.64c-0.53-0.23-1.04-0.41-1.57-0.65zm305.99 914.57-0.04 0.04c13.1-35.99 42.55-73.63 42.55-73.63-53 22.92-126.06 118.58-143.44 142.03 9.21-19.83 20.23-39.61 33.82-58.58 78.53-109.63 196.33-119.45 196.33-119.45-78.66 29.66-116.64 86.73-129.22 109.59zm-778.83-497.34c-6.54 62.17 0 124.34 9.82 186.52 0 0-105.29-275.11 99.16-548.55-56.72 26.01-224.7 122.1-246.41 355.48-23.62 253.97 109.97 598.49 145.89 677.74-65.56-121.28-111.35-248.28-139.35-386.51-29.44-130.89-42.53-278.15-3.27-409.04 39.27-127.6 170.16-278.12 314.14-284.67 9.34-8.01 20.4-15.55 32.62-22.42l-41.83 30.38c-108.12 96.22-158.03 261.01-170.77 401.07zm274.88 356.66c-30.16-30.14-67.19-131.43-78.43-163.55-27.6 179.41-8.29 286.28-8.29 286.28-29.46-96.54-20.7-188.08-18.01-287.96-39.41-140.98-0.16-398.55 5.81-435.6-42.03 69.95-67.97 139.45-67.97 139.45 17.72-85.02 65.17-194.97 136.63-263.91l0.8 0.5c-83.44 145.61-73.63 381.22-73.63 381.22 3.28 101.44 88.36 287.96 125.99 335.4 37.63 47.45 112.89 150.52 166.88 271.6 3.27 7.31 6.62 14.33 10.02 21.03-2.19 0.17-3.48 0.23-3.48 0.23-35.99-71.98-160.33-248.68-196.32-284.69zm-23.16-806.13c-13.9 5.19-27.06 11.25-39.07 18 12.01-6.75 25.17-12.81 39.07-18zm53.22-14.53c-8.75 1.55-17.45 3.51-25.98 5.81 8.54-2.3 17.22-4.27 25.98-5.81zm653.83 837.03c-19.57 10.3-52.04 47.13-73.47 73.02l16.21-37.02c-36.48 18.24-111 78.76-121.46 87.31 46.41-72.77 178.72-123.31 178.72-123.31zm183.24-304.31c-16.35 104.71-22.89 278.14-22.89 278.14-1.7 54.41-7.02 104.28-15.59 150.58 4.36-68.49 5.75-204.75 15.59-306.01 11.44-117.81 39.27-165.26-4.92-379.59-44.18-214.32-207.78-292.87-207.78-292.87 60.53 36 89.99 125.99 112.89 281.42 22.91 155.43-11.46 296.12-21.28 332.13-9.81 36-26.17 99.81-17.99 158.7 8.18 58.9-4.91 215.98-8.18 265.06s-28.35 131.98-28.35 131.98c2.87-13.29 5.32-28.59 7.48-45.22 10.13-77.93 13.74-185.37 22.82-254.49-24.23 14.47-95.2 72.84-95.2 72.84l5.77-13.22c35.75-38.23 87.48-76.78 87.48-76.78s0-57.26-4.91-91.62c-4.9-34.36 6.55-91.62 9.82-107.98s21.26-99.8 21.26-99.8c32.72-143.99-6.54-431.94-55.63-500.66-49.08-68.71-153.78-81.8-153.78-81.8 350.12-22.91 369.77 474.47 353.39 579.19z"/>
  </clipPath>
  <linearGradient id="linearGradient3434" gradientUnits="userSpaceOnUse" gradientTransform="matrix(-346.69 -1558 -1558 346.69 3919.5 3327)">
   <stop stop-color="#100f0d" offset="0"/>
   <stop stop-color="#2d4154" offset="1"/>
  </linearGradient>
  <clipPath id="clipPath3444" clipPathUnits="userSpaceOnUse">
   <path d="m4415.4 2800.5s2.19-349.02-122.15-497.38c0 0 159.24 133.08 122.15 497.38zm-1110.4-21.81s0.01-559.76 387.42-532.34c-18.84-0.98-330.31-9.2-387.42 532.34zm388.31-532.28c-0.3-0.03-0.6-0.04-0.89-0.06 0.58 0.03 0.89 0.06 0.89 0.06zm-458.12 896.59c-205.05-589 89.45-746.07 89.45-746.07-250.87 257.41-89.45 746.07-89.45 746.07z"/>
  </clipPath>
  <linearGradient id="linearGradient3450" gradientUnits="userSpaceOnUse" gradientTransform="matrix(1e-7 -1736.1 -1736.1 -1e-7 3791.8 4469.9)">
   <stop stop-color="#100f0d" offset="0"/>
   <stop stop-color="#2c414f" offset="1"/>
  </linearGradient>
  <clipPath id="clipPath3460" clipPathUnits="userSpaceOnUse">
   <path d="m4234.2 3402.4c-10.03 39.58-27.59 77.14-50.39 110.92-31.01 45.94-72.73 83.89-121.83 109.65-0.08 0.03-0.12-0.06-0.06-0.08 74.72-41.8 132.2-112.43 160.59-192.92 12.34-34.94 17.79-71.82 21.92-108.5 4.48-40.01 7.2-80.22 10.12-120.38 3.21-44.13 5.13-89.09 13.11-132.68 0.38-2.03 3.3-1.12 3.05 0.83-10.45 76.07-13.06 152.94-20.4 229.35-3.34 34.84-7.48 69.8-16.11 103.81zm166.78-950.33c-28.8-94.85-81.14-190.6-173.03-236.64-38.45-19.27-81.09-27.32-123.82-27.39 38.47 8.39 76.57 25.63 106.32 50.23 41.85 34.6 55.25 89.08 66.74 139.84 15.77 69.77 24.02 141.57 27.01 212.98 2.54 60.89 0.9 122.31-11.99 182.03-11.03 51.06-24.27 102.41-29.76 154.45-3.91 37.08 2.74 73.8 3.88 110.89 0.31 9.93 0.51 19.89 0.52 29.81 0 3.46-10.97 9.38-13.1 11.07-27.66 21.75-56.37 44.93-79.76 71.88-5.23 6.44-10.39 12.93-15.43 19.5-1.54 2.01-4.96 0.12-3.45-2.01 4.11-5.78 8.57-11.32 13.19-16.72 7.28-9.04 14.73-17.95 22.31-26.74 10.27-11.9 20.88-23.56 32.1-34.56 4.23-4.15 8.62-8.35 13.26-12.22-20.34 8.75-40.17 18.96-59.34 29.84-41.18 23.37-85.98 53.37-108.11 96.73-1.15 2.28-4.27 0.28-3.34-1.94 7.19-16.98 18.75-32.59 30.51-46.62 24.85-29.65 56.64-52.68 91.88-68.28-36.11 5.84-71.96 22.31-102.08 41.45-74.89 47.62-115.91 126.11-140.92 208.84-9.76 32.36-16.7 65.77-28.74 97.38-3.94 10.37-8.75 20.53-15.72 29.19-2.29 2.86-10.32 12.4-14.57 10.25-11.77-5.96-22.48-14.3-32.55-22.73-23.97-20.07-44.24-44.39-61.6-70.3-26.48-39.54-43.33-84.35-65.32-126.36-21.09-40.32-44.63-79.34-69.78-117.23-19.07-28.75-39.21-56.83-60.38-84.07-14.37-18.5-26.45-37.87-37.48-58.54-33.26-62.31-60.47-129.11-79.47-197.16-5.55-19.9-10.32-40.19-13.18-60.73 2.37 69.39-1.01 139.29-3.44 208.53-1.32 37.83-2.19 75.68-0.05 113.47 2.23 39.34 8.9 77.97 19.42 115.9 0.22 0.77-0.94 1.08-1.18 0.33-23.44-72.01-23.23-148.76-20.78-223.62 1.29-39.47 2.56-78.93 3.11-118.42 0.51-36.39-0.16-72.94 1.37-109.33-0.48-5.04-0.88-10.08-1.09-15.14-0.43-10.75-0.4-21.55-0.29-32.31 0.51-53.08 4.79-106.24 13.23-158.64 10.32-64.15 27.44-128.18 58.88-185.4-32.95 32.27-59.36 71.9-80.42 112.08-24.2 46.18-42.64 95.49-53.51 146.54-0.03 0.1-0.17 0.06-0.15-0.04 12.74-61.48 35.92-121.48 67.17-175.89 31.19-54.28 73.19-105.8 129.66-134.98 24.55-12.69 51.63-19.96 79.24-21.08 31.26-1.28 59.7 7.05 87.83 19.52-43.72-54.16-124.01-55.23-186.04-40.11-31.73 7.74-62.69 20.65-89.73 39.08-31.44 21.4-58.06 50.96-80.42 81.48-48.9 66.71-78.87 146.15-97.16 226.31-9.23 40.54-15.28 81.84-18.7 123.28-4.51 54.83 1.19 109.65 8.9 163.9 0.46 3.22 0.95 6.44 1.42 9.66 0.05 0.36-0.48 0.52-0.54 0.15-8.63-52.02-14.64-104.84-12.6-157.64 1.61-41.28 7.62-82.77 15.79-123.21 16.04-79.4 43.48-158.02 87.41-226.44 20.63-32.11 45.46-61.65 74.3-86.73-79.25 6.11-148.94 53.35-202.36 109.74-56.67 59.83-96.79 133.14-114.51 213.63-21.62 98.2-16.37 201.04 0.11 299.59 14.81 88.54 36.78 176.48 66.7 261.14 60.1 170.09 155.64 324.67 271.01 462.69 7.4 8.85 14.91 17.65 22.48 26.4 3.07 3.56 6.14 9.14 10.43 11.27 5.5 2.73 11.08 5.27 16.68 7.76 26.84 11.95 54.5 22.1 82.54 30.91 85.27 26.82 176.17 40.2 265.19 27.3 85.31-12.36 167.14-46.8 237.88-95.67 35.38-24.41 67.86-53.03 96.5-85.09 25.97-29.08 48.3-61.61 68.98-94.57 41.08-65.47 72.09-136.63 91.87-211.35 18.99-71.69 25.96-144.81 29.13-218.65 2.68-62.07 6.59-124.13 12.49-185.96 4.19-43.78 12.57-87.16 13.76-131.17 2.39-89.05-9.44-180.13-35.31-265.34zm40.18 263.36c-0.98 43.17-9.14 85.63-13.36 128.52-6.21 62.79-10.11 125.86-12.86 188.9-3.16 71.63-9.62 142.31-26.94 212.08-18.45 74.27-48.4 145.16-87.83 210.69-40.93 67.99-90.15 129.22-153.42 177.65-67.41 51.61-146.82 88.35-229.88 105.9-86.74 18.34-175.77 10.66-261.07-11.48-47.11-12.24-94.64-28.27-138.18-50.33-2.31-1.17-4.6-5.05-6.31-6.99-3.82-4.39-7.62-8.78-11.39-13.2-8.11-9.45-16.12-19-24.05-28.61-14.5-17.57-28.64-35.42-42.49-53.5-27.69-36.14-53.88-73.41-78.47-111.73-94.38-147.03-160.21-309.99-194.97-481.18-9.61-47.36-18.6-94.49-23.38-142.63-4.9-49.36-5.88-99.16-1.78-148.62 3.8-45.64 11.95-91.84 27.47-135.06 12.78-35.57 31.08-69.11 52.43-100.23 57.96-84.49 149.31-162.46 255.77-168.8 22.94-19.38 49.45-33.32 77.64-43.46 58.78-21.17 133.2-28.27 188.15 6.96 11.93 7.64 21.68 17.75 30.28 28.93 0.3 0.41 0.06 0.87-0.34 1.09 0.48 0.22 0.96 0.44 1.44 0.64 0.39 0.19 0.1 0.85-0.27 0.7-30.77-12.96-66.34-18.98-99.59-16.13-30.94 2.66-60.4 14.4-86.46 30.92-15.45 9.8-29.75 21.29-43.02 33.93-37.09 65.83-53.67 142.54-63.41 216.79-6.65 50.59-9.56 101.88-8.75 152.9 0.84 52.5 16.12 103.8 33.46 152.98 12.42 35.22 26.81 69.75 42.75 103.51 12.14 25.72 25.11 51.32 40.7 75.14 14.45 22.1 32.07 42.29 47.48 63.76 24.1 33.57 46.71 68.23 67.79 103.77 25.04 42.25 45.83 86.16 67.06 130.36 17.25 35.91 39.44 69.65 66.83 98.61 14.47 15.27 30.6 29.39 48.58 40.4 1.68 1.04 3.4 2.03 5.15 2.98 2.47 1.34 0.74 0.6 1.97-0.14 9.38-5.63 15.3-15.95 19.92-25.54 13.96-28.96 20.11-61.94 28.82-92.69 11.24-39.7 24.84-78.75 44.59-115.09 30.98-57.02 78.33-103.02 137.1-130.73 25.53-12.05 54.31-22.2 82.69-24.63 2.25-0.2 2.33 2.96 0.51 3.66-40.23 15.42-75.85 40.42-103.62 73.34 21.7-21.19 48.22-38.29 73.5-52.98 25.47-14.81 52.26-28.23 79.8-38.79 2.11-0.81 3.47 2.56 1.53 3.62-18.92 10.27-34.74 27.93-49.15 44.65 8.29-7.47 16.75-14.72 25.19-21.79 9.48-7.99 19.13-15.75 28.93-23.31 1.69-1.3 3.4-2.59 5.1-3.88-0.01-1.91-0.02-3.81-0.05-5.7-0.16-15.82-0.65-31.63-1.51-47.45-0.97-18.05-4.18-36.01-4.57-54.06-0.66-31.49 5.25-63.35 11.51-94.11 9.53-46.76 22.38-93.42 28.05-140.87 8.51-71.05 5.12-143.82-2.29-214.81-6.83-65.36-17.15-132.08-38.61-194.42-8.07-23.43-18.24-44.67-35.51-62.76-23.75-24.81-55.64-41.02-87.82-51.98-15.99-5.46-34.46-10.4-50.42-12.42-2.9-0.36-3.03-4.41 0-4.6 54.18-3.42 108.56 5.54 156.67 31.41 42.88 23.06 77.71 58.46 104.74 98.57 55.43 82.21 80.47 183.3 92.02 280.59 4.73 40.03 7.03 80.46 6.15 120.75z"/>
  </clipPath>
  <linearGradient id="linearGradient3466" gradientUnits="userSpaceOnUse" gradientTransform="matrix(1e-7 2028 2028 -1e-7 3786.8 2207.9)">
   <stop stop-color="#100f0d" offset="0"/>
   <stop stop-color="#212d35" offset="1"/>
  </linearGradient>
  <clipPath id="clipPath3480" clipPathUnits="userSpaceOnUse">
   <path d="m3733.3 2965.1c0 12.84-4.99 24.5-13.08 33.23-8.88 1.69-18.21 2.17-28.02 1.19-23.27-2.49-38.09-6.25-51.98-13.43-3.04-6.37-4.78-13.47-4.78-20.99 0-19.89 11.88-36.96 28.91-44.63 8.83-1.74 17.88-3 26.97-3.75 23.73 3.39 41.98 23.72 41.98 48.38z"/>
  </clipPath>
  <linearGradient id="linearGradient3486" gradientUnits="userSpaceOnUse" gradientTransform="matrix(0 70.152 70.152 0 3684.4 2927.4)">
   <stop stop-color="#321714" offset="0"/>
   <stop stop-color="#100f0d" offset="1"/>
  </linearGradient>
  <clipPath id="clipPath3496" clipPathUnits="userSpaceOnUse">
   <path d="m3684.4 2921.8c23.92 0 43.3 19.38 43.3 43.29 0 14.16-6.82 26.7-17.32 34.58-5.87 0.5-11.91 0.45-18.15-0.16-18.43-1.98-31.55-4.76-43.12-9.37-5.02-7.08-8.01-15.71-8.01-25.05 0-23.91 19.39-43.29 43.3-43.29z"/>
  </clipPath>
  <linearGradient id="linearGradient3504" gradientUnits="userSpaceOnUse" gradientTransform="matrix(0 70.144 70.144 0 3684.4 2927.4)">
   <stop stop-color="#5f1f17" offset="0"/>
   <stop stop-color="#5f1f17" offset=".0057804"/>
   <stop stop-color="#211212" offset="1"/>
  </linearGradient>
  <clipPath id="clipPath3516" clipPathUnits="userSpaceOnUse">
   <path d="m3702.4 2965.1c0-9.96-8.07-18.04-18.04-18.04s-18.04 8.08-18.04 18.04c0 9.97 8.07 18.05 18.04 18.05s18.04-8.08 18.04-18.05z"/>
  </clipPath>
  <linearGradient id="linearGradient3522" gradientUnits="userSpaceOnUse" gradientTransform="matrix(0 -18.186 -18.186 0 3684.4 2962.1)">
   <stop stop-color="#100f0d" offset="0"/>
   <stop stop-color="#6f6c67" offset="1"/>
  </linearGradient>
  <clipPath id="clipPath3544" clipPathUnits="userSpaceOnUse">
   <path d="m4117.9 2916.2c25.16 0 45.55 21.9 45.55 48.93 0 11.77-3.87 22.56-10.31 31-5.35 1.38-11.34 2.5-18.25 3.42-24.19 3.02-44.9-7.66-61.83-25.9-0.45-2.77-0.73-5.61-0.73-8.52 0-27.03 20.4-48.93 45.57-48.93z"/>
  </clipPath>
  <linearGradient id="linearGradient3550" gradientUnits="userSpaceOnUse" gradientTransform="matrix(0 70.153 70.153 0 4117.9 2927.4)">
   <stop stop-color="#321714" offset="0"/>
   <stop stop-color="#100f0d" offset="1"/>
  </linearGradient>
  <clipPath id="clipPath3560" clipPathUnits="userSpaceOnUse">
   <path d="m4117.9 2921.8c22.26 0 40.31 19.38 40.31 43.29 0 13.21-5.53 25.03-14.2 32.96-2.87 0.53-5.87 1.02-9.12 1.46-20.84 2.6-39.07-4.95-54.54-18.74-1.77-4.87-2.78-10.13-2.78-15.68 0-23.91 18.06-43.29 40.33-43.29z"/>
  </clipPath>
  <linearGradient id="linearGradient3568" gradientUnits="userSpaceOnUse" gradientTransform="matrix(0 70.141 70.141 0 4117.9 2927.5)">
   <stop stop-color="#5f1f17" offset="0"/>
   <stop stop-color="#5f1f17" offset=".0057804"/>
   <stop stop-color="#211212" offset="1"/>
  </linearGradient>
  <clipPath id="clipPath3580" clipPathUnits="userSpaceOnUse">
   <path d="m4134.7 2965.1c0-9.96-7.53-18.04-16.81-18.04-9.29 0-16.81 8.08-16.81 18.04 0 9.97 7.52 18.05 16.81 18.05 9.28 0 16.81-8.08 16.81-18.05z"/>
  </clipPath>
  <linearGradient id="linearGradient3586" gradientUnits="userSpaceOnUse" gradientTransform="matrix(0 -18.186 -18.186 0 4117.9 2962.1)">
   <stop stop-color="#100f0d" offset="0"/>
   <stop stop-color="#6f6c67" offset="1"/>
  </linearGradient>
 </defs>
 <metadata>
  <rdf:RDF>
   <cc:Work rdf:about="">
    <dc:format>image/svg+xml</dc:format>
    <dc:type rdf:resource="http://purl.org/dc/dcmitype/StillImage"/>
    <dc:title/>
   </cc:Work>
  </rdf:RDF>
 </metadata>
 <g transform="translate(0,-97)">
  <g stroke-width=".28515" transform="matrix(1.3536 0 0 -1.1307 -413.14 523.97)">
   <path d="m444.61 271.55c-0.064 2.816-0.437 5.638-0.795 8.367-0.193 1.482-0.395 3.012-0.543 4.52-0.554 5.607-0.974 11.777-1.285 18.862-0.257 5.881-0.798 13.616-2.707 21.308-1.829 7.363-4.803 14.497-8.839 21.203-4.556 7.565-9.613 13.422-15.464 17.9-6.823 5.224-14.841 8.918-23.184 10.681-3.256 0.688-6.689 1.038-10.2 1.038-5.104 0-10.533-0.738-16.132-2.192-5.402-1.403-9.955-3.062-13.917-5.07-0.266-0.133-0.464-0.399-0.638-0.633-0.051-0.068-0.097-0.131-0.141-0.181-0.383-0.441-0.764-0.881-1.143-1.321-0.769-0.899-1.557-1.836-2.409-2.869-1.396-1.691-2.829-3.496-4.261-5.364-2.773-3.622-5.421-7.391-7.871-11.207-9.474-14.762-16.055-31.006-19.564-48.285-0.915-4.506-1.849-9.323-2.346-14.313-0.513-5.167-0.573-10.198-0.178-14.951 0.43-5.172 1.338-9.632 2.774-13.63 1.207-3.356 2.989-6.766 5.3-10.137 3.329-4.852 12.489-16.199 25.789-17.081 1.294-1.075 2.766-2.036 4.388-2.863-0.596-1.63-1.287-3.126-2.056-4.448-1.645-2.825-4.066-5.128-7.197-6.844-2.677-1.466-5.637-2.396-8.18-3.111-0.234-0.066-0.38-0.298-0.347-0.541s0.246-0.425 0.492-0.425l0.557-0.009c7.165-0.074 14.335-1.657 21.268-3.187 1.809-0.399 3.68-0.813 5.521-1.192 6.832-1.409 13.089-2.092 19.127-2.092 1.819 0 3.636 0.064 5.399 0.191 5.47 0.398 10.879 1.655 15.907 2.952 4.399 1.135 10.219 2.496 16.22 2.945 0.298 0.02 0.524 0.275 0.513 0.579-0.01 0.289-0.231 0.516-0.529 0.532l-0.349 0.197c-0.033 0.022-0.069 0.038-0.108 0.05-2.922 0.823-6.317 1.916-9.328 3.782-1.627 1.007-3.081 2.273-4.325 3.765 5.299 2.481 9.698 6.437 12.745 11.475 2.505 4.139 4.174 9.057 4.964 14.619 0.247 1.729 0.399 3.266 0.46 4.686 1.444-4.748 1.261-9.654 0.79-13.162-0.588-4.366-2.2-10.366-6.525-14.215-1-0.481-2.082-0.922-3.218-1.308-1.785-0.61-3.542-1.041-4.946-1.219-0.383-0.049-0.661-0.372-0.651-0.751 0.012-0.372 0.299-0.661 0.682-0.687 0.742-0.045 1.49-0.07 2.22-0.07 5.062 0 9.675 1.101 13.71 3.27 4.06 2.181 7.644 5.551 10.652 10.015 4.84 7.18 7.875 16.428 9.28 28.276 0.496 4.189 0.704 8.274 0.618 12.145" fill="#100f0d"/>
   <g stroke-width=".28515">
    <g transform="scale(.1)">
     <g stroke-width=".28515" clip-path="url(#clipPath3008)">
      <path d="m3429.3 2676.8c-34.36-78.51 93.25-358.28 93.25-358.28h68.71s34.36 147.25 39.27 171.79c4.91 24.53-68.71 191.4-68.71 191.4s-98.16 73.64-132.52-4.91zm947.26-63.79c-4.92 14.72-19.63 220.86-19.63 220.86l-107.98 68.71-206.13-279.75s-88.35-215.96-88.35-265.04c0-49.07 66.07-174.7 66.07-174.7 213.8 87.27 191.97 346.87 191.97 346.87 45.82-89.45 30.54-257.42-52.35-320.69l88.79 30.72 54 58.9s63.79 147.25 63.79 161.97 14.73 137.43 9.82 152.15" fill="url(#linearGradient3014)"/>
     </g>
    </g>
    <g transform="scale(.1)">
     <g stroke-width=".28515" clip-path="url(#clipPath3024)">
      <path d="m4160.5 2208.7c46.6 35.17 68 94.7 75.94 150.62 8.07 56.75 3.98 119.84-22.21 171.69-0.88 1.74-3.91 0.96-3.75-1.01 1.85-22.17 0.46-44.87-1.79-66.94-5.14-50.04-18.32-99.64-41.55-144.4-31.74-61.16-83.59-108.13-146.94-134.97-0.66-0.28-0.18-1.43 0.5-1.17 59.17 23.71 107.84 65.08 140.83 119.59 26.48 43.78 41.82 93.89 48.99 144.34 3.89 27.34 6.27 55.92 3.99 83.55-1.25-0.35-2.49-0.69-3.75-1.02 25.84-51.03 29.49-112.78 21.97-168.63-7.42-55.05-28.2-114.9-73.09-150.52-0.63-0.52 0.22-1.62 0.86-1.13" fill="url(#linearGradient3030)"/>
     </g>
    </g>
    <g transform="scale(.1)">
     <g stroke-width=".28515" clip-path="url(#clipPath3040)">
      <path d="m4173.5 2104.6c-74.52 19.63-137.58 45.81-171.97 127.62-54.46 130.88-28.65 255.24-28.65 392.66h-432.79c0-137.42 25.79-261.78-28.66-392.66-34.39-81.81-97.45-107.99-171.97-127.62h5.73c126.11 0 246.41-46.88 369.74-58.9 235.02-22.91 295.2 45.81 464.3 55.62l-5.73 3.28" fill="url(#linearGradient3046)"/>
     </g>
    </g>
    <g transform="scale(.1)">
     <g stroke-width=".28515" clip-path="url(#clipPath3056)">
      <path d="m4179.2 2102c-56.08-2.49-110.59-14.76-165.18-28.86-56.25-14.53-112.46-26.65-170.22-29.81-81.41-4.48-162.49 5.47-242.49 22.18-84.9 17.74-169.39 39.62-256.15 39.18-0.11 0-0.11-0.19 0-0.19 90.93-0.94 179.82-25.53 268.82-43.88 80.42-16.58 162.22-24.84 243.92-18.91 53.6 3.89 105.94 15.88 158.21 29.37 53.91 13.92 107.84 25.45 163.09 29.58 0.75 0.07 0.75 1.36 0 1.34zm-170.41 109.85c16.12-30.39 39.6-54.21 66.94-70.89 30.46-18.56 64.22-28.08 97.73-36.39 0.03 0 0.04 0.04 0.01 0.05-32.41 9.14-65.07 20.11-94.54 38.38-29.24 18.09-53.18 44.39-69.67 77.42-42.21 84.6-42.55 185.8-38.57 280.1 1.76 41.43 4.21 82.85 3.25 124.36-0.04 1.64-2.15 1.63-2.19 0-2.42-93.49-14.05-188.34-1.95-281.48 5.9-45.47 18.05-92.02 38.99-131.55zm-507.97-5.89c22.22 37.86 34.33 84.59 41.11 129.1 6.9 45.27 7.2 91.46 5.67 137.23-1.71 50.89-5.14 101.68-6.44 152.59-0.05 1.63-2.16 1.64-2.2 0-2.19-95.31 12.53-190.8-0.83-285.72-6.47-45.99-19.3-93.68-42.02-132.73-18.19-31.23-44.49-54.17-73.87-70.26-26.22-14.38-54.65-23.62-82.81-31.55-0.03-0.01-0.02-0.05 0.01-0.05 31.81 7.89 63.38 17.03 92.73 33.47 27.75 15.56 51.43 38.56 68.65 67.92" fill="url(#linearGradient3062)"/>
     </g>
    </g>
   </g>
   <path d="m428.67 303.17-0.218 7.418-5.89 4.145s-20.068 14.18-22.905 19.415c-2.836 5.235-9.381 15.926-9.381 15.926s-9.38-3.056-14.398-11.782c-5.017-8.726-15.924-29.668-21.814-37.521s-9.217-28.469-9.217-28.469c1.308-4.253 2.127-8.508 5.071-12.106 0 0 6.381-10.308 19.797-17.509 13.417-7.197 18.7-9.267 26.451-8.67 8.508 0.654 13.634 6.816 17.889 14.835 4.254 8.017 10.799 18.051 12.761 27.868 2.338 11.686 0.328 15.707 0.328 15.707l1.526 10.743" fill="#fab79e"/>
   <g stroke-width=".28515">
    <g transform="scale(.1)">
     <g stroke-width=".28515" clip-path="url(#clipPath3074)">
      <path d="m3934.3 2715.8c-93.85 5.11-172.83-44.12-176.43-109.99-3.58-65.86 69.58-123.4 163.4-128.53 93.85-5.12 172.82 44.14 176.41 110 3.59 65.85-69.55 123.41-163.38 128.52" fill="url(#radialGradient3080)"/>
     </g>
    </g>
    <g transform="scale(.1)">
     <g stroke-width=".28515" clip-path="url(#clipPath3090)">
      <path d="m3636.1 2545c86.17 20.11 132.77 135.9 104.11 258.66-28.65 122.74-121.74 205.93-207.89 185.82-1.49-0.34-2.95-0.8-4.43-1.21-50.96-88.54-79.47-265.21-79.47-265.21 13.08-42.53 21.27-85.08 50.71-121.06 0 0 4.69-7.55 14.1-19.91 37.07-32.05 80.79-46.92 122.87-37.09" fill="url(#radialGradient3096)"/>
     </g>
    </g>
    <g transform="scale(.1)">
     <g stroke-width=".28515" clip-path="url(#clipPath3106)">
      <path d="m4266 2914.5 9.25 65.12c-72.71-3.88-147.79-72.06-180.91-171.69-39.08-117.62-5.04-235.14 75.93-265.55 37.27 66.62 77.72 141.45 92.44 215.05 23.38 116.85 3.29 157.07 3.29 157.07" fill="url(#radialGradient3112)"/>
     </g>
    </g>
    <g transform="scale(.1)">
     <g stroke-width=".28515" clip-path="url(#clipPath3122)">
      <path d="m3823.1 3043.7s117.78-32.73 219.22-3.27c101.45 29.44 140.72 45.8 140.72 45.8s3.26 75.27-32.73 111.26c-35.99 36-111.26 189.79-143.98 212.69-32.72 22.91-42.54 81.81-98.16 88.37-55.63 6.53-166.89-32.74-206.15-72-39.28-39.27-107.99-179.98-111.26-189.8-3.27-9.81 3.27-88.35 6.54-111.25 3.27-22.92 26.19-39.27 42.55-49.08 16.35-9.81 183.25-32.72 183.25-32.72" fill="url(#linearGradient3128)"/>
     </g>
    </g>
    <g transform="scale(.1)">
     <g stroke-width=".28515" clip-path="url(#clipPath3138)">
      <path d="m3582.6 2950.4s-57.27-3.26-54 29.47c3.28 32.71 58.91 114.52 98.17 114.52 39.27 0 129.26-16.36 129.26-16.36l44.18-13.08 22.91 3.26s29.44-91.62-19.65-135.79c0 0-75.26 3.27-81.8 3.27-6.55 0-139.07 14.71-139.07 14.71" fill="url(#linearGradient3144)"/>
     </g>
    </g>
    <g transform="scale(.1)">
     <g stroke-width=".28515" clip-path="url(#clipPath3154)">
      <path d="m4047.3 2932.4s-31.07 52.35-17.99 134.17l40.9 1.62 45.81 16.36s91.62 11.46 145.62-14.72c0 0 26.18-42.54 24.54-47.44-1.64-4.92-19.63-70.37-19.63-70.37l-49.08-6.54-170.17-13.08" fill="url(#linearGradient3160)"/>
     </g>
    </g>
    <g transform="scale(.1)">
     <g stroke-width=".28515" clip-path="url(#clipPath3170)">
      <path d="m4271.4 2924.3 15.26 107.43-2.18 74.18-58.9 41.45s-200.68 141.8-229.05 194.15c-28.36 52.35-93.81 159.26-93.81 159.26s-93.8-30.56-143.98-117.82c-50.17-87.26-159.24-296.68-218.14-375.21s-92.17-284.69-92.17-284.69c13.08-42.53 21.27-85.08 50.71-121.06 0 0 26.14-42.16 80.01-91.36-7.47 26.35-71.05 262.7 5.07 427.3 80.72 174.53 159.25 283.59 196.34 373.03 37.08 89.45 100.34 133.09 100.34 133.09s17.45-122.18 82.9-211.61c65.45-89.45 76.35-111.27 167.98-148.35 0 0 111.24-45.81 109.08-133.07-2.07-82.25 26.89-145.14 19.24-216.03 3.16 10.76 5.88 21.51 8.02 32.24 23.38 116.86 3.28 157.07 3.28 157.07" fill="url(#linearGradient3176)"/>
     </g>
    </g>
    <g transform="scale(.1)">
     <g stroke-width=".28515" clip-path="url(#clipPath3186)">
      <path d="m3857.5 2694.4c1.62-10.79 15.09-3.94 19.64 0.8 5.94 6.16 13.79 21.58 10 30.28-9.94 22.84-26.12-20.7-28.82-27l-0.82-4.08" fill="url(#linearGradient3192)"/>
     </g>
    </g>
    <g transform="scale(.1)">
     <g stroke-width=".28515" clip-path="url(#clipPath3202)">
      <path d="m4032.5 2686.2c-6.86 3.26-23.89 32.22-14.73 37.46 12.63 7.21 15.3-27.61 16.37-32.56l-1.64-4.9" fill="url(#linearGradient3208)"/>
     </g>
    </g>
    <g transform="scale(.1)">
     <g stroke-width=".28515" clip-path="url(#clipPath3218)">
      <path d="m4026 2723s-23.72 18.82-27.81 29.46c-4.09 10.63-17.18 50.72-9.01 107.98 0 0 8.19 40.08 13.1 44.17 4.9 4.1 55.62-91.63 54.8-141.52-0.81-49.9-22.9-71.99-22.9-71.99s-0.81 18-2.46 22.9l-5.72 9" fill="url(#linearGradient3224)"/>
     </g>
    </g>
    <g transform="scale(.1)">
     <g stroke-width=".28515" clip-path="url(#clipPath3234)">
      <path d="m3862.4 2711s8.12 20.53 19.64 33.81c33.54 38.72 26.99 146.17 17.17 158.15-9.81 12.01-79.35-31.63-92.44-83.98-13.09-52.36-7.63-105.8 49.09-143.99 0 0-3.27 17.47 3.26 28.36l3.28 7.65" fill="url(#linearGradient3240)"/>
     </g>
    </g>
    <g transform="scale(.1)">
     <g stroke-width=".28515" clip-path="url(#clipPath3250)">
      <path d="m3994.4 2702.3c-3.72-19.56-23.43-21.86-39.42-16-43.95 16.08-20.56 68.13-20.56 102.17 0 58.9-10.92 142.88-10.92 142.88l55.63-7.62s0-119.99 4.36-151.62c4.37-31.63 18.56-35.98 10.91-69.81" fill="url(#linearGradient3256)"/>
     </g>
    </g>
   </g>
   <path d="m392.67 274.92s2.945 2.401 6.762 0.546l-0.11 0.872s-2.944 1.745-6.87-0.545l0.218-0.873" fill="#fab79e"/>
   <g stroke-width=".28515" transform="scale(.1)">
    <g stroke-width=".28515" clip-path="url(#clipPath3268)">
     <path d="m3858 2679.4s8.71-3.28 20.72 2.19c12 5.45 31.64 17.43 40.36 17.43 0 0 16.36-10.91 21.81-16.36 5.46-5.45 25.09-14.18 39.27-10.9 14.18 3.26 22.91 26.18 22.91 26.18s20.72-2.19 25.09-26.18c0 0-5.46-10.91-15.28-14.18 0 0-10.89-38.17-61.07-40.36-50.19-2.19-75.26 25.09-86.18 41.46 0 0-5.45 8.72-6.55 14.18l-1.08 6.54" fill="url(#linearGradient3274)"/>
    </g>
   </g>
   <path d="m389.67 267.5s1.309 0.873 2.563 0.438c0 0-0.764-1.582-2.563-0.438" fill="#100f0d"/>
   <path d="m399.93 268.05s0.981 0.217 1.146-0.328c0 0-0.11-0.654-1.255-0.164l0.109 0.492" fill="#100f0d"/>
   <g stroke-width=".28515" transform="scale(.1)">
    <g stroke-width=".28515" clip-path="url(#clipPath3288)">
     <path d="m3996.3 2745.6c4.54-12.51 10.13-23.02 10.02-36.72 0-0.06 0.11-0.06 0.11 0 1.23 22.9-10.78 44.45-15.65 66.32-0.97 4.28-1.67 8.64-2.29 13.02 0.18-1.45 0.33-2.88 0.53-4.32 1.76-12.82 2.88-26.12 7.28-38.3zm-7.12 114.9c0.03 0.29-0.46 0.35-0.49 0.07-2.92-19.94-3.18-40.01-1.48-59.99-1.49 19.97-0.16 40.4 1.97 59.92zm-1.97-59.92c0.3-4.15 0.72-8.28 1.28-12.36-0.5 4.12-0.94 8.24-1.28 12.36zm39.1-77.22c-0.31 0.4-0.86-0.09-0.66-0.5 10.48-20.85 12.23-52.31-11.91-64.77-0.56-0.27-0.16-1.2 0.42-1 26.52 9.08 27.66 46.64 12.15 66.27zm-20.36-40.94c-1.26 0.34-3.04 0.63-4.59 0.45 1.46 3.75 2.51 7.69 3.07 11.77 0.05 0.31-0.38 0.45-0.47 0.13-5.36-19.45-22.69-39.1-41.24-46.85-0.13-0.05-0.09-0.27 0.06-0.22 16.58 5.09 30.78 17.31 37.66 33.02 1.18-0.19 2.48 0.03 3.65-0.06 1.64-0.11 3.19-0.6 4.58-1.47 2.95-1.87 2.58-5.47 1.53-8.33-0.2-0.59 0.76-1 1.02-0.43 1.48 3.35 1.69 6.72-0.83 9.6-1.11 1.29-2.85 1.96-4.44 2.39zm-88.77-0.06c-10.24 0.86-20.74-5.9-28.63-11.58-0.09-0.06-0.02-0.19 0.07-0.13 6.89 4.34 14.01 7.21 22.06 8.54 10.94 1.81 17.11-2.68 22.15-12.04 0.31-0.56 1.09-0.14 1.01 0.43-1.46 8.7-8.09 14.06-16.66 14.78zm-58.27-5.22c-4.1 13.03 1.18 26.23 6.07 38.18 0.18 0.45-0.52 0.68-0.75 0.32-7.73-11.98-11.67-27.21-8.47-41.29 3.21-14.14 16.63-21.15 29.49-24.57 0.27-0.09 0.37 0.31 0.12 0.41-12.55 5.02-22.35 13.88-26.46 26.95" fill="url(#linearGradient3294)"/>
    </g>
   </g>
   <path d="m344.84 272.3c0.664-2.186 1.226-4.405 2.007-6.556 0.341-0.941 0.744-1.859 1.201-2.748 0.523-1.017 1.253-1.859 1.846-2.819 0.593-0.959 1.289-1.861 1.987-2.744 4.392-5.564 9.936-10.236 16.036-13.821 3.905-2.296 8.002-4.371 12.121-6.256 2.756-1.264 5.601-2.382 8.574-3.014 2.561-0.547 5.187-0.631 7.793-0.415 3.471 0.287 6.692 1.667 9.406 3.825 2.925 2.328 5.135 5.461 7.016 8.654 2.236 3.793 4.296 7.717 6.407 11.58 2.263 4.139 4.403 8.365 6.008 12.81 1.527 4.234 2.364 8.715 2.693 13.198 0.157 2.157 0.169 4.354-0.193 6.491-0.114 0.656-0.244 1.371-0.541 1.974-0.036 0.074-0.144 0.008-0.109-0.063 0.45-0.907 0.554-2.063 0.654-3.05 0.358-3.477-0.046-7.032-0.62-10.462-1.605-9.59-6.505-17.985-11.186-26.354-3.784-6.765-7.431-14.527-15.203-17.423-5.659-2.11-12.106-0.997-17.57 1.125-3.85 1.496-7.535 3.423-11.185 5.345-4.144 2.18-8.091 4.566-11.723 7.537-3.823 3.126-7.465 6.78-10.195 10.923-0.922 1.399-1.869 2.671-2.567 4.213-1.17 2.577-1.811 5.361-2.638 8.055-0.003 0.014-0.023 0.008-0.019-0.005" fill="#a74737"/>
   <path d="m376.53 256.11s7.076-5.465 12.541-7.402c0 0 8.951-1.142 12.496 0.793 0 0 1.551 1.391 2.448 2.816 0.897 1.427 4.669 4.497 4.669 4.497l-5.281-0.694s-5.89 0.157-6.38 0.183c-0.489 0.027-9.039-0.49-9.039-0.49l-11.454 0.297" fill="#f25950"/>
   <g stroke-width=".28515" transform="scale(.1)">
    <g stroke-width=".28515" clip-path="url(#clipPath3308)">
     <path d="m3857.5 2523.3s29.67 3.3 77.13 2.36c47.47-0.97 87.9 4.22 90.99 0.77 3.1-3.46-4.87-29.24-72.94-30.43-68.06-1.2-89.77 6.52-95.18 27.3" fill="url(#radialGradient3314)"/>
    </g>
   </g>
   <g>
    <path d="m401.43 250c-3.102-1.305-10.113-0.677-11.593-0.76-1.479-0.085-4.361 1.137-4.361 1.137l-0.053-0.028c1.234-0.649 2.478-1.226 3.648-1.642 0 0 8.951-1.142 12.496 0.793 0 0 0.901 0.808 1.725 1.822-0.041 0.034-0.066 0.054-0.066 0.054zm1.973 6.119s-5.89 0.157-6.38 0.183c-0.489 0.027-9.039-0.49-9.039-0.49l-11.454 0.297s1.874-1.447 4.435-3.114l0.066 0.001s7.073 0.516 10.018 0.437c2.946-0.079 5.96-0.407 7.783-0.014 1.542 0.331 4.586 0.287 6.172 0.079 1.439 1.49 3.68 3.315 3.68 3.315l-5.281-0.694" fill="#f14848"/>
    <path d="m408.02 257.42c-2.17-0.7-2.17-0.7-3.458-0.303-1.289 0.398-3.024 1.64-4.829 1.575-1.807-0.067-2.54-1.5-3.694-1.601-1.152-0.102-1.734 1.241-3.196 1.484-1.46 0.244-5.136-1.03-7.449-1.396-2.314-0.365-6.115-0.978-6.115-0.978-2.45 0.135-7.201 3.179-7.201 3.179 2.343-2.094 5.204-3.725 8.099-4.702 4.207-0.228 8.269-0.129 12.34 0.134l0.276-0.166c0.971-0.218 1.78-0.424 2.588-0.633 0.642 0.071 1.294 0.35 1.951 0.7l0.38-0.008c2.151 0.374 4.438 0.25 6.571 0.298 2.303 0.2 6.721 3.074 7.509 5.488 0 0-1.605-2.37-3.772-3.071" fill="#f14848"/>
    <path d="m411.65 260.43c-0.916-2.191-3.277-3.798-5.359-4.748-1.19-0.544-2.619-0.608-3.896-0.621-1.584-0.017-3.147-0.061-4.707-0.345 0.222 0.153 0.437 0.316 0.637 0.487 0.065 0.054-0.009 0.141-0.079 0.115-0.935-0.355-1.784-0.89-2.761-1.136-0.853-0.213-1.958 0.234-2.809 0.411-0.02 0.004-0.033-0.026-0.011-0.031 0.534-0.13 1.063-0.282 1.594-0.421 0.271-0.069 0.65-0.118 0.858-0.321 0.053-0.053 0.108-0.067 0.18-0.059 0.802 0.087 1.561 0.415 2.241 0.856 0.008-0.024 0.031-0.044 0.065-0.039 1.975 0.268 3.976 0.198 5.963 0.197 0.487-0.001 0.933-0.029 1.406 0.087 0.56 0.138 1.071 0.495 1.587 0.747 1.942 0.954 4.481 2.607 5.127 4.809 0.008 0.023-0.026 0.034-0.036 0.012zm-19.131-5.621c-1.736 0.081-3.503-0.085-5.242-0.109-1.874-0.03-3.748 0.015-5.621 0.075-0.896 0.028-1.776 0.001-2.625 0.296-0.889 0.309-1.742 0.733-2.573 1.17-1.608 0.847-3.121 1.891-4.492 3.08-0.014 0.012-0.035-0.006-0.021-0.019 1.29-1.158 2.687-2.165 4.196-3.02 0.749-0.425 1.529-0.797 2.319-1.14 0.78-0.336 1.372-0.755 2.218-0.798 1.986-0.101 3.972-0.093 5.959-0.04 1.941 0.051 3.976 0.051 5.893 0.389 0.064 0.012 0.054 0.113-0.011 0.116" fill="#c31d36"/>
   </g>
   <g stroke-width=".28515">
    <g transform="scale(.1)">
     <g stroke-width=".28515" clip-path="url(#clipPath3330)">
      <path d="m3481.7 3061.7s90.55 26.18 168.9 18c0 0 59.2-9.82 80.1-18 20.91-8.19 73.14-9.82 94.04 6.54 0 0-48.77 8.19-88.81 19.64-40.05 11.45-142.79 32.72-254.23-26.18" fill="url(#linearGradient3336)"/>
     </g>
    </g>
    <g transform="scale(.1)">
     <g stroke-width=".28515" clip-path="url(#clipPath3346)">
      <path d="m4273 3061.7s-64.93 26.18-121.1 18c0 0-42.46-9.82-57.43-18-14.99-8.19-52.46-9.82-67.44 6.54 0 0 34.97 8.19 63.69 19.64 28.71 11.45 102.37 32.72 182.28-26.18" fill="url(#linearGradient3352)"/>
     </g>
    </g>
    <g transform="scale(.1)">
     <g stroke-width=".28515" clip-path="url(#clipPath3362)">
      <path d="m4435 2765.6c-16.35 104.71-22.89 278.14-22.89 278.14-6.55 212.68-68.73 356.67-163.61 484.28-94.9 127.64-261.79 215.97-422.13 219.26-160.34 3.26-307.59-71.99-307.59-71.99-189.79-215.98-304.32-435.23-356.68-693.73-29.44-130.89-42.53-278.15-3.27-409.04 39.27-127.6 170.16-278.12 314.14-284.67 68.71-58.91 227.41-93.26 292.86-8.2l1.64 1.64c-91.56-40.52-169.33-11.48-229.87 46.95l0.81 0.51c-83.44 145.61-73.63 381.22-73.63 381.22 3.28 101.44 88.36 287.96 125.99 335.4 37.63 47.45 112.89 150.52 166.88 271.6 53.98 121.07 129.26 157.07 129.26 157.07 45.81-24.55 39.27-160.34 117.8-269.96 78.53-109.63 196.33-119.45 196.33-119.45-99.8 37.64-134.16 119.45-134.16 119.45 39.28-78.54 184.88-134.17 184.88-134.17-22.71 11.95-62.86 59.69-82.86 84.54 35.36-41.04 95.95-86.18 95.95-86.18s0-57.26-4.91-91.62c-4.9-34.36 6.55-91.62 9.82-107.98s21.26-99.8 21.26-99.8c32.72-143.99-6.54-431.94-55.63-500.66-49.08-68.71-153.78-81.8-153.78-81.8 350.12-22.91 369.77 474.47 353.39 579.19" fill="url(#linearGradient3368)"/>
     </g>
    </g>
    <g transform="scale(.1)">
     <g stroke-width=".28515" clip-path="url(#clipPath3378)">
      <path d="m4081.1 3647.4c-10.45 11.45-33.95 20.72-46.28 25.01 24.77-33.68-21.99-89.38-55.84-101.21-43.28-15.14-111.65 5.16-152.16 13.47-65.63 13.47-232.77 4.01-240.47 98.3l-39.27-14.72c-2.82-6.33-3.49-17.35-4.28-23.79 8.23 1.61 20.16-3.13 28.33-1.74-54.29-92.42 126.03-70.74 167.49-72.52 40.01-1.72 62.64-19.81 98.17-33.27 23.66-8.94 60.99-4.31 68.57-28.91 20.55 67.06 87.13 0.56 121.71 33.61 21.13 20.19-5.85 46.6 20.79 62.68 18.29 11.05 43.62-2.31 63.27-7.6-22.53 13.3-14.46 33.63-30.03 50.69zm167.41-119.43c-94.9 127.64-261.79 215.97-422.13 219.26-160.34 3.26-307.59-71.99-307.59-71.99-6.74-7.67-13.35-15.34-19.9-23.02l6.81-0.99 41.45 17.46s174.52 80.71 338.13 52.35c146.92-25.47 283.27-107.26 375.91-210.56-4.17 5.87-8.38 11.7-12.68 17.49" fill="url(#linearGradient3384)"/>
     </g>
    </g>
    <g transform="scale(.1)">
     <g stroke-width=".28515" clip-path="url(#clipPath3394)">
      <path d="m4435 2765.6c-16.35 104.71-22.89 278.14-22.89 278.14-5.43 176.11-49.01 305.07-117.7 416.69-0.63-22.56-3.79-43.98-14.57-52.5-27.77-21.96-61.19 18.21-65.37 47.83-1.48-25.28-1.7-55.87-19.54-72.62-43.38 27.89-92.69 58.52-146.01 38.53-25.4-9.52-41.25-39.82-69.93-38.28-25.06 1.33-53.73 33.89-63.81 54.22l-1.27-1.55c20.97-53.84 32.2-150.2 90.8-231.98 78.53-109.63 196.33-119.45 196.33-119.45-99.8 37.64-134.16 119.45-134.16 119.45 39.28-78.54 184.88-134.17 184.88-134.17-22.71 11.95-62.86 59.69-82.86 84.54 35.36-41.04 95.95-86.18 95.95-86.18s0-57.26-4.91-91.62c-4.9-34.36 6.55-91.62 9.82-107.98s21.26-99.8 21.26-99.8c32.72-143.99-6.54-431.94-55.63-500.66-49.08-68.71-153.78-81.8-153.78-81.8 350.12-22.91 369.77 474.47 353.39 579.19zm-824.13 614.21c-46.47 6.26-73.23 32.81-94.47 72.4-19.49 36.32-23.39 84.32-76.57 74.5-1.07 46.86 41.58 80.89 55.26 121.07-175.65-207.14-282.85-418.68-332.99-666.22-29.44-130.89-42.53-278.15-3.27-409.04 39.27-127.6 170.16-278.12 314.14-284.67 68.71-58.91 227.41-93.26 292.86-8.2l1.64 1.64c-91.56-40.52-169.33-11.48-229.87 46.95l0.81 0.51c-83.44 145.61-73.63 381.22-73.63 381.22 3.28 101.44 88.36 287.96 125.99 335.4 37.63 47.45 112.89 150.52 166.88 271.6 26.55 59.53 58.23 98.47 83.59 122.68-66.24-31.62-155.82-69.87-230.37-59.84" fill="url(#linearGradient3400)"/>
     </g>
    </g>
    <g transform="scale(.1)">
     <g stroke-width=".28515" clip-path="url(#clipPath3410)">
      <path d="m4284.5 3186.2c0.13 1.34 0.13 3 0.05 4.83-0.23-1.49-0.27-3.08-0.05-4.83zm82.42 91.25c-15.32-23.33-56.58-43.59-84.59-40.73l-6.55-6.54c4.15-10.5 8.23-28.33 8.77-39.15 2.8 19.15 39.21 17.57 51.82 28.67 13.05 11.51 14.04 49.05 37.12 32.5-0.05 8.6-3.41 16.6-6.57 25.25zm-239.48-42.91c-44.51-2.32-92.57 9.03-130.89 30.54l10.91-23.99c5.54-20.5 23.77-35.25 39.42-49.41-2.44 7.15-3.34 15.27-2 22.9 21.88 0.39 35.17-10.56 58.49-4.52 21.11 5.47 36.16 13.67 59.04 11.45 25.62-2.49 84.51-17.84 96.03-42.9-3.6 18.9 0.91 55.32-12.66 68.8-9.42-24.63-92.53-11.52-118.34-12.87zm-482.12-17.46c-35.44-5.67-70.08-14.46-106.89-3.92-31.98 9.18-62.88 28.53-91.55 44.77-20.79 11.78-42.23 29.07-67.15 28.95-17.04-0.07-21.93-8.68-33.81 4.29-9.58 10.46-1.5 33.29-20.94 30.96-0.4 3.66-1.25 9.14-0.34 12.76l4.37 26.18c-37.18-29.1-45.02-98.33-63.42-138.84 9.11 10.35 22.4 22.46 37.24 23.33 20.42 1.21 22.95-13.15 37.69-21.36 16.01-8.93 27.36-1.12 44.66 3.25 23.44 5.91 46.8 6.08 70.83 2.78 40.75-5.62 73.52-29.18 112.95-39.31 14.58-3.76 34.94-3.91 48-12.51 16.66-10.95 10.67-19.12 10.76-37.01 28.12 35.31 57.14 70.12 84.78 105.58-17.49-20.1-41.55-25.78-67.18-29.9zm72.32 36.44c-1.69-2.19-3.44-4.36-5.14-6.54 1.78 2.05 3.51 4.18 5.14 6.54" fill="url(#linearGradient3416)"/>
     </g>
    </g>
   </g>
   <path d="m361.09 337.98c-4.647 0.626-7.323 3.281-9.447 7.24-1.949 3.632-2.339 8.432-7.657 7.45-0.107 4.686 4.158 8.089 5.526 12.107-6.746-7.956-12.48-15.979-17.271-24.243 3.505 0.911 7.107 1.089 11.057 0.089 3.58-0.908 6.764-2.851 10.227-3.938 7.381-2.315 15.711-1.553 23.463-1.898 0.096-0.004 0.191-0.013 0.288-0.02 2.29 4.26 4.78 7.219 6.851 9.197-6.624-3.162-15.582-6.987-23.037-5.984zm68.354 8.062c-0.063-2.256-0.379-4.398-1.457-5.25-2.777-2.196-6.119 1.821-6.537 4.783-0.148-2.528-0.17-5.587-1.954-7.262-4.338 2.789-9.269 5.852-14.601 3.853-2.54-0.952-4.125-3.982-6.993-3.828-2.506 0.133-5.373 3.389-6.381 5.422l-0.127-0.155c1.183-3.036 2.056-7.427 3.643-12.144 0.007 0 0.013-0.001 0.021-0.002 6.178-0.469 11.119 4.351 17.359 4.637 5.935 0.273 11.308 0.999 15.459-3.804 0.572 2.649 3.285 4.56 5.989 5.525-1.324 2.863-2.801 5.594-4.421 8.225" fill="#181d1f"/>
   <g stroke-width=".28515">
    <g transform="scale(.1)">
     <g stroke-width=".28515" clip-path="url(#clipPath3428)">
      <path d="m3765.8 2279.6 1.64 1.64c-0.53-0.23-1.04-0.41-1.57-0.65zm305.99 914.57-0.04 0.04c13.1-35.99 42.55-73.63 42.55-73.63-53 22.92-126.06 118.58-143.44 142.03 9.21-19.83 20.23-39.61 33.82-58.58 78.53-109.63 196.33-119.45 196.33-119.45-78.66 29.66-116.64 86.73-129.22 109.59zm-778.83-497.34c-6.54 62.17 0 124.34 9.82 186.52 0 0-105.29-275.11 99.16-548.55-56.72 26.01-224.7 122.1-246.41 355.48-23.62 253.97 109.97 598.49 145.89 677.74-65.56-121.28-111.35-248.28-139.35-386.51-29.44-130.89-42.53-278.15-3.27-409.04 39.27-127.6 170.16-278.12 314.14-284.67 9.34-8.01 20.4-15.55 32.62-22.42l-41.83 30.38c-108.12 96.22-158.03 261.01-170.77 401.07zm274.88 356.66c-30.16-30.14-67.19-131.43-78.43-163.55-27.6 179.41-8.29 286.28-8.29 286.28-29.46-96.54-20.7-188.08-18.01-287.96-39.41-140.98-0.16-398.55 5.81-435.6-42.03 69.95-67.97 139.45-67.97 139.45 17.72-85.02 65.17-194.97 136.63-263.91l0.8 0.5c-83.44 145.61-73.63 381.22-73.63 381.22 3.28 101.44 88.36 287.96 125.99 335.4 37.63 47.45 112.89 150.52 166.88 271.6 3.27 7.31 6.62 14.33 10.02 21.03-2.19 0.17-3.48 0.23-3.48 0.23-35.99-71.98-160.33-248.68-196.32-284.69zm-23.16-806.13c-13.9 5.19-27.06 11.25-39.07 18 12.01-6.75 25.17-12.81 39.07-18zm53.22-14.53c-8.75 1.55-17.45 3.51-25.98 5.81 8.54-2.3 17.22-4.27 25.98-5.81zm653.83 837.03c-19.57 10.3-52.04 47.13-73.47 73.02l16.21-37.02c-36.48 18.24-111 78.76-121.46 87.31 46.41-72.77 178.72-123.31 178.72-123.31zm183.24-304.31c-16.35 104.71-22.89 278.14-22.89 278.14-1.7 54.41-7.02 104.28-15.59 150.58 4.36-68.49 5.75-204.75 15.59-306.01 11.44-117.81 39.27-165.26-4.92-379.59-44.18-214.32-207.78-292.87-207.78-292.87 60.53 36 89.99 125.99 112.89 281.42 22.91 155.43-11.46 296.12-21.28 332.13-9.81 36-26.17 99.81-17.99 158.7 8.18 58.9-4.91 215.98-8.18 265.06s-28.35 131.98-28.35 131.98c2.87-13.29 5.32-28.59 7.48-45.22 10.13-77.93 13.74-185.37 22.82-254.49-24.23 14.47-95.2 72.84-95.2 72.84l5.77-13.22c35.75-38.23 87.48-76.78 87.48-76.78s0-57.26-4.91-91.62c-4.9-34.36 6.55-91.62 9.82-107.98s21.26-99.8 21.26-99.8c32.72-143.99-6.54-431.94-55.63-500.66-49.08-68.71-153.78-81.8-153.78-81.8 350.12-22.91 369.77 474.47 353.39 579.19" fill="url(#linearGradient3434)"/>
     </g>
    </g>
    <g transform="scale(.1)">
     <g stroke-width=".28515" clip-path="url(#clipPath3444)">
      <path d="m4415.4 2800.5s2.19-349.02-122.15-497.38c0 0 159.24 133.08 122.15 497.38zm-1110.4-21.81s0.01-559.76 387.42-532.34c-18.84-0.98-330.31-9.2-387.42 532.34zm388.31-532.28c-0.3-0.03-0.6-0.04-0.89-0.06 0.58 0.03 0.89 0.06 0.89 0.06zm-458.12 896.59c-205.05-589 89.45-746.07 89.45-746.07-250.87 257.41-89.45 746.07-89.45 746.07" fill="url(#linearGradient3450)"/>
     </g>
    </g>
    <g transform="scale(.1)">
     <g stroke-width=".28515" clip-path="url(#clipPath3460)">
      <path d="m4234.2 3402.4c-10.03 39.58-27.59 77.14-50.39 110.92-31.01 45.94-72.73 83.89-121.83 109.65-0.08 0.03-0.12-0.06-0.06-0.08 74.72-41.8 132.2-112.43 160.59-192.92 12.34-34.94 17.79-71.82 21.92-108.5 4.48-40.01 7.2-80.22 10.12-120.38 3.21-44.13 5.13-89.09 13.11-132.68 0.38-2.03 3.3-1.12 3.05 0.83-10.45 76.07-13.06 152.94-20.4 229.35-3.34 34.84-7.48 69.8-16.11 103.81zm166.78-950.33c-28.8-94.85-81.14-190.6-173.03-236.64-38.45-19.27-81.09-27.32-123.82-27.39 38.47 8.39 76.57 25.63 106.32 50.23 41.85 34.6 55.25 89.08 66.74 139.84 15.77 69.77 24.02 141.57 27.01 212.98 2.54 60.89 0.9 122.31-11.99 182.03-11.03 51.06-24.27 102.41-29.76 154.45-3.91 37.08 2.74 73.8 3.88 110.89 0.31 9.93 0.51 19.89 0.52 29.81 0 3.46-10.97 9.38-13.1 11.07-27.66 21.75-56.37 44.93-79.76 71.88-5.23 6.44-10.39 12.93-15.43 19.5-1.54 2.01-4.96 0.12-3.45-2.01 4.11-5.78 8.57-11.32 13.19-16.72 7.28-9.04 14.73-17.95 22.31-26.74 10.27-11.9 20.88-23.56 32.1-34.56 4.23-4.15 8.62-8.35 13.26-12.22-20.34 8.75-40.17 18.96-59.34 29.84-41.18 23.37-85.98 53.37-108.11 96.73-1.15 2.28-4.27 0.28-3.34-1.94 7.19-16.98 18.75-32.59 30.51-46.62 24.85-29.65 56.64-52.68 91.88-68.28-36.11 5.84-71.96 22.31-102.08 41.45-74.89 47.62-115.91 126.11-140.92 208.84-9.76 32.36-16.7 65.77-28.74 97.38-3.94 10.37-8.75 20.53-15.72 29.19-2.29 2.86-10.32 12.4-14.57 10.25-11.77-5.96-22.48-14.3-32.55-22.73-23.97-20.07-44.24-44.39-61.6-70.3-26.48-39.54-43.33-84.35-65.32-126.36-21.09-40.32-44.63-79.34-69.78-117.23-19.07-28.75-39.21-56.83-60.38-84.07-14.37-18.5-26.45-37.87-37.48-58.54-33.26-62.31-60.47-129.11-79.47-197.16-5.55-19.9-10.32-40.19-13.18-60.73 2.37 69.39-1.01 139.29-3.44 208.53-1.32 37.83-2.19 75.68-0.05 113.47 2.23 39.34 8.9 77.97 19.42 115.9 0.22 0.77-0.94 1.08-1.18 0.33-23.44-72.01-23.23-148.76-20.78-223.62 1.29-39.47 2.56-78.93 3.11-118.42 0.51-36.39-0.16-72.94 1.37-109.33-0.48-5.04-0.88-10.08-1.09-15.14-0.43-10.75-0.4-21.55-0.29-32.31 0.51-53.08 4.79-106.24 13.23-158.64 10.32-64.15 27.44-128.18 58.88-185.4-32.95 32.27-59.36 71.9-80.42 112.08-24.2 46.18-42.64 95.49-53.51 146.54-0.03 0.1-0.17 0.06-0.15-0.04 12.74-61.48 35.92-121.48 67.17-175.89 31.19-54.28 73.19-105.8 129.66-134.98 24.55-12.69 51.63-19.96 79.24-21.08 31.26-1.28 59.7 7.05 87.83 19.52-43.72-54.16-124.01-55.23-186.04-40.11-31.73 7.74-62.69 20.65-89.73 39.08-31.44 21.4-58.06 50.96-80.42 81.48-48.9 66.71-78.87 146.15-97.16 226.31-9.23 40.54-15.28 81.84-18.7 123.28-4.51 54.83 1.19 109.65 8.9 163.9 0.46 3.22 0.95 6.44 1.42 9.66 0.05 0.36-0.48 0.52-0.54 0.15-8.63-52.02-14.64-104.84-12.6-157.64 1.61-41.28 7.62-82.77 15.79-123.21 16.04-79.4 43.48-158.02 87.41-226.44 20.63-32.11 45.46-61.65 74.3-86.73-79.25 6.11-148.94 53.35-202.36 109.74-56.67 59.83-96.79 133.14-114.51 213.63-21.62 98.2-16.37 201.04 0.11 299.59 14.81 88.54 36.78 176.48 66.7 261.14 60.1 170.09 155.64 324.67 271.01 462.69 7.4 8.85 14.91 17.65 22.48 26.4 3.07 3.56 6.14 9.14 10.43 11.27 5.5 2.73 11.08 5.27 16.68 7.76 26.84 11.95 54.5 22.1 82.54 30.91 85.27 26.82 176.17 40.2 265.19 27.3 85.31-12.36 167.14-46.8 237.88-95.67 35.38-24.41 67.86-53.03 96.5-85.09 25.97-29.08 48.3-61.61 68.98-94.57 41.08-65.47 72.09-136.63 91.87-211.35 18.99-71.69 25.96-144.81 29.13-218.65 2.68-62.07 6.59-124.13 12.49-185.96 4.19-43.78 12.57-87.16 13.76-131.17 2.39-89.05-9.44-180.13-35.31-265.34zm40.18 263.36c-0.98 43.17-9.14 85.63-13.36 128.52-6.21 62.79-10.11 125.86-12.86 188.9-3.16 71.63-9.62 142.31-26.94 212.08-18.45 74.27-48.4 145.16-87.83 210.69-40.93 67.99-90.15 129.22-153.42 177.65-67.41 51.61-146.82 88.35-229.88 105.9-86.74 18.34-175.77 10.66-261.07-11.48-47.11-12.24-94.64-28.27-138.18-50.33-2.31-1.17-4.6-5.05-6.31-6.99-3.82-4.39-7.62-8.78-11.39-13.2-8.11-9.45-16.12-19-24.05-28.61-14.5-17.57-28.64-35.42-42.49-53.5-27.69-36.14-53.88-73.41-78.47-111.73-94.38-147.03-160.21-309.99-194.97-481.18-9.61-47.36-18.6-94.49-23.38-142.63-4.9-49.36-5.88-99.16-1.78-148.62 3.8-45.64 11.95-91.84 27.47-135.06 12.78-35.57 31.08-69.11 52.43-100.23 57.96-84.49 149.31-162.46 255.77-168.8 22.94-19.38 49.45-33.32 77.64-43.46 58.78-21.17 133.2-28.27 188.15 6.96 11.93 7.64 21.68 17.75 30.28 28.93 0.3 0.41 0.06 0.87-0.34 1.09 0.48 0.22 0.96 0.44 1.44 0.64 0.39 0.19 0.1 0.85-0.27 0.7-30.77-12.96-66.34-18.98-99.59-16.13-30.94 2.66-60.4 14.4-86.46 30.92-15.45 9.8-29.75 21.29-43.02 33.93-37.09 65.83-53.67 142.54-63.41 216.79-6.65 50.59-9.56 101.88-8.75 152.9 0.84 52.5 16.12 103.8 33.46 152.98 12.42 35.22 26.81 69.75 42.75 103.51 12.14 25.72 25.11 51.32 40.7 75.14 14.45 22.1 32.07 42.29 47.48 63.76 24.1 33.57 46.71 68.23 67.79 103.77 25.04 42.25 45.83 86.16 67.06 130.36 17.25 35.91 39.44 69.65 66.83 98.61 14.47 15.27 30.6 29.39 48.58 40.4 1.68 1.04 3.4 2.03 5.15 2.98 2.47 1.34 0.74 0.6 1.97-0.14 9.38-5.63 15.3-15.95 19.92-25.54 13.96-28.96 20.11-61.94 28.82-92.69 11.24-39.7 24.84-78.75 44.59-115.09 30.98-57.02 78.33-103.02 137.1-130.73 25.53-12.05 54.31-22.2 82.69-24.63 2.25-0.2 2.33 2.96 0.51 3.66-40.23 15.42-75.85 40.42-103.62 73.34 21.7-21.19 48.22-38.29 73.5-52.98 25.47-14.81 52.26-28.23 79.8-38.79 2.11-0.81 3.47 2.56 1.53 3.62-18.92 10.27-34.74 27.93-49.15 44.65 8.29-7.47 16.75-14.72 25.19-21.79 9.48-7.99 19.13-15.75 28.93-23.31 1.69-1.3 3.4-2.59 5.1-3.88-0.01-1.91-0.02-3.81-0.05-5.7-0.16-15.82-0.65-31.63-1.51-47.45-0.97-18.05-4.18-36.01-4.57-54.06-0.66-31.49 5.25-63.35 11.51-94.11 9.53-46.76 22.38-93.42 28.05-140.87 8.51-71.05 5.12-143.82-2.29-214.81-6.83-65.36-17.15-132.08-38.61-194.42-8.07-23.43-18.24-44.67-35.51-62.76-23.75-24.81-55.64-41.02-87.82-51.98-15.99-5.46-34.46-10.4-50.42-12.42-2.9-0.36-3.03-4.41 0-4.6 54.18-3.42 108.56 5.54 156.67 31.41 42.88 23.06 77.71 58.46 104.74 98.57 55.43 82.21 80.47 183.3 92.02 280.59 4.73 40.03 7.03 80.46 6.15 120.75" fill="url(#linearGradient3466)"/>
     </g>
    </g>
   </g>
   <path d="m375.28 291.77s-9-2.945-17.671 2.29c0 0-1.145 1.144 0.655 2.781 1.799 1.636 12.925 9.326 20.287-0.98l-3.271-4.091" fill="#100f0d"/>
   <path d="m359.57 295.04c3.927-3.434 12.598-4.417 17.833-2.453l1.801 0.328 1.144 0.327c-2.454 4.09-6.217 7.199-11.125 6.708-4.581-0.491-5.89-1.473-9.653-4.58v-0.33" fill="#fff"/>
   <g stroke-width=".28515" transform="scale(.1)">
    <g stroke-width=".28515" clip-path="url(#clipPath3480)">
     <path d="m3733.3 2965.1c0 12.84-4.99 24.5-13.08 33.23-8.88 1.69-18.21 2.17-28.02 1.19-23.27-2.49-38.09-6.25-51.98-13.43-3.04-6.37-4.78-13.47-4.78-20.99 0-19.89 11.88-36.96 28.91-44.63 8.83-1.74 17.88-3 26.97-3.75 23.73 3.39 41.98 23.72 41.98 48.38" fill="url(#linearGradient3486)"/>
    </g>
   </g>
   <g stroke-width=".28515" transform="scale(.1)">
    <g stroke-width=".28515" clip-path="url(#clipPath3496)">
     <path d="m3684.4 2921.8c23.92 0 43.3 19.38 43.3 43.29 0 14.16-6.82 26.7-17.32 34.58-5.87 0.5-11.91 0.45-18.15-0.16-18.43-1.98-31.55-4.76-43.12-9.37-5.02-7.08-8.01-15.71-8.01-25.05 0-23.91 19.39-43.29 43.3-43.29" fill="url(#linearGradient3504)"/>
    </g>
   </g>
   <path d="m371 296.51c0-1.411-1.143-2.554-2.555-2.554-1.411 0-2.555 1.143-2.555 2.554s1.144 2.555 2.555 2.555c1.412 0 2.555-1.144 2.555-2.555" fill="#100f0d"/>
   <g stroke-width=".28515" transform="scale(.1)">
    <g stroke-width=".28515" clip-path="url(#clipPath3516)">
     <path d="m3702.4 2965.1c0-9.96-8.07-18.04-18.04-18.04s-18.04 8.08-18.04 18.04c0 9.97 8.07 18.05 18.04 18.05s18.04-8.08 18.04-18.05" fill="url(#linearGradient3522)"/>
    </g>
   </g>
   <path d="m369.49 298.63c0-0.577-0.469-1.046-1.047-1.046s-1.047 0.469-1.047 1.046c0 0.578 0.469 1.047 1.047 1.047s1.047-0.469 1.047-1.047" fill="#fff"/>
   <path d="m368.94 294.01c0-0.278-0.226-0.505-0.505-0.505s-0.504 0.227-0.504 0.505 0.225 0.504 0.504 0.504 0.505-0.226 0.505-0.504" fill="#fff"/>
   <g fill="#100f0d">
    <path d="m359.6 295.34c1.464 1.18 2.965 2.359 4.664 3.187 1.736 0.847 3.786 1.195 5.701 1.273 2.138 0.086 4.197-0.615 5.959-1.793 1.852-1.235 3.134-2.992 4.387-4.791 0.034-0.049 0.109-0.007 0.081 0.048-1.941 3.691-5.658 6.783-9.942 6.93-1.936 0.066-4.107-0.344-5.88-1.125-1.906-0.839-3.455-2.347-5.025-3.675-0.038-0.031 0.017-0.083 0.055-0.054"/>
    <path d="m359.53 295.01c2.328-1.999 5.465-2.873 8.448-3.274 3.041-0.41 6.555-0.38 9.439 0.804 0.065 0.027 0.04 0.13-0.029 0.108-2.985-0.96-6.05-1.175-9.162-0.816-3.019 0.346-6.266 1.247-8.619 3.254-0.053 0.044-0.13-0.03-0.077-0.076"/>
    <path d="m408.65 291.77s7.187-2.945 14.112 2.29c0 0 0.915 1.144-0.522 2.781-1.437 1.636-10.323 9.326-16.203-0.98l2.613-4.091"/>
   </g>
   <path d="m421.2 295.04c-3.135-3.434-10.061-4.417-14.243-2.453l-1.438 0.328-0.914 0.327c1.961 4.09 4.966 7.199 8.886 6.708 3.658-0.491 4.704-1.473 7.709-4.58v-0.33" fill="#fff"/>
   <g stroke-width=".28515" transform="scale(.1)">
    <g stroke-width=".28515" clip-path="url(#clipPath3544)">
     <path d="m4117.9 2916.2c25.16 0 45.55 21.9 45.55 48.93 0 11.77-3.87 22.56-10.31 31-5.35 1.38-11.34 2.5-18.25 3.42-24.19 3.02-44.9-7.66-61.83-25.9-0.45-2.77-0.73-5.61-0.73-8.52 0-27.03 20.4-48.93 45.57-48.93" fill="url(#linearGradient3550)"/>
    </g>
   </g>
   <g stroke-width=".28515" transform="scale(.1)">
    <g stroke-width=".28515" clip-path="url(#clipPath3560)">
     <path d="m4117.9 2921.8c22.26 0 40.31 19.38 40.31 43.29 0 13.21-5.53 25.03-14.2 32.96-2.87 0.53-5.87 1.02-9.12 1.46-20.84 2.6-39.07-4.95-54.54-18.74-1.77-4.87-2.78-10.13-2.78-15.68 0-23.91 18.06-43.29 40.33-43.29" fill="url(#linearGradient3568)"/>
    </g>
   </g>
   <path d="m414.16 296.51c0-1.411-1.064-2.554-2.377-2.554-1.315 0-2.38 1.143-2.38 2.554s1.065 2.555 2.38 2.555c1.313 0 2.377-1.144 2.377-2.555" fill="#100f0d"/>
   <g stroke-width=".28515" transform="scale(.1)">
    <g stroke-width=".28515" clip-path="url(#clipPath3580)">
     <path d="m4134.7 2965.1c0-9.96-7.53-18.04-16.81-18.04-9.29 0-16.81 8.08-16.81 18.04 0 9.97 7.52 18.05 16.81 18.05 9.28 0 16.81-8.08 16.81-18.05" fill="url(#linearGradient3586)"/>
    </g>
   </g>
   <g>
    <path d="m412.76 298.63c0-0.577-0.436-1.046-0.973-1.046-0.539 0-0.975 0.469-0.975 1.046 0 0.578 0.436 1.047 0.975 1.047 0.537 0 0.973-0.469 0.973-1.047" fill="#fff"/>
    <path d="m412.26 294.01c0-0.278-0.21-0.505-0.468-0.505-0.261 0-0.47 0.227-0.47 0.505s0.209 0.504 0.47 0.504c0.258 0 0.468-0.226 0.468-0.504" fill="#fff"/>
    <path d="m421.18 295.34c-1.171 1.18-2.368 2.359-3.725 3.187-1.386 0.847-3.025 1.195-4.554 1.273-1.707 0.086-3.352-0.615-4.76-1.793-1.478-1.235-2.503-2.992-3.503-4.791-0.027-0.049-0.089-0.007-0.065 0.048 1.551 3.691 4.52 6.783 7.942 6.93 1.545 0.066 3.279-0.344 4.695-1.125 1.522-0.839 2.76-2.347 4.013-3.675 0.03-0.031-0.012-0.083-0.043-0.054" fill="#100f0d"/>
    <path d="m421.23 295.01c-1.858-1.999-4.364-2.873-6.746-3.274-2.43-0.41-5.235-0.38-7.539 0.804-0.053 0.027-0.032 0.13 0.024 0.108 2.383-0.96 4.832-1.175 7.317-0.816 2.412 0.346 5.005 1.247 6.884 3.254 0.042 0.044 0.103-0.03 0.06-0.076" fill="#100f0d"/>
   </g>
  </g>
 </g>
</svg>
