<?xml version="1.0" encoding="UTF-8" standalone="no"?>
<!-- Created with Inkscape (http://www.inkscape.org/) -->
<svg xmlns:rdf="http://www.w3.org/1999/02/22-rdf-syntax-ns#" xmlns="http://www.w3.org/2000/svg" height="200px" width="200px" version="1.1" xmlns:cc="http://creativecommons.org/ns#" xmlns:dc="http://purl.org/dc/elements/1.1/" viewBox="0 0 200 200">
 <defs>
  <clipPath id="clipPath22" clipPathUnits="userSpaceOnUse">
   <path d="m5163.6 80.84s137.68-6.539 201.94 134.16c64.26 140.71 42.84 346.86 42.84 346.86l452.85-75.257s-58.13-274.87 244.78-373.03c0 0-91.8-6.539-229.48-75.261 0 0-205-65.438-416.13-13.078 0 0-198.88 55.609-296.8 55.609z"/>
  </clipPath>
  <linearGradient id="linearGradient28" gradientUnits="userSpaceOnUse" gradientTransform="matrix(0 412.04 412.04 0 5634.8 118.13)">
   <stop stop-color="#d96a4b" offset="0"/>
   <stop stop-color="#c1442a" offset="1"/>
  </linearGradient>
  <clipPath id="clipPath38" clipPathUnits="userSpaceOnUse">
   <path d="m5163.6 80.84c1.42 0 2.86-0.0078 4.3-0.0195-2.76-0.039-4.3 0.0195-4.3 0.0195zm1125.7 1050.4c-11.06 14.37-22.64 29.25-34.64 44.43-32.4 54.33-47.82 121.94-60.26 174.79-13.09 55.64-49.07 196.35-49.07 196.35-19.63 19.63-121.09 101.43-202.89 140.69-81.8 39.29-209.43 58.92-245.42 55.65-35.99-3.28-49.08 29.44-65.44 29.44-16.37 0-26.2-52.35-26.2-52.35s-42.51 19.63-65.43 22.91c-22.9 3.27-68.72 3.27-111.25-22.91-42.54-26.17-94.9-81.81-170.16-137.43-75.25-55.64-121.07-104.72-121.07-104.72-19.64-58.89 6.54-127.63-6.55-186.51-9.81-52.36-39.27-104.73-65.44-150.53-19.65-42.54-52.36-91.62-42.55-140.7 13.1-42.549 55.64-68.721 58.9-114.53 6.55-65.449-55.62-130.9-85.07-183.26-35.99-65.438-65.45-137.44-68.72-212.69-9.81-114.52 88.35-127.62 140.72-212.69 32.71-55.629 19.62-117.8-6.57-173.42 0 0-1.44-3.422-1.97-6.5432-11.76-8.8594-24.2-17.578-37.29-26.188 0 0 62.18 4.9101 104.72 9.8085 42.54 4.9219 248.68-35.988 248.68-35.988 0.12 0.5898 0.24 1.1601 0.33 1.75 0 0 38.26 145.19 8.06 219.84 40.41 134.52 23.7 295.42 23.7 295.42l452.85-75.257s-56.82-268.92 235.13-369.75h16.19c107.98 3.257 150.53 137.42 163.63 229.04 16.35 124.34 0 215.97 65.42 330.5 81.81 140.7 45.83 327.23-52.34 454.85z"/>
  </clipPath>
  <linearGradient id="linearGradient44" gradientUnits="userSpaceOnUse" gradientTransform="matrix(236.29 -472.57 -472.57 -236.29 5191.6 1593.9)">
   <stop stop-color="#953b1d" offset="0"/>
   <stop stop-color="#4f2218" offset="1"/>
  </linearGradient>
  <clipPath id="clipPath54" clipPathUnits="userSpaceOnUse">
   <path d="m5180.1 1083.4 9.7-27.48c-1.91 9.29-5.42 18.43-9.7 27.48zm-44.8-474.65s4.36-126.52 37.08-194.15c32.73-67.622 63.26-176.69 19.64-235.59-29.44-39.731-95.57-82.422-137.53-105.33 19.91 1.7187 45.9 4.1211 67.84 6.5625 43.14 27.289 93.88 68.68 102.42 116.22 15.26 85.07-10.92 187.61-39.29 231.25-28.36 43.609-50.16 181.04-50.16 181.04zm-48-159.23s-39.27 95.98-10.91 181.06c28.37 85.07 67.63 172.33 61.09 253.05 0 0-21.8-100.35-54.54-143.99-32.72-43.61-54.53-146.14-43.63-196.32 10.91-50.168 47.99-115.61 47.99-115.61zm200.37 938.8c2.81 1.25 5.62 2.5 8.36 3.75-2.72-1.09-5.51-2.37-8.36-3.75zm723.32 56.5c0.94-0.25 1.86-0.49 2.73-0.69-35.24 26.4-57.99 45.27-66.01 79.43 50.99-22.29 98.12-51.81 132.66-97.22 23.95-31.49 46-61.87 66.48-95.56-33.4 38.5-78.87 81.38-135.86 114.04zm278.32-313.58c-11.06 14.37-22.64 29.25-34.64 44.43-22.7 38.08-37.06 82.67-47.91 124.15-10.69 8.09-21.09 16.28-30.41 24.95-34.49 32.13-60.9 72.71-89.98 108.64-35.03 43.27-85.53 82.1-140.94 103.29-0.86 7.67-1.16 16.07-0.8 25.37 0.82 21.97 6.02 35.72-2.67 56.72-10.61 25.66-8.36 32.86 10.41 34.46 85.57-52.5 175.51-134.79 175.51-134.79l43.76-75.46c-13.26 52.76-26.3 103.81-26.3 103.81-19.63 19.63-121.09 101.43-202.89 140.69-81.8 39.29-209.43 58.92-245.42 55.65-35.99-3.28-49.08 29.44-65.44 29.44-16.37 0-26.2-52.35-26.2-52.35s-42.51 19.63-65.43 22.91c-22.9 3.27-68.72 3.27-111.25-22.91-42.54-26.17-94.9-81.81-170.16-137.43-75.25-55.64-121.07-104.72-121.07-104.72-19.64-58.89 6.54-127.63-6.55-186.51-9.81-52.36-39.27-104.73-65.44-150.53-19.65-42.54-52.36-91.62-42.55-140.7 13.1-42.549 55.64-68.721 58.9-114.53 6.55-65.449-55.62-130.9-85.07-183.26-35.99-65.438-65.45-137.44-68.72-212.69-5.96-69.402 27.77-101.55 66.91-135.05-22.81 27.282-51.27 72.871-47.28 127.41 6.54 89.45 37.09 161.44 85.09 242.16 47.99 80.711 61.08 106.89 58.89 157.06-2.18 50.18-65.44 104.71-34.9 174.52 20.44 46.73 55.52 112.01 77.16 172.33-0.77-28.4 3.31-56.85 13.87-82.9 8.33-20.52 22.44-41 32.35-61.96l-16.47 46.69c3.69 25.08-7.88 56.67-8.72 82.89-0.81 24.8 2.71 50.95 13.02 73.64 12.17 26.82 32.35 45.77 56.84 61.62 18.41 11.93 41.88 29.69 62.86 40.04-48.86-21.94-107.88-47.53-136.24-92.95 0.7 5.43 1.16 10.74 1.32 15.84 2.18 74.17-6.54 150.51 10.9 172.32 8.13 10.19 42.32 35.51 80.73 64.08 14.89-2.65 24.09-10.31 34.41-31.4 8.74-17.87 9.9-40.4 20.06-56.73 10.39-16.67 31.93-16.99 40.95-32.68 4.89-8.5 5.75-26.92 3.87-43.1-50.36-22.77-113.32-70.16-108.03-164.12l26.18-316.31s28.36 85.082 17.46 154.88c-10.91 69.81-32.72 165.79-10.9 220.33 22.07 55.23 63.85 76.35 111.98 104.3 36.37 13.01 110.52 44.04 110.52 44.04l-39.05-10.73c42.86 16.64 83.99 40.15 117.09 66.66-20.97-7.15-41.05-14.28-62.92-20.66-28.19-8.21-62.13-12.85-91.15-22.88 0.3 3.29 0.8 6.53 1.58 9.58-27.36 11.55-64.13-14.45-93.19 2.57-28.51 16.69 1.24 48.8 12.75 71.45 14.41 28.34 16.94 41.56 15.27 69.69-0.95 16.16 2.51 31.76 7.71 47.07 0.32 0.33 0.7 0.71 1.02 1.03 41.45 43.64 159.24 113.46 233.42 50.19 74.16-63.28 76.35-128.72 76.35-128.72l10.91 56.72s-43.63 69.82-52.36 89.45-2.19 45.82 13.09 39.26c15.26-6.54 39.27-37.08 39.27-37.08s45.98 4.74 103.53-1.04c22.73-17.21 39.61-41.67 56.2-64.4 22.12-30.32 91.34-35.53 89.43-82.91-0.29-7.39-0.92-13.71-1.5-19.46-20.18 6.26-40.87 10.09-61.58 10.85 20.31-6.57 40.7-13.57 60.68-21.49-0.8-12.54 0.21-23.49 8.53-39.76 1.3-2.53 2.85-4.91 4.39-7.16-91.07 39.16-185.52 33.39-185.52 33.39 87.27-2.18 187.71-56.77 187.71-56.77l2.6 2.62c-0.69-0.87-1.52-1.74-2.6-2.62-9.94-8.21-37.15-3.18-50-9.16 2.13-6.28 6.96-14.12 8.17-20.98-14.34 0.17-28.99 2.47-43.33 4.03l47.99-69.82c23.5-1.22 44.59 3.59 50.16 26.18 3.7 14.99-8.26 37.25-0.53 50.33 0 0 96.52-59.07 144.52-109.24 47.98-50.16 135.25-165.78 135.25-165.78s136.09-159.15 151.87-329.74c3.72 103.66-33.73 211.07-97.33 293.75zm-274.9-912.92v47.981c-4.36 6.551-13.09 17.457-26.17 30.539-13.09 13.09-56.72 8.73-76.36 0-7.64-3.391-9.99-17.34-10.01-33.11 13.61-22.64 31.19-44.929 53.72-65.769l-4.45 44.34c28.37 4.367 63.27-23.981 63.27-23.981zm202.88 394.84c-2.43 77.34-32.11 149.42-21.88 229.59 4.66 36.508 9.21 71.641 10.99 108.53 0.78 16.403 3.19 33.192 2.16 50.242-1.19 19.94-8.41 22.37-19.73 38.45 10.97-57.95 7.43-129.92-1.59-187.34-9.69-61.5-0.39-118.12 11.95-176.91-8.87 24.742-19.4 48.89-27.71 70.519-21.83 56.699-15.28 237.78-15.28 237.78l-43.6-412.31s-58.89-56.703-67.62-61.082c-8.73-4.352-45.82-71.988-52.36-89.438-6.53-17.441 10.92-78.531 10.92-78.531s26.16-63.269 37.08-93.812c10.9-30.528-30.54-47.989-30.54-47.989s39.27 0 58.9 30.532c19.64 30.55-30.55 106.91-32.73 133.09-2.17 26.168 24 65.438 65.45 74.161 41.46 8.738 93.8 63.269 111.25 119.98 5.43 17.648 5.58 36.988 2.56 56.957zm-1012.2 207.25c15.26 139.61-19.65 224.68-19.65 224.68 28.37-98.148-15.26-211.6-17.44-397.03-2.19-185.42 50.17-222.51 87.26-305.4 37.08-82.91-2.19-181.05-2.19-181.05l-10.9-41.461s26.18 32.731 56.71 82.891c30.54 50.18-26.18 202.88-56.71 259.6-30.55 56.707-52.35 218.15-37.08 357.77zm1055.8 200.69-45.82 58.89 37.08-104.71s32.73-126.52 34.9-135.25c2.19-8.738 0-93.797 0-93.797l6.56-98.179s45.81 89.437 37.08 176.71c-8.73 87.261-69.8 196.34-69.8 196.34z"/>
  </clipPath>
  <linearGradient id="linearGradient60" gradientUnits="userSpaceOnUse" gradientTransform="matrix(219.46 -438.93 -438.93 -219.46 5204.6 1601)">
   <stop stop-color="#bb5b31" offset="0"/>
   <stop stop-color="#772f24" offset="1"/>
  </linearGradient>
  <clipPath id="clipPath70" clipPathUnits="userSpaceOnUse">
   <path d="m5320.7 270.63c-13.09 113.45-91.62 198.52-106.89 296.69 0 0 0-74.168 50.17-178.89 49.02-102.32 39.7-237.95-125.63-307.19 17.79-0.2461 46.61-3.6875 78.23-8.3594 28.95 23.812 115.03 103.21 104.12 197.75zm-75.5-202.17c24.82-4 49.8-8.3789 71.2-12.27 14.93 29.141 61.68 133.29 28.37 240.62 0 0-0.03-185.14-99.57-228.35zm180.28 621.03-68.72 76.887-31.08 8.18-57.26-39.258s-21.27-140.72 8.18-227.43c0 0 32.72-99.812 58.88-139.08 24.67-36.98 43.51-86.988 49.72-100.9 39.86 134.22 23.28 293.97 23.28 293.97l81.5-13.539c-19.74 53.582-64.5 141.17-64.5 141.17zm58.9 706.8c-52.35 8.18-129.24-49.09-129.24-49.09-65.46-49.09-52.37-85.08-52.37-107.98 0-22.92 21.28-127.62 21.28-127.62l14.73-122.71 22.89-6.551s4.91 60.56 13.1 63.81c8.17 3.28 68.71 81.81 80.16 99.8 11.45 18.01 62.18 150.54 62.18 150.54s19.63 91.61-32.73 99.8zm761.36-363.23c-48.06 105.72-125.73 208.87-143.52 231.89-1.28 1.9-2.55 3.52-3.76 4.81-18.05 19.13-72.41 93.19-125.65 110.04-23.34 33.91-182.46 93.4-182.46 93.4s-47.45-6.55-45.81 1.63c1.62 8.17-27.84 35.99-49.1 45.8-21.26 9.82 18 37.64 22.91 63.81s-32.73 53.99-52.36 73.62c-19.64 19.64-34.35 73.64-42.54 70.36-8.18-3.28-4.91-19.64-4.91-19.64 58.9-52.36 55.64-111.26 40.91-153.79-14.74-42.54 31.08-52.36 31.08-52.36-4.91-21.26-24.54-49.08-24.54-49.08l-50.72-80.18c3.27-6.54 26.18-35.98 71.99-53.98s206.15-11.47 206.15-11.47 13.15 4.95 28.94 12.85c-12.55-50.61-14.75-114.27-14.75-114.27l-60.6-717.52 14.28-2.378s-36.71-173.94 100.8-294.5c0 0-27.27 30.527-25.09 63.257 0 0 37.1 8.743 81.8-34.91l-6.8-2.16s-27.01 19.621-45.82 14.711c0 0 4.91-33.539 43.37-33.539 38.43 0 48.25 27 50.71 40.91 2.46 13.899-8.19 52.348-8.19 52.348s-25.35 50.711-29.44 73.621c-4.1 22.902 1.63 62.18 14.71 71.992 13.1 9.828 13.92 8.18 58.92 14.727 44.99 6.543 72.81 26.183 86.71 74.429 13.9 48.293 16.35 82.633-9 152.98 0 0-28.62 41.73-21 150.81 7.63 109.07 17.45 238.87-6.54 319.58 0 0-3.08 10.33-7.82 24.96 33.74-30.79 83.08-151.47 83.08-151.47 19.63-91.639 1.09-157.08-7.63-242.15-8.72-85.078 55.62-136.36 55.62-136.36 2.18-43.61-21.82-124.33-49.09-181.06-27.27-56.722-105.8-66.531-105.8-66.531-65.44-33.809-34.89-98.16-27.26-124.35 7.63-26.172 19.63-55.613 1.1-95.98-18.56-40.352-62.18-29.453-62.18-29.453l-0.38-0.758c20.86-11.43 44.19-21.832 70.35-30.859h16.19c11.25 0.328 21.78 2.109 31.64 5.097 0.36 0.121 0.72 0.231 1.1 0.352 82.89 26.168 98.16 172.32 104.69 187.61 6.55 15.262 10.93 69.781 12.01 124.32 1.09 54.54 13.08 145.08 13.08 145.08 10.9 28.363 34.91 146.16 34.91 146.16 22.9 164.69-64.34 307.59-64.34 307.59zm-596.11 446.67c-35.99-29.45-130.89-34.37-130.89-34.37 42.54 8.19 116.16 58.91 116.16 58.91l-1.62 31.08c-13.1-42.53-147.26-93.25-194.71-103.07-47.45-9.81-116.17-58.91-116.17-58.91 53.99 34.36 157.07 42.54 157.07 42.54 129.27 6.56 170.16 63.82 170.16 63.82zm255.23 18s145.62-68.73 287.97-245.42c0 0 28.48-39.86 52.91-60.3-26.35 51.11-40.06 110.78-51.28 158.45-13.09 55.64-49.07 196.35-49.07 196.35-0.49 0.47-1.07 1.04-1.64 1.58 25.23-96.48 19.49-192.94 18.21-209.98-51.71 47.22-139.36 114.56-257.1 159.32zm-664.26-785.34 8.18 78.531s34.35 175.07 13.09 294.49c0 0-29.44 145.62-22.91 175.07 0 0-21.26-78.52-6.53-152.16 14.72-73.62 8.17-323.95 8.17-395.93zm-119.5 101.36s37.63 80.18-9.83 160.34c0 0 16.37-71.988 9.83-160.34zm52.92-544.68 1.06-3.411c8.2 81.79-16.35 80.161-44.17 184.87-27.81 104.72-13.09 224.15-13.09 224.15-36.57-140.73-12.35-230.42 7.1-273.66-35.98 50.902-50.32 89.789-67.64 155.86-17.99 68.731 47.46 219.25 47.46 219.25s-88.36-91.629-80.17-211.08c8.18-119.43 65.43-139.06 99.79-211.04 34.37-72.012-37.63-124.35-37.63-124.35s-0.22-0.21-0.56-0.539c6.93-41.941-5.13-85.39-23.99-125.43 0 0-1.3-3.09-1.88-6.0628 22.35 7.0818 93.52 96.039 93.52 96.039 12.46 28.403 18.66 53.164 20.2 75.403z"/>
  </clipPath>
  <linearGradient id="linearGradient76" gradientUnits="userSpaceOnUse" gradientTransform="matrix(0 -719.89 -719.89 0 5669 1514.1)">
   <stop stop-color="#3e1d16" offset="0"/>
   <stop stop-color="#291512" offset="1"/>
  </linearGradient>
  <clipPath id="clipPath86" clipPathUnits="userSpaceOnUse">
   <path d="m5694.1 1505.7c-16.44 5.94-36.54 13.99-35.88 34.52 0.5 15.74 8.77 31.18 12.42 46.35 10.85 45.07-18.28 93.18-51.54 121.25-0.88 0.73-2.13-0.46-1.28-1.28 20.15-19.87 37.55-41.78 46.48-69.02 4.36-13.3 6.99-29.04 4.65-42.99-1.52-9.19-4.51-18.08-7.47-26.88-4.14-12.31-10.54-27.65-4.68-40.48 3.1-6.78 8.59-11.52 14.82-15.39 4.43-2.74 9.32-4.69 14.16-6.52 3.7-1.4 6.66-1.09 4.89-5.68-1.46-3.78-2.5-7.53-4.18-11.24-0.41-0.93 0.92-1.73 1.36-0.81 2.5 5.24 3.76 11.25 7.13 16.02 0.59 0.83-0.04 1.87-0.88 2.15zm-176.7-111.3c-30.56 8.27-63.31 2.56-92.75-7.42-32.47-11-63.31-28.87-87.91-52.86-10.75-10.49-20.09-22.61-26.82-36.07-7.22-14.45-9.2-30.15-9.06-46.15 0.35-41.08 15.26-80.11 19.28-120.66 0.07-0.67 1.08-0.69 1.05 0-2.06 37.33-12.1 73.68-14.5 110.96-1.08 16.85-0.27 34.07 6.57 49.73 6.03 13.85 15.55 25.99 26.05 36.74 23.28 23.82 53.62 40.93 84.78 52.12 29.2 10.47 61.66 15.97 92.53 10.84 1.78-0.3 2.58 2.27 0.78 2.77zm110.44 64.78c-38.77-25.4-83.29-34.32-128.63-39.64-42.15-4.94-85.08-7.37-125.34-21.88-63.52-22.92-127.02-63.84-137.19-135.88-2.58-18.3-1.09-36.57 1.36-54.8 3.41-25.25 8.18-50.26 12.99-75.26 5.06-26.4 10.06-52.83 13.47-79.51 3.27-25.39 2.59-51.31 1.49-76.819-4.51-103.38-28.13-205.16-26.24-308.96 1.1-59.66 13.05-118.44 30.83-175.24 18.33-58.621 43.38-114.64 66.32-171.51 0.06-0.168 0.33-0.11 0.27 0.07-34.12 90.91-72.73 182.29-87.14 278.9-15.42 103.28 4.24 206.71 15.27 309.34 5.35 49.809 9.87 101.26 3 151.12-7.12 51.77-19.91 102.6-26.37 154.48-4.51 36.16-0.24 71.56 20.08 102.52 19.79 30.12 51.52 50.41 83.65 65.25 22.27 10.32 44.96 18.69 68.97 23.99 25.27 5.57 51.12 8.1 76.82 11.02 47.99 5.48 96.55 13.55 137.23 41.36 0.9 0.6 0.07 2.06-0.84 1.45zm514.7-1059.2c65.41 22.582 98.02 87.844 114.28 150.8 4.34 16.8 7.54 33.878 10.07 51.05 1.1 7.43 2.01 14.879 2.84 22.34 0.42 3.86 0.79 7.711 1.15 11.563 0.32 3.449 2.22 8.566 1.3 11.898-0.88 3.129-5.94 6.738-8.12 9.16-3.47 3.86-6.79 7.848-10.01 11.93-6.72 8.469-12.59 17.539-17.67 27.078-8.8 16.524-14.09 34.75-16.53 53.274-5.81 44.199 4.59 88.097 9.02 131.85 5.5 54.422 0.21 111.45-7.84 165.34-0.07 0.45-0.8 0.35-0.79-0.1 2.64-51.279 9.38-101.66 5.36-153.14-3.25-41.813-14.09-82.68-12.98-124.85 0.94-36.168 12.28-69.898 33.91-98.961 5.87-7.867 12.48-15.148 19.42-22.109 4.1-4.121 0.01-19.531-0.58-24.86-1.93-17.417-4.67-34.761-8.25-51.898-14.1-67.582-45.61-142.01-115.43-167.26-1.94-0.691-1.13-3.781 0.85-3.101zm-63.49-54.297c2.16 29.68 25.51 46.668 50.73 57.808 1.59 0.692 0.46 3.352-1.16 2.782-26.69-9.473-51.62-27.512-55.08-57.551-3.21-27.742 7.27-55.41 14.51-81.711 7.8-28.359 14.17-59.449-0.39-86.77-7.17-13.468-16.66-25.359-31.87-29.648-13.54-3.82-28.13-0.84-40.9 4.168-31.52 12.359-58.01 40.648-70.96 71.539-3.06 7.352-5.15 15.102-6.19 22.953-0.54 4.238-2.01 7.258 3.23 7.321 6.43 0.078 12.97-1.153 19.24-2.434 23.71-4.887 44.29-18.57 60.26-36.418 0.7-0.801 1.85 0.359 1.15 1.141-22.45 25.187-51.98 38.789-85.66 39.718-0.6 0.02-0.99-0.468-1.03-1.031-1.92-28.039 16.94-56.16 35.57-75.297 18.7-19.191 44.71-35.582 72.25-35.851 27.31-0.289 46.46 20.172 55.03 44.48 9.44 26.828 1.68 56.539-5.6 82.859-6.44 23.321-14.91 47.422-13.13 71.942zm-34.43 97.41c9.73 6.309 23.02 5.84 34.12 6.477 15.58 0.863 31.09 2.589 45.84 8 30.97 11.351 48.77 39.16 59.56 68.882 14.07 38.809 12.04 79.028 2.1 118.54-10.14 40.239-26.64 78.852-30.82 120.48-1.96 19.441-0.49 39.238 0.4 58.687 0.92 20.481 2.25 40.922 3.6 61.344 2.74 41.969 5.58 83.938 5.52 126.01-0.14 84.29-14.44 168-58.05 241.25-0.6 0.99-2.09 0.11-1.53-0.89 23.66-43.01 38.98-89.81 46.93-138.2 7.66-46.63 8.16-94.21 6.55-141.34-1.58-46.66-5.65-93.191-8.07-139.82-1.16-22.238-2.78-44.809-0.75-67.039 1.8-19.93 6.68-39.492 12.36-58.609 11.79-39.704 27.67-78.61 29-120.53 1.21-37.609-11.1-82.879-38.8-109.84-25.39-24.71-58.77-22.691-91.25-26.449-9.21-1.07-17.74-3.949-24.15-10.883-9.73-10.558-11.63-26.367-14.29-39.777-5.84-29.48 5.47-57.609 17.39-83.973 11.76-25.996 28.22-59.168 15.02-87.679-9.99-21.61-37.2-31.098-59.36-25.547-11.6 2.91-20.9 10.82-26.15 21.469-1.21 2.441-1.56 5.57-2.85 7.922-2.45 4.429 12.73 1.207 14.65 0.769 10.73-2.473 20.64-7.891 29.46-14.352 0.35-0.238 0.68 0.34 0.34 0.583-13.6 9.816-29.11 15.917-45.97 16.425-0.25 0.024-0.39-0.218-0.36-0.449 4.88-24.988 26.23-38.309 51.26-35.309 24.45 2.961 43.48 21.641 45.38 46.25 2.73 35.321-19.81 66.93-31.19 98.801-7.09 19.84-8.22 38.821-4.84 59.489 2.28 14.101 6.15 31.011 18.95 39.312zm61.86 814.76c28.18-35.76 52.74-74.47 76.28-113.38 23.61-39.06 45.16-79.35 64.03-120.92 19.66-43.31 36.76-88.29 49.64-134.11 13.17-46.778 15.92-96.301 12.28-144.58-3.77-50.204-18.53-97.961-29.52-146.81-10.98-48.848-16.33-97.68-17.33-147.68-0.45-23.109-0.71-46.23-2.32-69.296-0.89-12.801-2.36-25.571-4.42-38.243-1.61-9.949-4.49-19.597-5.37-29.64-0.04-0.45 0.65-0.438 0.69 0 1.23 11.808 4.81 23.422 6.8 35.152 1.99 11.828 3.26 23.77 4.29 35.719 2.12 25.051 2.63 50.199 3.59 75.301 2.03 51.859 9.72 102.02 21.87 152.43 11.37 47.199 24.37 93.051 27.61 141.73 3.1 46.929-0.93 94.687-13.68 140.04-24.87 88.429-64.99 172.64-112.16 251.19-44.78 74.54-94.81 148.28-163.53 202.9-36.84 29.3-79.14 51.53-125.2 61.97-0.3 0.06-0.43-0.39-0.13-0.46 85.44-22.09 153.16-83.57 206.58-151.31zm275.36-326.18c-7.54 40.75-21.05 80.33-38.94 117.66-17.86 37.24-41.19 70.43-66.44 102.93-8.81 11.36-17.73 22.63-26.7 33.86-35.08 64.34-47.67 139.39-65.07 209.81-12.44 50.4-25.19 100.72-38.05 151.01-0.47 1.81-3.39 3.65-4.71 4.89-3.98 3.66-8.09 7.2-12.21 10.69-11.27 9.58-22.82 18.8-34.54 27.84-32.31 24.93-65.71 48.55-100.55 69.88-33.97 20.81-69.3 37.81-107.15 50.28-38.03 12.51-77.33 21.47-116.83 27.83-20.34 3.28-40.96 5.99-61.57 6.4-9.86 0.2-19.43-1.36-29.17 1-12.05 2.93-21.47 11.35-30.69 19.12-5.09 4.31-10.63 8.81-17.57 9.15-6.15 0.29-10.6-6.14-13.4-10.69-7.38-11.99-11.22-26.9-13.99-40.73-22.73 10.54-47.04 20.95-72.11 23.27-39.45 3.68-79.2-6.78-112.05-28.74-31.95-21.33-60.12-48.39-89.25-73.28-38.85-33.19-80.47-62.66-119.94-95.06-24.49-20.11-48.25-41.29-70.5-63.87-1.51-1.51-2.99-3.04-4.47-4.6-4.04-4.26-4.69-14.69-5.76-20.27-4.29-22.36-3.22-45.48-1.68-68.06 1.62-23.56 4.13-47.06 3.3-70.69-0.88-24.78-7.46-49.22-15.86-72.43-9.04-25.01-21.11-48.85-33.77-72.21-11.42-21.06-22.79-41.96-33.58-63.37-17.92-35.56-42.28-82.98-24.98-123.16 15.31-35.582 50.37-61.832 55.1-101.91 5.17-43.82-19.51-84.68-42.53-119.84-11.56-17.609-23.83-34.73-34.99-52.59-12.46-19.941-22.88-41.32-32.72-62.64-20.35-44.2-35.57-90.86-41.37-139.31-4.35-36.012-4.45-72.242 13.98-104.56 14.82-26.008 38.9-45.45 61.43-64.5 26.94-22.75 53.76-47.36 69.77-79.34 25.83-51.528 11.49-111.28-11.01-161.09-0.6-1.348 1.36-2.531 2.01-1.168 19.3 40.16 32.23 84.348 24.71 129.15-6.46 38.5-30.77 69.602-58.37 95.782-22.55 21.378-48.16 39.578-68.59 63.136-23.02 26.532-32.21 58.852-30.33 93.653 2.72 50.98 15.19 99.539 34.74 146.61 17.9 43.07 41.1 82.219 67.18 120.71 23 33.988 46.99 70.43 52.08 112.08 2.28 18.5-0.84 36.949-8.72 53.77-8.02 17.152-20.57 31.851-31.36 47.254-5.25 7.519-10.03 15.339-14.02 23.597-5.53 11.49-6.82 23.31-6.25 35.95 1.1 24.6 11.36 48.32 21.81 70.22 10.11 21.19 20.7 42.16 32.22 62.62 12.62 22.44 24.66 45.21 34.9 68.86 9.72 22.44 16.95 45.52 21.54 69.56 4.21 22.12 3.03 44.99 1.45 67.32-1.7 23.66-4.2 47.28-3.39 71.04 0.4 11.79 2.01 23.48 4.88 34.93 1.05 4.19 1.2 6.32 3.94 9.16 55.15 57.3 121.18 101.53 181.55 152.82 31.16 26.47 60.96 55.1 94.3 78.89 33.8 24.14 74.84 35.49 116.28 31.79 24.42-2.2 48.71-13.18 70.81-23.25 0.88-0.41 2.2-0.14 2.42 0.98 2.49 13.47 10.84 59.91 31.55 49.4 12.04-6.11 20.47-17.41 32.97-23.2 12.2-5.64 24.6-3.63 37.5-3.79 32.39-0.43 65.04-6.37 96.69-12.85 39.97-8.17 79.67-19.09 117.45-34.6 38.6-15.84 74.45-38.36 108.9-61.69 30.98-20.97 61.05-43.43 89.87-67.28 4.44-3.69 8.85-7.43 13.19-11.24 1.79-1.57 8.46-5.91 9.02-8.09 1.26-4.95 2.53-9.89 3.78-14.85 7.06-27.7 14.1-55.39 21.07-83.12 10.01-39.8 19.74-79.68 29.28-119.6 11.12-46.59 24.03-93.35 45.97-135.97-44.81 55.81-91.75 109.9-142.85 160.07-57.02 55.99-119.68 109.02-191.64 144.8-0.08 0.03-0.14-0.08-0.06-0.12 78.12-39.79 144.69-99.6 204.86-162.55 61.2-64.03 116.96-133.21 171-203.35 51.91-67.39 86.09-148.37 96.2-232.99 4.96-41.601 3.49-84-5.07-125.05-4.2-20.128-10.38-39.789-18.21-58.8-8.73-21.25-20.99-40.61-31.12-61.16-19-38.59-30.5-80.04-36.63-122.51-5.96-41.18-7.23-82.883-10.23-124.32-5.16-71.75-16.46-146.3-52.73-209.68-24.63-43.043-63.73-77.16-115.16-79.172-1.6-0.07-1.61-2.551 0-2.5 66.7 2.492 109.17 55.519 133.78 112.48 29.45 68.231 35.47 142.2 40.24 215.5 2.73 42.192 5.65 84.45 15.08 125.79 5.03 22.032 12.09 43.551 20.91 64.352 9.03 21.301 21.21 40.84 31.47 61.488 36.2 72.953 42.37 157.18 27.7 236.46zm-1305.5-231.36c-21.89-67-31.75-137.82-7.32-205.51 5.73-15.918 13.19-31.18 21.53-45.879 9.71-17.101 21.83-32.43 32.92-48.601 21.79-31.739 43.76-68.168 49.6-106.83 0.09-0.511 0.81-0.281 0.75 0.2-6.32 47.011-29.77 87.461-57.04 125.51-26.03 36.321-45.99 75.821-53.7 120.2-16.58 95.617 30.75 186.46 58.19 275.15 9.63 31.082 19.01 63.871 14.1 96.672-3.91 26.16-14.92 50.047-26.22 73.73-11.86 24.878-23.55 50.068-26.26 77.838-3.54 36.08 10.17 72.35 25.59 104.22 0.3 0.61-0.62 1.18-0.94 0.55-18.17-35.72-32.29-74.81-25.73-115.36 5.34-33.01 23.33-62.271 36.48-92.502 7.39-16.957 13.11-34.636 15.27-53.039 2.61-22.347-2.34-43.91-8.23-65.328-13.2-48.019-33.52-93.742-48.99-141.02zm61.65-259.44c-30.89 104.02-27.19 215.58-3.05 320.44 0.22 0.98-1.25 1.39-1.51 0.418-23.21-87.371-27.86-181.81-12.41-270.86 3.94-22.761 9.54-45.23 16.63-67.23 6.84-21.231 16.52-41.328 23.68-62.438 11.9-35.043 16.65-72.55 9.62-109.12-15.45-80.32-85.19-135.87-148.72-179.83-1.42-0.9687-0.13-3.289 1.39-2.3476 59.27 37.277 118.87 85.437 144.58 152.78 11.8 30.953 13.91 64.332 9.09 96.891-6.29 42.55-27.17 80.449-39.3 121.3zm228.81-122.1c-19.06 38.191-42.52 74-59.94 113.04-18.23 40.82-30.92 82.59-37.91 126.81-5.21 32.922-6.96 66.09-6.56 99.422 0.17 15.61 1.1 31.309 2.85 46.84 1.85 16.57 3.26 34.477 10.06 49.84 0.25 0.578-0.54 1.07-0.83 0.5-8.55-16.731-9.53-36.992-11.59-55.442-2.46-21.89-3.85-43.839-3.64-65.878 0.42-44.372 5.57-88.782 16.36-131.84 10.34-41.242 27.69-80.332 47.99-117.56 20.44-37.476 43.31-73.84 57.19-114.45 11.43-33.461 15.21-69.41 13.04-104.61-2.48-40.461-12.64-80.172-19.11-120.09-0.34-2.1016 2.81-3.0313 3.23-0.8906 9.84 50.27 24.14 100.16 22.31 151.88-1.54 43.383-14.18 83.813-33.45 122.43z"/>
  </clipPath>
  <linearGradient id="linearGradient92" gradientUnits="userSpaceOnUse" gradientTransform="matrix(236.65 -473.29 -473.29 -236.65 5190.8 1595.5)">
   <stop stop-color="#953b1d" offset="0"/>
   <stop stop-color="#4f2218" offset="1"/>
  </linearGradient>
  <clipPath id="clipPath104" clipPathUnits="userSpaceOnUse">
   <path d="m5829 672.03c-63.86 0-115.62-35.16-115.62-78.531 0-43.379 51.76-78.531 115.62-78.531s115.61 35.152 115.61 78.531c0 43.371-51.75 78.531-115.61 78.531z"/>
  </clipPath>
  <radialGradient id="radialGradient110" gradientUnits="userSpaceOnUse" cy="0" cx="0" gradientTransform="matrix(115.62 0 0 -78.53 5829 593.5)" r="1">
   <stop stop-color="#e6775c" offset="0"/>
   <stop stop-color="#d96a4b" offset="1"/>
  </radialGradient>
  <clipPath id="clipPath120" clipPathUnits="userSpaceOnUse">
   <path d="m5551.8 610.86c59.78 49.871 48.72 161.62-24.7 249.61-64.04 76.773-154.38 110.09-216.08 84.211-4.26-18.36-9.17-35.399-14.3-50.129-3.19-9.192-6.1-20.531-8.71-32.903l-0.02 0.172c0-0.109 0-0.179-0.01-0.281-9.11-43.18-14.65-98.937-16.62-121 4.83-10.008 10.41-19.937 16.69-29.707 14.01-7.953 32.64-8.84 43.58 4.82 0 0 3.84-31.683 12.8-70.222 69.86-60.731 156.23-77.207 207.37-34.571z"/>
  </clipPath>
  <radialGradient id="radialGradient126" gradientUnits="userSpaceOnUse" cy="0" cx="0" gradientTransform="matrix(112.17 -134.47 -91.346 -76.185 5420.7 765.32)" r="1">
   <stop stop-color="#f28e61" offset="0"/>
   <stop stop-color="#d96a4b" offset="1"/>
  </radialGradient>
  <clipPath id="clipPath136" clipPathUnits="userSpaceOnUse">
   <path d="m6123.5 776.74c23.98 67.629-8.74 122.16-10.92 172.33-0.24 5.782-0.31 11.86-0.28 18.192-49.01-18.36-97.18-64.492-127.22-128.28-48.83-103.67-31.34-214.6 39.09-247.77 16.99-7.988 35.49-10.699 54.47-8.809 9.68 24.578 13.55 45.989 16.49 65.629 6.54 43.617 28.37 128.71 28.37 128.71z"/>
  </clipPath>
  <radialGradient id="radialGradient142" gradientUnits="userSpaceOnUse" cy="0" cx="0" gradientTransform="matrix(-74.618 -158.42 -107.61 50.687 6109 775.32)" r="1">
   <stop stop-color="#f28e61" offset="0"/>
   <stop stop-color="#d96a4b" offset="1"/>
  </radialGradient>
  <clipPath id="clipPath152" clipPathUnits="userSpaceOnUse">
   <path d="m5449.4 1108.3s-4.37 196.34 82.9 253.06c87.25 56.71 340.31 41.46 425.39-2.18 0 0 102.53-52.35 117.79-261.77l-163.6-82.9s-255.25 6.54-261.78 4.36z"/>
  </clipPath>
  <linearGradient id="linearGradient158" gradientUnits="userSpaceOnUse" gradientTransform="matrix(0 346.05 346.05 0 5762.4 1130.2)">
   <stop stop-color="#d96a4b" offset="0"/>
   <stop stop-color="#f89a69" offset="1"/>
  </linearGradient>
  <clipPath id="clipPath168" clipPathUnits="userSpaceOnUse">
   <path d="m5414.5 953.45s-50.16 58.891-15.26 117.8c0 0 39.26 58.9 139.61 32.71 100.35-26.17 176.7-30.53 176.7-30.53s19.63-137.44-58.91-176.71l-122.15 24.011z"/>
  </clipPath>
  <linearGradient id="linearGradient174" gradientUnits="userSpaceOnUse" gradientTransform="matrix(0 158.29 158.29 0 5552.3 940.21)">
   <stop stop-color="#d96a4b" offset="0"/>
   <stop stop-color="#c1442a" offset="1"/>
  </linearGradient>
  <clipPath id="clipPath184" clipPathUnits="userSpaceOnUse">
   <path d="m5874.8 898.9s-34.89 80.707-8.74 137.43l54.56 30.54 76.34 37.09 41.45 4.36 37.08-13.08 21.82-21.81s19.64-78.539-21.82-122.18c0 0-47.99-37.09-56.72-39.27z"/>
  </clipPath>
  <linearGradient id="linearGradient190" gradientUnits="userSpaceOnUse" gradientTransform="matrix(0 154.94 154.94 0 5979.2 941.47)">
   <stop stop-color="#d96a4b" offset="0"/>
   <stop stop-color="#c1442a" offset="1"/>
  </linearGradient>
  <clipPath id="clipPath200" clipPathUnits="userSpaceOnUse">
   <path d="m5438.5 983.98s-53.19 12.821-41.85 82.57c-29.64-57.3 17.85-113.1 17.85-113.1l119.99-32.719 90.98-17.878 2.82 22.23s-45.81 82.898-189.79 58.898z"/>
  </clipPath>
  <linearGradient id="linearGradient206" gradientUnits="userSpaceOnUse" gradientTransform="matrix(0 121.11 121.11 0 5507.6 936.12)">
   <stop stop-color="#ca4f2e" offset="0"/>
   <stop stop-color="#a42d20" offset="1"/>
  </linearGradient>
  <clipPath id="clipPath216" clipPathUnits="userSpaceOnUse">
   <path d="m6075.5 951.25c41.46 43.641 21.82 122.18 21.82 122.18l-4.89 4.89c0.17-0.88 0.34-1.77 0.52-2.72 15.29-71.98-37.08-100.34-37.08-100.34-113.43 34.908-159.24-47.992-159.24-47.992l11.86-25.297 110.29 10.007c8.73 2.18 56.72 39.27 56.72 39.27z"/>
  </clipPath>
  <linearGradient id="linearGradient222" gradientUnits="userSpaceOnUse" gradientTransform="matrix(0 130.48 130.48 0 5999.3 937.82)">
   <stop stop-color="#ca4f2e" offset="0"/>
   <stop stop-color="#a42d20" offset="1"/>
  </linearGradient>
  <clipPath id="clipPath232" clipPathUnits="userSpaceOnUse">
   <path d="m5351.3 1045.1c10.9 72.01 58.9 78.53 74.17 152.7 15.28 74.17 61.08 187.63 170.16 207.24 109.07 19.65 314.13 0 375.22-34.9 0 0 122.15-124.33 122.15-287.95 0 0 10.14-49.63 20.05-84.009 1.37 43.639 3.24 95.979-9.13 151.64-17.45 78.54-87.27 189.79-111.26 213.78-23.98 24-82.9 48-122.16 58.91-39.26 10.9-95.98 37.08-95.98 37.08-17.46-13.09-67.64-13.09-67.64-13.09l-2.18 15.27-17.45-21.81-19.64-4.36c0 10.9 8.72 37.07 8.72 37.07-30.52-61.07-189.78-76.34-189.78-76.34s-8.72-28.36-21.81-41.46c-13.09-13.08-19.64-19.62-19.64-19.62-8.71-32.72-32.71-50.18-32.71-50.18l15.25 4.36c-6.53-15.28-19.63-30.54-19.63-30.54-10.9-15.27-30.53-58.89-30.53-58.89l10.9 6.54c-13.08-39.27-63.25-109.07-63.25-109.07s-8.74 58.9-2.18-8.73c5.86-60.77-5.86-128.51-20.96-178.03l1.33-0.859s37.08 63.269 47.98 135.25z"/>
  </clipPath>
  <linearGradient id="linearGradient238" gradientUnits="userSpaceOnUse" gradientTransform="matrix(0 625.27 625.27 0 5708 949.4)">
   <stop stop-color="#d96a4b" offset="0"/>
   <stop stop-color="#c1442a" offset="1"/>
  </linearGradient>
  <clipPath id="clipPath248" clipPathUnits="userSpaceOnUse">
   <path d="m6073.3 704.2c-40.9-62.168-49.08-143.98-65.44-181.61-11.51-26.481-31.11-72.36-41.72-97.25 11.94 15.629 25.47 32.558 41.72 50.351 69.81 76.36 80.72 128.71 87.26 172.34 6.54 43.617 28.37 128.71 28.37 128.71 5.11 14.438 7.64 28.27 8.44 41.59-7.59-26.602-24.6-62.434-58.63-114.13zm-607-83.429c-18 29.449-107.98 112.89-140.7 166.88-25.77 42.528-25.16 100.27-23.74 122.87-1.68-5.54-3.41-10.938-5.17-15.969-3.19-9.192-6.1-20.531-8.71-32.903l-0.02 0.172c0-0.109 0-0.179-0.01-0.281-11.63-55.047-17.44-130.61-17.44-130.61 6.54-21.809 43.63-37.098 61.09-15.278 0 0 8.73-71.98 30.53-130.89 19.9-53.692 181.09-148.34 259.61-207.24 1.57-1.168 3.18-2.29 4.76-3.411-2 1.993-4.12 4.043-6.4 6.141-89.99 83.441-135.8 211.06-153.8 240.52z"/>
  </clipPath>
  <linearGradient id="linearGradient254" gradientUnits="userSpaceOnUse" gradientTransform="matrix(625.89 1034.4 1034.4 -625.89 5477 390.38)">
   <stop stop-color="#d96a4b" offset="0"/>
   <stop stop-color="#c1442a" offset="1"/>
  </linearGradient>
  <clipPath id="clipPath264" clipPathUnits="userSpaceOnUse">
   <path d="m5718.8 673.12s18.55 12 43.63 12 39.27-26.18 75.27-20.719c35.99 5.45 50.16 23.989 50.16 23.989s17.46 0 20.73-12c0 0-5.45-18.532-18.54-21.821 0 0-15.27-41.441-64.35-41.441-49.09 0-89.44 20.723-101.44 45.812z"/>
  </clipPath>
  <linearGradient id="linearGradient270" gradientUnits="userSpaceOnUse" gradientTransform="matrix(0 78.943 78.943 0 5813.7 601.41)">
   <stop stop-color="#d96a4b" offset="0"/>
   <stop stop-color="#c1442a" offset="1"/>
  </linearGradient>
  <clipPath id="clipPath280" clipPathUnits="userSpaceOnUse">
   <path d="m5831.5 683.87s-42.06 9.141-38.69 46.109c3.36 36.93-3.49 156.47-3.49 156.47l66.61-0.808s0.71-95.129 9.09-118.58c8.4-23.469 34.24-82.969-33.52-83.188z"/>
  </clipPath>
  <linearGradient id="linearGradient286" gradientUnits="userSpaceOnUse" gradientTransform="matrix(0 -269.95 -269.95 0 5833.1 856.45)">
   <stop stop-color="#d96a4b" offset="0"/>
   <stop stop-color="#f89a69" offset="1"/>
  </linearGradient>
  <clipPath id="clipPath298" clipPathUnits="userSpaceOnUse">
   <path d="m5718.3 692.75c6.88 25.5 32.99 41.492 39.26 68.75 5.67 24.602 1.84 56.391 0.36 81.852-0.54 9.48 2.17 37.179-8.54 40.949-12.12 4.25-33.47-25.672-39.3-33.262-20.97-27.289-37.46-60.316-39.24-94.476-1.65-31.891 13.54-66.422 45.81-75.262z"/>
  </clipPath>
  <linearGradient id="linearGradient304" gradientUnits="userSpaceOnUse" gradientTransform="matrix(106.4 -61.958 -61.958 -106.4 5706.5 797.21)">
   <stop stop-color="#d96a4b" offset="0"/>
   <stop stop-color="#c1442a" offset="1"/>
  </linearGradient>
  <clipPath id="clipPath314" clipPathUnits="userSpaceOnUse">
   <path d="m5906.4 702.56c-4.09 10.312-14.55 15.812-19.22 24.921-4.83 9.422-12.49 28.469-13.5 38.899-2.1 21.601-3.27 42.543-9.82 71.98 20.65-4.296 52.12-52.988 56.9-73.257 6.83-29.02-4.9-49.243-12.71-75.61z"/>
  </clipPath>
  <linearGradient id="linearGradient320" gradientUnits="userSpaceOnUse" gradientTransform="matrix(-60.411 -16.264 -16.264 60.411 5910 770.39)">
   <stop stop-color="#d96a4b" offset="0"/>
   <stop stop-color="#c1442a" offset="1"/>
  </linearGradient>
  <clipPath id="clipPath336" clipPathUnits="userSpaceOnUse">
   <path d="m5905.3 709.42c-0.38 0.566-1.21 0.187-1.1-0.461 1.84-9.652 4.28-18.219 3.62-28.211-0.78-11.66-7.36-21.949-18.19-26.57-0.85-0.36-0.22-1.801 0.64-1.481 22.35 8.102 27.32 37.621 15.03 56.723zm-9.36-40.231c-6.95 6.559-16.66 4.129-22.77-2.082-0.71-0.707 0.33-1.699 1.05-1.07 6.57 5.672 12.88 4.59 20.04 0.973 1.35-0.692 2.88 1.058 1.68 2.179zm-18.66 1.989c6.76 6.41 14.45 14.211 18.17 22.922 0.24 0.539-0.45 1.25-0.89 0.699-6.24-7.488-11.25-15.809-17.9-23.02-0.39-0.402 0.21-0.98 0.62-0.601zm-8.83-7.321c-11.03-7.738-21.31-12.621-34.91-13.98-13.54-1.359-27.54 1.562-39.85 7.172-0.39 0.168-0.73-0.379-0.33-0.582 22.15-11.199 57.43-13.578 75.88 6.371 0.49 0.519-0.15 1.469-0.79 1.019zm-127.53-0.32c-0.28-0.297 0.17-0.769 0.48-0.48 14.68 14.191 33.19 1.031 48.6-3.887 0.83-0.25 1.56 0.898 0.87 1.48-13.88 11.578-36.41 17.508-49.95 2.887zm-19.77 7.852c-4.28 10.668-1.73 21.839-0.83 32.808 0.03 0.52-0.68 0.531-0.83 0.11-4.18-10.879-6.06-24.387-2.09-35.59 4.21-11.93 16.01-17.68 26.94-22.137 0.39-0.16 0.64 0.477 0.28 0.668-9.9 5.641-19.13 13.309-23.47 24.141z"/>
  </clipPath>
  <linearGradient id="linearGradient342" gradientUnits="userSpaceOnUse" gradientTransform="matrix(0 39.957 39.957 0 5813.6 678.61)">
   <stop stop-color="#ad3b21" offset="0"/>
   <stop stop-color="#d96a4b" offset="1"/>
  </linearGradient>
  <clipPath id="clipPath356" clipPathUnits="userSpaceOnUse">
   <path d="m5714.5 496.42s55.61 9.816 110.15 9.816 76.37-5.449 76.37-5.449-27.28-29.469-84-29.469c-56.71 0-102.52 25.102-102.52 25.102z"/>
  </clipPath>
  <radialGradient id="radialGradient362" gradientUnits="userSpaceOnUse" cy="0" cx="0" gradientTransform="matrix(93.118 0 0 -93.118 5813.1 479.9)" r="1">
   <stop stop-color="#f57e96" offset="0"/>
   <stop stop-color="#e8355c" offset="1"/>
  </radialGradient>
  <clipPath id="clipPath376" clipPathUnits="userSpaceOnUse">
   <path d="m5397.1 1069.1s39.28 34.9 89.44 26.18c50.18-8.73 159.26-67.63 198.53-54.54 0 0 23.99 13.09 30.53 32.73 0 0-58.91 8.72-126.52 37.08-67.63 28.35-167.98 8.72-191.98-41.45z"/>
  </clipPath>
  <linearGradient id="linearGradient382" gradientUnits="userSpaceOnUse" gradientTransform="matrix(0 -36.484 -36.484 0 5556.3 1112.7)">
   <stop stop-color="#3e1d16" offset="0"/>
   <stop stop-color="#291512" offset="1"/>
  </linearGradient>
  <clipPath id="clipPath392" clipPathUnits="userSpaceOnUse">
   <path d="m6101.7 1069.1s-30.4 34.9-69.23 26.18c-38.83-8.73-138.17-71.99-168.56-58.91 0 0 4.38 18.56 15.27 38.19 0 0 21.61 7.63 73.94 35.99 52.34 28.35 130.01 8.72 148.58-41.45z"/>
  </clipPath>
  <linearGradient id="linearGradient398" gradientUnits="userSpaceOnUse" gradientTransform="matrix(0 -38.317 25.458 0 5982.8 1112.2)">
   <stop stop-color="#3e1d16" offset="0"/>
   <stop stop-color="#291512" offset="1"/>
  </linearGradient>
  <clipPath id="clipPath408" clipPathUnits="userSpaceOnUse">
   <path d="m5423.4 970.75c57.61 56.32 152.04 34.76 213.54-2.219 0.21-0.14 0.42 0.207 0.19 0.348-31.12 21.641-70.22 35.841-107.81 40.151-19.88 2.28-40.17 0.63-59.31-5.29-19.45-5.99-34.22-17.099-46.9-32.709-0.16-0.199 0.09-0.472 0.29-0.281z"/>
  </clipPath>
  <linearGradient id="linearGradient414" gradientUnits="userSpaceOnUse" gradientTransform="matrix(0 -46.411 -46.411 0 5530.2 1128.1)">
   <stop stop-color="#ac3720" offset="0"/>
   <stop stop-color="#9a271f" offset="1"/>
  </linearGradient>
  <clipPath id="clipPath424" clipPathUnits="userSpaceOnUse">
   <path d="m6061.2 967.16c-8.62 14.352-18.49 25.16-34.09 32.141-13.42 5.989-28.37 7.479-42.89 5.819-29.85-3.4-60.29-19.78-82.05-40.108-0.19-0.153 0.07-0.391 0.25-0.25 22.76 18.461 48.53 32.039 77.89 35.748 31.41 3.99 61.24-8.248 80.58-33.53 0.14-0.171 0.43-0.019 0.31 0.18z"/>
  </clipPath>
  <linearGradient id="linearGradient430" gradientUnits="userSpaceOnUse" gradientTransform="matrix(0 -45.876 -45.876 0 5981.6 1122.5)">
   <stop stop-color="#ac3720" offset="0"/>
   <stop stop-color="#9a271f" offset="1"/>
  </linearGradient>
  <clipPath id="clipPath444" clipPathUnits="userSpaceOnUse">
   <path d="m5582.5 928.82c0.28 9.86-2.58 19.059-7.63 26.692-24.73 6.508-52.11 6.859-76.42 1.109-5.03-7.172-8.09-15.832-8.37-25.242-0.51-18.789 10.28-35.227 26.16-42.899 7.49-2.089 15.23-3.57 23.17-4.488 23.52 1.567 42.42 20.797 43.09 44.828z"/>
  </clipPath>
  <linearGradient id="linearGradient450" gradientUnits="userSpaceOnUse" gradientTransform="matrix(1.8355 66.238 66.238 -1.8355 5535.3 894.51)">
   <stop stop-color="#6f7e26" offset="0"/>
   <stop stop-color="#100f0d" offset="1"/>
  </linearGradient>
  <clipPath id="clipPath460" clipPathUnits="userSpaceOnUse">
   <path d="m5535.2 889.21c22.59-0.621 41.4 17.18 42.02 39.758 0.3 10.941-3.74 20.961-10.53 28.492-19.63 4-40.5 4.258-59.9 0.859-6.76-7.07-11.05-16.531-11.35-27.082-0.61-22.578 17.18-41.398 39.76-42.027z"/>
  </clipPath>
  <linearGradient id="linearGradient468" gradientUnits="userSpaceOnUse" gradientTransform="matrix(1.8352 66.226 66.226 -1.8352 5535.3 894.52)">
   <stop stop-color="#8d9d24" offset="0"/>
   <stop stop-color="#8d9d24" offset=".0057804"/>
   <stop stop-color="#544a1b" offset="1"/>
  </linearGradient>
  <clipPath id="clipPath480" clipPathUnits="userSpaceOnUse">
   <path d="m5553.3 929.63c-0.27-9.41-8.11-16.816-17.53-16.578-9.4 0.269-16.82 8.109-16.56 17.519 0.27 9.418 8.1 16.84 17.51 16.571 9.41-0.25 16.84-8.09 16.58-17.512z"/>
  </clipPath>
  <linearGradient id="linearGradient486" gradientUnits="userSpaceOnUse" gradientTransform="matrix(-.47607 -17.18 -17.18 .47607 5536.2 927.24)">
   <stop stop-color="#100f0d" offset="0"/>
   <stop stop-color="#99a692" offset="1"/>
  </linearGradient>
  <clipPath id="clipPath506" clipPathUnits="userSpaceOnUse">
   <path d="m6000.6 928.96c-0.89 11.5-5.72 21.668-13 29.219-24.42 3.3-50.57-1.121-71.44-13.539-2.9-6.801-4.27-14.45-3.66-22.442 1.4-18.277 12.83-33.25 28.14-39.57 11.56-1.149 23.02-0.981 34.02 0.711 16.55 7.691 27.47 25.621 25.94 45.621z"/>
  </clipPath>
  <linearGradient id="linearGradient512" gradientUnits="userSpaceOnUse" gradientTransform="matrix(-5.0628 66.074 66.074 5.0628 5959.3 890.09)">
   <stop stop-color="#6f7e26" offset="0"/>
   <stop stop-color="#100f0d" offset="1"/>
  </linearGradient>
  <clipPath id="clipPath522" clipPathUnits="userSpaceOnUse">
   <path d="m5959.7 884.8c21.54 1.648 37.59 21.25 35.86 43.781-0.98 12.727-7.43 23.668-16.76 30.488-18.63 1.071-37.77-2.261-54.43-10.078-4.91-7.422-7.51-16.633-6.77-26.402 1.73-22.531 20.58-39.43 42.1-37.789z"/>
  </clipPath>
  <linearGradient id="linearGradient530" gradientUnits="userSpaceOnUse" gradientTransform="matrix(-5.063 66.078 66.078 5.063 5959.3 890.09)">
   <stop stop-color="#8d9d24" offset="0"/>
   <stop stop-color="#8d9d24" offset=".0057804"/>
   <stop stop-color="#544a1b" offset="1"/>
  </linearGradient>
  <clipPath id="clipPath542" clipPathUnits="userSpaceOnUse">
   <path d="m5972.8 926.83c0.71-9.383-5.97-17.551-14.95-18.242-8.98-0.692-16.84 6.371-17.54 15.742-0.74 9.398 5.96 17.559 14.93 18.25 8.96 0.688 16.83-6.344 17.56-15.75z"/>
  </clipPath>
  <linearGradient id="linearGradient548" gradientUnits="userSpaceOnUse" gradientTransform="matrix(1.3127 -17.132 -17.132 -1.3127 5956.8 922.73)">
   <stop stop-color="#100f0d" offset="0"/>
   <stop stop-color="#99a692" offset="1"/>
  </linearGradient>
 </defs>
 <metadata>
  <rdf:RDF>
   <cc:Work rdf:about="">
    <dc:format>image/svg+xml</dc:format>
    <dc:type rdf:resource="http://purl.org/dc/dcmitype/StillImage"/>
    <dc:title/>
   </cc:Work>
  </rdf:RDF>
 </metadata>
 <g transform="translate(0,-97)">
  <g stroke-width=".29769" transform="matrix(1.26 0 0 -1.1146 -612.43 296.7)">
   <path d="m638.66 93.254c-0.736 3.9742-2.061 7.9741-3.937 11.891-1.936 4.044-4.471 7.516-6.695 10.381-0.797 1.023-1.663 2.123-2.649 3.356-2.796 5.144-4.16 11.051-5.48 16.766-0.31 1.337-0.63 2.721-0.961 4.061-1.072 4.339-2.246 9-3.807 15.105-0.076 0.295-0.33 0.497-0.514 0.647-0.038 0.029-0.072 0.056-0.1 0.081-0.383 0.354-0.771 0.69-1.235 1.084-1.021 0.869-2.157 1.783-3.472 2.797-3.519 2.716-6.821 5.011-10.098 7.018-3.597 2.204-7.137 3.864-10.819 5.077-3.584 1.179-7.541 2.122-11.758 2.8-1.825 0.295-3.992 0.602-6.224 0.646-0.072 0.003-0.141 0.003-0.21 0.003-0.245 0-0.488-0.008-0.737-0.017-0.23-0.008-0.458-0.017-0.686-0.017-0.478 0-0.842 0.037-1.18 0.119-1.024 0.247-1.882 0.976-2.712 1.679l-0.154 0.131c-0.493 0.416-1.169 0.986-2.052 1.029l-0.065 0.001c-0.914 0-1.476-0.912-1.716-1.304-0.687-1.116-1.076-2.463-1.334-3.626-2.144 0.975-4.422 1.891-6.813 2.113-0.528 0.049-1.065 0.075-1.597 0.075-3.529 0-6.959-1.049-9.926-3.03-2.423-1.618-4.648-3.575-6.799-5.469-0.723-0.637-1.443-1.273-2.172-1.894-2.17-1.853-4.469-3.624-6.691-5.335-1.749-1.346-3.556-2.737-5.295-4.165-2.686-2.205-5.005-4.305-7.09-6.421-0.151-0.154-0.304-0.31-0.452-0.466-0.425-0.45-0.545-1.248-0.641-1.889-0.02-0.141-0.041-0.272-0.061-0.384-0.442-2.312-0.328-4.693-0.175-6.933 0.035-0.499 0.072-0.998 0.111-1.496 0.14-1.812 0.283-3.683 0.218-5.521-0.074-2.109-0.569-4.363-1.557-7.095-0.939-2.595-2.22-5.071-3.347-7.152l-0.157-0.291c-1.07-1.971-2.176-4.011-3.209-6.061l-0.063-0.124c-1.793-3.555-4.247-8.425-2.446-12.607 0.628-1.4609 1.577-2.766 2.492-4.0293 1.394-1.9188 2.711-3.7328 2.98-6.025 0.487-4.1328-1.796-8.025-4.175-11.657-0.459-0.6993-0.93-1.3934-1.401-2.0833-0.702-1.0328-1.428-2.1031-2.103-3.1839-1.302-2.0801-2.356-4.2668-3.302-6.32-2.268-4.9242-3.635-9.5261-4.181-14.075-0.402-3.35-0.543-7.248 1.459-10.76 1.439-2.5211 3.68-4.4098 5.847-6.2367l0.407-0.3434c2.597-2.1949 5.267-4.6051 6.857-7.7797 2.084-4.164 1.71-9.441-1.113-15.69-0.049-0.1121-0.063-0.2309-0.048-0.3442-1.088-0.83394-2.264-1.6859-3.676-2.6648-0.23-0.15781-0.328-0.44297-0.245-0.71016 0.082-0.26367 0.319-0.44296 0.589-0.44296 0.117 0 0.232 0.03398 0.332 0.09804l0.115 0.07031 0.009 0.00782c1.611 0.13086 5.417 0.44883 8.656 0.79297l0.062 0.00625 0.134 0.01484 0.619 0.0668 0.069 0.0082 0.534 0.06094c0.214 0.02383 0.485 0.03593 0.808 0.03593 0.069 0 0.141 0 0.215-0.00195 0.092-0.00117 0.188-0.0039 0.292-0.00508l0.053-0.00312c0.102-0.00274 0.208-0.00781 0.315-0.01289l0.074-0.00391c0.101-0.0039 0.205-0.01015 0.312-0.01719 0.001 0 0.038-0.0039 0.038-0.0039 0.524-0.03281 1.111-0.08399 1.717-0.14492 0.02-0.00196 0.039-0.00508 0.068-0.00782l0.082-0.00703 0.342-0.03828 0.053-0.00586 0.046-0.00508 0.39-0.04375 0.118-0.01328 0.092-0.01094 0.303-0.03593 0.037-0.00586 0.073-0.00899 0.356-0.04531 0.061-0.00586 0.052-0.00586 0.053-0.0082 0.059-0.00586 0.462-0.06211c0.368-0.04805 0.742-0.09805 1.12-0.15195l0.036-0.00391 0.435-0.06289 0.087-0.01328 0.049-0.00703 0.045-0.00703 0.408-0.05899 0.071-0.01172c0.96-0.14101 1.945-0.29414 2.932-0.45312l0.811-0.1332 0.156-0.02461 0.82-0.13633 0.097-0.01485c0.587-0.09882 1.171-0.2 1.767-0.30312 1.2-0.20703 2.353-0.41289 3.418-0.60703 2.684-0.48789 4.802-0.89883 5.582-1.052 0.009-0.01093 0.019-0.02187 0.029-0.03203 0.13-0.14101 0.312-0.22187 0.502-0.22187 0.187 0 0.358 0.08086 0.473 0.21406 4.473-1.073 7.748-1.9859 7.796-1.9992 5.49-1.362 11.41-2.0511 17.62-2.0511 13.591 0 24.175 3.3289 24.28 3.3641 0.024 0.00703 0.047 0.01485 0.07 0.02813 13.506 6.7398 22.672 7.4687 22.764 7.4769 0.166 0.011 0.311 0.1051 0.391 0.2411 0.072-0.027 0.154-0.0422 0.244-0.0422h0.004c7.411 0.2761 11.6 6.4308 13.809 11.545 2.887 6.6863 3.546 13.789 4.062 21.712 0.253 3.8891 0.539 8.3 1.499 12.502 0.485 2.1289 1.18 4.266 2.063 6.3511 0.548 1.2961 1.233 2.5559 1.895 3.7731 0.416 0.7648 0.844 1.5539 1.24 2.3527 4.361 8.7871 3.937 17.875 2.814 23.95" fill="#100f0d"/>
   <g stroke-width=".29769">
    <g transform="scale(.1)">
     <g stroke-width=".29769" clip-path="url(#clipPath22)">
      <path d="m5163.6 80.84s137.68-6.539 201.94 134.16c64.26 140.71 42.84 346.86 42.84 346.86l452.85-75.257s-58.13-274.87 244.78-373.03c0 0-91.8-6.539-229.48-75.261 0 0-205-65.438-416.13-13.078 0 0-198.88 55.609-296.8 55.609" fill="url(#linearGradient28)"/>
     </g>
    </g>
    <g transform="scale(.1)">
     <g stroke-width=".29769" clip-path="url(#clipPath38)">
      <path d="m5163.6 80.84c1.42 0 2.86-0.0078 4.3-0.0195-2.76-0.039-4.3 0.0195-4.3 0.0195zm1125.7 1050.4c-11.06 14.37-22.64 29.25-34.64 44.43-32.4 54.33-47.82 121.94-60.26 174.79-13.09 55.64-49.07 196.35-49.07 196.35-19.63 19.63-121.09 101.43-202.89 140.69-81.8 39.29-209.43 58.92-245.42 55.65-35.99-3.28-49.08 29.44-65.44 29.44-16.37 0-26.2-52.35-26.2-52.35s-42.51 19.63-65.43 22.91c-22.9 3.27-68.72 3.27-111.25-22.91-42.54-26.17-94.9-81.81-170.16-137.43-75.25-55.64-121.07-104.72-121.07-104.72-19.64-58.89 6.54-127.63-6.55-186.51-9.81-52.36-39.27-104.73-65.44-150.53-19.65-42.54-52.36-91.62-42.55-140.7 13.1-42.549 55.64-68.721 58.9-114.53 6.55-65.449-55.62-130.9-85.07-183.26-35.99-65.438-65.45-137.44-68.72-212.69-9.81-114.52 88.35-127.62 140.72-212.69 32.71-55.629 19.62-117.8-6.57-173.42 0 0-1.44-3.422-1.97-6.5432-11.76-8.8594-24.2-17.578-37.29-26.188 0 0 62.18 4.9101 104.72 9.8085 42.54 4.9219 248.68-35.988 248.68-35.988 0.12 0.5898 0.24 1.1601 0.33 1.75 0 0 38.26 145.19 8.06 219.84 40.41 134.52 23.7 295.42 23.7 295.42l452.85-75.257s-56.82-268.92 235.13-369.75h16.19c107.98 3.257 150.53 137.42 163.63 229.04 16.35 124.34 0 215.97 65.42 330.5 81.81 140.7 45.83 327.23-52.34 454.85" fill="url(#linearGradient44)"/>
     </g>
    </g>
    <g transform="scale(.1)">
     <g stroke-width=".29769" clip-path="url(#clipPath54)">
      <path d="m5180.1 1083.4 9.7-27.48c-1.91 9.29-5.42 18.43-9.7 27.48zm-44.8-474.65s4.36-126.52 37.08-194.15c32.73-67.622 63.26-176.69 19.64-235.59-29.44-39.731-95.57-82.422-137.53-105.33 19.91 1.7187 45.9 4.1211 67.84 6.5625 43.14 27.289 93.88 68.68 102.42 116.22 15.26 85.07-10.92 187.61-39.29 231.25-28.36 43.609-50.16 181.04-50.16 181.04zm-48-159.23s-39.27 95.98-10.91 181.06c28.37 85.07 67.63 172.33 61.09 253.05 0 0-21.8-100.35-54.54-143.99-32.72-43.61-54.53-146.14-43.63-196.32 10.91-50.168 47.99-115.61 47.99-115.61zm200.37 938.8c2.81 1.25 5.62 2.5 8.36 3.75-2.72-1.09-5.51-2.37-8.36-3.75zm723.32 56.5c0.94-0.25 1.86-0.49 2.73-0.69-35.24 26.4-57.99 45.27-66.01 79.43 50.99-22.29 98.12-51.81 132.66-97.22 23.95-31.49 46-61.87 66.48-95.56-33.4 38.5-78.87 81.38-135.86 114.04zm278.32-313.58c-11.06 14.37-22.64 29.25-34.64 44.43-22.7 38.08-37.06 82.67-47.91 124.15-10.69 8.09-21.09 16.28-30.41 24.95-34.49 32.13-60.9 72.71-89.98 108.64-35.03 43.27-85.53 82.1-140.94 103.29-0.86 7.67-1.16 16.07-0.8 25.37 0.82 21.97 6.02 35.72-2.67 56.72-10.61 25.66-8.36 32.86 10.41 34.46 85.57-52.5 175.51-134.79 175.51-134.79l43.76-75.46c-13.26 52.76-26.3 103.81-26.3 103.81-19.63 19.63-121.09 101.43-202.89 140.69-81.8 39.29-209.43 58.92-245.42 55.65-35.99-3.28-49.08 29.44-65.44 29.44-16.37 0-26.2-52.35-26.2-52.35s-42.51 19.63-65.43 22.91c-22.9 3.27-68.72 3.27-111.25-22.91-42.54-26.17-94.9-81.81-170.16-137.43-75.25-55.64-121.07-104.72-121.07-104.72-19.64-58.89 6.54-127.63-6.55-186.51-9.81-52.36-39.27-104.73-65.44-150.53-19.65-42.54-52.36-91.62-42.55-140.7 13.1-42.549 55.64-68.721 58.9-114.53 6.55-65.449-55.62-130.9-85.07-183.26-35.99-65.438-65.45-137.44-68.72-212.69-5.96-69.402 27.77-101.55 66.91-135.05-22.81 27.282-51.27 72.871-47.28 127.41 6.54 89.45 37.09 161.44 85.09 242.16 47.99 80.711 61.08 106.89 58.89 157.06-2.18 50.18-65.44 104.71-34.9 174.52 20.44 46.73 55.52 112.01 77.16 172.33-0.77-28.4 3.31-56.85 13.87-82.9 8.33-20.52 22.44-41 32.35-61.96l-16.47 46.69c3.69 25.08-7.88 56.67-8.72 82.89-0.81 24.8 2.71 50.95 13.02 73.64 12.17 26.82 32.35 45.77 56.84 61.62 18.41 11.93 41.88 29.69 62.86 40.04-48.86-21.94-107.88-47.53-136.24-92.95 0.7 5.43 1.16 10.74 1.32 15.84 2.18 74.17-6.54 150.51 10.9 172.32 8.13 10.19 42.32 35.51 80.73 64.08 14.89-2.65 24.09-10.31 34.41-31.4 8.74-17.87 9.9-40.4 20.06-56.73 10.39-16.67 31.93-16.99 40.95-32.68 4.89-8.5 5.75-26.92 3.87-43.1-50.36-22.77-113.32-70.16-108.03-164.12l26.18-316.31s28.36 85.082 17.46 154.88c-10.91 69.81-32.72 165.79-10.9 220.33 22.07 55.23 63.85 76.35 111.98 104.3 36.37 13.01 110.52 44.04 110.52 44.04l-39.05-10.73c42.86 16.64 83.99 40.15 117.09 66.66-20.97-7.15-41.05-14.28-62.92-20.66-28.19-8.21-62.13-12.85-91.15-22.88 0.3 3.29 0.8 6.53 1.58 9.58-27.36 11.55-64.13-14.45-93.19 2.57-28.51 16.69 1.24 48.8 12.75 71.45 14.41 28.34 16.94 41.56 15.27 69.69-0.95 16.16 2.51 31.76 7.71 47.07 0.32 0.33 0.7 0.71 1.02 1.03 41.45 43.64 159.24 113.46 233.42 50.19 74.16-63.28 76.35-128.72 76.35-128.72l10.91 56.72s-43.63 69.82-52.36 89.45-2.19 45.82 13.09 39.26c15.26-6.54 39.27-37.08 39.27-37.08s45.98 4.74 103.53-1.04c22.73-17.21 39.61-41.67 56.2-64.4 22.12-30.32 91.34-35.53 89.43-82.91-0.29-7.39-0.92-13.71-1.5-19.46-20.18 6.26-40.87 10.09-61.58 10.85 20.31-6.57 40.7-13.57 60.68-21.49-0.8-12.54 0.21-23.49 8.53-39.76 1.3-2.53 2.85-4.91 4.39-7.16-91.07 39.16-185.52 33.39-185.52 33.39 87.27-2.18 187.71-56.77 187.71-56.77l2.6 2.62c-0.69-0.87-1.52-1.74-2.6-2.62-9.94-8.21-37.15-3.18-50-9.16 2.13-6.28 6.96-14.12 8.17-20.98-14.34 0.17-28.99 2.47-43.33 4.03l47.99-69.82c23.5-1.22 44.59 3.59 50.16 26.18 3.7 14.99-8.26 37.25-0.53 50.33 0 0 96.52-59.07 144.52-109.24 47.98-50.16 135.25-165.78 135.25-165.78s136.09-159.15 151.87-329.74c3.72 103.66-33.73 211.07-97.33 293.75zm-274.9-912.92v47.981c-4.36 6.551-13.09 17.457-26.17 30.539-13.09 13.09-56.72 8.73-76.36 0-7.64-3.391-9.99-17.34-10.01-33.11 13.61-22.64 31.19-44.929 53.72-65.769l-4.45 44.34c28.37 4.367 63.27-23.981 63.27-23.981zm202.88 394.84c-2.43 77.34-32.11 149.42-21.88 229.59 4.66 36.508 9.21 71.641 10.99 108.53 0.78 16.403 3.19 33.192 2.16 50.242-1.19 19.94-8.41 22.37-19.73 38.45 10.97-57.95 7.43-129.92-1.59-187.34-9.69-61.5-0.39-118.12 11.95-176.91-8.87 24.742-19.4 48.89-27.71 70.519-21.83 56.699-15.28 237.78-15.28 237.78l-43.6-412.31s-58.89-56.703-67.62-61.082c-8.73-4.352-45.82-71.988-52.36-89.438-6.53-17.441 10.92-78.531 10.92-78.531s26.16-63.269 37.08-93.812c10.9-30.528-30.54-47.989-30.54-47.989s39.27 0 58.9 30.532c19.64 30.55-30.55 106.91-32.73 133.09-2.17 26.168 24 65.438 65.45 74.161 41.46 8.738 93.8 63.269 111.25 119.98 5.43 17.648 5.58 36.988 2.56 56.957zm-1012.2 207.25c15.26 139.61-19.65 224.68-19.65 224.68 28.37-98.148-15.26-211.6-17.44-397.03-2.19-185.42 50.17-222.51 87.26-305.4 37.08-82.91-2.19-181.05-2.19-181.05l-10.9-41.461s26.18 32.731 56.71 82.891c30.54 50.18-26.18 202.88-56.71 259.6-30.55 56.707-52.35 218.15-37.08 357.77zm1055.8 200.69-45.82 58.89 37.08-104.71s32.73-126.52 34.9-135.25c2.19-8.738 0-93.797 0-93.797l6.56-98.179s45.81 89.437 37.08 176.71c-8.73 87.261-69.8 196.34-69.8 196.34" fill="url(#linearGradient60)"/>
     </g>
    </g>
    <g transform="scale(.1)">
     <g stroke-width=".29769" clip-path="url(#clipPath70)">
      <path d="m5320.7 270.63c-13.09 113.45-91.62 198.52-106.89 296.69 0 0 0-74.168 50.17-178.89 49.02-102.32 39.7-237.95-125.63-307.19 17.79-0.2461 46.61-3.6875 78.23-8.3594 28.95 23.812 115.03 103.21 104.12 197.75zm-75.5-202.17c24.82-4 49.8-8.3789 71.2-12.27 14.93 29.141 61.68 133.29 28.37 240.62 0 0-0.03-185.14-99.57-228.35zm180.28 621.03-68.72 76.887-31.08 8.18-57.26-39.258s-21.27-140.72 8.18-227.43c0 0 32.72-99.812 58.88-139.08 24.67-36.98 43.51-86.988 49.72-100.9 39.86 134.22 23.28 293.97 23.28 293.97l81.5-13.539c-19.74 53.582-64.5 141.17-64.5 141.17zm58.9 706.8c-52.35 8.18-129.24-49.09-129.24-49.09-65.46-49.09-52.37-85.08-52.37-107.98 0-22.92 21.28-127.62 21.28-127.62l14.73-122.71 22.89-6.551s4.91 60.56 13.1 63.81c8.17 3.28 68.71 81.81 80.16 99.8 11.45 18.01 62.18 150.54 62.18 150.54s19.63 91.61-32.73 99.8zm761.36-363.23c-48.06 105.72-125.73 208.87-143.52 231.89-1.28 1.9-2.55 3.52-3.76 4.81-18.05 19.13-72.41 93.19-125.65 110.04-23.34 33.91-182.46 93.4-182.46 93.4s-47.45-6.55-45.81 1.63c1.62 8.17-27.84 35.99-49.1 45.8-21.26 9.82 18 37.64 22.91 63.81s-32.73 53.99-52.36 73.62c-19.64 19.64-34.35 73.64-42.54 70.36-8.18-3.28-4.91-19.64-4.91-19.64 58.9-52.36 55.64-111.26 40.91-153.79-14.74-42.54 31.08-52.36 31.08-52.36-4.91-21.26-24.54-49.08-24.54-49.08l-50.72-80.18c3.27-6.54 26.18-35.98 71.99-53.98s206.15-11.47 206.15-11.47 13.15 4.95 28.94 12.85c-12.55-50.61-14.75-114.27-14.75-114.27l-60.6-717.52 14.28-2.378s-36.71-173.94 100.8-294.5c0 0-27.27 30.527-25.09 63.257 0 0 37.1 8.743 81.8-34.91l-6.8-2.16s-27.01 19.621-45.82 14.711c0 0 4.91-33.539 43.37-33.539 38.43 0 48.25 27 50.71 40.91 2.46 13.899-8.19 52.348-8.19 52.348s-25.35 50.711-29.44 73.621c-4.1 22.902 1.63 62.18 14.71 71.992 13.1 9.828 13.92 8.18 58.92 14.727 44.99 6.543 72.81 26.183 86.71 74.429 13.9 48.293 16.35 82.633-9 152.98 0 0-28.62 41.73-21 150.81 7.63 109.07 17.45 238.87-6.54 319.58 0 0-3.08 10.33-7.82 24.96 33.74-30.79 83.08-151.47 83.08-151.47 19.63-91.639 1.09-157.08-7.63-242.15-8.72-85.078 55.62-136.36 55.62-136.36 2.18-43.61-21.82-124.33-49.09-181.06-27.27-56.722-105.8-66.531-105.8-66.531-65.44-33.809-34.89-98.16-27.26-124.35 7.63-26.172 19.63-55.613 1.1-95.98-18.56-40.352-62.18-29.453-62.18-29.453l-0.38-0.758c20.86-11.43 44.19-21.832 70.35-30.859h16.19c11.25 0.328 21.78 2.109 31.64 5.097 0.36 0.121 0.72 0.231 1.1 0.352 82.89 26.168 98.16 172.32 104.69 187.61 6.55 15.262 10.93 69.781 12.01 124.32 1.09 54.54 13.08 145.08 13.08 145.08 10.9 28.363 34.91 146.16 34.91 146.16 22.9 164.69-64.34 307.59-64.34 307.59zm-596.11 446.67c-35.99-29.45-130.89-34.37-130.89-34.37 42.54 8.19 116.16 58.91 116.16 58.91l-1.62 31.08c-13.1-42.53-147.26-93.25-194.71-103.07-47.45-9.81-116.17-58.91-116.17-58.91 53.99 34.36 157.07 42.54 157.07 42.54 129.27 6.56 170.16 63.82 170.16 63.82zm255.23 18s145.62-68.73 287.97-245.42c0 0 28.48-39.86 52.91-60.3-26.35 51.11-40.06 110.78-51.28 158.45-13.09 55.64-49.07 196.35-49.07 196.35-0.49 0.47-1.07 1.04-1.64 1.58 25.23-96.48 19.49-192.94 18.21-209.98-51.71 47.22-139.36 114.56-257.1 159.32zm-664.26-785.34 8.18 78.531s34.35 175.07 13.09 294.49c0 0-29.44 145.62-22.91 175.07 0 0-21.26-78.52-6.53-152.16 14.72-73.62 8.17-323.95 8.17-395.93zm-119.5 101.36s37.63 80.18-9.83 160.34c0 0 16.37-71.988 9.83-160.34zm52.92-544.68 1.06-3.411c8.2 81.79-16.35 80.161-44.17 184.87-27.81 104.72-13.09 224.15-13.09 224.15-36.57-140.73-12.35-230.42 7.1-273.66-35.98 50.902-50.32 89.789-67.64 155.86-17.99 68.731 47.46 219.25 47.46 219.25s-88.36-91.629-80.17-211.08c8.18-119.43 65.43-139.06 99.79-211.04 34.37-72.012-37.63-124.35-37.63-124.35s-0.22-0.21-0.56-0.539c6.93-41.941-5.13-85.39-23.99-125.43 0 0-1.3-3.09-1.88-6.0628 22.35 7.0818 93.52 96.039 93.52 96.039 12.46 28.403 18.66 53.164 20.2 75.403" fill="url(#linearGradient76)"/>
     </g>
    </g>
    <g transform="scale(.1)">
     <g stroke-width=".29769" clip-path="url(#clipPath86)">
      <path d="m5694.1 1505.7c-16.44 5.94-36.54 13.99-35.88 34.52 0.5 15.74 8.77 31.18 12.42 46.35 10.85 45.07-18.28 93.18-51.54 121.25-0.88 0.73-2.13-0.46-1.28-1.28 20.15-19.87 37.55-41.78 46.48-69.02 4.36-13.3 6.99-29.04 4.65-42.99-1.52-9.19-4.51-18.08-7.47-26.88-4.14-12.31-10.54-27.65-4.68-40.48 3.1-6.78 8.59-11.52 14.82-15.39 4.43-2.74 9.32-4.69 14.16-6.52 3.7-1.4 6.66-1.09 4.89-5.68-1.46-3.78-2.5-7.53-4.18-11.24-0.41-0.93 0.92-1.73 1.36-0.81 2.5 5.24 3.76 11.25 7.13 16.02 0.59 0.83-0.04 1.87-0.88 2.15zm-176.7-111.3c-30.56 8.27-63.31 2.56-92.75-7.42-32.47-11-63.31-28.87-87.91-52.86-10.75-10.49-20.09-22.61-26.82-36.07-7.22-14.45-9.2-30.15-9.06-46.15 0.35-41.08 15.26-80.11 19.28-120.66 0.07-0.67 1.08-0.69 1.05 0-2.06 37.33-12.1 73.68-14.5 110.96-1.08 16.85-0.27 34.07 6.57 49.73 6.03 13.85 15.55 25.99 26.05 36.74 23.28 23.82 53.62 40.93 84.78 52.12 29.2 10.47 61.66 15.97 92.53 10.84 1.78-0.3 2.58 2.27 0.78 2.77zm110.44 64.78c-38.77-25.4-83.29-34.32-128.63-39.64-42.15-4.94-85.08-7.37-125.34-21.88-63.52-22.92-127.02-63.84-137.19-135.88-2.58-18.3-1.09-36.57 1.36-54.8 3.41-25.25 8.18-50.26 12.99-75.26 5.06-26.4 10.06-52.83 13.47-79.51 3.27-25.39 2.59-51.31 1.49-76.819-4.51-103.38-28.13-205.16-26.24-308.96 1.1-59.66 13.05-118.44 30.83-175.24 18.33-58.621 43.38-114.64 66.32-171.51 0.06-0.168 0.33-0.11 0.27 0.07-34.12 90.91-72.73 182.29-87.14 278.9-15.42 103.28 4.24 206.71 15.27 309.34 5.35 49.809 9.87 101.26 3 151.12-7.12 51.77-19.91 102.6-26.37 154.48-4.51 36.16-0.24 71.56 20.08 102.52 19.79 30.12 51.52 50.41 83.65 65.25 22.27 10.32 44.96 18.69 68.97 23.99 25.27 5.57 51.12 8.1 76.82 11.02 47.99 5.48 96.55 13.55 137.23 41.36 0.9 0.6 0.07 2.06-0.84 1.45zm514.7-1059.2c65.41 22.582 98.02 87.844 114.28 150.8 4.34 16.8 7.54 33.878 10.07 51.05 1.1 7.43 2.01 14.879 2.84 22.34 0.42 3.86 0.79 7.711 1.15 11.563 0.32 3.449 2.22 8.566 1.3 11.898-0.88 3.129-5.94 6.738-8.12 9.16-3.47 3.86-6.79 7.848-10.01 11.93-6.72 8.469-12.59 17.539-17.67 27.078-8.8 16.524-14.09 34.75-16.53 53.274-5.81 44.199 4.59 88.097 9.02 131.85 5.5 54.422 0.21 111.45-7.84 165.34-0.07 0.45-0.8 0.35-0.79-0.1 2.64-51.279 9.38-101.66 5.36-153.14-3.25-41.813-14.09-82.68-12.98-124.85 0.94-36.168 12.28-69.898 33.91-98.961 5.87-7.867 12.48-15.148 19.42-22.109 4.1-4.121 0.01-19.531-0.58-24.86-1.93-17.417-4.67-34.761-8.25-51.898-14.1-67.582-45.61-142.01-115.43-167.26-1.94-0.691-1.13-3.781 0.85-3.101zm-63.49-54.297c2.16 29.68 25.51 46.668 50.73 57.808 1.59 0.692 0.46 3.352-1.16 2.782-26.69-9.473-51.62-27.512-55.08-57.551-3.21-27.742 7.27-55.41 14.51-81.711 7.8-28.359 14.17-59.449-0.39-86.77-7.17-13.468-16.66-25.359-31.87-29.648-13.54-3.82-28.13-0.84-40.9 4.168-31.52 12.359-58.01 40.648-70.96 71.539-3.06 7.352-5.15 15.102-6.19 22.953-0.54 4.238-2.01 7.258 3.23 7.321 6.43 0.078 12.97-1.153 19.24-2.434 23.71-4.887 44.29-18.57 60.26-36.418 0.7-0.801 1.85 0.359 1.15 1.141-22.45 25.187-51.98 38.789-85.66 39.718-0.6 0.02-0.99-0.468-1.03-1.031-1.92-28.039 16.94-56.16 35.57-75.297 18.7-19.191 44.71-35.582 72.25-35.851 27.31-0.289 46.46 20.172 55.03 44.48 9.44 26.828 1.68 56.539-5.6 82.859-6.44 23.321-14.91 47.422-13.13 71.942zm-34.43 97.41c9.73 6.309 23.02 5.84 34.12 6.477 15.58 0.863 31.09 2.589 45.84 8 30.97 11.351 48.77 39.16 59.56 68.882 14.07 38.809 12.04 79.028 2.1 118.54-10.14 40.239-26.64 78.852-30.82 120.48-1.96 19.441-0.49 39.238 0.4 58.687 0.92 20.481 2.25 40.922 3.6 61.344 2.74 41.969 5.58 83.938 5.52 126.01-0.14 84.29-14.44 168-58.05 241.25-0.6 0.99-2.09 0.11-1.53-0.89 23.66-43.01 38.98-89.81 46.93-138.2 7.66-46.63 8.16-94.21 6.55-141.34-1.58-46.66-5.65-93.191-8.07-139.82-1.16-22.238-2.78-44.809-0.75-67.039 1.8-19.93 6.68-39.492 12.36-58.609 11.79-39.704 27.67-78.61 29-120.53 1.21-37.609-11.1-82.879-38.8-109.84-25.39-24.71-58.77-22.691-91.25-26.449-9.21-1.07-17.74-3.949-24.15-10.883-9.73-10.558-11.63-26.367-14.29-39.777-5.84-29.48 5.47-57.609 17.39-83.973 11.76-25.996 28.22-59.168 15.02-87.679-9.99-21.61-37.2-31.098-59.36-25.547-11.6 2.91-20.9 10.82-26.15 21.469-1.21 2.441-1.56 5.57-2.85 7.922-2.45 4.429 12.73 1.207 14.65 0.769 10.73-2.473 20.64-7.891 29.46-14.352 0.35-0.238 0.68 0.34 0.34 0.583-13.6 9.816-29.11 15.917-45.97 16.425-0.25 0.024-0.39-0.218-0.36-0.449 4.88-24.988 26.23-38.309 51.26-35.309 24.45 2.961 43.48 21.641 45.38 46.25 2.73 35.321-19.81 66.93-31.19 98.801-7.09 19.84-8.22 38.821-4.84 59.489 2.28 14.101 6.15 31.011 18.95 39.312zm61.86 814.76c28.18-35.76 52.74-74.47 76.28-113.38 23.61-39.06 45.16-79.35 64.03-120.92 19.66-43.31 36.76-88.29 49.64-134.11 13.17-46.778 15.92-96.301 12.28-144.58-3.77-50.204-18.53-97.961-29.52-146.81-10.98-48.848-16.33-97.68-17.33-147.68-0.45-23.109-0.71-46.23-2.32-69.296-0.89-12.801-2.36-25.571-4.42-38.243-1.61-9.949-4.49-19.597-5.37-29.64-0.04-0.45 0.65-0.438 0.69 0 1.23 11.808 4.81 23.422 6.8 35.152 1.99 11.828 3.26 23.77 4.29 35.719 2.12 25.051 2.63 50.199 3.59 75.301 2.03 51.859 9.72 102.02 21.87 152.43 11.37 47.199 24.37 93.051 27.61 141.73 3.1 46.929-0.93 94.687-13.68 140.04-24.87 88.429-64.99 172.64-112.16 251.19-44.78 74.54-94.81 148.28-163.53 202.9-36.84 29.3-79.14 51.53-125.2 61.97-0.3 0.06-0.43-0.39-0.13-0.46 85.44-22.09 153.16-83.57 206.58-151.31zm275.36-326.18c-7.54 40.75-21.05 80.33-38.94 117.66-17.86 37.24-41.19 70.43-66.44 102.93-8.81 11.36-17.73 22.63-26.7 33.86-35.08 64.34-47.67 139.39-65.07 209.81-12.44 50.4-25.19 100.72-38.05 151.01-0.47 1.81-3.39 3.65-4.71 4.89-3.98 3.66-8.09 7.2-12.21 10.69-11.27 9.58-22.82 18.8-34.54 27.84-32.31 24.93-65.71 48.55-100.55 69.88-33.97 20.81-69.3 37.81-107.15 50.28-38.03 12.51-77.33 21.47-116.83 27.83-20.34 3.28-40.96 5.99-61.57 6.4-9.86 0.2-19.43-1.36-29.17 1-12.05 2.93-21.47 11.35-30.69 19.12-5.09 4.31-10.63 8.81-17.57 9.15-6.15 0.29-10.6-6.14-13.4-10.69-7.38-11.99-11.22-26.9-13.99-40.73-22.73 10.54-47.04 20.95-72.11 23.27-39.45 3.68-79.2-6.78-112.05-28.74-31.95-21.33-60.12-48.39-89.25-73.28-38.85-33.19-80.47-62.66-119.94-95.06-24.49-20.11-48.25-41.29-70.5-63.87-1.51-1.51-2.99-3.04-4.47-4.6-4.04-4.26-4.69-14.69-5.76-20.27-4.29-22.36-3.22-45.48-1.68-68.06 1.62-23.56 4.13-47.06 3.3-70.69-0.88-24.78-7.46-49.22-15.86-72.43-9.04-25.01-21.11-48.85-33.77-72.21-11.42-21.06-22.79-41.96-33.58-63.37-17.92-35.56-42.28-82.98-24.98-123.16 15.31-35.582 50.37-61.832 55.1-101.91 5.17-43.82-19.51-84.68-42.53-119.84-11.56-17.609-23.83-34.73-34.99-52.59-12.46-19.941-22.88-41.32-32.72-62.64-20.35-44.2-35.57-90.86-41.37-139.31-4.35-36.012-4.45-72.242 13.98-104.56 14.82-26.008 38.9-45.45 61.43-64.5 26.94-22.75 53.76-47.36 69.77-79.34 25.83-51.528 11.49-111.28-11.01-161.09-0.6-1.348 1.36-2.531 2.01-1.168 19.3 40.16 32.23 84.348 24.71 129.15-6.46 38.5-30.77 69.602-58.37 95.782-22.55 21.378-48.16 39.578-68.59 63.136-23.02 26.532-32.21 58.852-30.33 93.653 2.72 50.98 15.19 99.539 34.74 146.61 17.9 43.07 41.1 82.219 67.18 120.71 23 33.988 46.99 70.43 52.08 112.08 2.28 18.5-0.84 36.949-8.72 53.77-8.02 17.152-20.57 31.851-31.36 47.254-5.25 7.519-10.03 15.339-14.02 23.597-5.53 11.49-6.82 23.31-6.25 35.95 1.1 24.6 11.36 48.32 21.81 70.22 10.11 21.19 20.7 42.16 32.22 62.62 12.62 22.44 24.66 45.21 34.9 68.86 9.72 22.44 16.95 45.52 21.54 69.56 4.21 22.12 3.03 44.99 1.45 67.32-1.7 23.66-4.2 47.28-3.39 71.04 0.4 11.79 2.01 23.48 4.88 34.93 1.05 4.19 1.2 6.32 3.94 9.16 55.15 57.3 121.18 101.53 181.55 152.82 31.16 26.47 60.96 55.1 94.3 78.89 33.8 24.14 74.84 35.49 116.28 31.79 24.42-2.2 48.71-13.18 70.81-23.25 0.88-0.41 2.2-0.14 2.42 0.98 2.49 13.47 10.84 59.91 31.55 49.4 12.04-6.11 20.47-17.41 32.97-23.2 12.2-5.64 24.6-3.63 37.5-3.79 32.39-0.43 65.04-6.37 96.69-12.85 39.97-8.17 79.67-19.09 117.45-34.6 38.6-15.84 74.45-38.36 108.9-61.69 30.98-20.97 61.05-43.43 89.87-67.28 4.44-3.69 8.85-7.43 13.19-11.24 1.79-1.57 8.46-5.91 9.02-8.09 1.26-4.95 2.53-9.89 3.78-14.85 7.06-27.7 14.1-55.39 21.07-83.12 10.01-39.8 19.74-79.68 29.28-119.6 11.12-46.59 24.03-93.35 45.97-135.97-44.81 55.81-91.75 109.9-142.85 160.07-57.02 55.99-119.68 109.02-191.64 144.8-0.08 0.03-0.14-0.08-0.06-0.12 78.12-39.79 144.69-99.6 204.86-162.55 61.2-64.03 116.96-133.21 171-203.35 51.91-67.39 86.09-148.37 96.2-232.99 4.96-41.601 3.49-84-5.07-125.05-4.2-20.128-10.38-39.789-18.21-58.8-8.73-21.25-20.99-40.61-31.12-61.16-19-38.59-30.5-80.04-36.63-122.51-5.96-41.18-7.23-82.883-10.23-124.32-5.16-71.75-16.46-146.3-52.73-209.68-24.63-43.043-63.73-77.16-115.16-79.172-1.6-0.07-1.61-2.551 0-2.5 66.7 2.492 109.17 55.519 133.78 112.48 29.45 68.231 35.47 142.2 40.24 215.5 2.73 42.192 5.65 84.45 15.08 125.79 5.03 22.032 12.09 43.551 20.91 64.352 9.03 21.301 21.21 40.84 31.47 61.488 36.2 72.953 42.37 157.18 27.7 236.46zm-1305.5-231.36c-21.89-67-31.75-137.82-7.32-205.51 5.73-15.918 13.19-31.18 21.53-45.879 9.71-17.101 21.83-32.43 32.92-48.601 21.79-31.739 43.76-68.168 49.6-106.83 0.09-0.511 0.81-0.281 0.75 0.2-6.32 47.011-29.77 87.461-57.04 125.51-26.03 36.321-45.99 75.821-53.7 120.2-16.58 95.617 30.75 186.46 58.19 275.15 9.63 31.082 19.01 63.871 14.1 96.672-3.91 26.16-14.92 50.047-26.22 73.73-11.86 24.878-23.55 50.068-26.26 77.838-3.54 36.08 10.17 72.35 25.59 104.22 0.3 0.61-0.62 1.18-0.94 0.55-18.17-35.72-32.29-74.81-25.73-115.36 5.34-33.01 23.33-62.271 36.48-92.502 7.39-16.957 13.11-34.636 15.27-53.039 2.61-22.347-2.34-43.91-8.23-65.328-13.2-48.019-33.52-93.742-48.99-141.02zm61.65-259.44c-30.89 104.02-27.19 215.58-3.05 320.44 0.22 0.98-1.25 1.39-1.51 0.418-23.21-87.371-27.86-181.81-12.41-270.86 3.94-22.761 9.54-45.23 16.63-67.23 6.84-21.231 16.52-41.328 23.68-62.438 11.9-35.043 16.65-72.55 9.62-109.12-15.45-80.32-85.19-135.87-148.72-179.83-1.42-0.9687-0.13-3.289 1.39-2.3476 59.27 37.277 118.87 85.437 144.58 152.78 11.8 30.953 13.91 64.332 9.09 96.891-6.29 42.55-27.17 80.449-39.3 121.3zm228.81-122.1c-19.06 38.191-42.52 74-59.94 113.04-18.23 40.82-30.92 82.59-37.91 126.81-5.21 32.922-6.96 66.09-6.56 99.422 0.17 15.61 1.1 31.309 2.85 46.84 1.85 16.57 3.26 34.477 10.06 49.84 0.25 0.578-0.54 1.07-0.83 0.5-8.55-16.731-9.53-36.992-11.59-55.442-2.46-21.89-3.85-43.839-3.64-65.878 0.42-44.372 5.57-88.782 16.36-131.84 10.34-41.242 27.69-80.332 47.99-117.56 20.44-37.476 43.31-73.84 57.19-114.45 11.43-33.461 15.21-69.41 13.04-104.61-2.48-40.461-12.64-80.172-19.11-120.09-0.34-2.1016 2.81-3.0313 3.23-0.8906 9.84 50.27 24.14 100.16 22.31 151.88-1.54 43.383-14.18 83.813-33.45 122.43" fill="url(#linearGradient92)"/>
     </g>
    </g>
   </g>
   <path d="m611.26 94.907c-0.217 5.018 0.873 12.218-0.872 20.071-1.745 7.854-8.727 18.979-11.126 21.378-2.398 2.4-8.29 4.8-12.216 5.891-3.926 1.09-9.598 3.708-9.598 3.708-1.746-1.309-6.764-1.309-6.764-1.309l-0.218 1.527-1.745-2.181-1.964-0.436c0 1.09 0.872 3.707 0.872 3.707-3.052-6.107-18.978-7.634-18.978-7.634s-0.872-2.836-2.181-4.146c-1.309-1.308-1.964-1.962-1.964-1.962-0.871-3.272-3.271-5.018-3.271-5.018l1.525 0.436c-0.653-1.528-1.963-3.054-1.963-3.054-1.09-1.527-3.053-5.889-3.053-5.889l1.09 0.654c-1.308-3.927-6.325-10.907-6.325-10.907s-0.874 5.89-0.218-0.873c0.653-6.763-0.874-14.398-2.619-19.415-0.319-0.9192-0.61-2.0531-0.871-3.2903l-0.002 0.0172c0-0.0109 0-0.0179-0.001-0.0281-1.163-5.5047-1.744-13.061-1.744-13.061 0.654-2.1809 4.363-3.7098 6.109-1.5278 0 0 0.873-7.198 3.053-13.089 1.99-5.3692 18.109-14.834 25.961-20.724 7.854-5.8891 17.888-5.2348 23.779-4.5801 5.889 0.6543 7.852 6.7613 14.833 14.397 6.981 7.636 8.072 12.871 8.726 17.234 0.654 4.3617 2.837 12.871 2.837 12.871 2.398 6.7629-0.874 12.216-1.092 17.233" fill="#da6a4b"/>
   <g stroke-width=".29769">
    <g transform="scale(.1)">
     <g stroke-width=".29769" clip-path="url(#clipPath104)">
      <path d="m5829 672.03c-63.86 0-115.62-35.16-115.62-78.531 0-43.379 51.76-78.531 115.62-78.531s115.61 35.152 115.61 78.531c0 43.371-51.75 78.531-115.61 78.531" fill="url(#radialGradient110)"/>
     </g>
    </g>
    <g transform="scale(.1)">
     <g stroke-width=".29769" clip-path="url(#clipPath120)">
      <path d="m5551.8 610.86c59.78 49.871 48.72 161.62-24.7 249.61-64.04 76.773-154.38 110.09-216.08 84.211-4.26-18.36-9.17-35.399-14.3-50.129-3.19-9.192-6.1-20.531-8.71-32.903l-0.02 0.172c0-0.109 0-0.179-0.01-0.281-9.11-43.18-14.65-98.937-16.62-121 4.83-10.008 10.41-19.937 16.69-29.707 14.01-7.953 32.64-8.84 43.58 4.82 0 0 3.84-31.683 12.8-70.222 69.86-60.731 156.23-77.207 207.37-34.571" fill="url(#radialGradient126)"/>
     </g>
    </g>
    <g transform="scale(.1)">
     <g stroke-width=".29769" clip-path="url(#clipPath136)">
      <path d="m6123.5 776.74c23.98 67.629-8.74 122.16-10.92 172.33-0.24 5.782-0.31 11.86-0.28 18.192-49.01-18.36-97.18-64.492-127.22-128.28-48.83-103.67-31.34-214.6 39.09-247.77 16.99-7.988 35.49-10.699 54.47-8.809 9.68 24.578 13.55 45.989 16.49 65.629 6.54 43.617 28.37 128.71 28.37 128.71" fill="url(#radialGradient142)"/>
     </g>
    </g>
    <g transform="scale(.1)">
     <g stroke-width=".29769" clip-path="url(#clipPath152)">
      <path d="m5449.4 1108.3s-4.37 196.34 82.9 253.06c87.25 56.71 340.31 41.46 425.39-2.18 0 0 102.53-52.35 117.79-261.77l-163.6-82.9s-255.25 6.54-261.78 4.36l-200.7 89.43" fill="url(#linearGradient158)"/>
     </g>
    </g>
    <g transform="scale(.1)">
     <g stroke-width=".29769" clip-path="url(#clipPath168)">
      <path d="m5414.5 953.45s-50.16 58.891-15.26 117.8c0 0 39.26 58.9 139.61 32.71 100.35-26.17 176.7-30.53 176.7-30.53s19.63-137.44-58.91-176.71l-122.15 24.011-119.99 32.719" fill="url(#linearGradient174)"/>
     </g>
    </g>
    <g transform="scale(.1)">
     <g stroke-width=".29769" clip-path="url(#clipPath184)">
      <path d="m5874.8 898.9s-34.89 80.707-8.74 137.43l54.56 30.54 76.34 37.09 41.45 4.36 37.08-13.08 21.82-21.81s19.64-78.539-21.82-122.18c0 0-47.99-37.09-56.72-39.27l-143.97-13.078" fill="url(#linearGradient190)"/>
     </g>
    </g>
    <g transform="scale(.1)">
     <g stroke-width=".29769" clip-path="url(#clipPath200)">
      <path d="m5438.5 983.98s-53.19 12.821-41.85 82.57c-29.64-57.3 17.85-113.1 17.85-113.1l119.99-32.719 90.98-17.878 2.82 22.23s-45.81 82.898-189.79 58.898" fill="url(#linearGradient206)"/>
     </g>
    </g>
    <g transform="scale(.1)">
     <g stroke-width=".29769" clip-path="url(#clipPath216)">
      <path d="m6075.5 951.25c41.46 43.641 21.82 122.18 21.82 122.18l-4.89 4.89c0.17-0.88 0.34-1.77 0.52-2.72 15.29-71.98-37.08-100.34-37.08-100.34-113.43 34.908-159.24-47.992-159.24-47.992l11.86-25.297 110.29 10.007c8.73 2.18 56.72 39.27 56.72 39.27" fill="url(#linearGradient222)"/>
     </g>
    </g>
    <g transform="scale(.1)">
     <g stroke-width=".29769" clip-path="url(#clipPath232)">
      <path d="m5351.3 1045.1c10.9 72.01 58.9 78.53 74.17 152.7 15.28 74.17 61.08 187.63 170.16 207.24 109.07 19.65 314.13 0 375.22-34.9 0 0 122.15-124.33 122.15-287.95 0 0 10.14-49.63 20.05-84.009 1.37 43.639 3.24 95.979-9.13 151.64-17.45 78.54-87.27 189.79-111.26 213.78-23.98 24-82.9 48-122.16 58.91-39.26 10.9-95.98 37.08-95.98 37.08-17.46-13.09-67.64-13.09-67.64-13.09l-2.18 15.27-17.45-21.81-19.64-4.36c0 10.9 8.72 37.07 8.72 37.07-30.52-61.07-189.78-76.34-189.78-76.34s-8.72-28.36-21.81-41.46c-13.09-13.08-19.64-19.62-19.64-19.62-8.71-32.72-32.71-50.18-32.71-50.18l15.25 4.36c-6.53-15.28-19.63-30.54-19.63-30.54-10.9-15.27-30.53-58.89-30.53-58.89l10.9 6.54c-13.08-39.27-63.25-109.07-63.25-109.07s-8.74 58.9-2.18-8.73c5.86-60.77-5.86-128.51-20.96-178.03l1.33-0.859s37.08 63.269 47.98 135.25" fill="url(#linearGradient238)"/>
     </g>
    </g>
    <g transform="scale(.1)">
     <g stroke-width=".29769" clip-path="url(#clipPath248)">
      <path d="m6073.3 704.2c-40.9-62.168-49.08-143.98-65.44-181.61-11.51-26.481-31.11-72.36-41.72-97.25 11.94 15.629 25.47 32.558 41.72 50.351 69.81 76.36 80.72 128.71 87.26 172.34 6.54 43.617 28.37 128.71 28.37 128.71 5.11 14.438 7.64 28.27 8.44 41.59-7.59-26.602-24.6-62.434-58.63-114.13zm-607-83.429c-18 29.449-107.98 112.89-140.7 166.88-25.77 42.528-25.16 100.27-23.74 122.87-1.68-5.54-3.41-10.938-5.17-15.969-3.19-9.192-6.1-20.531-8.71-32.903l-0.02 0.172c0-0.109 0-0.179-0.01-0.281-11.63-55.047-17.44-130.61-17.44-130.61 6.54-21.809 43.63-37.098 61.09-15.278 0 0 8.73-71.98 30.53-130.89 19.9-53.692 181.09-148.34 259.61-207.24 1.57-1.168 3.18-2.29 4.76-3.411-2 1.993-4.12 4.043-6.4 6.141-89.99 83.441-135.8 211.06-153.8 240.52" fill="url(#linearGradient254)"/>
     </g>
    </g>
    <g transform="scale(.1)">
     <g stroke-width=".29769" clip-path="url(#clipPath264)">
      <path d="m5718.8 673.12s18.55 12 43.63 12 39.27-26.18 75.27-20.719c35.99 5.45 50.16 23.989 50.16 23.989s17.46 0 20.73-12c0 0-5.45-18.532-18.54-21.821 0 0-15.27-41.441-64.35-41.441-49.09 0-89.44 20.723-101.44 45.812l-5.46 14.18" fill="url(#linearGradient270)"/>
     </g>
    </g>
    <g transform="scale(.1)">
     <g stroke-width=".29769" clip-path="url(#clipPath280)">
      <path d="m5831.5 683.87s-42.06 9.141-38.69 46.109c3.36 36.93-3.49 156.47-3.49 156.47l66.61-0.808s0.71-95.129 9.09-118.58c8.4-23.469 34.24-82.969-33.52-83.188" fill="url(#linearGradient286)"/>
     </g>
    </g>
   </g>
   <path d="m578.86 74.347s4.745 2.7812 8.999 0.3273l-0.491 1.4719s-4.745 1.4738-8.999-0.9813l0.491-0.8179" fill="#da6a4b"/>
   <g stroke-width=".29769" transform="scale(.1)">
    <g stroke-width=".29769" clip-path="url(#clipPath298)">
     <path d="m5718.3 692.75c6.88 25.5 32.99 41.492 39.26 68.75 5.67 24.602 1.84 56.391 0.36 81.852-0.54 9.48 2.17 37.179-8.54 40.949-12.12 4.25-33.47-25.672-39.3-33.262-20.97-27.289-37.46-60.316-39.24-94.476-1.65-31.891 13.54-66.422 45.81-75.262l1.65 11.449" fill="url(#linearGradient304)"/>
    </g>
   </g>
   <g stroke-width=".29769" transform="scale(.1)">
    <g stroke-width=".29769" clip-path="url(#clipPath314)">
     <path d="m5906.4 702.56c-4.09 10.312-14.55 15.812-19.22 24.921-4.83 9.422-12.49 28.469-13.5 38.899-2.1 21.601-3.27 42.543-9.82 71.98 20.65-4.296 52.12-52.988 56.9-73.257 6.83-29.02-4.9-49.243-12.71-75.61l-1.65 13.067" fill="url(#linearGradient320)"/>
    </g>
   </g>
   <g>
    <path d="m574.86 66.821s1.308 0.7359 3.108-0.4082c0 0-1.554-1.0649-3.108 0.4082" fill="#100f0d"/>
    <path d="m586.72 66.248 1.145 0.818 1.145-0.0808s-0.491-1.309-2.29-0.7372" fill="#100f0d"/>
    <path d="m611.65 75.665c-0.795-3.2398-1.571-6.4949-2.153-9.7796-0.471-2.6704-0.883-5.27-1.901-7.8071-1.602-3.998-4.289-7.4543-7.162-10.617-2.914-3.2058-5.268-6.8371-8.069-10.129-1.015-1.191-2.147-2.2988-3.522-3.0691-1.386-0.7727-2.913-0.9219-4.463-1.068-3.687-0.348-7.417-0.3808-11.083 0.2063-4.28 0.6847-8.115 2.3597-11.595 4.925-5.834 4.3008-12.037 8.0828-17.801 12.487-2.367 1.8082-4.854 3.7363-6.643 6.1473-0.918 1.2378-1.323 2.7187-1.764 4.175-0.621 2.05-1.11 4.1378-1.527 6.2386-0.275 1.3871-0.534 2.7871-0.706 4.1914-0.015 0.1297-0.221 0.1321-0.204 0 0.002-0.0211 0.006-0.041 0.009-0.0621-1.417-1.5383-3.739-1.0441-5.147 0.2711-0.824 0.768-0.842 1.3367-0.756 2.3098 0.263 2.9269 0.619 5.8441 1.079 8.748 0.127 0.795 0.264 1.5891 0.419 2.3809 0.015-1.9949 1.054-3.9199 1.7-5.7809-0.367 0.225-0.765 0.3871-1.103 0.6672-0.035 0.0289-0.087-0.0203-0.051-0.0512 0.398-0.348 0.886-0.5449 1.267-0.916 0.069-0.066 0.183 0 0.159 0.0942-0.274 1.1277-0.717 2.207-1.103 3.2988-0.418 1.1871-0.608 2.3781-0.674 3.6313 0.11 0.5128 0.226 1.0257 0.356 1.5359 0.423 1.668 1.047 3.2808 1.502 4.9418 1.216 4.434 1.891 9.064 1.824 13.665-0.022 1.466-0.184 2.922-0.303 4.381-0.005 0.058-0.01 0.113-0.013 0.169 0.059-0.38 0.11-0.761 0.164-1.14 0.018-0.117 0.171-0.102 0.225-0.028 0.954 1.322 1.856 2.686 2.731 4.063 1.378 2.166 2.784 4.427 3.622 6.869 0.04 0.117-0.104 0.216-0.203 0.156-0.234-0.141-0.468-0.28-0.702-0.42 0.55 1.197 1.125 2.387 1.738 3.553 0.913 1.733 2.284 3.175 3.092 4.961 0.051 0.114-0.034 0.261-0.171 0.221-0.282-0.08-0.564-0.159-0.847-0.239 0.469 0.437 0.884 0.938 1.26 1.448 0.5 0.677 0.886 1.427 1.202 2.204 0.106 0.261 0.151 0.781 0.342 0.972 0.206 0.207 0.413 0.413 0.618 0.619 0.625 0.624 1.297 1.22 1.826 1.932 0.504 0.679 0.877 1.471 1.198 2.248 0.16 0.396 0.313 0.795 0.444 1.2 0.033 0.007 0.091 0.02 0.198 0.031 4.573 0.509 9.266 1.464 13.477 3.353 1.684 0.755 3.451 1.769 4.632 3.242-0.255-0.834-0.463-1.692-0.488-2.538-0.004-0.119 0.113-0.192 0.22-0.169 0.404 0.09 0.808 0.18 1.212 0.269 0.223 0.051 0.7 0.052 0.858 0.249 0.492 0.614 0.984 1.227 1.476 1.843 0.056-0.383 0.109-0.766 0.164-1.149 0.011-0.076 0.1-0.131 0.17-0.131 0.972 0.002 1.947 0.072 2.913 0.185 0.708 0.081 1.412 0.2 2.106 0.373 0.34 0.084 0.673 0.194 1.001 0.322 0.1 0.042 0.847 0.36 0.657 0.448 2.586-1.192 5.234-2.284 7.93-3.199 1.815-0.614 3.663-1.092 5.459-1.765 1.999-0.75 3.961-1.629 5.805-2.709 1.232-0.72 2.35-1.564 3.26-2.665 0.871-1.053 1.641-2.195 2.387-3.339 2.057-3.147 3.878-6.466 5.433-9.89 1.829-4.026 2.962-8.129 3.367-12.542 0.408-4.433 0.042-8.861 0.038-13.298-0.002-3.9762 1.439-7.6649 1.885-11.581 0.274-2.4012 0.03-4.798-0.757-7.084-0.226-0.6601-0.348-1.3812-0.514-2.0594zm-0.2 19.242c-0.22 4.2231 0.259 8.459 0.071 12.687-0.192 4.357-1.003 8.565-2.618 12.614-1.412 3.543-3.21 6.941-5.186 10.199-1.314 2.171-2.705 4.576-4.579 6.324-1.3 1.211-2.94 2.068-4.521 2.845-1.811 0.886-3.697 1.622-5.608 2.261-1.801 0.602-3.627 1.087-5.407 1.748-1.663 0.62-3.301 1.304-4.924 2.016-0.382 0.166-0.762 0.336-1.139 0.51-0.057 0.025-0.127 0.039-0.183 0-1.454-1.029-3.588-1.13-5.305-1.238-0.405-0.026-0.81-0.041-1.215-0.046-0.001 0.008-0.002 0.014-0.004 0.025-0.025 0.177-0.049 0.352-0.076 0.528l-0.12 0.84c-0.017 0.126-0.215 0.175-0.294 0.078-0.545-0.681-1.09-1.362-1.634-2.045-0.108-0.135-0.061-0.099-0.094-0.106-0.23-0.052-0.46-0.104-0.691-0.154-0.325-0.072-0.65-0.145-0.977-0.217 0.078 1.161 0.488 2.348 0.85 3.441 0.062 0.186-0.225 0.307-0.314 0.134-0.9-1.745-2.605-2.888-4.301-3.769-1.988-1.032-4.152-1.72-6.313-2.289-2.682-0.706-5.454-1.235-8.217-1.503-0.074-0.007-0.132-0.044-0.155-0.12-0.298-0.958-0.704-1.888-1.19-2.765-0.686-1.24-1.81-2.172-2.802-3.164-0.293-0.294-0.329-0.78-0.471-1.162-0.284-0.758-0.7-1.468-1.166-2.128-0.469-0.662-1.051-1.329-1.709-1.816-0.133-0.098-0.061-0.331 0.118-0.281 0.398 0.116 0.798 0.23 1.198 0.346-0.787-1.586-1.991-2.913-2.83-4.479-0.728-1.355-1.39-2.751-2.021-4.154-0.053-0.121 0.062-0.271 0.191-0.192 0.251 0.15 0.503 0.302 0.754 0.453-0.859-2.345-2.226-4.527-3.552-6.624-0.781-1.235-1.592-2.451-2.435-3.643-0.052 0.33-0.104 0.659-0.161 0.989-0.042 0.249-0.048 1.013-0.295 1.169-0.032 0.022-0.085 0.024-0.117 0-0.119-0.082-0.077-0.3-0.074-0.42 0.025-0.776 0.114-1.551 0.188-2.323 0.229-2.417 0.27-4.817 0.094-7.24-0.325-4.4649-1.304-8.8149-2.702-13.056-0.994-3.0172-1.39-6.2539-1.792-9.393-0.282-2.2-0.514-4.4101-0.689-6.6199-0.028-0.341 0.298-0.759 0.482-1.0141 0.445-0.6179 1.12-1.0539 1.81-1.3519 1.292-0.5582 2.78-0.3891 3.753 0.641 0.324-2.6102 0.813-5.202 1.424-7.7582 0.452-1.8942 0.922-3.8949 1.738-5.6688 0.439-0.9593 1.15-1.7992 1.856-2.5722 2.116-2.3168 4.678-4.241 7.189-6.1039 3.051-2.2602 6.201-4.386 9.339-6.5211 2.886-1.961 5.677-4.0711 8.576-6.0051 3.418-2.2809 7.435-3.4758 11.484-3.975 3.516-0.4328 7.078-0.2867 10.594 0.0762 1.389 0.1429 2.676 0.425 3.905 1.114 1.287 0.7188 2.354 1.7899 3.318 2.8879 2.823 3.216 5.136 6.8391 7.987 10.041 2.801 3.145 5.432 6.3961 7.16 10.273 1.097 2.4539 1.671 5.041 2.076 7.6847 0.504 3.3165 1.312 6.5934 2.1 9.8512 0.66 2.7231 1.598 5.386 1.59 8.2153-0.008 4.0796-1.753 7.8828-1.964 11.926" fill="#a6371f"/>
   </g>
   <g stroke-width=".29769" transform="scale(.1)">
    <g stroke-width=".29769" clip-path="url(#clipPath336)">
     <path d="m5905.3 709.42c-0.38 0.566-1.21 0.187-1.1-0.461 1.84-9.652 4.28-18.219 3.62-28.211-0.78-11.66-7.36-21.949-18.19-26.57-0.85-0.36-0.22-1.801 0.64-1.481 22.35 8.102 27.32 37.621 15.03 56.723zm-9.36-40.231c-6.95 6.559-16.66 4.129-22.77-2.082-0.71-0.707 0.33-1.699 1.05-1.07 6.57 5.672 12.88 4.59 20.04 0.973 1.35-0.692 2.88 1.058 1.68 2.179zm-18.66 1.989c6.76 6.41 14.45 14.211 18.17 22.922 0.24 0.539-0.45 1.25-0.89 0.699-6.24-7.488-11.25-15.809-17.9-23.02-0.39-0.402 0.21-0.98 0.62-0.601zm-8.83-7.321c-11.03-7.738-21.31-12.621-34.91-13.98-13.54-1.359-27.54 1.562-39.85 7.172-0.39 0.168-0.73-0.379-0.33-0.582 22.15-11.199 57.43-13.578 75.88 6.371 0.49 0.519-0.15 1.469-0.79 1.019zm-127.53-0.32c-0.28-0.297 0.17-0.769 0.48-0.48 14.68 14.191 33.19 1.031 48.6-3.887 0.83-0.25 1.56 0.898 0.87 1.48-13.88 11.578-36.41 17.508-49.95 2.887zm-19.77 7.852c-4.28 10.668-1.73 21.839-0.83 32.808 0.03 0.52-0.68 0.531-0.83 0.11-4.18-10.879-6.06-24.387-2.09-35.59 4.21-11.93 16.01-17.68 26.94-22.137 0.39-0.16 0.64 0.477 0.28 0.668-9.9 5.641-19.13 13.309-23.47 24.141" fill="url(#linearGradient342)"/>
    </g>
   </g>
   <path d="m563.98 53.732s4.58-5.7269 12.434-8.0172c0 0 8.181-2.2918 12.435 1.4723 0 0 2.289 2.291 3.272 4.2539 0.982 1.9641 3.109 4.091 3.109 4.091s-3.927-0.8191-4.582-0.8191h-10.308c-0.653 0-9.325 0.3269-9.325 0.3269l-7.035-1.3078" fill="#e8355c"/>
   <path d="m572.32 47.351-0.016-0.0231c1.245-0.6211 2.616-1.1781 4.106-1.6133 0 0 8.181-2.2918 12.435 1.4723 0 0 1.274 1.275 2.329 2.7371-0.32-0.216-0.66-0.4703-1.02-0.7722-6.055-5.0731-17.834-1.8008-17.834-1.8008zm18.324 7.3617h-10.308c-0.653 0-9.325 0.3269-9.325 0.3269l-7.035-1.3078s0.657-0.8199 1.899-1.964h0.064s20.887-1.1239 27.154 1.2449c0.994 1.3801 2.133 2.5191 2.133 2.5191s-3.927-0.8191-4.582-0.8191" fill="#cd2d3f"/>
   <g stroke-width=".29769" transform="scale(.1)">
    <g stroke-width=".29769" clip-path="url(#clipPath356)">
     <path d="m5714.5 496.42s55.61 9.816 110.15 9.816 76.37-5.449 76.37-5.449-27.28-29.469-84-29.469c-56.71 0-102.52 25.102-102.52 25.102" fill="url(#radialGradient362)"/>
    </g>
   </g>
   <path d="m592.28 55.859c-1.092 0.873-1.964 1.964-4.364 2.1808-2.4 0.2192-4.363-1.7449-4.363-1.7449s-3.49 1.7449-7.417 1.309-8.071-2.182-11.343-2.8359c-3.273-0.6539-5.672 2.182-5.672 2.182 1.527-1.9629 3.489-2.8359 5.672-3.4918 5.017-0.4352 10.034 0.2188 15.052 0l0.029-0.0012 0.189-0.2148c1.091-0.4371 2.183-0.6563 3.271-0.8731 0.643 0.2129 1.284 0.427 1.873 0.693l0.529-0.0391c2.292 0.859 4.702 0.425 6.919 0.9872 2.044 0.5199 3.646 2.6308 4.861 4.2488 0 0-4.145-3.2719-5.236-2.4" fill="#cd2d3f"/>
   <path d="m597.5 58.275c-1.319-1.5758-2.663-3.3051-4.674-4.0031-2.295-0.7969-4.789-0.3867-7.093-1.236-0.015-0.0046-0.009-0.0308 0.007-0.0257 1.317 0.4398 2.691 0.48 4.067 0.5449 1.091 0.0531 2.379-0.0153 3.399 0.4179 1.916 0.8161 3.204 2.5969 4.33 4.275 0.014 0.02-0.019 0.0469-0.036 0.027zm-10.6-4.2352c0.068 0.084-0.023 0.2364-0.125 0.1622-0.926-0.661-1.89-1.111-2.964-1.484-1.181-0.409-2.598 0.1402-3.735 0.5672-0.055 0.0207-0.079-0.068-0.025-0.0891 0.68-0.2641 1.371-0.4648 2.079-0.6371 0.75-0.182 1.058-0.418 1.777-0.1879 1.069 0.3391 2.262 0.7769 2.993 1.6687zm-7.054-0.5c-3.803 0.4082-7.711 0.0192-11.528 0.0293-0.963 0.002-1.924 0.0372-2.883 0.0981-0.311 0.0199-0.803-0.0703-1.1 0.023-0.396 0.1227-0.784 0.2649-1.169 0.4149-1.567 0.6097-2.945 1.573-4.026 2.8621-0.018 0.0258-0.06-0.0082-0.042-0.0313 0.903-1.1718 2.005-2.0367 3.332-2.6839 0.301-0.145 0.611-0.2707 0.922-0.3918 0.376-0.15 1.016-0.2372 1.284-0.5582 0.127-0.1528 0.618-0.1321 0.799-0.152 0.529-0.0539 1.068-0.0621 1.6-0.0809 2.137-0.0761 4.271 0.0301 6.405 0.1321 2.137 0.1019 4.268 0.1187 6.406 0.1769 0.107 0.0028 0.101 0.1489 0 0.1617" fill="#ad2222"/>
   <g stroke-width=".29769">
    <g transform="scale(.1)">
     <g stroke-width=".29769" clip-path="url(#clipPath376)">
      <path d="m5397.1 1069.1s39.28 34.9 89.44 26.18c50.18-8.73 159.26-67.63 198.53-54.54 0 0 23.99 13.09 30.53 32.73 0 0-58.91 8.72-126.52 37.08-67.63 28.35-167.98 8.72-191.98-41.45" fill="url(#linearGradient382)"/>
     </g>
    </g>
    <g transform="scale(.1)">
     <g stroke-width=".29769" clip-path="url(#clipPath392)">
      <path d="m6101.7 1069.1s-30.4 34.9-69.23 26.18c-38.83-8.73-138.17-71.99-168.56-58.91 0 0 4.38 18.56 15.27 38.19 0 0 21.61 7.63 73.94 35.99 52.34 28.35 130.01 8.72 148.58-41.45" fill="url(#linearGradient398)"/>
     </g>
    </g>
    <g transform="scale(.1)">
     <g stroke-width=".29769" clip-path="url(#clipPath408)">
      <path d="m5423.4 970.75c57.61 56.32 152.04 34.76 213.54-2.219 0.21-0.14 0.42 0.207 0.19 0.348-31.12 21.641-70.22 35.841-107.81 40.151-19.88 2.28-40.17 0.63-59.31-5.29-19.45-5.99-34.22-17.099-46.9-32.709-0.16-0.199 0.09-0.472 0.29-0.281" fill="url(#linearGradient414)"/>
     </g>
    </g>
    <g transform="scale(.1)">
     <g stroke-width=".29769" clip-path="url(#clipPath424)">
      <path d="m6061.2 967.16c-8.62 14.352-18.49 25.16-34.09 32.141-13.42 5.989-28.37 7.479-42.89 5.819-29.85-3.4-60.29-19.78-82.05-40.108-0.19-0.153 0.07-0.391 0.25-0.25 22.76 18.461 48.53 32.039 77.89 35.748 31.41 3.99 61.24-8.248 80.58-33.53 0.14-0.171 0.43-0.019 0.31 0.18" fill="url(#linearGradient430)"/>
     </g>
    </g>
   </g>
   <path d="m560.79 88.737s-12.397-4.7558-19.459 7.0442c0 0 2.272-0.7122 4.579-0.1172 2.306 0.5949 11.085 4.6259 17.414-3.884l-4.794-1.841 2.26-1.202" fill="#100f0d"/>
   <path d="m545.83 92.72c3.794-5.1719 11.323-5.2008 17.594-3.2328l1.634-0.0422-0.948 1.334c-3.116 6.1352-14.388 6.9152-19.085 2.4531l0.805-0.5121" fill="#fff"/>
   <g stroke-width=".29769" transform="scale(.1)">
    <g stroke-width=".29769" clip-path="url(#clipPath444)">
     <path d="m5582.5 928.82c0.28 9.86-2.58 19.059-7.63 26.692-24.73 6.508-52.11 6.859-76.42 1.109-5.03-7.172-8.09-15.832-8.37-25.242-0.51-18.789 10.28-35.227 26.16-42.899 7.49-2.089 15.23-3.57 23.17-4.488 23.52 1.567 42.42 20.797 43.09 44.828" fill="url(#linearGradient450)"/>
    </g>
   </g>
   <g stroke-width=".29769" transform="scale(.1)">
    <g stroke-width=".29769" clip-path="url(#clipPath460)">
     <path d="m5535.2 889.21c22.59-0.621 41.4 17.18 42.02 39.758 0.3 10.941-3.74 20.961-10.53 28.492-19.63 4-40.5 4.258-59.9 0.859-6.76-7.07-11.05-16.531-11.35-27.082-0.61-22.578 17.18-41.398 39.76-42.027" fill="url(#linearGradient468)"/>
    </g>
   </g>
   <path d="m556.04 92.943c-0.036-1.3309-1.146-2.3821-2.478-2.345-1.332 0.0372-2.383 1.1481-2.346 2.479 0.037 1.332 1.148 2.382 2.478 2.3441 1.333-0.0352 2.384-1.1449 2.346-2.4781" fill="#100f0d"/>
   <g stroke-width=".29769" transform="scale(.1)">
    <g stroke-width=".29769" clip-path="url(#clipPath480)">
     <path d="m5553.3 929.63c-0.27-9.41-8.11-16.816-17.53-16.578-9.4 0.269-16.82 8.109-16.56 17.519 0.27 9.418 8.1 16.84 17.51 16.571 9.41-0.25 16.84-8.09 16.58-17.512" fill="url(#linearGradient486)"/>
    </g>
   </g>
   <g>
    <path d="m554.67 94.987c-0.015-0.5461-0.468-0.9762-1.015-0.9621-0.545 0.0148-0.975 0.4691-0.961 1.016 0.015 0.5461 0.469 0.9762 1.016 0.9602 0.546-0.0141 0.976-0.4692 0.96-1.0141" fill="#fff"/>
    <path d="m554.04 90.639c-0.006-0.2629-0.225-0.47-0.488-0.4641-0.264 0.009-0.47 0.2281-0.463 0.4898 0.007 0.2633 0.227 0.4704 0.489 0.4633 0.263-0.0062 0.471-0.2261 0.462-0.489" fill="#fff"/>
    <path d="m563.42 89.518c-1.552-0.3239-3.054-0.7692-4.634-0.9789-1.609-0.2149-3.242-0.2422-4.856-0.068-3.16 0.3371-6.115 1.716-8.081 4.2609-0.013 0.016-0.039-0.005-0.027-0.0191 1.842-2.525 4.62-3.8547 7.656-4.3258 1.604-0.248 3.264-0.2308 4.873-0.0539 1.698 0.1898 3.507 0.4668 5.093 1.125 0.034 0.0148 0.012 0.0668-0.024 0.0598zm0.721 1.2742c-1.641 3.3027-5.283 4.8988-8.776 5.3648-3.665 0.4871-7.646-0.273-10.351-2.9082-0.02-0.0218 0.01-0.0539 0.032-0.034 2.588 2.2942 6.605 2.8461 9.922 2.5813 3.523-0.282 7.344-1.7941 9.124-5.0309 0.017-0.032 0.066-0.005 0.049 0.027" fill="#100f0d"/>
    <path d="m591.13 88.755s10.443-5.0332 16.635 6.607c0 0-1.941-0.6621-3.889-0.0152-1.949 0.6472-9.333 4.8731-14.845-3.4918l4.038-1.9469-1.939-1.1531" fill="#100f0d"/>
    <path d="m603.89 92.403c-3.31-5.085-9.7-4.946-14.99-2.839l-1.39-0.0051 0.827 1.3121c2.747 6.0641 12.329 6.5891 16.242 2.025l-0.692-0.493" fill="#fff"/>
   </g>
   <g stroke-width=".29769" transform="scale(.1)">
    <g stroke-width=".29769" clip-path="url(#clipPath506)">
     <path d="m6000.6 928.96c-0.89 11.5-5.72 21.668-13 29.219-24.42 3.3-50.57-1.121-71.44-13.539-2.9-6.801-4.27-14.45-3.66-22.442 1.4-18.277 12.83-33.25 28.14-39.57 11.56-1.149 23.02-0.981 34.02 0.711 16.55 7.691 27.47 25.621 25.94 45.621" fill="url(#linearGradient512)"/>
    </g>
   </g>
   <g stroke-width=".29769" transform="scale(.1)">
    <g stroke-width=".29769" clip-path="url(#clipPath522)">
     <path d="m5959.7 884.8c21.54 1.648 37.59 21.25 35.86 43.781-0.98 12.727-7.43 23.668-16.76 30.488-18.63 1.071-37.77-2.261-54.43-10.078-4.91-7.422-7.51-16.633-6.77-26.402 1.73-22.531 20.58-39.43 42.1-37.789" fill="url(#linearGradient530)"/>
    </g>
   </g>
   <path d="m597.96 92.735c0.101-1.3282-0.845-2.4852-2.117-2.5832-1.269-0.0961-2.383 0.9011-2.483 2.23-0.103 1.3289 0.845 2.486 2.114 2.5821 1.271 0.0988 2.384-0.9 2.486-2.2289" fill="#100f0d"/>
   <g stroke-width=".29769" transform="scale(.1)">
    <g stroke-width=".29769" clip-path="url(#clipPath542)">
     <path d="m5972.8 926.83c0.71-9.383-5.97-17.551-14.95-18.242-8.98-0.692-16.84 6.371-17.54 15.742-0.74 9.398 5.96 17.559 14.93 18.25 8.96 0.688 16.83-6.344 17.56-15.75" fill="url(#linearGradient548)"/>
    </g>
   </g>
   <g>
    <path d="m596.45 94.629c0.041-0.5437-0.348-1.018-0.867-1.0566-0.52-0.0403-0.976 0.3687-1.018 0.9117-0.042 0.5461 0.347 1.018 0.867 1.0582 0.521 0.0398 0.976-0.3692 1.018-0.9133" fill="#fff"/>
    <path d="m596.29 90.242c0.021-0.2633-0.166-0.491-0.417-0.5102-0.25-0.0191-0.469 0.177-0.49 0.4399-0.02 0.2621 0.167 0.491 0.417 0.509 0.251 0.0211 0.471-0.1778 0.49-0.4387" fill="#fff"/>
    <path d="m588.89 89.537c1.336-0.6961 2.867-1.0121 4.303-1.2391 1.364-0.2148 2.773-0.2667 4.138-0.055 2.586 0.4019 4.967 1.6691 6.572 4.1511 0.01 0.0161-0.012 0.0348-0.024 0.0207-1.711-2.5-4.242-3.8128-6.931-4.0808-1.371-0.136-2.757-0.0719-4.119 0.1781-1.337 0.2469-2.605 0.725-3.918 1.082-0.028 0.0079-0.05-0.0441-0.021-0.057zm-0.527 1.3192c1.563 3.1968 4.832 4.6238 7.827 4.8257 2.82 0.1918 6.221-0.4507 8.378-2.8031 0.019-0.0187 0.046 0.0121 0.029 0.0332-2.252 2.6969-5.62 3.5449-8.736 3.1391-2.976-0.3883-6.092-1.9-7.54-5.166-0.015-0.0332 0.026-0.0602 0.042-0.0289" fill="#100f0d"/>
   </g>
  </g>
 </g>
</svg>
