<?xml version="1.0" encoding="UTF-8" standalone="no"?>
<!-- Created with Inkscape (http://www.inkscape.org/) -->
<svg xmlns:rdf="http://www.w3.org/1999/02/22-rdf-syntax-ns#" xmlns="http://www.w3.org/2000/svg" height="200px" width="200px" version="1.1" xmlns:cc="http://creativecommons.org/ns#" xmlns:dc="http://purl.org/dc/elements/1.1/" viewBox="0 0 200 200">
 <defs>
  <clipPath id="clipPath566" clipPathUnits="userSpaceOnUse">
   <path d="m3256.3 340.54s-47.99 124.35-80.71 253.06c-32.72 128.7-45.81 388.31-45.81 388.31s50.18-239.96 69.79-333.77c19.65-93.809 65.46-263.97 56.73-307.6zm551.92 1256.5c-21.82 4.38-102.51 43.64-150.52 65.45-47.99 21.82-377.39 24.01-506.1-340.32-128.71-364.31 4.36-791.87 69.8-955.49 65.44-163.61 17.45-270.49 17.45-270.49 37.09 6.5315 106.9 8.7105 106.9 8.7105l91.62 17.45c71.99 80.718 37.08 606.46 37.08 606.46s355.59 863.87 333.77 868.23z"/>
  </clipPath>
  <linearGradient id="linearGradient572" gradientUnits="userSpaceOnUse" gradientTransform="matrix(0 -987 -987 0 3453.4 1730.9)">
   <stop stop-color="#241412" offset="0"/>
   <stop stop-color="#100f0d" offset="1"/>
  </linearGradient>
  <clipPath id="clipPath582" clipPathUnits="userSpaceOnUse">
   <path d="m3401.4 608.87c55.63-189.79 22.91-382.86 22.91-382.86-6.54 114.53-22.91 382.86-22.91 382.86zm-3.27 85.078c-42.53 189.78-75.26 441.75-75.26 441.75s-36-281.42-16.36-448.3c17.77-151.05 40.9-513.81 45.13-581.35l14.1 2.687c-4.43 92.391-13.01 264.41-19.96 359.41-9.82 134.18 6.54 284.7 6.54 284.7s58.96-400.34 40.87-638.88l27.84 5.312c46.53 184.07 17.85 392.87-22.9 574.67zm-104.7-591.77c14.95 1.082 28.96 1.789 38.73 2.23-14.8 337.3-104.19 589.54-104.19 589.54 60.33-252.8 65.18-528.25 65.46-591.77z"/>
  </clipPath>
  <linearGradient id="linearGradient588" gradientUnits="userSpaceOnUse" gradientTransform="matrix(0 477.75 477.75 0 3336.5 517.25)">
   <stop stop-color="#241412" offset="0"/>
   <stop stop-color="#100f0d" offset="1"/>
  </linearGradient>
  <clipPath id="clipPath598" clipPathUnits="userSpaceOnUse">
   <path d="m4342.7 1132.4c2.18 61.07 2.18 148.35-41.46 196.32l-4.35 8.74c-19.64 41.45-48 109.07-89.44 135.26h-10.91c-6.55 17.44-19.63 34.89-37.09 37.07-19.63 34.91-95.99 89.44-139.61 87.26l-8.73 2.18c-15.27 10.91-39.26 19.63-52.36 6.55-37.09 21.81-109.07 34.91-148.35 10.9l-8.72-4.36c-30.53-4.36-85.08-8.72-100.34-39.27-32.72-8.72-56.72-26.16-80.71-47.99l-6.55-4.35c-15.27-2.19-28.36-8.73-32.72-24.01-26.18-10.91-71.99-32.72-74.17-63.26-21.82-13.08-50.18-34.9-54.53-61.07l-4.37-8.74c-19.64-13.09-37.08-32.72-34.91-56.71-21.82-21.82-19.63-50.17-19.63-78.54l2.18-6.55c-8.72-32.71-15.27-67.62-2.18-102.52-6.54-13.09-4.37-28.36 2.18-41.44l2.18-8.74c-6.55-28.35 2.19-63.26 8.73-89.43-4.37-15.281-2.19-32.73 2.18-48 0 0 39.27-91.609 65.44-100.35 26.18-8.719 122.18-4.367 150.52 13.094 28.37 17.449 67.62 71.988 85.08 113.42l642.45 30.551c0 54.531-12 91.611-9.81 143.98z"/>
  </clipPath>
  <linearGradient id="linearGradient604" gradientUnits="userSpaceOnUse" gradientTransform="matrix(0 -503.16 -503.16 0 3869.4 1660.4)">
   <stop stop-color="#241412" offset="0"/>
   <stop stop-color="#100f0d" offset="1"/>
  </linearGradient>
  <clipPath id="clipPath614" clipPathUnits="userSpaceOnUse">
   <path d="m3426.2 965.05c-9.69 10.64 1.68 14.91 0.42 21.16-1.9 9.488-8.57 18.479-11.65 28.359-8 25.69 6.55 34.58 9.37 56.77 1.93 15.11-9.81 34.65-12.75 49.59-2.61 13.23 1.19 23.22 4.36 35.43 4.47 17.21 5.92 13.94 2.25 32.79-5.19 26.54-5.99 60.74 5.51 85.68 6.27 13.58 16.61 21.99 26.83 32.17 3.34 3.33 10.56 4.8 13.13 8.09 3.35 4.27-0.48 9.45 1.97 13.72 8.7 15.17 10.19 29.14 18.04 45.77 12.63 26.74 33.97 42.06 57.93 59.43 15.32 11.12 21.26 22.17 33.11 34.25 11.91 12.16 28.46 18.35 42.05 27.88 31.21 21.89 61.43 62.26 103.78 62.01 6.84 26.41 43.68 26.11 65.92 27.91 9.56 0.78 19.58 2.93 30.44 1.82 21.32-2.19 19.31-0.25 37.58 6.54 37.37 13.88 83.95 3.32 120-10.98 9.5-3.76 21.1-14.86 29.91-16.51 7.43-1.4 21.13 4.01 30.16 3.48 24.31-1.42 48.33-7.91 66-27.38 14.04-15.5 22-38.59 37.52-50.7 6.71-5.25 15.31-5.74 23.51-10.8 10.67-6.6 13.25-18.61 22.41-25.75 13.02-10.2 30.21-10.71 44.72-24.96 21.97-21.6 38.29-49.11 58.42-72.58-18.96 40.52-44.68 92.34-79.74 114.51h-10.91c-6.55 17.44-19.63 34.89-37.09 37.07-19.63 34.91-95.99 89.44-139.61 87.26l-8.73 2.18c-15.27 10.91-39.26 19.63-52.36 6.55-37.09 21.81-109.07 34.91-148.35 10.9l-8.72-4.36c-30.53-4.36-85.08-8.72-100.34-39.27-32.72-8.72-56.72-26.16-80.71-47.99l-6.55-4.35c-15.27-2.19-28.36-8.73-32.72-24.01-26.18-10.91-71.99-32.72-74.17-63.26-21.82-13.08-50.18-34.9-54.53-61.07l-4.37-8.74c-19.64-13.09-37.08-32.72-34.91-56.71-21.82-21.82-19.63-50.17-19.63-78.54l2.18-6.55c-8.72-32.71-15.27-67.62-2.18-102.52-6.54-13.09-4.37-28.36 2.18-41.44l2.18-8.74c-6.55-28.35 2.19-63.26 8.73-89.43-4.37-15.281-2.19-32.73 2.18-48 0 0 21.92-51.121 43.91-80.64l-33.01 76.269c-0.86 13-7.28 29.223 6.33 37.692z"/>
  </clipPath>
  <linearGradient id="linearGradient620" gradientUnits="userSpaceOnUse" gradientTransform="matrix(-85.737 -659.52 -659.52 85.737 3873.1 1559)">
   <stop stop-color="#2f1714" offset="0"/>
   <stop stop-color="#231412" offset="1"/>
  </linearGradient>
  <clipPath id="clipPath630" clipPathUnits="userSpaceOnUse">
   <path d="m4269 1133c24.08 8.25 49.01 10.92 74.12 12.61 0.04 1.52 0.08 3.05 0.12 4.59-25.73-1.47-51.95-3.84-75.54-14.09-1.78-0.77-0.52-3.74 1.3-3.11zm50.2 43.01c7.98-0.83 16.1-0.72 24.18 0.13-0.01 1.7-0.04 3.41-0.07 5.13-3.54-0.48-7.06-0.85-10.56-1.09-14.81-0.98-30.79 0.89-43.67 8.61-14.33 8.58-22.39 23.41-29.06 38.16-1.46 3.22-8.67 15.3-5.4 17.11 5.19 2.87 10.52 5.51 15.83 8.16 12 6 23.99 11.99 35.42 19.04 7.17 4.42 14.3 9.53 20.49 15.44-0.21 0.55-0.45 1.08-0.66 1.63-20.51-19.57-52.98-30.77-75.32-43.39-0.73-0.4-0.81-1.24-0.51-1.95 7.22-16.02 13.32-32.82 25.04-46.24 11.56-13.2 27.23-18.95 44.29-20.74zm-405.89 380.61c-28.85 20.24-66.06 38.34-86.63 67.49-1.27-0.41-2.52-0.86-3.74-1.32 18.23-26.7 51.1-45.07 76.94-62.48 25.7-17.31 48.1-38.39 67.24-62.76 20.39-25.93 36.23-55.28 51.47-84.43 0.88-1.68 3.35-0.19 2.54 1.49-26.23 54.68-57.26 106.53-107.82 142.01zm33.2-156.6c-26.57 17.81-55.85 32.97-84.85 46.43-29.99 13.93-61.03 23.3-93.32 30.12-33.14 7.01-67.72 8.39-99.91 19.59-19.25 6.69-37.33 16.04-55.85 24.36-0.26-0.07-0.51-0.1-0.75-0.13 17.9-8.17 35.38-17.37 53.78-24.48 31.91-12.34 65.11-17.17 98.45-23.85 32.78-6.59 64.37-16.6 94.93-30.19 29.59-13.15 56.83-30.5 85.86-44.71 1.9-0.92 3.44 1.67 1.66 2.86zm-75 5.75c-34.7 0.48-69.31 7.54-102.98 15.45-15.19 3.56-30.43 6.86-45.91 8.88-17.41 2.25-35.03 2.38-52.52 3.81-51.92 4.28-104.11 14.23-156.35 17.61-1.1-1.67-2.09-3.38-2.94-5.12 19.08-1.63 38.13-3.69 57.16-6.33 32.98-4.55 65.83-9.52 99.03-12.2 16.5-1.33 33.04-1.18 49.54-2.45 18.21-1.42 36.36-4.24 54.37-7.17 33.59-5.48 66.33-13.76 100.6-13.75 0.8 0 0.8 1.26 0 1.27zm-290.38-377.17c-53.47-18.39-109.17-34.408-166.32-30.279-4.27 0.32-8.53 0.808-12.76 1.39 0.49-2.222 1-4.429 1.52-6.582 2.25-0.296 4.51-0.629 6.77-0.867 58.6-5.902 118.45 11.058 171.48 34.698 0.93 0.41 0.26 1.97-0.69 1.64zm-3.09-108.78c-33.33-27.641-83.47-35.281-125.39-33.91-7.25 0.238-14.78 0.879-22.37 2.007 0.54-1.007 1.08-2.027 1.65-3.046 5.14-0.711 10.27-1.25 15.3-1.602 44.2-2.98 97.92 5.242 133.1 34.238 1.63 1.332-0.7 3.614-2.29 2.313zm-16.31 9.418c1.12 0.082 2.11 0.73 2.42 1.844 2.22 8.085 0.44 16.437 0.22 24.667-0.04 1.719-1.65 3.008-3.34 2.54-47.11-12.969-97.1-14.911-144.84-4.02-3.63 0.832-7.54 1.68-11.56 2.66 0.09-1.711 0.25-3.418 0.42-5.14 0.52-0.122 1.03-0.27 1.52-0.411 49.47-13.757 103.24-12.027 152.7 1 0.46-6.097 1.43-12.289 0.36-18.308-51.23-5.102-102.21 2.238-153.18 8.437 0.21-1.129 0.46-2.218 0.71-3.316 51.36-6.07 102.55-13.121 154.57-9.953zm-109.5 41.582c32.95-7.52 66.48-5.719 98.72 4.109 0.59 0.172 0.33 1.07-0.25 0.91-33.14-9.48-66.87-9.949-100.34-1.871-14.9 3.602-29.36 8.891-43.51 14.723-0.82 0.359-1.65 0.687-2.47 1.027 0.31-1.277 0.62-2.551 0.93-3.789 15.25-6.238 30.86-11.449 46.92-15.109zm107.32 60.099c1.52 0 1.52 2.35 0 2.35-37.88-0.03-75.68-0.47-113.4 3.84-11.63 1.33-32.15 3.66-50.33 9.51 0-0.73 0.02-1.46 0.04-2.18 13.84-4.41 28.46-6.69 38.5-8.18 41.49-6.12 83.4-5.39 125.19-5.34zm2.38 35.75c0.39 0.17 0.1 0.86-0.29 0.7-50.25-19.57-114.28-27-164.59-3.72-0.15-0.98-0.26-1.98-0.39-2.96 50.72-23.25 115.38-15.34 165.27 5.98zm712.17 252.61c8.96 3.7 16.85 9.15 25.41 13.01l-2.18 4.35c-3.97-1.59-7.9-3.49-11.86-5.62-6.73-3.64-13.24-7.62-20.82-9.26-8.12-1.76-15.35 1.79-21.88 6.19 12.1 3.58 22.65 9.25 32.87 17.01 4.41 3.34 8.71 6.73 13.09 10.02-0.46 1-0.92 1.99-1.4 2.98-15.52-11.21-30.18-23.51-49.88-27.18-1.55-0.3-1.97-2.44-0.91-3.46 10.62-10.36 23.73-13.76 37.56-8.04zm41.04-9.38c-0.64 1.09-1.33 2.17-2 3.23-5.09-3.83-11.06-6.55-16.97-8.64-17.29-6.13-35.77-5.99-53.81-4.64-1.81 0.14-2.2-2.81-0.42-3.17 21.95-4.32 53.78-1.69 73.2 13.22zm-71.71 44.43c6.92 12.46 13.41 28.48 26.61 35.6 0.47 0.25 0.95 0.4 1.42 0.6-0.46 0.87-0.91 1.74-1.37 2.61-0.08-0.03-0.15-0.05-0.23-0.09-7.21-3.28-12.18-9.46-16.58-15.86-3.15-4.56-5.79-9.45-8.4-14.31-2.63-4.95-2.95-7.07-9.24-6.08-4.45 0.72-8.71 2.55-12.17 5.45-1.04 0.87-2.54-0.59-1.49-1.49 5.72-4.97 12.96-6.64 20.38-7.04 0.42-0.03 0.88 0.24 1.07 0.61zm3.84 41.93c3.38 6.42 6.46 13.84 8.9 21.63-1.31 2.12-2.63 4.21-3.97 6.3-7.01-29.03-20.79-58.17-53.04-50.23-2.01 0.48-2.84-2.52-0.85-3.1 22.13-6.27 38.92 6.36 48.96 25.4zm-27.94 27.05c4.24 10.18 6.81 21.43 8.09 32.86-1.21 1.27-2.43 2.48-3.68 3.67-3.56-29.07-12.83-63.53-41.56-48.79-0.53 0.26-1.29 0.38-1.79 0-4.33-3.24-7.3-7.62-10.86-11.62-1.01-1.13 0.61-2.79 1.68-1.69 1.64 1.68 8.16 10.81 10.64 9.35 2.31-1.41 4.83-2.4 7.41-3.19 4.17-1.31 8.68-1.23 12.84 0.05 8.6 2.64 14 11.56 17.23 19.36zm-30.63 2.94c6.09 7.59 9.14 17.25 10.91 26.69 1.18 6.31 1.7 13.04 1.64 19.83h-4.7c-0.09 0.21-0.18 0.45-0.28 0.66-0.22-10.06-1.76-20.08-4.89-29.38-3.51-10.42-10.27-20.02-20.77-24.16-5.25-2.07-4.37-3.29-3.94-8.65 0.82-9.87-5.59-18.73-14.21-22.77-1.08-0.51-0.13-2.02 0.91-1.56 11.78 5.01 17.01 14.65 17 26.85 7.06 0.47 14.37 7.54 18.33 12.49zm-46.4 21.13c5.46 23.58 13.79 45.48 12.79 69.29-0.54 0.75-1.12 1.51-1.7 2.28 1.25-23.52-6.76-45.37-12.84-68.22-1.45-5.49-2.55-7.77-1.07-13.06 1.54-5.46 1.79-11.02 1.36-16.65-0.95-12.26-7.7-22.81-16.25-31.21-2.81-2.76 1.34-6.71 4.28-4.26 8.56 7.08 13.93 17.39 16.42 28.1 1.23 5.27 1.39 10.82 0.71 16.16-0.74 5.74-5.04 11.76-3.7 17.57zm-47.81 56.59c-0.11 16.02-2.75 31.54-7.13 46.93-2.9 10.15-6.74 20.19-11.44 29.84-1.8 0.94-3.61 1.85-5.42 2.72 12.11-23.03 19.24-48.65 19.74-74.69 0.36-18.46-1.62-36.74 11.16-51.81 3.34-3.93 0.57-7.37-0.89-11.97-1.54-4.92-2.97-9.86-4.5-14.78-3.93-12.61-9.37-22.29-20.08-30.56-1.23-0.93-0.09-3.05 1.25-2.14 20.3 14.07 24.24 35.45 32.66 57.04 0.35 0.9-0.06 2.13-0.72 2.76-13.66 12.86-14.51 29-14.63 46.66zm-35.1 7.69c-13.15 30.89-31.23 58.89-48.17 87.6l-0.1 0.02c-0.78 0.57-1.62 1.13-2.44 1.67 15.16-26.62 31.74-52.47 44.62-80.38 9.68-21.01 17.57-43.4 19.52-66.59 1.69-20.42-6.09-42.26-18.42-58.27-2.03-2.63 2.53-6.15 4.61-3.57 27.69 34.52 16.26 82.26 0.38 119.52zm-20.02-42.35c7.89-19.66 14.66-39.28 18.37-60.19 0.32-1.82 3.02-1.02 2.74 0.76-2.99 20.03-8.03 39.57-15.39 58.43-7.8 20.04-15.09 40.78-24.89 59.94-14.9 29.15-35.06 55.03-51.56 83.17-1.16-0.31-2.3-0.72-3.38-1.19 14.69-27.18 34.29-51.85 48.45-79.3 10.13-19.68 17.39-41.07 25.66-61.62zm-18.43-23.02c-2.96 11.41-3.94 23.21-6.08 34.78-2.24 12.12-5.59 23.99-9.54 35.63-11.3 33.37-29.06 64.91-51.79 92.01-1.3 0.68-2.63 1.35-3.97 2.01 24.57-29.28 43.47-63.36 55.34-99.64 7.26-22.21 8.76-44.99 13.68-67.64 4.14-19 13.73-35.83 23.13-52.64 1.57-2.79 5.87-0.26 4.27 2.49-9.97 17.05-20.03 33.74-25.04 53zm-124.56 109.96c-21.13 16.25-45.08 28.1-68.22 41.13-8.59 4.83-17.12 9.94-25.19 15.63l-1.28-0.64c-1.4-0.2-2.85-0.39-4.35-0.6 6.09-4.52 12.45-8.67 18.69-12.59 22.65-14.23 46.87-25.84 69.14-40.69 51-33.98 75.91-90.58 103.75-142.66 0.27-0.52 1.03-0.06 0.77 0.43-25.19 49.83-47.64 104.95-93.31 139.99zm49.12-100.37c-9.34 12.27-21.64 22.16-34.43 30.59-27.22 17.9-58.98 27.83-89 39.86-24.4 9.8-50.53 15.49-74.15 27.21-16.26 8.08-27.23 19.89-33.55 34.68-0.43-0.33-0.86-0.66-1.28-1 4.36-11.57 11.59-21.76 22.58-30.09 19.7-14.9 45.73-20.66 68.61-28.8 31.4-11.18 63.81-23.28 92.99-39.45 15.19-8.39 29.36-18.89 40.9-31.92 12.21-13.75 20.4-30.49 32.34-44.45 1.4-1.65 4.21 0.53 2.98 2.31-9.3 13.65-17.97 27.93-27.99 41.06zm-63.13 2.37c-11.67 8.74-24.63 15.09-37.37 22.06-13.69 7.51-27.09 15.56-40.5 23.6-12.53 7.52-25.13 14.93-37.91 21.98-12.48 6.88-25.57 12.52-37.97 19.52-12.26 6.94-19.88 16.28-27.36 27.66-0.97-0.24-1.89-0.54-2.83-0.8 6.63-10.06 13.86-19.56 24.11-26.32 11.67-7.72 24.77-13.12 36.81-20.2 13.48-7.9 26.62-16.34 39.88-24.62 13.26-8.31 26.54-16.61 40.05-24.51 12.6-7.4 25.81-13.55 38.56-20.66 5.59-3.11 11.74-5.87 17.02-9.44 6.3-4.31 12.26-9.09 18.39-13.6 11.71-8.67 23.82-16.74 36.52-23.89 0.6-0.32 1.13 0.57 0.54 0.94-23.97 14.28-45.71 31.63-67.94 48.28zm4.4-43.15c-32.7 2.08-64.16 12.12-95.55 20.76-15.49 4.26-30.33 9.54-46.17 12.5-15.8 2.94-31.44 5.74-46.98 9.91-39.57 10.63-77.77 26.91-117.17 38.29-1.92-0.81-3.94-1.66-6.03-2.58 41.82-12.6 82.17-30.08 124.38-41.97 31-8.73 63.45-9.89 94.28-19.02 30.63-9.06 61.06-19.07 93.24-20.37 1.61-0.08 1.58 2.37 0 2.48zm-34.89-13.87c-17.26-1.21-34.1-1.15-51.28 0.98-16.18 1.99-32.14 5.49-48.3 7.63-36.5 4.82-73.98 2.64-110.75 3.26-18.86 0.3-37.71 0.97-56.54 2.07-17.43 1.01-34.59 3.5-51.97 0.8-23.85-3.69-45.93-14.43-69.31-19.28-0.24-0.32-0.5-0.64-0.74-0.96 22.16 3.81 43.32 13.04 65.48 17.58 17.88 3.64 35.39 1.26 53.37 0.07 19.88-1.32 39.8-1.95 59.71-2.33 18.92-0.36 37.84-0.39 56.77-0.41 8.89-0.01 17.74-0.06 26.63-0.72 10.14-0.76 19.49-3.36 29.38-5.33 4.53-0.9 9.09-1.83 13.67-2.74-31.42-10.47-61.51-24.62-92.9-35.26-34.02-11.53-69.33-17.83-105.27-14.37-39.7 3.84-76.29 18.55-112.85 33.4-0.58-1.21-1.15-2.42-1.63-3.66 36.33-14.13 72.83-27.58 111.68-32.18 71.89-8.49 139.01 25.49 203.86 51.48 26.91-5.25 54.58-9.61 81.68-5.21 2.94 0.48 2.25 5.38-0.69 5.18zm-83.18-43.63c-50.05-30.79-112.92-20.08-168.7-20.89-31.24-0.45-60.86 2.14-91 10.85-14.18 4.11-28.03 9.31-41.7 14.9-5.4 2.2-10.74 4.62-16.07 7.08l-1.25-2.49c4.71-1.98 9.44-3.91 14.09-5.84 14.48-6.06 29.25-11.47 44.29-15.95 30.2-8.99 60.29-11.48 91.64-10.91 56.57 1.03 118.99-10.67 169.24 22.32 0.58 0.39 0.06 1.29-0.54 0.93zm-112.32-53.55c-1.26-1.52-2.23-3.07-2.86-5.26-0.27-0.94 0.18-1.82 0.96-2.37 1.89-1.27 7.48-1.62 8.41-3.35 0.83-1.57 3.56-0.48 2.92 1.23-0.52 1.35-0.83 1.63-2.02 2.5-4.07 2.97-8.99-0.4-2.39 6.49 0.9 0.91 0.85 2.73-0.42 3.34-40.88 19.64-85.59 8.57-128.85 7.39-23.97-0.66-45.96 3.52-68.36 11.9-13.23 4.97-26.16 10.74-39.26 16-0.11-0.13-0.2-0.26-0.29-0.39 32.4-13.27 63.58-29.11 99.54-30.9 44.52-2.21 90.19 12.53 132.62-6.58zm31.88-17.85c-54.04-2.03-108.05-10.22-161.7 0.59-25.54 5.17-50.84 15.16-75.41 23.68-12 4.16-24.04 8.66-36.19 12.82-0.56-1.98-0.98-3.99-1.27-6.04 12.04-3.9 24.07-7.81 36.06-11.85 26.24-8.88 52.27-15.44 79.41-20.76 52.42-10.26 106.3-2.67 159.1-0.54 1.35 0.06 1.35 2.15 0 2.1zm-26.18-52.66c-12.46 0.16-24.87-1.06-37.32-0.98-14.24 0.1-27.41 3.65-40.38 9.32-11.06 4.84-21.33 11.38-32.06 16.9-11.41 5.88-23.49 9.01-35.7 12.72-35.12 10.62-68.4 27.61-103.36 38.56 0.01-0.35 0.04-0.73 0.05-1.08 35.64-11.74 69.3-29.82 104.78-42.39 12.54-4.45 24.5-8.33 36.26-14.78 10.69-5.88 21-12.67 32.39-17.18 11.68-4.62 22.76-7.5 35.33-8.03 13.31-0.6 26.71 0.72 40.01 1.08 3.77 0.11 3.79 5.81 0 5.86zm-214.19-48.06c2.52-0.68 6.57-0.17 9.27-0.4 3.96-0.31 7.9-0.66 11.85-1.01 28.29-2.48 58.6-6.56 86.66-0.53 25.36 5.42 46.44 22.82 69.72 33.33 0.91 0.4 0.11 1.7-0.78 1.32-23.57-10.07-44.31-26.53-69.51-32.61-14.09-3.41-29.67-2.62-44.06-2.15-15.03 0.49-30.03 1.98-44.99 3.3-7.7 0.7-14.7 0.66-21.28 5.22-5.28 3.67-10.7 7.02-16.32 10.14-10.74 5.95-22.31 10.48-33.86 14.59-0.46-1.8-0.91-3.62-1.36-5.44 12.88-4.45 25.45-9.68 37.55-15.98 5.39-2.81 11.28-8.16 17.11-9.78zm42.98-25.05c25.64-0.56 51.8-0.66 77.41 0.86 2.7 0.16 5.99 3.98 8.48 5.38 5.34 3.03 11.45 4.53 17.4 5.73 10.81 2.14 22.06 1.97 33.02 1.97 2.2 0 2.2 3.42 0 3.42-19.04-0.01-39.46 0.03-56.08-10.54-4.56-2.89-9.03-2.38-14.36-2.4-6.9-0.04-13.8-0.12-20.69-0.18-13.05-0.12-26.11-0.17-39.16 0.07-25.84 0.5-50.87 2.55-75.59 10.43-11.08 3.54-22 7.47-33.06 10.9-0.14-0.97-0.29-1.94-0.41-2.93 10.83-3.85 21.53-8.11 32.37-11.93 23.18-8.15 46.24-10.25 70.67-10.78zm124.12 3.21c2 1.14 0.23 4.1-1.81 3.06-66.34-34.12-153.28-66.85-223.27-34.91 0.39-1.52 0.82-3.07 1.28-4.61 69.23-32.81 160.08 0.28 223.8 36.46zm18.73-45.15c-25.13-1.56-49.29-9.97-73.35-16.76-25.44-7.15-51.35-12.4-77.88-10.71-34.3 2.2-62.51 19.41-91.24 35.86 0.26-0.82 0.53-1.65 0.79-2.48 27.37-17.26 54.17-35.21 87.54-38.62 26.32-2.72 51.97 2.6 77.06 10.04 25.74 7.63 50.97 15.25 77.43 20.09 1.46 0.27 1.12 2.68-0.35 2.58z"/>
  </clipPath>
  <linearGradient id="linearGradient636" gradientUnits="userSpaceOnUse" gradientTransform="matrix(-81.903 -630.02 -630.02 81.903 3915.6 1550.3)">
   <stop stop-color="#481b17" offset="0"/>
   <stop stop-color="#251512" offset="1"/>
  </linearGradient>
  <clipPath id="clipPath646" clipPathUnits="userSpaceOnUse">
   <path d="m4346.6 1087.5c-1.56 16.15-3.66 32.9-2.87 49.05 0.64 13.24 0.67 26.51 0.62 39.77-0.21 52.12-5.83 112.66-42.48 153.06-0.74 0.82-1.92-0.38-1.21-1.22 36.64-41.87 41.15-103.35 41.84-156.47 0.39-29.06-3.4-57.87-0.94-86.85 2.74-32.2 6.98-64.09 9-96.381 0.17-2.527 3.8-2.539 3.95 0 1.78 33.131-4.72 66.171-7.91 99.041zm-63.72 285.67c-6.48 13.6-13.34 26.99-20.92 39.99-13.67 23.48-30.86 45.57-54.24 60.01-0.57 0.35-1.04-0.5-0.51-0.85 22.73-15.42 38.04-40.45 51.56-63.8 7.14-12.31 13.58-25.06 19.81-37.85 5.53-11.28 10.19-23.39 16.7-34.11 1.08-1.78 4.16-0.64 3.45 1.43-4.23 12.03-10.4 23.67-15.85 35.18zm-100.33 126c-3.27 3.58-7.22 6.45-11.39 8.83-4.34 2.47-9.03 2.37-11.78 6.75-9.41 14.88-23.21 27.14-36.78 38.09-16.06 12.97-33.9 23.95-52.57 32.77-15.5 7.34-32.78 13.4-50.17 12.31-1.06-0.06-1.08-1.67 0-1.66 26.76 0.2 55.62-14.84 76.82-30.08 22.32-16.04 46.58-33.27 60.68-57.58 0.41-0.73 1.26-1.25 2.11-1.21 19.02 0.67 28.18-22.03 35.95-35.3 0.79-1.3 2.71-0.42 2.39 1.01-2.12 9.71-8.65 18.85-15.26 26.07zm-223.99 109.27c-22.3 12.6-47.82 19.24-73.14 21.97-25.37 2.76-53.21 0.67-75.22-13.31-0.47-0.29-0.04-1.02 0.46-0.75 22.55 12.36 49.8 12.89 74.76 10.14 24.94-2.74 50.43-10.02 72.24-22.58 0.89-0.52 1.93-0.34 2.68 0.34 15.2 13.84 35.25 1.2 50.06-6.25 1.42-0.71 3.05 1.14 1.77 2.31-13.09 12.12-38.32 20.23-53.61 8.13zm-156.86 5.23c-29.2-1.57-65.99-5.09-89.62-24.06-2.82-2.25-5.36-4.66-7.71-7.42-1.92-2.23-3.46-6.6-6.21-7.75-9.83-4.14-19.79-7.09-29.33-12.04-18.19-9.45-33.86-22.82-48.67-36.8-0.65-0.62 0.3-1.55 0.98-0.98 15.28 13.24 31.46 25.41 49.48 34.7 9.09 4.69 18.78 8.37 28.67 10.99 6.35 1.68 8.59 8.86 13.57 13.43 23.22 21.35 60.22 20.68 89.19 27.37 1.43 0.33 1.13 2.64-0.35 2.56zm-187.6-92.4c-8.74-0.24-17.56-3.48-24.48-8.81-3.01-2.32-5.24-5.33-7.3-8.49-0.67-1.05-1.7-5.13-3.14-5.61-1.91-0.65-3.79-1.2-5.68-2.01-18.78-8.02-37.46-17.83-52.43-31.92-6.37-6.02-11.6-13.25-14.62-21.5-0.57-1.5-0.7-8.47-1.81-9.28-4.94-3.63-10.31-6.68-15.27-10.32-17.01-12.5-33.79-29.09-37.69-50.65-0.24-1.3 1.72-1.87 1.98-0.56 4.42 21.62 21.98 37.71 39.09 50.15 5.31 3.87 15.85 7.26 17.38 14.08 1.97 8.92 7.16 16.27 13.42 22.73 13.01 13.43 30.71 22.41 47.51 30.15 3.32 1.53 6.89 2.82 9.94 4.82 3.62 2.42 3.39 5.98 5.48 9.97 5.5 10.49 17.47 13.19 27.76 16.2 0.59 0.18 0.48 1.07-0.14 1.05zm-166.94-155.62c-10.39-4.78-19.45-14.86-26.1-23.93-3.42-4.64-5.9-9.85-7.88-15.24-1.09-2.96-1.65-6.07-2.12-9.15-0.64-4.21 0.7-9.9-2.36-13.42-18.12-20.71-16.31-49.87-15.79-75.49 0.02-1.11 1.69-1.11 1.72 0 0.19 11.87 0.05 23.78 1.26 35.6 0.66 6.42 2.03 12.69 4.03 18.84 2.32 7.07 7.53 18.71 14.72 21.99 0.74 0.33 1.23 1.32 1.21 2.11-0.44 11.96 3.06 22.29 9.81 32.08 6.6 9.56 16.09 15.18 24.26 23.03 1.97 1.89-0.53 4.59-2.76 3.58zm-51.55-287.95c0.23-0.46 0.89-0.05 0.68 0.4-4.52 10.13-10.46 30.56-0.98 39.7 0.54 0.53 0.8 1.4 0.56 2.14-5.59 17.33-7.57 34.79-6.39 52.97 1.08 16.58 6.39 32.51 7.8 48.96 0.11 1.3-1.93 1.88-2.48 0.68-10.01-21.76-12.54-49.73-10.46-73.33 0.55-6.29 1.76-12.47 3.31-18.57 0.77-3.03 1.78-5.98 2.84-8.92 1.64-4.56-0.6-8.28-1.17-12.54-1.5-11.23 1.26-21.48 6.29-31.49zm10.4-109.06c0.43 5.141 3.72 9.09 2.67 14.172-1.06 5.129-2.29 10.238-3.47 15.351-5.26 22.928-9.09 46.968-4.76 70.378 0.55 3-3.9 4.31-4.64 1.27-5.41-22.37-1.85-45.6 2.9-67.74 1.12-5.279 2.35-10.509 3.75-15.708 1.91-7.161 1.43-13.34 0.96-20.551-0.76-11.66 1.88-23.11 5.35-34.141 0.1-0.359 0.62-0.219 0.54 0.141-2.84 12.058-4.33 24.461-3.3 36.828z"/>
  </clipPath>
  <linearGradient id="linearGradient652" gradientUnits="userSpaceOnUse" gradientTransform="matrix(0 -438.87 -438.87 0 3869.2 1658.3)">
   <stop stop-color="#241412" offset="0"/>
   <stop stop-color="#100f0d" offset="1"/>
  </linearGradient>
  <clipPath id="clipPath662" clipPathUnits="userSpaceOnUse">
   <path d="m3329.4 104.94s137.69-6.5504 201.94 134.17c64.26 140.7 42.84 346.85 42.84 346.85l452.83-75.262s-58.13-274.88 244.79-373.04c0 0-91.8-6.531-229.49-75.25 0 0-204.99-65.449-416.12-13.102 0 0-198.88 55.632-296.79 55.632z"/>
  </clipPath>
  <linearGradient id="linearGradient668" gradientUnits="userSpaceOnUse" gradientTransform="matrix(0 412.06 412.06 0 3800.6 142.21)">
   <stop stop-color="#e68260" offset="0"/>
   <stop stop-color="#b34b35" offset="1"/>
  </linearGradient>
  <clipPath id="clipPath680" clipPathUnits="userSpaceOnUse">
   <path d="m3741.7 796.35c-51.55 93.968-148.53 143.17-232.3 124.37v-25.532c0-17.992-13.09-17.992-13.09-17.992-8.18 3.262-18 6.531-27.81 11.442l0.04-1.891c-3.03 4.16-6.4 8.41-10.02 12.66-40.95-26.449-66.7-70.148-75.27-120.4 7.18-17.032 14.3-31.961 19.8-42.532 27.81-53.992 68.71-65.441 122.7-47.441l-1.1 4.09 9.29-2.457s9.82-19.633 29.45-78.531c12.53-37.59 42.42-75.192 93.41-117.46 10.19 3.121 20.15 7.222 29.74 12.468 90.75 49.801 115.46 179.28 55.16 289.2z"/>
  </clipPath>
  <radialGradient id="radialGradient686" gradientUnits="userSpaceOnUse" cy="0" cx="0" gradientTransform="matrix(138.72 76.093 92.143 -167.98 3582.6 705.8)" r="1">
   <stop stop-color="#f8a185" offset="0"/>
   <stop stop-color="#e68260" offset="1"/>
  </radialGradient>
  <clipPath id="clipPath696" clipPathUnits="userSpaceOnUse">
   <path d="m4352 823.19c-4.37 36.368-11.27 72.739-3.59 121.73-53.96-22.301-106.27-85.859-132.93-169.96-31.36-98.891-17.44-195.02 29.48-238.33 2.92 4.941 5.87 9.922 8.87 14.973 76.9 129.25 103.08 230.69 98.17 271.59z"/>
  </clipPath>
  <radialGradient id="radialGradient702" gradientUnits="userSpaceOnUse" cy="0" cx="0" gradientTransform="matrix(111.09 -35.246 -57.936 -182.62 4349.3 729.53)" r="1">
   <stop stop-color="#f8a185" offset="0"/>
   <stop stop-color="#e68260" offset="1"/>
  </radialGradient>
  <clipPath id="clipPath712" clipPathUnits="userSpaceOnUse">
   <path d="m4324.2 720.12c-12.6-25.12-83-175.63-115.1-244.17 14.04 23.512 28.76 48.91 44.67 75.653 63.04 105.97 91.98 193.2 97.66 243.75-6.16-26.032-16.71-54.051-27.31-75.231zm-732.98-45.812c-55.62 75.273-81.8 229.06-81.8 229.06v-8.18c0-17.992-13.09-17.992-13.09-17.992-6.23 2.481-13.41 4.981-20.81 8.199 8.91-21.046 43.29-104.9 40.44-139.09-3.27-39.27-29.45-62.168-29.45-62.168s0.16-1.032 0.43-2.891c12.08 0.52 25.04 3.191 38.83 7.789l-1.1 4.09 9.29-2.457s9.82-19.633 29.45-78.531c19.64-58.899 81.81-117.81 201.23-194.7 17.34-11.16 33.49-21.089 48.82-29.953-1 0.711-1.96 1.414-3.01 2.133-140.69 98.168-163.6 209.43-219.23 284.69z"/>
  </clipPath>
  <linearGradient id="linearGradient718" gradientUnits="userSpaceOnUse" gradientTransform="matrix(612.2 1011.7 1011.7 -612.2 3672.4 399.96)">
   <stop stop-color="#e68260" offset="0"/>
   <stop stop-color="#b34b35" offset="1"/>
  </linearGradient>
  <clipPath id="clipPath728" clipPathUnits="userSpaceOnUse">
   <path d="m4155.1 595.8c0-40.969-52.74-74.18-117.8-74.18-65.08 0-117.81 33.211-117.81 74.18 0 40.941 52.73 74.16 117.81 74.16 65.06 0 117.8-33.219 117.8-74.16z"/>
  </clipPath>
  <radialGradient id="radialGradient734" gradientUnits="userSpaceOnUse" cy="0" cx="0" gradientTransform="matrix(117.81 0 0 -74.171 4037.3 595.79)" r="1">
   <stop stop-color="#f7977d" offset="0"/>
   <stop stop-color="#e68260" offset="1"/>
  </radialGradient>
  <clipPath id="clipPath744" clipPathUnits="userSpaceOnUse">
   <path d="m3703.5 1064.8s10.9 233.43 102.52 292.32c91.63 58.9 340.32 63.28 431.94-30.52 0 0 71.99-78.55 71.99-235.61l-2.18-54.54s-85.08-34.9-95.99-34.9-388.3-8.73-388.3-8.73z"/>
  </clipPath>
  <linearGradient id="linearGradient750" gradientUnits="userSpaceOnUse" gradientTransform="matrix(0 366.84 366.84 0 4006.7 1115.4)">
   <stop stop-color="#e68260" offset="0"/>
   <stop stop-color="#f8a185" offset="1"/>
  </linearGradient>
  <clipPath id="clipPath760" clipPathUnits="userSpaceOnUse">
   <path d="m4314.3 1201.2c-11.44 70.35-60.53 134.17-60.53 134.17-6.54 1.63-19.63 22.89-19.63 22.89-13.09 1.64-22.92 18.01-22.92 18.01-13.07 3.26-22.9 13.08-26.17 19.62-3.27 6.55-13.08 9.82-13.08 9.82l-9.83-1.64c-9.8-1.63-18 4.91-18 4.91l-3.26 8.18c-6.55-1.63-24.55 3.28-24.55 3.28l-11.45 8.18-11.45-6.54-24.54-1.64-6.54 8.18-8.19-9.83c-9.81-6.55-29.44 8.2-29.44 8.2l-16.37 8.17-1.64-8.17-13.08-1.64-47.45 11.44 3.28-14.71-26.18 8.17c-9.83-6.55-49.09-9.81-49.09-9.81l6.54-6.54c-14.72-1.66-40.9-9.83-40.9-9.83-8.19-6.54-36-14.72-36-14.72-13.08-3.27-34.36-21.28-50.72-34.36-16.35-13.09-44.17-27.82-44.17-27.82s-17.99-19.63-22.9-24.54c-4.9-4.91-29.45-6.53-29.45-6.53l4.9-13.1c-6.54-16.36-32.71-40.9-40.89-49.09-8.18-8.17-9.82-16.35-9.82-16.35l9.82 1.63s-11.46-22.9-14.73-34.35c-3.27-11.47-13.09-21.28-13.09-21.28l18 1.64-11.46-13.08s-3.27-13.09-11.45-29.46c-8.17-16.36-32.72-26.19-32.72-26.19s-11.45-22.89-17.99-32.71c-6.55-9.82-24.55-16.36-24.55-16.36 6.54 0 19.64 3.27 19.64 3.27s-9.82-22.9-13.1-47.44c-3.27-24.551-6.54-34.371-6.54-34.371s-1.58-9.489-0.07-20.7c26.97-6.617 59.62-10.41 70.96-14.187 13.1-4.371 39.27 2.18 39.27 2.18l-24 78.518s58.89 69.81 82.9 133.08c24.01 63.26 52.36 202.88 150.51 237.77 98.18 34.93 331.6 37.09 410.13-47.98 0 0 54.54-76.35 63.27-157.07 8.72-80.71 13.09-137.44 13.09-137.44s21.05-27.35 36.83-45.531c-1.04 33.761-18.08 48.231-23.2 59.701-6.54 14.74-6.54 73.64-18 144z"/>
  </clipPath>
  <linearGradient id="linearGradient766" gradientUnits="userSpaceOnUse" gradientTransform="matrix(0 560.28 560.28 0 3933.7 967.89)">
   <stop stop-color="#e68260" offset="0"/>
   <stop stop-color="#b34b35" offset="1"/>
  </linearGradient>
  <clipPath id="clipPath776" clipPathUnits="userSpaceOnUse">
   <path d="m3607.5 933.92s-45.81 65.437 34.91 115.61c0 0 85.07 26.18 143.97 2.18 58.91-23.99 137.43-17.44 137.43-17.44s10.91-115.62-52.34-143.99z"/>
  </clipPath>
  <linearGradient id="linearGradient782" gradientUnits="userSpaceOnUse" gradientTransform="matrix(0 183.25 183.25 0 3759.6 940.15)">
   <stop stop-color="#e68260" offset="0"/>
   <stop stop-color="#b34b35" offset="1"/>
  </linearGradient>
  <clipPath id="clipPath792" clipPathUnits="userSpaceOnUse">
   <path d="m4113.6 894.64s-21.82 98.172 13.08 139.63l41.46-6.55 54.54 26.17s61.07 8.72 76.35 2.19c15.26-6.55 45.8-37.09 45.8-37.09s15.27-76.349-28.35-91.631l-78.54-23.988s-45.81-4.351-52.35-6.551z"/>
  </clipPath>
  <linearGradient id="linearGradient798" gradientUnits="userSpaceOnUse" gradientTransform="matrix(0 183.25 183.25 0 4227.2 940.15)">
   <stop stop-color="#e68260" offset="0"/>
   <stop stop-color="#b34b35" offset="1"/>
  </linearGradient>
  <clipPath id="clipPath808" clipPathUnits="userSpaceOnUse">
   <path d="m3933.7 673.22s28.36 14.179 53.43 9.816c25.09-4.367 70.9-31.637 106.9-2.187 0 0 17.44 4.359 25.09-10.891 0 0-8.73-21.82-21.81-24.012 0 0-18.56-40.359-63.28-40.359-44.71 0-90.53 44.73-90.53 44.73s-10.91 9.809-9.8 22.903z"/>
  </clipPath>
  <linearGradient id="linearGradient814" gradientUnits="userSpaceOnUse" gradientTransform="matrix(0 82.108 82.108 0 4026.4 593.4)">
   <stop stop-color="#e68260" offset="0"/>
   <stop stop-color="#b34b35" offset="1"/>
  </linearGradient>
  <clipPath id="clipPath824" clipPathUnits="userSpaceOnUse">
   <path d="m4055.8 681.95s-49.1 2.192-50.16 49.09c-1.11 46.891 2.17 148.33 2.17 148.33l56.72-2.172s3.27-81.808 7.63-102.54c4.37-20.719 54.54-92.711-16.36-92.711z"/>
  </clipPath>
  <linearGradient id="linearGradient830" gradientUnits="userSpaceOnUse" gradientTransform="matrix(0 -171.79 -171.79 0 4049.5 822.09)">
   <stop stop-color="#e68260" offset="0"/>
   <stop stop-color="#f8a185" offset="1"/>
  </linearGradient>
  <clipPath id="clipPath842" clipPathUnits="userSpaceOnUse">
   <path d="m4121.3 699.4s-22.91 23.989-27.26 31.637c-4.37 7.633-18.55 43.621-15.28 83.973l2.19 15.289s45.81-50.192 54.53-68.719c8.72-18.551 3.28-55.633-10.89-72z"/>
  </clipPath>
  <linearGradient id="linearGradient848" gradientUnits="userSpaceOnUse" gradientTransform="matrix(-67.313 -18.123 -18.123 67.313 4124.4 765.78)">
   <stop stop-color="#e68260" offset="0"/>
   <stop stop-color="#b34b35" offset="1"/>
  </linearGradient>
  <clipPath id="clipPath858" clipPathUnits="userSpaceOnUse">
   <path d="m3934.8 702.68s14.16 9.808 28.34 26.172c14.19 16.367 28.37 71.988 28.37 88.347 0 16.364-30.54 29.449-33.82 26.18-3.28-3.258-54.54-58.887-58.9-78.52-4.35-19.64 3.28-44.738 33.81-80.718z"/>
  </clipPath>
  <linearGradient id="linearGradient864" gradientUnits="userSpaceOnUse" gradientTransform="matrix(86.59 -50.424 -50.424 -86.59 3928.2 776.06)">
   <stop stop-color="#e68260" offset="0"/>
   <stop stop-color="#b34b35" offset="1"/>
  </linearGradient>
  <clipPath id="clipPath874" clipPathUnits="userSpaceOnUse">
   <path d="m3488.1 770.84c-18 13.09-13.1 32.73-16.37 50.73-3.26 26.172-17.99 47.45-34.35 68.711-16.36 19.641-44.18 49.09-71.99 29.449 0 0 6.55-92.71 28.36-129.8 21.82-37.078 41.45-63.258 50.18-67.617 8.73-4.383 15.27 8.726 28.35 17.449 13.09 8.73 15.82 31.078 15.82 31.078z"/>
  </clipPath>
  <linearGradient id="linearGradient880" gradientUnits="userSpaceOnUse" gradientTransform="matrix(112.18 82.083 82.083 -112.18 3344 773.88)">
   <stop stop-color="#d27250" offset="0"/>
   <stop stop-color="#a03f2c" offset="1"/>
  </linearGradient>
  <clipPath id="clipPath890" clipPathUnits="userSpaceOnUse">
   <path d="m3471.7 821.57c-3.26 26.172-17.99 47.45-34.35 68.711-16.36 19.641-44.18 49.09-71.99 29.449 0 0 65.44-38.167 63.27-62.171-2.18-23.996-8.74-52.348-8.74-52.348s19.64 23.98 19.64 45.809c0 0 21.82-48 24-61.09 1.66-9.969 9.69-24.989 22.09-29.641 1.87 5.891 2.45 10.551 2.45 10.551-18 13.09-13.1 32.73-16.37 50.73z"/>
  </clipPath>
  <linearGradient id="linearGradient896" gradientUnits="userSpaceOnUse" gradientTransform="matrix(92.232 66.406 66.406 -92.232 3405.1 825.34)">
   <stop stop-color="#9f422c" offset="0"/>
   <stop stop-color="#862e1b" offset="1"/>
  </linearGradient>
  <clipPath id="clipPath908" clipPathUnits="userSpaceOnUse">
   <path d="m4116.9 723.74c-0.38 0.653-1.43 0.211-1.21-0.508 4-13.988 8.19-26.429 5.93-41.23-2.24-14.801-11.73-27.898-23.53-36.738-0.43-0.34-0.03-1.114 0.47-0.77 13.29 8.43 22.77 18.719 26.35 34.418 3.26 14.231-0.65 32.422-8.01 44.828zm-11.47-59.929c-4.59 2.683-10.35 4.082-15.73 3.32 8.15 9.281 13.48 21.32 14.4 33.351 0.07 1-1.41 1.149-1.69 0.25-5.22-17.628-13.18-31.558-29.16-41.41-13.36-8.23-31.48-11.269-46.91-9.332-0.24 0.032-0.29-0.379-0.06-0.429 18.01-4.09 34.86-2.618 50.91 7.023 2.75 1.66 5.35 3.609 7.78 5.77 2.04 0.546 4.02 1.328 6.09 1.789 4.66 1.039 9.11-0.012 13.26-2.219 1.24-0.684 2.33 1.168 1.11 1.887zm-4.78 41.589c0.04-1.238 1.94-1.238 1.91 0-0.47 16.704-9.4 30.403-15.54 45.434-6.41 15.77-4.78 33.109-8.05 49.547-0.06 0.312-0.57 0.223-0.56-0.078 0.5-15.059 0.63-30.699 4.9-45.27 5.03-17.109 16.73-31.16 17.34-49.633zm-153.07-43.777c-0.51-0.289-0.06-1.051 0.45-0.781 23.17 11.973 49.52 3.57 71.35-6.891 0.8-0.398 1.8 0.66 1.01 1.332-20.47 17.188-49.91 19.16-72.81 6.34zm-13.72 15.078c-1.64 15.5 3.15 31.973 7.56 46.653 0.07 0.211-0.24 0.289-0.31 0.078-6.33-16.11-13.99-32.778-11.33-50.508 2.67-17.813 19.21-26.922 34.34-33.121 0.17-0.082 0.31 0.219 0.13 0.301-15.51 7.187-28.5 18.789-30.39 36.597z"/>
  </clipPath>
  <linearGradient id="linearGradient914" gradientUnits="userSpaceOnUse" gradientTransform="matrix(0 101.74 101.74 0 4027.7 721.4)">
   <stop stop-color="#8a3926" offset="0"/>
   <stop stop-color="#e68260" offset="1"/>
  </linearGradient>
  <clipPath id="clipPath924" clipPathUnits="userSpaceOnUse">
   <path d="m3458.7 772.07c-1.15 4.621-1 9.493 0.98 13.852 2.4 5.277 7.78 6.5 12.48 8.797 0.71 0.351 0.35 1.441-0.39 1.433-9.91-0.089-15.93-8.992-16.1-18.121-0.19-11.051 7.26-22.32 15.6-28.968 0.71-0.551 1.72 0.429 1.02 1.007-6.79 5.739-11.44 13.399-13.59 22zm13.64 52.45c-2.87 20.468-13.96 38.761-25.77 55.261-17.28 24.129-49.52 63.551-82.32 41.969-2.51-1.648-0.16-5.711 2.36-4.039 23.98 15.891 47.69-1.242 65.75-22.371 4.09-13.16 6.88-25.75 6.41-39.738-0.46-13.801-5.27-27.172-11.44-39.383-4.01-7.938-9.2-16.047-10.37-25.047-1.46-11.301 2.76-20.93 8.86-30.242 0.12-0.18 0.43-0.02 0.3 0.191-7.03 11.777-10.63 23.59-5.92 36.899 3.63 10.281 10.13 19.429 14.17 29.57 7.53 18.93 9.59 43.91 1.5 63.48 7.91-9.832 14.56-20.109 19.44-28.05 10.85-17.629 15.73-36.29 17.06-56.782 0.94-14.398 3.65-26.437 15.76-35.406 0.02-0.012 0.05 0.008 0.02 0.027-16.13 13.289-13.2 34.961-15.81 53.661z"/>
  </clipPath>
  <linearGradient id="linearGradient930" gradientUnits="userSpaceOnUse" gradientTransform="matrix(66.418 35.902 35.902 -66.418 3392.2 821.43)">
   <stop stop-color="#88351e" offset="0"/>
   <stop stop-color="#6f2417" offset="1"/>
  </linearGradient>
  <clipPath id="clipPath946" clipPathUnits="userSpaceOnUse">
   <path d="m3930.4 495.43s52.37-26.18 110.17-22.91c57.8 3.281 75.25 20.742 76.34 28.371 1.1 7.64-39.26 10.898-71.97 10.898-32.73 0-65.44 2.191-114.54-16.359z"/>
  </clipPath>
  <radialGradient id="radialGradient952" gradientUnits="userSpaceOnUse" cy="0" cx="0" gradientTransform="matrix(93.249 0 0 -93.249 4029 481.97)" r="1">
   <stop stop-color="#f79182" offset="0"/>
   <stop stop-color="#f14b48" offset="1"/>
  </radialGradient>
  <clipPath id="clipPath966" clipPathUnits="userSpaceOnUse">
   <path d="m3601 1014.6s56.72 41.47 113.44 39.27c56.71-2.18 111.26-37.08 137.44-41.44 26.16-4.37 67.62 6.54 74.17 23.99 0 0-56.73 6.54-109.08 19.64-52.37 13.08-157.06 32.72-215.97-41.46z"/>
  </clipPath>
  <linearGradient id="linearGradient972" gradientUnits="userSpaceOnUse" gradientTransform="matrix(0 -24.596 -24.596 0 3763.5 1061.3)">
   <stop stop-color="#3e1d16" offset="0"/>
   <stop stop-color="#291512" offset="1"/>
  </linearGradient>
  <clipPath id="clipPath982" clipPathUnits="userSpaceOnUse">
   <path d="m4349.2 1014.6s-39.21 41.47-78.42 39.27c-39.2-2.18-76.9-37.08-95-41.44-18.1-4.37-46.74 6.54-51.28 23.99 0 0 39.2 6.54 75.42 19.64 36.18 13.08 108.56 32.72 149.28-41.46z"/>
  </clipPath>
  <linearGradient id="linearGradient988" gradientUnits="userSpaceOnUse" gradientTransform="matrix(0 -24.596 17.003 0 4236.9 1061.3)">
   <stop stop-color="#3e1d16" offset="0"/>
   <stop stop-color="#291512" offset="1"/>
  </linearGradient>
  <clipPath id="clipPath998" clipPathUnits="userSpaceOnUse">
   <path d="m3658.3 942.56c22.94 14.73 52.07 22.921 78.92 26.281 27.86 3.473 53.96 0.211 81.21-5.469 0.57-0.109 1.03 0.75 0.42 1.008-24.78 10.59-55.14 12.101-81.63 9.211-29.55-3.219-55.25-13.238-79.02-30.871-0.09-0.059 0-0.219 0.1-0.16z"/>
  </clipPath>
  <linearGradient id="linearGradient1004" gradientUnits="userSpaceOnUse" gradientTransform="matrix(0 -36.137 -36.137 0 3738.7 1066.8)">
   <stop stop-color="#531e18" offset="0"/>
   <stop stop-color="#381614" offset="1"/>
  </linearGradient>
  <clipPath id="clipPath1014" clipPathUnits="userSpaceOnUse">
   <path d="m4163.9 965.3c19.86 8.097 42.4 11.148 63.74 10 10.85-0.571 21.6-2.879 31.82-6.551 11.66-4.168 20.3-10.828 29.8-18.469 0.63-0.5 1.73 0.149 1.2 0.93-12.51 18.16-37.61 25.641-58.35 27.84-23.71 2.531-47.41-2.199-68.42-13.27-0.27-0.129-0.08-0.621 0.21-0.48z"/>
  </clipPath>
  <linearGradient id="linearGradient1020" gradientUnits="userSpaceOnUse" gradientTransform="matrix(0 -33.102 -33.102 0 4227.1 1063.9)">
   <stop stop-color="#531e18" offset="0"/>
   <stop stop-color="#381614" offset="1"/>
  </linearGradient>
  <clipPath id="clipPath1034" clipPathUnits="userSpaceOnUse">
   <path d="m3798.4 920.88c-1.15 7.98-4.25 15.184-8.77 21.203-24.55 5.898-50.7 5.398-75.02-1.523-6.35-9.219-9.42-20.719-7.72-32.688 2.89-20.351 18.62-35.68 37.84-39.019 2.33-0.27 4.66-0.473 7-0.629 2.45-0.051 4.93 0.047 7.41 0.398 25.28 3.578 42.86 26.981 39.26 52.258z"/>
  </clipPath>
  <linearGradient id="linearGradient1040" gradientUnits="userSpaceOnUse" gradientTransform="matrix(-9.3304 65.605 65.611 9.3304 3757.6 879.14)">
   <stop stop-color="#321714" offset="0"/>
   <stop stop-color="#100f0d" offset="1"/>
  </linearGradient>
  <clipPath id="clipPath1050" clipPathUnits="userSpaceOnUse">
   <path d="m3712.1 908.62c3.17-22.359 23.88-37.91 46.25-34.742 22.37 3.191 37.9 23.91 34.73 46.262-1.34 9.429-5.82 17.621-12.21 23.73-19.04 3.371-38.79 3.031-57.69-1.129-8.43-8.762-12.94-21.14-11.08-34.121z"/>
  </clipPath>
  <linearGradient id="linearGradient1058" gradientUnits="userSpaceOnUse" gradientTransform="matrix(-9.3304 65.604 65.611 9.3304 3757.6 879.14)">
   <stop stop-color="#5f1f17" offset="0"/>
   <stop stop-color="#5f1f17" offset=".0057804"/>
   <stop stop-color="#211212" offset="1"/>
  </linearGradient>
  <clipPath id="clipPath1070" clipPathUnits="userSpaceOnUse">
   <path d="m3769.5 916.78c1.32-9.32-5.16-17.941-14.48-19.281-9.32-1.32-17.95 5.16-19.27 14.48-1.33 9.321 5.15 17.969 14.48 19.282 9.32 1.32 17.94-5.153 19.27-14.481z"/>
  </clipPath>
  <linearGradient id="linearGradient1076" gradientUnits="userSpaceOnUse" gradientTransform="matrix(2.4185 -17.005 -17.007 -2.4185 3753 911.55)">
   <stop stop-color="#100f0d" offset="0"/>
   <stop stop-color="#6f6c67" offset="1"/>
  </linearGradient>
  <clipPath id="clipPath1098" clipPathUnits="userSpaceOnUse">
   <path d="m4241.8 921.24c-0.65 11.063-5.16 20.981-12.11 28.551-26.67 3.672-54.73-2.617-78.46-18.629-1.38-4.871-2.03-10.008-1.71-15.34 1.28-22.07 17.87-39.57 38.82-42.91 3.4-0.301 6.8-0.461 10.18-0.508 25.41 1.578 44.77 23.418 43.28 48.836z"/>
  </clipPath>
  <linearGradient id="linearGradient1104" gradientUnits="userSpaceOnUse" gradientTransform="matrix(-3.89 66.157 66.157 3.89 4197.8 882.99)">
   <stop stop-color="#321714" offset="0"/>
   <stop stop-color="#100f0d" offset="1"/>
  </linearGradient>
  <clipPath id="clipPath1114" clipPathUnits="userSpaceOnUse">
   <path d="m4198.1 877.7c22.56 1.321 39.78 20.68 38.45 43.223-0.72 12.18-6.72 22.758-15.59 29.75-21.25 1.168-42.98-3.871-62.38-14.961-2.74-5.941-4.1-12.602-3.69-19.582 1.32-22.547 20.67-39.77 43.21-38.43z"/>
  </clipPath>
  <linearGradient id="linearGradient1122" gradientUnits="userSpaceOnUse" gradientTransform="matrix(-3.8897 66.151 66.151 3.8897 4197.8 883)">
   <stop stop-color="#5f1f17" offset="0"/>
   <stop stop-color="#5f1f17" offset=".0057804"/>
   <stop stop-color="#211212" offset="1"/>
  </linearGradient>
  <clipPath id="clipPath1134" clipPathUnits="userSpaceOnUse">
   <path d="m4212.7 919.52c0.56-9.391-6.62-17.461-16.03-18.008-9.39-0.563-17.46 6.617-18 16.019-0.57 9.391 6.61 17.457 16.01 18.02 9.4 0.551 17.46-6.629 18.02-16.031z"/>
  </clipPath>
  <linearGradient id="linearGradient1140" gradientUnits="userSpaceOnUse" gradientTransform="matrix(1.0086 -17.153 -17.153 -1.0086 4195.8 915.66)">
   <stop stop-color="#100f0d" offset="0"/>
   <stop stop-color="#6f6c67" offset="1"/>
  </linearGradient>
 </defs>
 <metadata>
  <rdf:RDF>
   <cc:Work rdf:about="">
    <dc:format>image/svg+xml</dc:format>
    <dc:type rdf:resource="http://purl.org/dc/dcmitype/StillImage"/>
    <dc:title/>
   </cc:Work>
  </rdf:RDF>
 </metadata>
 <g transform="translate(0,-97)">
  <g stroke-width=".27561" transform="matrix(1.4626 0 0 -1.1202 -444.78 291.87)">
   <path d="m325.21 36.602c-1.541 4.2222-4.78 13.48-7.17 22.879-2.189 8.6058-3.504 23.261-4.127 31.866 1.634-7.8188 4.271-20.427 5.57-26.635 0.496-2.3629 1.155-5.2062 1.852-8.2133 1.618-6.9726 3.558-15.334 3.875-19.897zm27.572 31.645c0.113 0.0371 0.21 0.098 0.286 0.1773 0.726-1.5363 1.294-3.1922 1.845-4.798l0.296-0.8621 0.192-0.559c0.42-1.2262 0.854-2.4949 1.489-3.6969 0.019-0.034 0.038-0.068 0.057-0.1012 0.167-1.773 1.8-21.034-4.255-34.293-1.636-3.5809-3.897-6.493-6.736-8.6801 3.771 11.034 2.901 39.357 2.286 52.027 0.032-0.0007 0.066-0.0007 0.098-0.0007 1.349 0 2.842 0.266 4.442 0.7867zm82.704 16.519c-0.087 0.6051-0.177 1.2301-0.239 1.8379-0.22 2.1422-0.239 4.2242-0.056 6.1859 0.085 0.9133 0.262 1.8391 0.432 2.7364 0.257 1.3508 0.524 2.7488 0.5 4.1828-0.009 0.545-0.072 1.102-0.184 1.654-0.077 1.553-0.274 3.122-0.465 4.638-0.114 0.918-0.233 1.868-0.324 2.794l-0.068 0.695c-0.139 1.372-0.282 2.791-0.216 4.14 0.066 1.392 0.066 2.796 0.062 4.002-0.02 5.057-0.537 11.404-4.374 15.632-0.035 0.042-0.078 0.077-0.122 0.104l-0.088 0.176c0.041 0.131 0.042 0.277-0.006 0.417-0.335 0.954-0.787 1.88-1.223 2.776-0.13 0.264-0.259 0.527-0.383 0.79-0.713 1.502-1.403 2.822-2.11 4.037-1.662 2.855-3.492 4.873-5.59 6.171-0.077 0.048-0.193 0.081-0.283 0.081-0.083 0-0.159-0.019-0.228-0.051h-0.353c-0.251 0.8-0.771 1.633-1.548 2.483-0.33 0.362-0.743 0.681-1.26 0.977-0.186 0.107-0.366 0.171-0.526 0.23-0.262 0.092-0.393 0.143-0.479 0.282-0.99 1.566-2.404 2.814-3.785 3.928-1.602 1.293-3.403 2.417-5.355 3.338-1.862 0.881-3.394 1.292-4.818 1.292-0.147 0-0.293-0.005-0.441-0.013-0.048-0.002-0.093-0.011-0.136-0.025l-0.189 0.046c-0.023 0.032-0.049 0.062-0.079 0.089-1.011 0.935-2.515 1.54-3.831 1.54-0.711 0-1.359-0.177-1.893-0.512-2.05 1.103-4.482 1.811-7.232 2.108-0.657 0.072-1.303 0.107-1.923 0.107-2.344 0-4.335-0.508-5.913-1.511-0.047-0.03-0.089-0.066-0.123-0.107l-0.342-0.171c-0.037 0.007-0.075 0.01-0.116 0.01h-0.034c-0.814-0.044-1.885-0.112-3.001-0.26-2.208 0.948-4.99 2.242-7.451 3.388-1.337 0.622-2.611 1.215-3.716 1.715-1.155 0.528-3.434 0.841-6.093 0.841-5.471 0-33.362-1.696-45.181-35.156-5.608-15.87-6.892-34.555-3.814-55.534 2.792-19.036 8.483-34.566 10.801-40.359 6.381-15.952 1.8-26.565 1.752-26.668-0.075-0.16602-0.051-0.36016 0.061-0.50196 0.094-0.12109 0.237-0.19101 0.388-0.19101 0.027 0 0.055 0.0039 0.084 0.00898 1.288 0.22617 3.106 0.42383 5.406 0.58907l0.468 0.03398 0.044 0.00312 0.151 0.00977 0.346 0.02188 0.159 0.00898 0.197 0.01328 0.152 0.00977 0.132 0.00703 0.328 0.01914 0.12 0.00703 0.063 0.00391 0.067 0.0039 0.318 0.01524 0.146 0.00781 0.239 0.01328 0.047 0.00273 0.116 0.00586c0.276 0.01211 0.534 0.02539 0.766 0.03633 0.302 0.01172 0.561 0.02305 0.769 0.03203 9.925-0.36211 28.297-5.4723 28.496-5.5273 5.471-1.3566 11.392-2.0449 17.601-2.0449 13.591 0 24.174 3.3281 24.279 3.3633 0.024 0.00703 0.047 0.01562 0.07 0.02695 13.506 6.741 22.673 7.4707 22.764 7.4769 0.235 0.016 0.424 0.1961 0.451 0.4301 0.03 0.2328-0.111 0.4539-0.335 0.5258-10.505 3.4051-17.77 9.2992-21.602 17.524 1.289 0.1629 2.42 0.4848 3.435 0.975 2.922 1.4027 5.087 3.9457 6.989 6.4848 2.414 3.2172 4.478 6.7422 6.475 10.154l0.688 1.1703 0.634 1.0758c2.328 3.9562 4.736 8.0461 6.729 12.294 1.787 3.8059 3.11 7.3027 4.045 10.689 0.595 2.1539 1.189 4.6886 1.085 7.1718-0.042 1.0059-0.186 2.0168-0.327 2.993" fill="#100f0d"/>
   <g stroke-width=".27561">
    <g transform="scale(.1)">
     <g stroke-width=".27561" clip-path="url(#clipPath566)">
      <path d="m3256.3 340.54s-47.99 124.35-80.71 253.06c-32.72 128.7-45.81 388.31-45.81 388.31s50.18-239.96 69.79-333.77c19.65-93.809 65.46-263.97 56.73-307.6zm551.92 1256.5c-21.82 4.38-102.51 43.64-150.52 65.45-47.99 21.82-377.39 24.01-506.1-340.32-128.71-364.31 4.36-791.87 69.8-955.49 65.44-163.61 17.45-270.49 17.45-270.49 37.09 6.5315 106.9 8.7105 106.9 8.7105l91.62 17.45c71.99 80.718 37.08 606.46 37.08 606.46s355.59 863.87 333.77 868.23" fill="url(#linearGradient572)"/>
     </g>
    </g>
    <g transform="scale(.1)">
     <g stroke-width=".27561" clip-path="url(#clipPath582)">
      <path d="m3401.4 608.87c55.63-189.79 22.91-382.86 22.91-382.86-6.54 114.53-22.91 382.86-22.91 382.86zm-3.27 85.078c-42.53 189.78-75.26 441.75-75.26 441.75s-36-281.42-16.36-448.3c17.77-151.05 40.9-513.81 45.13-581.35l14.1 2.687c-4.43 92.391-13.01 264.41-19.96 359.41-9.82 134.18 6.54 284.7 6.54 284.7s58.96-400.34 40.87-638.88l27.84 5.312c46.53 184.07 17.85 392.87-22.9 574.67zm-104.7-591.77c14.95 1.082 28.96 1.789 38.73 2.23-14.8 337.3-104.19 589.54-104.19 589.54 60.33-252.8 65.18-528.25 65.46-591.77" fill="url(#linearGradient588)"/>
     </g>
    </g>
    <g transform="scale(.1)">
     <g stroke-width=".27561" clip-path="url(#clipPath598)">
      <path d="m4342.7 1132.4c2.18 61.07 2.18 148.35-41.46 196.32l-4.35 8.74c-19.64 41.45-48 109.07-89.44 135.26h-10.91c-6.55 17.44-19.63 34.89-37.09 37.07-19.63 34.91-95.99 89.44-139.61 87.26l-8.73 2.18c-15.27 10.91-39.26 19.63-52.36 6.55-37.09 21.81-109.07 34.91-148.35 10.9l-8.72-4.36c-30.53-4.36-85.08-8.72-100.34-39.27-32.72-8.72-56.72-26.16-80.71-47.99l-6.55-4.35c-15.27-2.19-28.36-8.73-32.72-24.01-26.18-10.91-71.99-32.72-74.17-63.26-21.82-13.08-50.18-34.9-54.53-61.07l-4.37-8.74c-19.64-13.09-37.08-32.72-34.91-56.71-21.82-21.82-19.63-50.17-19.63-78.54l2.18-6.55c-8.72-32.71-15.27-67.62-2.18-102.52-6.54-13.09-4.37-28.36 2.18-41.44l2.18-8.74c-6.55-28.35 2.19-63.26 8.73-89.43-4.37-15.281-2.19-32.73 2.18-48 0 0 39.27-91.609 65.44-100.35 26.18-8.719 122.18-4.367 150.52 13.094 28.37 17.449 67.62 71.988 85.08 113.42l642.45 30.551c0 54.531-12 91.611-9.81 143.98" fill="url(#linearGradient604)"/>
     </g>
    </g>
    <g transform="scale(.1)">
     <g stroke-width=".27561" clip-path="url(#clipPath614)">
      <path d="m3426.2 965.05c-9.69 10.64 1.68 14.91 0.42 21.16-1.9 9.488-8.57 18.479-11.65 28.359-8 25.69 6.55 34.58 9.37 56.77 1.93 15.11-9.81 34.65-12.75 49.59-2.61 13.23 1.19 23.22 4.36 35.43 4.47 17.21 5.92 13.94 2.25 32.79-5.19 26.54-5.99 60.74 5.51 85.68 6.27 13.58 16.61 21.99 26.83 32.17 3.34 3.33 10.56 4.8 13.13 8.09 3.35 4.27-0.48 9.45 1.97 13.72 8.7 15.17 10.19 29.14 18.04 45.77 12.63 26.74 33.97 42.06 57.93 59.43 15.32 11.12 21.26 22.17 33.11 34.25 11.91 12.16 28.46 18.35 42.05 27.88 31.21 21.89 61.43 62.26 103.78 62.01 6.84 26.41 43.68 26.11 65.92 27.91 9.56 0.78 19.58 2.93 30.44 1.82 21.32-2.19 19.31-0.25 37.58 6.54 37.37 13.88 83.95 3.32 120-10.98 9.5-3.76 21.1-14.86 29.91-16.51 7.43-1.4 21.13 4.01 30.16 3.48 24.31-1.42 48.33-7.91 66-27.38 14.04-15.5 22-38.59 37.52-50.7 6.71-5.25 15.31-5.74 23.51-10.8 10.67-6.6 13.25-18.61 22.41-25.75 13.02-10.2 30.21-10.71 44.72-24.96 21.97-21.6 38.29-49.11 58.42-72.58-18.96 40.52-44.68 92.34-79.74 114.51h-10.91c-6.55 17.44-19.63 34.89-37.09 37.07-19.63 34.91-95.99 89.44-139.61 87.26l-8.73 2.18c-15.27 10.91-39.26 19.63-52.36 6.55-37.09 21.81-109.07 34.91-148.35 10.9l-8.72-4.36c-30.53-4.36-85.08-8.72-100.34-39.27-32.72-8.72-56.72-26.16-80.71-47.99l-6.55-4.35c-15.27-2.19-28.36-8.73-32.72-24.01-26.18-10.91-71.99-32.72-74.17-63.26-21.82-13.08-50.18-34.9-54.53-61.07l-4.37-8.74c-19.64-13.09-37.08-32.72-34.91-56.71-21.82-21.82-19.63-50.17-19.63-78.54l2.18-6.55c-8.72-32.71-15.27-67.62-2.18-102.52-6.54-13.09-4.37-28.36 2.18-41.44l2.18-8.74c-6.55-28.35 2.19-63.26 8.73-89.43-4.37-15.281-2.19-32.73 2.18-48 0 0 21.92-51.121 43.91-80.64l-33.01 76.269c-0.86 13-7.28 29.223 6.33 37.692" fill="url(#linearGradient620)"/>
     </g>
    </g>
    <g transform="scale(.1)">
     <g stroke-width=".27561" clip-path="url(#clipPath630)">
      <path d="m4269 1133c24.08 8.25 49.01 10.92 74.12 12.61 0.04 1.52 0.08 3.05 0.12 4.59-25.73-1.47-51.95-3.84-75.54-14.09-1.78-0.77-0.52-3.74 1.3-3.11zm50.2 43.01c7.98-0.83 16.1-0.72 24.18 0.13-0.01 1.7-0.04 3.41-0.07 5.13-3.54-0.48-7.06-0.85-10.56-1.09-14.81-0.98-30.79 0.89-43.67 8.61-14.33 8.58-22.39 23.41-29.06 38.16-1.46 3.22-8.67 15.3-5.4 17.11 5.19 2.87 10.52 5.51 15.83 8.16 12 6 23.99 11.99 35.42 19.04 7.17 4.42 14.3 9.53 20.49 15.44-0.21 0.55-0.45 1.08-0.66 1.63-20.51-19.57-52.98-30.77-75.32-43.39-0.73-0.4-0.81-1.24-0.51-1.95 7.22-16.02 13.32-32.82 25.04-46.24 11.56-13.2 27.23-18.95 44.29-20.74zm-405.89 380.61c-28.85 20.24-66.06 38.34-86.63 67.49-1.27-0.41-2.52-0.86-3.74-1.32 18.23-26.7 51.1-45.07 76.94-62.48 25.7-17.31 48.1-38.39 67.24-62.76 20.39-25.93 36.23-55.28 51.47-84.43 0.88-1.68 3.35-0.19 2.54 1.49-26.23 54.68-57.26 106.53-107.82 142.01zm33.2-156.6c-26.57 17.81-55.85 32.97-84.85 46.43-29.99 13.93-61.03 23.3-93.32 30.12-33.14 7.01-67.72 8.39-99.91 19.59-19.25 6.69-37.33 16.04-55.85 24.36-0.26-0.07-0.51-0.1-0.75-0.13 17.9-8.17 35.38-17.37 53.78-24.48 31.91-12.34 65.11-17.17 98.45-23.85 32.78-6.59 64.37-16.6 94.93-30.19 29.59-13.15 56.83-30.5 85.86-44.71 1.9-0.92 3.44 1.67 1.66 2.86zm-75 5.75c-34.7 0.48-69.31 7.54-102.98 15.45-15.19 3.56-30.43 6.86-45.91 8.88-17.41 2.25-35.03 2.38-52.52 3.81-51.92 4.28-104.11 14.23-156.35 17.61-1.1-1.67-2.09-3.38-2.94-5.12 19.08-1.63 38.13-3.69 57.16-6.33 32.98-4.55 65.83-9.52 99.03-12.2 16.5-1.33 33.04-1.18 49.54-2.45 18.21-1.42 36.36-4.24 54.37-7.17 33.59-5.48 66.33-13.76 100.6-13.75 0.8 0 0.8 1.26 0 1.27zm-290.38-377.17c-53.47-18.39-109.17-34.408-166.32-30.279-4.27 0.32-8.53 0.808-12.76 1.39 0.49-2.222 1-4.429 1.52-6.582 2.25-0.296 4.51-0.629 6.77-0.867 58.6-5.902 118.45 11.058 171.48 34.698 0.93 0.41 0.26 1.97-0.69 1.64zm-3.09-108.78c-33.33-27.641-83.47-35.281-125.39-33.91-7.25 0.238-14.78 0.879-22.37 2.007 0.54-1.007 1.08-2.027 1.65-3.046 5.14-0.711 10.27-1.25 15.3-1.602 44.2-2.98 97.92 5.242 133.1 34.238 1.63 1.332-0.7 3.614-2.29 2.313zm-16.31 9.418c1.12 0.082 2.11 0.73 2.42 1.844 2.22 8.085 0.44 16.437 0.22 24.667-0.04 1.719-1.65 3.008-3.34 2.54-47.11-12.969-97.1-14.911-144.84-4.02-3.63 0.832-7.54 1.68-11.56 2.66 0.09-1.711 0.25-3.418 0.42-5.14 0.52-0.122 1.03-0.27 1.52-0.411 49.47-13.757 103.24-12.027 152.7 1 0.46-6.097 1.43-12.289 0.36-18.308-51.23-5.102-102.21 2.238-153.18 8.437 0.21-1.129 0.46-2.218 0.71-3.316 51.36-6.07 102.55-13.121 154.57-9.953zm-109.5 41.582c32.95-7.52 66.48-5.719 98.72 4.109 0.59 0.172 0.33 1.07-0.25 0.91-33.14-9.48-66.87-9.949-100.34-1.871-14.9 3.602-29.36 8.891-43.51 14.723-0.82 0.359-1.65 0.687-2.47 1.027 0.31-1.277 0.62-2.551 0.93-3.789 15.25-6.238 30.86-11.449 46.92-15.109zm107.32 60.099c1.52 0 1.52 2.35 0 2.35-37.88-0.03-75.68-0.47-113.4 3.84-11.63 1.33-32.15 3.66-50.33 9.51 0-0.73 0.02-1.46 0.04-2.18 13.84-4.41 28.46-6.69 38.5-8.18 41.49-6.12 83.4-5.39 125.19-5.34zm2.38 35.75c0.39 0.17 0.1 0.86-0.29 0.7-50.25-19.57-114.28-27-164.59-3.72-0.15-0.98-0.26-1.98-0.39-2.96 50.72-23.25 115.38-15.34 165.27 5.98zm712.17 252.61c8.96 3.7 16.85 9.15 25.41 13.01l-2.18 4.35c-3.97-1.59-7.9-3.49-11.86-5.62-6.73-3.64-13.24-7.62-20.82-9.26-8.12-1.76-15.35 1.79-21.88 6.19 12.1 3.58 22.65 9.25 32.87 17.01 4.41 3.34 8.71 6.73 13.09 10.02-0.46 1-0.92 1.99-1.4 2.98-15.52-11.21-30.18-23.51-49.88-27.18-1.55-0.3-1.97-2.44-0.91-3.46 10.62-10.36 23.73-13.76 37.56-8.04zm41.04-9.38c-0.64 1.09-1.33 2.17-2 3.23-5.09-3.83-11.06-6.55-16.97-8.64-17.29-6.13-35.77-5.99-53.81-4.64-1.81 0.14-2.2-2.81-0.42-3.17 21.95-4.32 53.78-1.69 73.2 13.22zm-71.71 44.43c6.92 12.46 13.41 28.48 26.61 35.6 0.47 0.25 0.95 0.4 1.42 0.6-0.46 0.87-0.91 1.74-1.37 2.61-0.08-0.03-0.15-0.05-0.23-0.09-7.21-3.28-12.18-9.46-16.58-15.86-3.15-4.56-5.79-9.45-8.4-14.31-2.63-4.95-2.95-7.07-9.24-6.08-4.45 0.72-8.71 2.55-12.17 5.45-1.04 0.87-2.54-0.59-1.49-1.49 5.72-4.97 12.96-6.64 20.38-7.04 0.42-0.03 0.88 0.24 1.07 0.61zm3.84 41.93c3.38 6.42 6.46 13.84 8.9 21.63-1.31 2.12-2.63 4.21-3.97 6.3-7.01-29.03-20.79-58.17-53.04-50.23-2.01 0.48-2.84-2.52-0.85-3.1 22.13-6.27 38.92 6.36 48.96 25.4zm-27.94 27.05c4.24 10.18 6.81 21.43 8.09 32.86-1.21 1.27-2.43 2.48-3.68 3.67-3.56-29.07-12.83-63.53-41.56-48.79-0.53 0.26-1.29 0.38-1.79 0-4.33-3.24-7.3-7.62-10.86-11.62-1.01-1.13 0.61-2.79 1.68-1.69 1.64 1.68 8.16 10.81 10.64 9.35 2.31-1.41 4.83-2.4 7.41-3.19 4.17-1.31 8.68-1.23 12.84 0.05 8.6 2.64 14 11.56 17.23 19.36zm-30.63 2.94c6.09 7.59 9.14 17.25 10.91 26.69 1.18 6.31 1.7 13.04 1.64 19.83h-4.7c-0.09 0.21-0.18 0.45-0.28 0.66-0.22-10.06-1.76-20.08-4.89-29.38-3.51-10.42-10.27-20.02-20.77-24.16-5.25-2.07-4.37-3.29-3.94-8.65 0.82-9.87-5.59-18.73-14.21-22.77-1.08-0.51-0.13-2.02 0.91-1.56 11.78 5.01 17.01 14.65 17 26.85 7.06 0.47 14.37 7.54 18.33 12.49zm-46.4 21.13c5.46 23.58 13.79 45.48 12.79 69.29-0.54 0.75-1.12 1.51-1.7 2.28 1.25-23.52-6.76-45.37-12.84-68.22-1.45-5.49-2.55-7.77-1.07-13.06 1.54-5.46 1.79-11.02 1.36-16.65-0.95-12.26-7.7-22.81-16.25-31.21-2.81-2.76 1.34-6.71 4.28-4.26 8.56 7.08 13.93 17.39 16.42 28.1 1.23 5.27 1.39 10.82 0.71 16.16-0.74 5.74-5.04 11.76-3.7 17.57zm-47.81 56.59c-0.11 16.02-2.75 31.54-7.13 46.93-2.9 10.15-6.74 20.19-11.44 29.84-1.8 0.94-3.61 1.85-5.42 2.72 12.11-23.03 19.24-48.65 19.74-74.69 0.36-18.46-1.62-36.74 11.16-51.81 3.34-3.93 0.57-7.37-0.89-11.97-1.54-4.92-2.97-9.86-4.5-14.78-3.93-12.61-9.37-22.29-20.08-30.56-1.23-0.93-0.09-3.05 1.25-2.14 20.3 14.07 24.24 35.45 32.66 57.04 0.35 0.9-0.06 2.13-0.72 2.76-13.66 12.86-14.51 29-14.63 46.66zm-35.1 7.69c-13.15 30.89-31.23 58.89-48.17 87.6l-0.1 0.02c-0.78 0.57-1.62 1.13-2.44 1.67 15.16-26.62 31.74-52.47 44.62-80.38 9.68-21.01 17.57-43.4 19.52-66.59 1.69-20.42-6.09-42.26-18.42-58.27-2.03-2.63 2.53-6.15 4.61-3.57 27.69 34.52 16.26 82.26 0.38 119.52zm-20.02-42.35c7.89-19.66 14.66-39.28 18.37-60.19 0.32-1.82 3.02-1.02 2.74 0.76-2.99 20.03-8.03 39.57-15.39 58.43-7.8 20.04-15.09 40.78-24.89 59.94-14.9 29.15-35.06 55.03-51.56 83.17-1.16-0.31-2.3-0.72-3.38-1.19 14.69-27.18 34.29-51.85 48.45-79.3 10.13-19.68 17.39-41.07 25.66-61.62zm-18.43-23.02c-2.96 11.41-3.94 23.21-6.08 34.78-2.24 12.12-5.59 23.99-9.54 35.63-11.3 33.37-29.06 64.91-51.79 92.01-1.3 0.68-2.63 1.35-3.97 2.01 24.57-29.28 43.47-63.36 55.34-99.64 7.26-22.21 8.76-44.99 13.68-67.64 4.14-19 13.73-35.83 23.13-52.64 1.57-2.79 5.87-0.26 4.27 2.49-9.97 17.05-20.03 33.74-25.04 53zm-124.56 109.96c-21.13 16.25-45.08 28.1-68.22 41.13-8.59 4.83-17.12 9.94-25.19 15.63l-1.28-0.64c-1.4-0.2-2.85-0.39-4.35-0.6 6.09-4.52 12.45-8.67 18.69-12.59 22.65-14.23 46.87-25.84 69.14-40.69 51-33.98 75.91-90.58 103.75-142.66 0.27-0.52 1.03-0.06 0.77 0.43-25.19 49.83-47.64 104.95-93.31 139.99zm49.12-100.37c-9.34 12.27-21.64 22.16-34.43 30.59-27.22 17.9-58.98 27.83-89 39.86-24.4 9.8-50.53 15.49-74.15 27.21-16.26 8.08-27.23 19.89-33.55 34.68-0.43-0.33-0.86-0.66-1.28-1 4.36-11.57 11.59-21.76 22.58-30.09 19.7-14.9 45.73-20.66 68.61-28.8 31.4-11.18 63.81-23.28 92.99-39.45 15.19-8.39 29.36-18.89 40.9-31.92 12.21-13.75 20.4-30.49 32.34-44.45 1.4-1.65 4.21 0.53 2.98 2.31-9.3 13.65-17.97 27.93-27.99 41.06zm-63.13 2.37c-11.67 8.74-24.63 15.09-37.37 22.06-13.69 7.51-27.09 15.56-40.5 23.6-12.53 7.52-25.13 14.93-37.91 21.98-12.48 6.88-25.57 12.52-37.97 19.52-12.26 6.94-19.88 16.28-27.36 27.66-0.97-0.24-1.89-0.54-2.83-0.8 6.63-10.06 13.86-19.56 24.11-26.32 11.67-7.72 24.77-13.12 36.81-20.2 13.48-7.9 26.62-16.34 39.88-24.62 13.26-8.31 26.54-16.61 40.05-24.51 12.6-7.4 25.81-13.55 38.56-20.66 5.59-3.11 11.74-5.87 17.02-9.44 6.3-4.31 12.26-9.09 18.39-13.6 11.71-8.67 23.82-16.74 36.52-23.89 0.6-0.32 1.13 0.57 0.54 0.94-23.97 14.28-45.71 31.63-67.94 48.28zm4.4-43.15c-32.7 2.08-64.16 12.12-95.55 20.76-15.49 4.26-30.33 9.54-46.17 12.5-15.8 2.94-31.44 5.74-46.98 9.91-39.57 10.63-77.77 26.91-117.17 38.29-1.92-0.81-3.94-1.66-6.03-2.58 41.82-12.6 82.17-30.08 124.38-41.97 31-8.73 63.45-9.89 94.28-19.02 30.63-9.06 61.06-19.07 93.24-20.37 1.61-0.08 1.58 2.37 0 2.48zm-34.89-13.87c-17.26-1.21-34.1-1.15-51.28 0.98-16.18 1.99-32.14 5.49-48.3 7.63-36.5 4.82-73.98 2.64-110.75 3.26-18.86 0.3-37.71 0.97-56.54 2.07-17.43 1.01-34.59 3.5-51.97 0.8-23.85-3.69-45.93-14.43-69.31-19.28-0.24-0.32-0.5-0.64-0.74-0.96 22.16 3.81 43.32 13.04 65.48 17.58 17.88 3.64 35.39 1.26 53.37 0.07 19.88-1.32 39.8-1.95 59.71-2.33 18.92-0.36 37.84-0.39 56.77-0.41 8.89-0.01 17.74-0.06 26.63-0.72 10.14-0.76 19.49-3.36 29.38-5.33 4.53-0.9 9.09-1.83 13.67-2.74-31.42-10.47-61.51-24.62-92.9-35.26-34.02-11.53-69.33-17.83-105.27-14.37-39.7 3.84-76.29 18.55-112.85 33.4-0.58-1.21-1.15-2.42-1.63-3.66 36.33-14.13 72.83-27.58 111.68-32.18 71.89-8.49 139.01 25.49 203.86 51.48 26.91-5.25 54.58-9.61 81.68-5.21 2.94 0.48 2.25 5.38-0.69 5.18zm-83.18-43.63c-50.05-30.79-112.92-20.08-168.7-20.89-31.24-0.45-60.86 2.14-91 10.85-14.18 4.11-28.03 9.31-41.7 14.9-5.4 2.2-10.74 4.62-16.07 7.08l-1.25-2.49c4.71-1.98 9.44-3.91 14.09-5.84 14.48-6.06 29.25-11.47 44.29-15.95 30.2-8.99 60.29-11.48 91.64-10.91 56.57 1.03 118.99-10.67 169.24 22.32 0.58 0.39 0.06 1.29-0.54 0.93zm-112.32-53.55c-1.26-1.52-2.23-3.07-2.86-5.26-0.27-0.94 0.18-1.82 0.96-2.37 1.89-1.27 7.48-1.62 8.41-3.35 0.83-1.57 3.56-0.48 2.92 1.23-0.52 1.35-0.83 1.63-2.02 2.5-4.07 2.97-8.99-0.4-2.39 6.49 0.9 0.91 0.85 2.73-0.42 3.34-40.88 19.64-85.59 8.57-128.85 7.39-23.97-0.66-45.96 3.52-68.36 11.9-13.23 4.97-26.16 10.74-39.26 16-0.11-0.13-0.2-0.26-0.29-0.39 32.4-13.27 63.58-29.11 99.54-30.9 44.52-2.21 90.19 12.53 132.62-6.58zm31.88-17.85c-54.04-2.03-108.05-10.22-161.7 0.59-25.54 5.17-50.84 15.16-75.41 23.68-12 4.16-24.04 8.66-36.19 12.82-0.56-1.98-0.98-3.99-1.27-6.04 12.04-3.9 24.07-7.81 36.06-11.85 26.24-8.88 52.27-15.44 79.41-20.76 52.42-10.26 106.3-2.67 159.1-0.54 1.35 0.06 1.35 2.15 0 2.1zm-26.18-52.66c-12.46 0.16-24.87-1.06-37.32-0.98-14.24 0.1-27.41 3.65-40.38 9.32-11.06 4.84-21.33 11.38-32.06 16.9-11.41 5.88-23.49 9.01-35.7 12.72-35.12 10.62-68.4 27.61-103.36 38.56 0.01-0.35 0.04-0.73 0.05-1.08 35.64-11.74 69.3-29.82 104.78-42.39 12.54-4.45 24.5-8.33 36.26-14.78 10.69-5.88 21-12.67 32.39-17.18 11.68-4.62 22.76-7.5 35.33-8.03 13.31-0.6 26.71 0.72 40.01 1.08 3.77 0.11 3.79 5.81 0 5.86zm-214.19-48.06c2.52-0.68 6.57-0.17 9.27-0.4 3.96-0.31 7.9-0.66 11.85-1.01 28.29-2.48 58.6-6.56 86.66-0.53 25.36 5.42 46.44 22.82 69.72 33.33 0.91 0.4 0.11 1.7-0.78 1.32-23.57-10.07-44.31-26.53-69.51-32.61-14.09-3.41-29.67-2.62-44.06-2.15-15.03 0.49-30.03 1.98-44.99 3.3-7.7 0.7-14.7 0.66-21.28 5.22-5.28 3.67-10.7 7.02-16.32 10.14-10.74 5.95-22.31 10.48-33.86 14.59-0.46-1.8-0.91-3.62-1.36-5.44 12.88-4.45 25.45-9.68 37.55-15.98 5.39-2.81 11.28-8.16 17.11-9.78zm42.98-25.05c25.64-0.56 51.8-0.66 77.41 0.86 2.7 0.16 5.99 3.98 8.48 5.38 5.34 3.03 11.45 4.53 17.4 5.73 10.81 2.14 22.06 1.97 33.02 1.97 2.2 0 2.2 3.42 0 3.42-19.04-0.01-39.46 0.03-56.08-10.54-4.56-2.89-9.03-2.38-14.36-2.4-6.9-0.04-13.8-0.12-20.69-0.18-13.05-0.12-26.11-0.17-39.16 0.07-25.84 0.5-50.87 2.55-75.59 10.43-11.08 3.54-22 7.47-33.06 10.9-0.14-0.97-0.29-1.94-0.41-2.93 10.83-3.85 21.53-8.11 32.37-11.93 23.18-8.15 46.24-10.25 70.67-10.78zm124.12 3.21c2 1.14 0.23 4.1-1.81 3.06-66.34-34.12-153.28-66.85-223.27-34.91 0.39-1.52 0.82-3.07 1.28-4.61 69.23-32.81 160.08 0.28 223.8 36.46zm18.73-45.15c-25.13-1.56-49.29-9.97-73.35-16.76-25.44-7.15-51.35-12.4-77.88-10.71-34.3 2.2-62.51 19.41-91.24 35.86 0.26-0.82 0.53-1.65 0.79-2.48 27.37-17.26 54.17-35.21 87.54-38.62 26.32-2.72 51.97 2.6 77.06 10.04 25.74 7.63 50.97 15.25 77.43 20.09 1.46 0.27 1.12 2.68-0.35 2.58" fill="url(#linearGradient636)"/>
     </g>
    </g>
    <g transform="scale(.1)">
     <g stroke-width=".27561" clip-path="url(#clipPath646)">
      <path d="m4346.6 1087.5c-1.56 16.15-3.66 32.9-2.87 49.05 0.64 13.24 0.67 26.51 0.62 39.77-0.21 52.12-5.83 112.66-42.48 153.06-0.74 0.82-1.92-0.38-1.21-1.22 36.64-41.87 41.15-103.35 41.84-156.47 0.39-29.06-3.4-57.87-0.94-86.85 2.74-32.2 6.98-64.09 9-96.381 0.17-2.527 3.8-2.539 3.95 0 1.78 33.131-4.72 66.171-7.91 99.041zm-63.72 285.67c-6.48 13.6-13.34 26.99-20.92 39.99-13.67 23.48-30.86 45.57-54.24 60.01-0.57 0.35-1.04-0.5-0.51-0.85 22.73-15.42 38.04-40.45 51.56-63.8 7.14-12.31 13.58-25.06 19.81-37.85 5.53-11.28 10.19-23.39 16.7-34.11 1.08-1.78 4.16-0.64 3.45 1.43-4.23 12.03-10.4 23.67-15.85 35.18zm-100.33 126c-3.27 3.58-7.22 6.45-11.39 8.83-4.34 2.47-9.03 2.37-11.78 6.75-9.41 14.88-23.21 27.14-36.78 38.09-16.06 12.97-33.9 23.95-52.57 32.77-15.5 7.34-32.78 13.4-50.17 12.31-1.06-0.06-1.08-1.67 0-1.66 26.76 0.2 55.62-14.84 76.82-30.08 22.32-16.04 46.58-33.27 60.68-57.58 0.41-0.73 1.26-1.25 2.11-1.21 19.02 0.67 28.18-22.03 35.95-35.3 0.79-1.3 2.71-0.42 2.39 1.01-2.12 9.71-8.65 18.85-15.26 26.07zm-223.99 109.27c-22.3 12.6-47.82 19.24-73.14 21.97-25.37 2.76-53.21 0.67-75.22-13.31-0.47-0.29-0.04-1.02 0.46-0.75 22.55 12.36 49.8 12.89 74.76 10.14 24.94-2.74 50.43-10.02 72.24-22.58 0.89-0.52 1.93-0.34 2.68 0.34 15.2 13.84 35.25 1.2 50.06-6.25 1.42-0.71 3.05 1.14 1.77 2.31-13.09 12.12-38.32 20.23-53.61 8.13zm-156.86 5.23c-29.2-1.57-65.99-5.09-89.62-24.06-2.82-2.25-5.36-4.66-7.71-7.42-1.92-2.23-3.46-6.6-6.21-7.75-9.83-4.14-19.79-7.09-29.33-12.04-18.19-9.45-33.86-22.82-48.67-36.8-0.65-0.62 0.3-1.55 0.98-0.98 15.28 13.24 31.46 25.41 49.48 34.7 9.09 4.69 18.78 8.37 28.67 10.99 6.35 1.68 8.59 8.86 13.57 13.43 23.22 21.35 60.22 20.68 89.19 27.37 1.43 0.33 1.13 2.64-0.35 2.56zm-187.6-92.4c-8.74-0.24-17.56-3.48-24.48-8.81-3.01-2.32-5.24-5.33-7.3-8.49-0.67-1.05-1.7-5.13-3.14-5.61-1.91-0.65-3.79-1.2-5.68-2.01-18.78-8.02-37.46-17.83-52.43-31.92-6.37-6.02-11.6-13.25-14.62-21.5-0.57-1.5-0.7-8.47-1.81-9.28-4.94-3.63-10.31-6.68-15.27-10.32-17.01-12.5-33.79-29.09-37.69-50.65-0.24-1.3 1.72-1.87 1.98-0.56 4.42 21.62 21.98 37.71 39.09 50.15 5.31 3.87 15.85 7.26 17.38 14.08 1.97 8.92 7.16 16.27 13.42 22.73 13.01 13.43 30.71 22.41 47.51 30.15 3.32 1.53 6.89 2.82 9.94 4.82 3.62 2.42 3.39 5.98 5.48 9.97 5.5 10.49 17.47 13.19 27.76 16.2 0.59 0.18 0.48 1.07-0.14 1.05zm-166.94-155.62c-10.39-4.78-19.45-14.86-26.1-23.93-3.42-4.64-5.9-9.85-7.88-15.24-1.09-2.96-1.65-6.07-2.12-9.15-0.64-4.21 0.7-9.9-2.36-13.42-18.12-20.71-16.31-49.87-15.79-75.49 0.02-1.11 1.69-1.11 1.72 0 0.19 11.87 0.05 23.78 1.26 35.6 0.66 6.42 2.03 12.69 4.03 18.84 2.32 7.07 7.53 18.71 14.72 21.99 0.74 0.33 1.23 1.32 1.21 2.11-0.44 11.96 3.06 22.29 9.81 32.08 6.6 9.56 16.09 15.18 24.26 23.03 1.97 1.89-0.53 4.59-2.76 3.58zm-51.55-287.95c0.23-0.46 0.89-0.05 0.68 0.4-4.52 10.13-10.46 30.56-0.98 39.7 0.54 0.53 0.8 1.4 0.56 2.14-5.59 17.33-7.57 34.79-6.39 52.97 1.08 16.58 6.39 32.51 7.8 48.96 0.11 1.3-1.93 1.88-2.48 0.68-10.01-21.76-12.54-49.73-10.46-73.33 0.55-6.29 1.76-12.47 3.31-18.57 0.77-3.03 1.78-5.98 2.84-8.92 1.64-4.56-0.6-8.28-1.17-12.54-1.5-11.23 1.26-21.48 6.29-31.49zm10.4-109.06c0.43 5.141 3.72 9.09 2.67 14.172-1.06 5.129-2.29 10.238-3.47 15.351-5.26 22.928-9.09 46.968-4.76 70.378 0.55 3-3.9 4.31-4.64 1.27-5.41-22.37-1.85-45.6 2.9-67.74 1.12-5.279 2.35-10.509 3.75-15.708 1.91-7.161 1.43-13.34 0.96-20.551-0.76-11.66 1.88-23.11 5.35-34.141 0.1-0.359 0.62-0.219 0.54 0.141-2.84 12.058-4.33 24.461-3.3 36.828" fill="url(#linearGradient652)"/>
     </g>
    </g>
    <g transform="scale(.1)">
     <g stroke-width=".27561" clip-path="url(#clipPath662)">
      <path d="m3329.4 104.94s137.69-6.5504 201.94 134.17c64.26 140.7 42.84 346.85 42.84 346.85l452.83-75.262s-58.13-274.88 244.79-373.04c0 0-91.8-6.531-229.49-75.25 0 0-204.99-65.449-416.12-13.102 0 0-198.88 55.632-296.79 55.632" fill="url(#linearGradient668)"/>
     </g>
    </g>
   </g>
   <path d="m435.2 96.391c1.309 5.89-1.31 7.854-1.964 9.324-0.654 1.474-0.654 7.364-1.8 14.4-1.144 7.035-6.053 13.417-6.053 13.417-0.654 0.163-1.963 2.289-1.963 2.289-1.309 0.164-2.292 1.801-2.292 1.801-1.307 0.326-2.29 1.308-2.617 1.962-0.327 0.655-1.308 0.982-1.308 0.982l-0.983-0.164c-0.98-0.163-1.8 0.491-1.8 0.491l-0.326 0.818c-0.655-0.163-2.455 0.328-2.455 0.328l-1.145 0.818-1.145-0.654-2.454-0.164-0.654 0.818-0.819-0.983c-0.981-0.655-2.944 0.82-2.944 0.82l-1.637 0.817-0.164-0.817-1.308-0.164-4.745 1.144 0.328-1.471-2.618 0.817c-0.983-0.655-4.909-0.981-4.909-0.981l0.654-0.654c-1.472-0.166-4.09-0.983-4.09-0.983-0.819-0.654-3.6-1.472-3.6-1.472-1.308-0.327-3.436-2.128-5.072-3.436-1.635-1.309-4.417-2.782-4.417-2.782s-1.799-1.963-2.29-2.454c-0.49-0.491-2.945-0.653-2.945-0.653l0.49-1.31c-0.654-1.636-3.271-4.09-4.089-4.909-0.818-0.817-0.982-1.635-0.982-1.635l0.982 0.163s-1.146-2.29-1.473-3.435c-0.327-1.147-1.309-2.128-1.309-2.128l1.8 0.164-1.146-1.308s-0.327-1.309-1.145-2.946c-0.817-1.636-3.272-2.619-3.272-2.619s-1.145-2.289-1.799-3.271c-0.655-0.982-2.455-1.636-2.455-1.636 0.654 0 1.964 0.327 1.964 0.327s-0.982-2.29-1.31-4.744c-0.327-2.4551-0.654-3.4371-0.654-3.4371s-0.163-0.9809 0-2.1258c0.163-1.1461-0.327-2.2922-0.327-2.2922v-2.9438c0-1.7992-1.309-1.7992-1.309-1.7992-0.818 0.3262-1.8 0.6531-2.781 1.1442l0.004-0.1891c-2.811 3.8609-8.583 8.6879-11.13 3.7879-2.127-4.0899 2.454-14.724 4.581-18.815 2.781-5.3992 6.871-6.5441 12.27-4.7441l-0.11 0.409 0.929-0.2457s0.982-1.9633 2.945-7.8531c1.964-5.8899 8.181-11.781 20.123-19.47 11.946-7.6902 18.469-9.698 28.469-9.4902 7.854 0.1652 12.763 9.9813 20.452 22.906 7.69 12.925 10.308 23.069 9.817 27.159-0.491 4.0911-1.31 8.1809 0 14.072" fill="#e68260"/>
   <g stroke-width=".27561">
    <g transform="scale(.1)">
     <g stroke-width=".27561" clip-path="url(#clipPath680)">
      <path d="m3741.7 796.35c-51.55 93.968-148.53 143.17-232.3 124.37v-25.532c0-17.992-13.09-17.992-13.09-17.992-8.18 3.262-18 6.531-27.81 11.442l0.04-1.891c-3.03 4.16-6.4 8.41-10.02 12.66-40.95-26.449-66.7-70.148-75.27-120.4 7.18-17.032 14.3-31.961 19.8-42.532 27.81-53.992 68.71-65.441 122.7-47.441l-1.1 4.09 9.29-2.457s9.82-19.633 29.45-78.531c12.53-37.59 42.42-75.192 93.41-117.46 10.19 3.121 20.15 7.222 29.74 12.468 90.75 49.801 115.46 179.28 55.16 289.2" fill="url(#radialGradient686)"/>
     </g>
    </g>
    <g transform="scale(.1)">
     <g stroke-width=".27561" clip-path="url(#clipPath696)">
      <path d="m4352 823.19c-4.37 36.368-11.27 72.739-3.59 121.73-53.96-22.301-106.27-85.859-132.93-169.96-31.36-98.891-17.44-195.02 29.48-238.33 2.92 4.941 5.87 9.922 8.87 14.973 76.9 129.25 103.08 230.69 98.17 271.59" fill="url(#radialGradient702)"/>
     </g>
    </g>
    <g transform="scale(.1)">
     <g stroke-width=".27561" clip-path="url(#clipPath712)">
      <path d="m4324.2 720.12c-12.6-25.12-83-175.63-115.1-244.17 14.04 23.512 28.76 48.91 44.67 75.653 63.04 105.97 91.98 193.2 97.66 243.75-6.16-26.032-16.71-54.051-27.31-75.231zm-732.98-45.812c-55.62 75.273-81.8 229.06-81.8 229.06v-8.18c0-17.992-13.09-17.992-13.09-17.992-6.23 2.481-13.41 4.981-20.81 8.199 8.91-21.046 43.29-104.9 40.44-139.09-3.27-39.27-29.45-62.168-29.45-62.168s0.16-1.032 0.43-2.891c12.08 0.52 25.04 3.191 38.83 7.789l-1.1 4.09 9.29-2.457s9.82-19.633 29.45-78.531c19.64-58.899 81.81-117.81 201.23-194.7 17.34-11.16 33.49-21.089 48.82-29.953-1 0.711-1.96 1.414-3.01 2.133-140.69 98.168-163.6 209.43-219.23 284.69" fill="url(#linearGradient718)"/>
     </g>
    </g>
    <g transform="scale(.1)">
     <g stroke-width=".27561" clip-path="url(#clipPath728)">
      <path d="m4155.1 595.8c0-40.969-52.74-74.18-117.8-74.18-65.08 0-117.81 33.211-117.81 74.18 0 40.941 52.73 74.16 117.81 74.16 65.06 0 117.8-33.219 117.8-74.16" fill="url(#radialGradient734)"/>
     </g>
    </g>
    <g transform="scale(.1)">
     <g stroke-width=".27561" clip-path="url(#clipPath744)">
      <path d="m3703.5 1064.8s10.9 233.43 102.52 292.32c91.63 58.9 340.32 63.28 431.94-30.52 0 0 71.99-78.55 71.99-235.61l-2.18-54.54s-85.08-34.9-95.99-34.9-388.3-8.73-388.3-8.73l-119.98 71.98" fill="url(#linearGradient750)"/>
     </g>
    </g>
    <g transform="scale(.1)">
     <g stroke-width=".27561" clip-path="url(#clipPath760)">
      <path d="m4314.3 1201.2c-11.44 70.35-60.53 134.17-60.53 134.17-6.54 1.63-19.63 22.89-19.63 22.89-13.09 1.64-22.92 18.01-22.92 18.01-13.07 3.26-22.9 13.08-26.17 19.62-3.27 6.55-13.08 9.82-13.08 9.82l-9.83-1.64c-9.8-1.63-18 4.91-18 4.91l-3.26 8.18c-6.55-1.63-24.55 3.28-24.55 3.28l-11.45 8.18-11.45-6.54-24.54-1.64-6.54 8.18-8.19-9.83c-9.81-6.55-29.44 8.2-29.44 8.2l-16.37 8.17-1.64-8.17-13.08-1.64-47.45 11.44 3.28-14.71-26.18 8.17c-9.83-6.55-49.09-9.81-49.09-9.81l6.54-6.54c-14.72-1.66-40.9-9.83-40.9-9.83-8.19-6.54-36-14.72-36-14.72-13.08-3.27-34.36-21.28-50.72-34.36-16.35-13.09-44.17-27.82-44.17-27.82s-17.99-19.63-22.9-24.54c-4.9-4.91-29.45-6.53-29.45-6.53l4.9-13.1c-6.54-16.36-32.71-40.9-40.89-49.09-8.18-8.17-9.82-16.35-9.82-16.35l9.82 1.63s-11.46-22.9-14.73-34.35c-3.27-11.47-13.09-21.28-13.09-21.28l18 1.64-11.46-13.08s-3.27-13.09-11.45-29.46c-8.17-16.36-32.72-26.19-32.72-26.19s-11.45-22.89-17.99-32.71c-6.55-9.82-24.55-16.36-24.55-16.36 6.54 0 19.64 3.27 19.64 3.27s-9.82-22.9-13.1-47.44c-3.27-24.551-6.54-34.371-6.54-34.371s-1.58-9.489-0.07-20.7c26.97-6.617 59.62-10.41 70.96-14.187 13.1-4.371 39.27 2.18 39.27 2.18l-24 78.518s58.89 69.81 82.9 133.08c24.01 63.26 52.36 202.88 150.51 237.77 98.18 34.93 331.6 37.09 410.13-47.98 0 0 54.54-76.35 63.27-157.07 8.72-80.71 13.09-137.44 13.09-137.44s21.05-27.35 36.83-45.531c-1.04 33.761-18.08 48.231-23.2 59.701-6.54 14.74-6.54 73.64-18 144" fill="url(#linearGradient766)"/>
     </g>
    </g>
    <g transform="scale(.1)">
     <g stroke-width=".27561" clip-path="url(#clipPath776)">
      <path d="m3607.5 933.92s-45.81 65.437 34.91 115.61c0 0 85.07 26.18 143.97 2.18 58.91-23.99 137.43-17.44 137.43-17.44s10.91-115.62-52.34-143.99l-263.97 43.641" fill="url(#linearGradient782)"/>
     </g>
    </g>
    <g transform="scale(.1)">
     <g stroke-width=".27561" clip-path="url(#clipPath792)">
      <path d="m4113.6 894.64s-21.82 98.172 13.08 139.63l41.46-6.55 54.54 26.17s61.07 8.72 76.35 2.19c15.26-6.55 45.8-37.09 45.8-37.09s15.27-76.349-28.35-91.631l-78.54-23.988s-45.81-4.351-52.35-6.551l-71.99-2.179" fill="url(#linearGradient798)"/>
     </g>
    </g>
    <g transform="scale(.1)">
     <g stroke-width=".27561" clip-path="url(#clipPath808)">
      <path d="m3933.7 673.22s28.36 14.179 53.43 9.816c25.09-4.367 70.9-31.637 106.9-2.187 0 0 17.44 4.359 25.09-10.891 0 0-8.73-21.82-21.81-24.012 0 0-18.56-40.359-63.28-40.359-44.71 0-90.53 44.73-90.53 44.73s-10.91 9.809-9.8 22.903" fill="url(#linearGradient814)"/>
     </g>
    </g>
    <g transform="scale(.1)">
     <g stroke-width=".27561" clip-path="url(#clipPath824)">
      <path d="m4055.8 681.95s-49.1 2.192-50.16 49.09c-1.11 46.891 2.17 148.33 2.17 148.33l56.72-2.172s3.27-81.808 7.63-102.54c4.37-20.719 54.54-92.711-16.36-92.711" fill="url(#linearGradient830)"/>
     </g>
    </g>
   </g>
   <path d="m400.24 74.303s4.799 2.1821 7.963 0.7629l-0.219 1.2s-4.91 1.2-8.508-0.9808l0.764-0.9821" fill="#e68260"/>
   <g stroke-width=".27561">
    <g transform="scale(.1)">
     <g stroke-width=".27561" clip-path="url(#clipPath842)">
      <path d="m4121.3 699.4s-22.91 23.989-27.26 31.637c-4.37 7.633-18.55 43.621-15.28 83.973l2.19 15.289s45.81-50.192 54.53-68.719c8.72-18.551 3.28-55.633-10.89-72l-3.29 9.82" fill="url(#linearGradient848)"/>
     </g>
    </g>
    <g transform="scale(.1)">
     <g stroke-width=".27561" clip-path="url(#clipPath858)">
      <path d="m3934.8 702.68s14.16 9.808 28.34 26.172c14.19 16.367 28.37 71.988 28.37 88.347 0 16.364-30.54 29.449-33.82 26.18-3.28-3.258-54.54-58.887-58.9-78.52-4.35-19.64 3.28-44.738 33.81-80.718l2.2 18.539" fill="url(#linearGradient864)"/>
     </g>
    </g>
    <g transform="scale(.1)">
     <g stroke-width=".27561" clip-path="url(#clipPath874)">
      <path d="m3488.1 770.84c-18 13.09-13.1 32.73-16.37 50.73-3.26 26.172-17.99 47.45-34.35 68.711-16.36 19.641-44.18 49.09-71.99 29.449 0 0 6.55-92.71 28.36-129.8 21.82-37.078 41.45-63.258 50.18-67.617 8.73-4.383 15.27 8.726 28.35 17.449 13.09 8.73 15.82 31.078 15.82 31.078" fill="url(#linearGradient880)"/>
     </g>
    </g>
    <g transform="scale(.1)">
     <g stroke-width=".27561" clip-path="url(#clipPath890)">
      <path d="m3471.7 821.57c-3.26 26.172-17.99 47.45-34.35 68.711-16.36 19.641-44.18 49.09-71.99 29.449 0 0 65.44-38.167 63.27-62.171-2.18-23.996-8.74-52.348-8.74-52.348s19.64 23.98 19.64 45.809c0 0 21.82-48 24-61.09 1.66-9.969 9.69-24.989 22.09-29.641 1.87 5.891 2.45 10.551 2.45 10.551-18 13.09-13.1 32.73-16.37 50.73" fill="url(#linearGradient896)"/>
     </g>
    </g>
   </g>
   <path d="m408.53 66.532-0.982-0.7379-0.491-0.4082c2.291-0.3269 2.537 1.1461 2.537 1.1461zm-11.78 0.2461c1.391-2.1289 3.6-0.5742 3.6-0.5742-1.147 0.6551-3.6 0.5742-3.6 0.5742" fill="#100f0d"/>
   <g stroke-width=".27561" transform="scale(.1)">
    <g stroke-width=".27561" clip-path="url(#clipPath908)">
     <path d="m4116.9 723.74c-0.38 0.653-1.43 0.211-1.21-0.508 4-13.988 8.19-26.429 5.93-41.23-2.24-14.801-11.73-27.898-23.53-36.738-0.43-0.34-0.03-1.114 0.47-0.77 13.29 8.43 22.77 18.719 26.35 34.418 3.26 14.231-0.65 32.422-8.01 44.828zm-11.47-59.929c-4.59 2.683-10.35 4.082-15.73 3.32 8.15 9.281 13.48 21.32 14.4 33.351 0.07 1-1.41 1.149-1.69 0.25-5.22-17.628-13.18-31.558-29.16-41.41-13.36-8.23-31.48-11.269-46.91-9.332-0.24 0.032-0.29-0.379-0.06-0.429 18.01-4.09 34.86-2.618 50.91 7.023 2.75 1.66 5.35 3.609 7.78 5.77 2.04 0.546 4.02 1.328 6.09 1.789 4.66 1.039 9.11-0.012 13.26-2.219 1.24-0.684 2.33 1.168 1.11 1.887zm-4.78 41.589c0.04-1.238 1.94-1.238 1.91 0-0.47 16.704-9.4 30.403-15.54 45.434-6.41 15.77-4.78 33.109-8.05 49.547-0.06 0.312-0.57 0.223-0.56-0.078 0.5-15.059 0.63-30.699 4.9-45.27 5.03-17.109 16.73-31.16 17.34-49.633zm-153.07-43.777c-0.51-0.289-0.06-1.051 0.45-0.781 23.17 11.973 49.52 3.57 71.35-6.891 0.8-0.398 1.8 0.66 1.01 1.332-20.47 17.188-49.91 19.16-72.81 6.34zm-13.72 15.078c-1.64 15.5 3.15 31.973 7.56 46.653 0.07 0.211-0.24 0.289-0.31 0.078-6.33-16.11-13.99-32.778-11.33-50.508 2.67-17.813 19.21-26.922 34.34-33.121 0.17-0.082 0.31 0.219 0.13 0.301-15.51 7.187-28.5 18.789-30.39 36.597" fill="url(#linearGradient914)"/>
    </g>
   </g>
   <g stroke-width=".27561" transform="scale(.1)">
    <g stroke-width=".27561" clip-path="url(#clipPath924)">
     <path d="m3458.7 772.07c-1.15 4.621-1 9.493 0.98 13.852 2.4 5.277 7.78 6.5 12.48 8.797 0.71 0.351 0.35 1.441-0.39 1.433-9.91-0.089-15.93-8.992-16.1-18.121-0.19-11.051 7.26-22.32 15.6-28.968 0.71-0.551 1.72 0.429 1.02 1.007-6.79 5.739-11.44 13.399-13.59 22zm13.64 52.45c-2.87 20.468-13.96 38.761-25.77 55.261-17.28 24.129-49.52 63.551-82.32 41.969-2.51-1.648-0.16-5.711 2.36-4.039 23.98 15.891 47.69-1.242 65.75-22.371 4.09-13.16 6.88-25.75 6.41-39.738-0.46-13.801-5.27-27.172-11.44-39.383-4.01-7.938-9.2-16.047-10.37-25.047-1.46-11.301 2.76-20.93 8.86-30.242 0.12-0.18 0.43-0.02 0.3 0.191-7.03 11.777-10.63 23.59-5.92 36.899 3.63 10.281 10.13 19.429 14.17 29.57 7.53 18.93 9.59 43.91 1.5 63.48 7.91-9.832 14.56-20.109 19.44-28.05 10.85-17.629 15.73-36.29 17.06-56.782 0.94-14.398 3.65-26.437 15.76-35.406 0.02-0.012 0.05 0.008 0.02 0.027-16.13 13.289-13.2 34.961-15.81 53.661" fill="url(#linearGradient930)"/>
    </g>
   </g>
   <g>
    <path d="m434.75 86.553c-0.214 2.091-0.251 4.1879-0.056 6.2801 0.216 2.307 0.967 4.5398 0.93 6.8688-0.022 1.338-0.362 2.644-0.98 3.83-0.418 0.799-1.084 1.502-1.402 2.35-0.443 1.183-0.443 2.6-0.556 3.844-0.407 4.419-0.6 9.017-1.86 13.293-0.891 3.021-2.336 5.884-4.014 8.54-0.409 0.648-0.838 1.285-1.294 1.899-0.103 0.141-0.112 0.121-0.29 0.218-0.576 0.317-1.001 1.059-1.361 1.582-0.107 0.154-0.25 0.528-0.417 0.625-0.264 0.153-0.628 0.182-0.912 0.35-0.363 0.215-0.664 0.535-0.937 0.851-0.093 0.108-0.302 0.56-0.46 0.605-1.019 0.292-1.925 0.896-2.503 1.796-0.271 0.425-0.918 1.239-1.523 1.139-0.895-0.151-1.675-0.269-2.497 0.213-0.283 0.167-0.347 0.6-0.464 0.893-0.016 0.037-0.044 0.057-0.085 0.049-0.763-0.137-1.617 0.12-2.356 0.309-0.403 0.105-0.849 0.585-1.19 0.828-0.02 0.014-0.05 0.013-0.071 0-0.357-0.204-0.714-0.408-1.073-0.613-0.245-0.14-0.741-0.079-1.025-0.096-0.471-0.032-0.943-0.065-1.414-0.095-0.121-0.008-0.535 0.64-0.657 0.793-0.024 0.028-0.076 0.027-0.099 0-0.267-0.321-0.534-0.641-0.802-0.962-0.513-0.615-1.923 0.209-2.414 0.502-0.684 0.408-1.383 0.766-2.099 1.125-0.038 0.018-0.093 0.006-0.101-0.041-0.024-0.128-0.165-0.777-0.119-0.771-0.331-0.04-0.661-0.082-0.991-0.124-0.43-0.053-0.815 0.09-1.238 0.194-1.261 0.302-2.523 0.608-3.785 0.913-0.054 0.012-0.096-0.033-0.083-0.084 0.076-0.349 0.154-0.696 0.231-1.044 0.019-0.085 0.039-0.17 0.057-0.255 0.005-0.024 0.008-0.04 0.012-0.057-0.081 0.028-0.163 0.052-0.244 0.077-0.751 0.235-1.502 0.469-2.252 0.704-0.154 0.047-0.561-0.235-0.729-0.29-0.547-0.178-1.122-0.276-1.688-0.372-0.834-0.141-1.679-0.242-2.521-0.314-0.057-0.005-0.091-0.071-0.048-0.116l0.572-0.571c0.028-0.028 0.043-0.043 0.052-0.05-0.022 0.019-0.079 0.063-0.115 0.058-0.683-0.099-1.353-0.256-2.023-0.427-0.546-0.137-1.088-0.292-1.628-0.453-0.336-0.1-0.592-0.3-0.906-0.462-0.927-0.47-1.952-0.791-2.947-1.088-1.313-0.392-2.436-1.334-3.501-2.165-1.351-1.056-2.663-2.102-4.134-2.993-0.623-0.377-1.52-0.674-2.019-1.215-0.694-0.757-1.384-1.517-2.1-2.252-0.634-0.655-2.111-0.643-2.963-0.703-0.039-0.002-0.079-0.04-0.063-0.083 0.179-0.478 0.587-1.087 0.358-1.564-0.457-0.944-1.21-1.757-1.91-2.524-0.994-1.091-2.687-2.213-3.029-3.73-0.011-0.051 0.031-0.089 0.08-0.08 0.164 0.028 0.327 0.055 0.49 0.081 0.121 0.021 0.242 0.041 0.362 0.062-0.252-0.51-0.493-1.023-0.723-1.54-0.606-1.353-0.922-2.801-1.992-3.895-0.035-0.036-0.013-0.114 0.046-0.109 0.548 0.049 1.098 0.1 1.646 0.151-0.053-0.061-0.105-0.121-0.158-0.181-0.258-0.295-0.515-0.591-0.773-0.885-0.292-0.334-0.348-0.897-0.496-1.308-0.486-1.351-1.053-2.483-2.216-3.354-0.526-0.394-1.117-0.715-1.719-0.979-0.29-0.126-0.445-0.729-0.58-0.987-0.457-0.88-0.895-1.878-1.553-2.626-0.542-0.618-1.423-1.039-2.185-1.323-0.063-0.024-0.058-0.127 0.017-0.124 0.388 0.014 0.767 0.078 1.148 0.148 0.217 0.041 0.432 0.089 0.647 0.138 0.027 0.005 0.049 0.012 0.065 0.016-0.32-0.782-0.578-1.59-0.804-2.402-0.392-1.406-0.519-2.855-0.79-4.2839-0.088-0.4711-0.257-0.9402-0.33-1.4133-0.191-1.2336 0.166-2.4519-0.098-3.6777-0.136-0.6281-0.228-0.9641-0.228-1.6219 0.001-1.1062 0.384-3.0082-0.762-3.6601-0.356-0.202-0.566-0.095-0.929 0.0441-0.779 0.2988-1.554 0.5949-2.305 0.959-0.022 0.0109-0.04 0.0058-0.057-0.0024-1.525 2.2692-3.487 4.3282-6.029 5.4321-1.135 0.4922-2.377 0.6562-3.528 0.1402-1.143-0.5129-1.853-1.8199-2.115-2.9891-0.656-2.921 0.375-6.2468 1.269-9.0019 0.967-2.984 2.216-5.891 3.647-8.6789 1.15-2.2402 2.719-4.2731 5.099-5.266 2.395-1.0012 5.07-0.616 7.462 0.1609 0.241 0.0789 0.137 0.4621-0.107 0.382-1.721-0.564-3.532-0.9378-5.352-0.7761-1.747 0.155-3.32 1.0429-4.551 2.2582-1.233 1.2136-2.034 2.7629-2.779 4.3047-0.706 1.4621-1.34 2.9562-1.935 4.4671-1.251 3.1762-2.44 6.6079-2.543 10.05-0.045 1.475 0.281 2.8961 1.327 3.984 1.146 1.1922 2.785 0.9641 4.154 0.3328 1.383-0.6367 2.571-1.6488 3.66-2.6968 1.037-0.9981 2.139-2.136 2.944-3.3321 0.047-0.0668 0.157-0.007 0.113 0.0661-0.201 0.3378-0.412 0.6769-0.631 1.0101 0.487-0.2332 0.981-0.443 1.484-0.6391 0.327-0.1289 0.903-0.482 1.251-0.4628 0.378 0.0199 0.783 0.2437 0.99 0.5609 0.578 0.8898 0.347 2.15 0.347 3.1527 0.001 0.3481 0.001 0.6953 0.001 1.0422 0 0.2949 0.207 0.6809 0.272 0.9731 0.244 1.1339-0.112 2.3 0.049 3.4519 0.066 0.4699 0.24 0.9469 0.331 1.4121 0.455 2.3079 0.702 4.5889 1.631 6.7769 0.021 0.05-0.013 0.107-0.071 0.094-0.276-0.07-0.554-0.127-0.833-0.184-0.24-0.047-0.483-0.083-0.726-0.11 0.683 0.294 1.338 0.674 1.87 1.197 0.616 0.607 0.997 1.564 1.396 2.316 0.164 0.308 0.462 1.173 0.711 1.28 1.667 0.708 2.866 1.78 3.604 3.437 0.199 0.443 0.371 0.901 0.53 1.361 0.063 0.183 0.104 0.609 0.231 0.753 0.377 0.433 0.755 0.864 1.132 1.296 0.034 0.037 0.015 0.113-0.045 0.11-0.517-0.047-1.032-0.095-1.548-0.141-0.054-0.004-0.093-0.013-0.124-0.024 0.033 0.026 0.073 0.058 0.12 0.113 0.272 0.306 0.502 0.645 0.715 0.996 0.492 0.813 0.711 1.831 1.095 2.7 0.245 0.56 0.508 1.112 0.78 1.658 0.026 0.054-0.017 0.105-0.074 0.094l-0.636-0.105c-0.314-0.053-0.283-0.18-0.22 0.029 0.273 0.895 1.005 1.523 1.648 2.16 1.184 1.172 2.44 2.411 3.232 3.896 0.232 0.434 0.044 0.63-0.127 1.085-0.078 0.208-0.129 0.507-0.267 0.498 0.231 0.017 0.462 0.041 0.692 0.066 0.623 0.068 1.251 0.161 1.846 0.363 0.467 0.156 0.767 0.58 1.092 0.927 0.697 0.741 1.287 1.568 2.178 2.062 1.571 0.872 3.065 1.833 4.463 2.959 1.408 1.134 2.864 2.463 4.626 2.999 0.598 0.184 1.19 0.386 1.774 0.608 0.302 0.113 0.598 0.239 0.89 0.373 0.265 0.12 0.543 0.371 0.812 0.455 1.313 0.405 2.663 0.796 4.028 0.964 0.055 0.008 0.093 0.071 0.048 0.116l-0.485 0.486c-0.031 0.031-0.053 0.053-0.067 0.069 0.19 0.017 0.383 0.035 0.575 0.056 0.972 0.105 1.942 0.242 2.895 0.454 0.391 0.086 0.775 0.198 1.139 0.362 0.257 0.117 0.435 0.001 0.723-0.088 0.675-0.21 1.35-0.422 2.026-0.634 0.052-0.016 0.095 0.036 0.084 0.084-0.077 0.348-0.155 0.696-0.231 1.043-0.025 0.107-0.047 0.213-0.072 0.319 0.015-0.003 0.032-0.007 0.055-0.012 0.763-0.185 1.525-0.368 2.289-0.552 0.729-0.178 1.458-0.353 2.188-0.529 0.433-0.105 0.993 0.08 1.431 0.135 0.03 0.004 0.061 0.019 0.067 0.051l0.138 0.69c0.004 0.018 0.005 0.034 0.005 0.047 0.088-0.044 0.174-0.087 0.261-0.131 0.416-0.208 0.931-0.379 1.306-0.656 0.662-0.489 2.015-1.354 2.871-0.882 0.374 0.205 0.634 0.667 0.903 0.993 0.007 0.005 0.009 0.011 0.013 0.016 0.005-0.009 0.01-0.017 0.018-0.03 0.087-0.108 0.174-0.216 0.259-0.324 0.077-0.095 0.232-0.391 0.359-0.426 0.32-0.088 0.837 0.052 1.165 0.073 0.413 0.028 0.924-0.02 1.327 0.09 0.367 0.102 0.757 0.431 1.088 0.619 0.116 0.067 0.91-0.606 1.127-0.762 0.283-0.202 0.87-0.218 1.2-0.279 0.297-0.055 0.597-0.089 0.901-0.104 0.377-0.019 0.328 0.117 0.478-0.258 0.156-0.389 0.164-0.501 0.515-0.707 0.716-0.42 1.43-0.331 2.206-0.202 0.491 0.082 0.768-0.111 1.197-0.444 0.298-0.232 0.42-0.603 0.653-0.887 0.284-0.349 0.605-0.641 0.968-0.906 0.349-0.258 0.746-0.432 1.151-0.579 0.282-0.101 0.282-0.154 0.463-0.398 0.4-0.543 0.898-1.006 1.503-1.306 0.184-0.09 0.498-0.07 0.602-0.235 0.135-0.215 0.278-0.425 0.421-0.633 0.34-0.493 0.724-1.083 1.22-1.43 0.526-0.369 0.846-0.935 1.214-1.49 0.897-1.349 1.704-2.76 2.432-4.21 0.998-1.99 1.802-4.078 2.337-6.239 0.61-2.462 0.836-5.042 1.094-7.56 0.199-1.92 0.339-3.846 0.541-5.766 0.096-0.926 0.143-1.981 0.566-2.828 0.424-0.853 1.05-1.586 1.466-2.45 0.755-1.57 0.873-3.3279 0.695-5.038-0.132-1.266-0.481-2.5032-0.674-3.7598-0.171-1.1051-0.261-2.2191-0.301-3.3359-0.07-2 0.113-3.9961 0.357-5.9801 0.162-1.316 0.414-2.6332 0.39-3.9613-0.02-1.1789-0.201-2.3547-0.425-3.5098-0.648-3.3469-1.795-6.5981-3.083-9.7449-1.864-4.5473-4.179-8.8871-6.685-13.109-2.444-4.1172-4.793-8.3024-7.433-12.302-1.983-3.0058-4.202-6.0828-7.197-8.1617-1.192-0.8289-2.529-1.4199-3.956-1.6961-1.681-0.3257-3.505-0.1851-5.205-0.109-3.497 0.1532-6.936 0.7809-10.249 1.911-3.979 1.357-7.702 3.391-11.29 5.557-4.249 2.5672-8.404 5.3442-12.318 8.3981-2.788 2.1738-5.474 4.5449-7.693 7.3078-0.853 1.0652-1.615 2.2031-2.252 3.4101-0.801 1.5172-1.266 3.1719-1.831 4.7832-0.63 1.7996-1.246 3.6578-2.096 5.37-0.048 0.0957-0.191 0.0117-0.144-0.084 0.965-1.9422 1.642-4.0602 2.35-6.102 0.495-1.4293 0.942-2.8433 1.649-4.184 0.62-1.175 1.386-2.2703 2.208-3.3093 2.2-2.7758 4.917-5.1297 7.694-7.3071 3.763-2.9527 7.771-5.6097 11.843-8.1129 6.451-3.9629 13.238-7.1328 20.872-7.7211 3.009-0.2328 6.229-0.4578 9.019 0.8832 2.819 1.3571 4.967 3.8852 6.808 6.3391 2.667 3.5578 4.882 7.452 7.131 11.279 2.574 4.3789 5.182 8.725 7.344 13.33 1.605 3.423 3.007 6.9621 4.014 10.611 0.623 2.259 1.165 4.6621 1.068 7.02-0.068 1.6019-0.401 3.2062-0.565 4.8011" fill="#7d3321"/>
    <path d="m385.19 53.688s7.853-5.6719 9.816-6.9809c1.964-1.309 11.562-3.2718 15.052 0.2172 3.49 3.4906 4.8 6.1098 7.199 7.4168l-7.635 0.4379s-6.98-0.6551-7.854-0.6551c-0.871 0-7.635-0.2168-7.635-0.2168l-8.943-0.2191" fill="#f14b48"/>
    <path d="m409.62 54.779s-6.98-0.6551-7.854-0.6551c-0.871 0-7.635-0.2168-7.635-0.2168l-8.943-0.2191s1.288-0.932 2.953-2.1258c4.347 0.1961 19.317 0.8098 26.283 0.307 0.919 1.0551 1.768 1.8918 2.831 2.4719zm-16.362-6.5449-0.207-0.1731c0.833-0.5867 1.531-1.0718 1.953-1.3539 1.964-1.309 11.562-3.2718 15.052 0.2172 1.037 1.0367 1.88 1.9957 2.617 2.8668-0.347-0.1988-0.712-0.4269-1.09-0.684-8.29-5.6718-18.325-0.873-18.325-0.873" fill="#d93c42"/>
   </g>
   <g stroke-width=".27561" transform="scale(.1)">
    <g stroke-width=".27561" clip-path="url(#clipPath946)">
     <path d="m3930.4 495.43s52.37-26.18 110.17-22.91c57.8 3.281 75.25 20.742 76.34 28.371 1.1 7.64-39.26 10.898-71.97 10.898-32.73 0-65.44 2.191-114.54-16.359" fill="url(#radialGradient952)"/>
    </g>
   </g>
   <path d="m414.42 54.56c-1.307 0-2.179 2.6179-4.58 2.8367-2.399 0.2183-4.581-0.8727-4.581-0.8727s-2.399 0.8727-4.582 1.091c-2.181 0.2168-5.235-1.7461-9.161-2.8363-3.928-1.091-9.382 0-9.382 0 6.546-3.273 13.09-1.5277 19.854-1.7449l0.701 0.032-0.266-0.032c1.516-0.9469 3.194-0.5789 4.751 0.248 4.636 0.327 8.663-1.0199 12.483 2.5871 0 0-3.926-1.3089-5.237-1.3089" fill="#d93c42"/>
   <path d="m419.57 55.95c-1.906-1.5199-3.825-2.277-6.257-2.4238-1.884-0.1121-3.752-0.0313-5.632-0.159 0.1 0.0687 0.198 0.1398 0.295 0.2148 0.143 0.1129-0.04 0.3-0.182 0.2352-1.645-0.7543-3.602-1.6973-5.358-0.7481-0.046 0.025-0.086-0.0421-0.041-0.0703 0.808-0.4949 1.723-0.8789 2.679-0.7117 0.871 0.1551 1.686 0.4781 2.421 0.9551 4.297 0.1019 8.91-0.9781 12.235 2.5476 0.099 0.1082-0.049 0.2473-0.16 0.1602zm-17.59-2.8129c-3.195 0.1789-6.385-0.1152-9.578-0.1769-3.568-0.07-6.991 0.3296-10.264 1.8359-0.024 0.0129-0.048-0.0231-0.022-0.0371 6.244-3.2348 13.156-1.8301 19.864-1.8301 0.134 0 0.132 0.2012 0 0.2082" fill="#a03222"/>
   <g stroke-width=".27561">
    <g transform="scale(.1)">
     <g stroke-width=".27561" clip-path="url(#clipPath966)">
      <path d="m3601 1014.6s56.72 41.47 113.44 39.27c56.71-2.18 111.26-37.08 137.44-41.44 26.16-4.37 67.62 6.54 74.17 23.99 0 0-56.73 6.54-109.08 19.64-52.37 13.08-157.06 32.72-215.97-41.46" fill="url(#linearGradient972)"/>
     </g>
    </g>
    <g transform="scale(.1)">
     <g stroke-width=".27561" clip-path="url(#clipPath982)">
      <path d="m4349.2 1014.6s-39.21 41.47-78.42 39.27c-39.2-2.18-76.9-37.08-95-41.44-18.1-4.37-46.74 6.54-51.28 23.99 0 0 39.2 6.54 75.42 19.64 36.18 13.08 108.56 32.72 149.28-41.46" fill="url(#linearGradient988)"/>
     </g>
    </g>
    <g transform="scale(.1)">
     <g stroke-width=".27561" clip-path="url(#clipPath998)">
      <path d="m3658.3 942.56c22.94 14.73 52.07 22.921 78.92 26.281 27.86 3.473 53.96 0.211 81.21-5.469 0.57-0.109 1.03 0.75 0.42 1.008-24.78 10.59-55.14 12.101-81.63 9.211-29.55-3.219-55.25-13.238-79.02-30.871-0.09-0.059 0-0.219 0.1-0.16" fill="url(#linearGradient1004)"/>
     </g>
    </g>
    <g transform="scale(.1)">
     <g stroke-width=".27561" clip-path="url(#clipPath1014)">
      <path d="m4163.9 965.3c19.86 8.097 42.4 11.148 63.74 10 10.85-0.571 21.6-2.879 31.82-6.551 11.66-4.168 20.3-10.828 29.8-18.469 0.63-0.5 1.73 0.149 1.2 0.93-12.51 18.16-37.61 25.641-58.35 27.84-23.71 2.531-47.41-2.199-68.42-13.27-0.27-0.129-0.08-0.621 0.21-0.48" fill="url(#linearGradient1020)"/>
     </g>
    </g>
   </g>
   <path d="m378.34 86.922s-7.02-2.5399-12.661 4.5902c0 0-2.761 0.0481-4.858 1.6238 0 0 3.61-0.5898 6.248 0.227 2.638 0.816 10.092 5.7312 17.816-2.0949l-6.545-4.3461" fill="#100f0d"/>
   <path d="m386.14 89.794c-4.602 5.625-13.462 6.35-19.134 2.0731l-0.385-0.3859 0.755-1.0504c4.462-4.652 10.339-4.1477 16.033-2.3469 0 0 1.195 0.5 1.666 0.6781 0.666 0.2488 1.613 0.2828 1.613 0.2828l-0.548 0.7492" fill="#fff"/>
   <g stroke-width=".27561" transform="scale(.1)">
    <g stroke-width=".27561" clip-path="url(#clipPath1034)">
     <path d="m3798.4 920.88c-1.15 7.98-4.25 15.184-8.77 21.203-24.55 5.898-50.7 5.398-75.02-1.523-6.35-9.219-9.42-20.719-7.72-32.688 2.89-20.351 18.62-35.68 37.84-39.019 2.33-0.27 4.66-0.473 7-0.629 2.45-0.051 4.93 0.047 7.41 0.398 25.28 3.578 42.86 26.981 39.26 52.258" fill="url(#linearGradient1040)"/>
    </g>
   </g>
   <g stroke-width=".27561" transform="scale(.1)">
    <g stroke-width=".27561" clip-path="url(#clipPath1050)">
     <path d="m3712.1 908.62c3.17-22.359 23.88-37.91 46.25-34.742 22.37 3.191 37.9 23.91 34.73 46.262-1.34 9.429-5.82 17.621-12.21 23.73-19.04 3.371-38.79 3.031-57.69-1.129-8.43-8.762-12.94-21.14-11.08-34.121" fill="url(#linearGradient1058)"/>
    </g>
   </g>
   <path d="m377.65 91.779c0.187-1.3207-0.731-2.5418-2.049-2.7309-1.319-0.1871-2.542 0.7321-2.73 2.0489-0.186 1.3203 0.731 2.5433 2.05 2.7312 1.319 0.1871 2.54-0.7301 2.729-2.0492" fill="#100f0d"/>
   <g stroke-width=".27561" transform="scale(.1)">
    <g stroke-width=".27561" clip-path="url(#clipPath1070)">
     <path d="m3769.5 916.78c1.32-9.32-5.16-17.941-14.48-19.281-9.32-1.32-17.95 5.16-19.27 14.48-1.33 9.321 5.15 17.969 14.48 19.282 9.32 1.32 17.94-5.153 19.27-14.481" fill="url(#linearGradient1076)"/>
    </g>
   </g>
   <path d="m375.96 93.563c0.076-0.5418-0.299-1.0418-0.839-1.1188-0.541-0.0769-1.041 0.2989-1.119 0.8399-0.076 0.539 0.299 1.0402 0.84 1.1172 0.54 0.0769 1.04-0.3 1.118-0.8383" fill="#fff"/>
   <path d="m376.06 89.17c0.039-0.2597-0.143-0.5019-0.403-0.539-0.261-0.0368-0.501 0.1441-0.539 0.405-0.037 0.2602 0.143 0.502 0.404 0.5383 0.261 0.0379 0.503-0.1433 0.538-0.4043" fill="#fff"/>
   <g fill="#100f0d">
    <path d="m367.02 91.857c2.923 1.9809 6.427 2.8809 9.943 2.5602 3.587-0.3274 6.729-2.0133 9.11-4.6813 0.079-0.0879 0.22 0.0211 0.145 0.1161-4.42 5.6949-13.697 6.4871-19.215 2.025-0.013-0.0098 0.002-0.0301 0.017-0.02"/>
    <path d="m367.36 90.416c4.285-4.514 10.571-4.209 16.064-2.3558 0.033 0.0121 0.01 0.0589-0.021 0.0507-2.727-0.7886-5.495-1.4238-8.35-1.2289-2.947 0.2-5.571 1.4961-7.654 3.5653-0.022 0.0207-0.06-0.0063-0.039-0.0313"/>
    <path d="m418.58 87.314s5.995-2.3153 10.88 4.973c0 0 2.367 0.132 4.175 1.7688 0 0-3.097-0.6989-5.35 0.032-2.254 0.732-8.6 5.4012-15.276-2.6449l5.571-4.1289"/>
   </g>
   <path d="m411.92 89.935c3.984 5.7527 11.581 6.7507 16.408 2.6617l0.326-0.3707-0.655-1.0699c-3.858-4.7825-8.888-4.4614-13.752-2.8422 0 0-1.02 0.4609-1.422 0.6238-0.568 0.2269-1.379 0.2332-1.379 0.2332l0.474 0.7641" fill="#fff"/>
   <g stroke-width=".27561" transform="scale(.1)">
    <g stroke-width=".27561" clip-path="url(#clipPath1098)">
     <path d="m4241.8 921.24c-0.65 11.063-5.16 20.981-12.11 28.551-26.67 3.672-54.73-2.617-78.46-18.629-1.38-4.871-2.03-10.008-1.71-15.34 1.28-22.07 17.87-39.57 38.82-42.91 3.4-0.301 6.8-0.461 10.18-0.508 25.41 1.578 44.77 23.418 43.28 48.836" fill="url(#linearGradient1104)"/>
    </g>
   </g>
   <g stroke-width=".27561" transform="scale(.1)">
    <g stroke-width=".27561" clip-path="url(#clipPath1114)">
     <path d="m4198.1 877.7c22.56 1.321 39.78 20.68 38.45 43.223-0.72 12.18-6.72 22.758-15.59 29.75-21.25 1.168-42.98-3.871-62.38-14.961-2.74-5.941-4.1-12.602-3.69-19.582 1.32-22.547 20.67-39.77 43.21-38.43" fill="url(#linearGradient1122)"/>
    </g>
   </g>
   <path d="m421.98 91.995c0.079-1.3301-0.938-2.473-2.268-2.5508-1.33-0.0781-2.472 0.936-2.55 2.2668-0.079 1.3313 0.937 2.4723 2.267 2.5512s2.473-0.9371 2.551-2.2672" fill="#100f0d"/>
   <g stroke-width=".27561" transform="scale(.1)">
    <g stroke-width=".27561" clip-path="url(#clipPath1134)">
     <path d="m4212.7 919.52c0.56-9.391-6.62-17.461-16.03-18.008-9.39-0.563-17.46 6.617-18 16.019-0.57 9.391 6.61 17.457 16.01 18.02 9.4 0.551 17.46-6.629 18.02-16.031" fill="url(#linearGradient1140)"/>
    </g>
   </g>
   <g>
    <path d="m420.44 93.911c0.031-0.5449-0.384-1.0129-0.929-1.0437-0.545-0.034-1.013 0.3828-1.045 0.9289-0.033 0.5449 0.383 1.0121 0.929 1.043 0.545 0.0328 1.013-0.3832 1.045-0.9282" fill="#fff"/>
    <path d="m420.18 89.526c0.017-0.2633-0.183-0.4883-0.447-0.5043-0.263-0.0149-0.488 0.1851-0.503 0.448-0.016 0.2621 0.184 0.4871 0.447 0.5031 0.264 0.0161 0.487-0.1839 0.503-0.4468" fill="#fff"/>
    <path d="m428.32 92.587c-2.489 1.8848-5.485 2.6738-8.499 2.243-3.075-0.436-5.778-2.2192-7.839-4.9531-0.067-0.0899-0.188 0.0152-0.124 0.1132 3.83 5.8168 11.782 6.895 16.474 2.618 0.012-0.0113-0.001-0.0293-0.012-0.0211" fill="#100f0d"/>
    <path d="m428.02 91.141c-3.707-4.6379-9.09-4.5289-13.778-2.8519-0.03 0.0101-0.009 0.0578 0.018 0.0488 2.327-0.7 4.694-1.2469 7.142-0.9641 2.527 0.2934 4.784 1.6672 6.584 3.7953 0.02 0.0231 0.052-0.0043 0.034-0.0281" fill="#100f0d"/>
   </g>
  </g>
 </g>
</svg>
