<?xml version="1.0" encoding="UTF-8" standalone="no"?>
<!-- Created with Inkscape (http://www.inkscape.org/) -->
<svg xmlns:rdf="http://www.w3.org/1999/02/22-rdf-syntax-ns#" xmlns="http://www.w3.org/2000/svg" height="200px" width="200px" version="1.1" xmlns:cc="http://creativecommons.org/ns#" xmlns:dc="http://purl.org/dc/elements/1.1/" viewBox="0 0 200 200">
 <defs>
  <clipPath id="clipPath8104" clipPathUnits="userSpaceOnUse">
   <path d="m2703 6561.8c-3.27 22.91-193.06 304.32-193.06 304.32s-111.26 45.81-199.61-114.53c-88.35-160.33-62.17-422.12-62.17-422.12-16.36-274.87-255.24-445.02-255.24-445.02 13.55 1.89 28.14 3.42 43.35 4.66 44.01 39.24 161.91 158.22 224.98 355.28 0 0-54.52-227.08-172.27-352.12 105.72 4.34 218.08-1.28 218.08-1.28l320.68 6.54c26.18 6.55 88.35 58.91 88.35 58.91l45.81 297.77s-55.63 284.69-58.9 307.59z"/>
  </clipPath>
  <linearGradient id="linearGradient8110" gradientUnits="userSpaceOnUse" gradientTransform="matrix(0 322.4 322.4 0 2377.4 6509.1)">
   <stop stop-color="#100f0d" offset="0"/>
   <stop stop-color="#1a2024" offset="1"/>
  </linearGradient>
  <clipPath id="clipPath8120" clipPathUnits="userSpaceOnUse">
   <path d="m2490.3 6273.9c-26.17-117.8-124.34-297.77-124.34-297.77s107.99 301.05 107.99 320.68c0 19.64-75.27 212.7-75.27 212.7-26.63-258.33-144.3-525.33-187.17-615.76 10.23-0.13 19.94-0.29 28.99-0.49 37.97 89.58 96.66 233.56 122.19 325.02 0 0-33.06-200.48-68.42-326.66 8.16-0.34 12.79-0.57 12.79-0.57l66.59 1.36c71.89 99.57 102.19 233.89 113.38 270.24 13.09 42.54 3.27 111.25 3.27 111.25zm-176.7 134.17s-6.54-209.43-94.89-454.84c0 0 111.25 251.96 121.08 402.49zm189.79-258.51c-4.4-50.54-45.68-177.82-72.33-255.98l69.78 1.43c14.25 117.98 2.55 254.55 2.55 254.55z"/>
  </clipPath>
  <linearGradient id="linearGradient8126" gradientUnits="userSpaceOnUse" gradientTransform="matrix(-114.53 -238.87 -238.87 114.53 2477.9 6299)">
   <stop stop-color="#100f0d" offset="0"/>
   <stop stop-color="#1a2024" offset="1"/>
  </linearGradient>
  <clipPath id="clipPath8136" clipPathUnits="userSpaceOnUse">
   <path d="m2420.5 6724.4s-87.25-200.7 6.55-477.76c0 0-74.17 115.62-98.17 246.51-23.99 130.89-6.55 263.96-6.55 263.96s-91.62-233.41-71.98-405.75l-4.36-30.54s-39.27 130.89 30.54 390.49c0 0-15.27 122.17 34.9 244.32 0 0 0 187.61 205.06 383.95s449.39 176.71 449.39 176.71 233.42-69.82 349.04-235.62c115.62-165.79 137.43-298.86 137.43-298.86s19.64-194.16-13.08-355.58c-32.73-161.43-82.9-359.95-52.36-473.39 0 0 10.9-176.7 113.44-290.14 0 0-111.25 28.36-211.6 26.19-100.36-2.19-128.72 43.62-128.72 43.62s-69.81 91.63-63.26 242.16c0 0-24-119.99 6.54-213.8l-71.99 4.37-296.68 220.33-87.26 303.23-95.99 189.78z"/>
  </clipPath>
  <linearGradient id="linearGradient8142" gradientUnits="userSpaceOnUse" gradientTransform="matrix(0 539.92 539.92 0 2867.6 6908.7)">
   <stop stop-color="#100f0d" offset="0"/>
   <stop stop-color="#1a2024" offset="1"/>
  </linearGradient>
  <clipPath id="clipPath8152" clipPathUnits="userSpaceOnUse">
   <path d="m3102.2 6293.5s-55.62-183.24-39.26-320.68c0.39-3.27 0.81-6.45 1.23-9.62l39.12-2.37c-30.54 93.81-6.54 213.8-6.54 213.8-6.55-150.53 63.26-242.16 63.26-242.16s10.41-16.75 40.81-29.51l-0.45 10.97s-104.71 111.26-98.17 379.57z"/>
  </clipPath>
  <linearGradient id="linearGradient8158" gradientUnits="userSpaceOnUse" gradientTransform="matrix(0 -202.87 -202.87 0 3130.4 6296.8)">
   <stop stop-color="#100f0d" offset="0"/>
   <stop stop-color="#1a2024" offset="1"/>
  </linearGradient>
  <clipPath id="clipPath8168" clipPathUnits="userSpaceOnUse">
   <path d="m3400.6 6634.5c-14.19-19.27-25.67-56.96-46.46-68.82-12.59-7.18-24.71-2.8-35.38-11.48-16.3-13.26-21.79-46.68-30-65.42-7.42-16.91-11.47-23.82-26.13-32.78-12.76-7.81-19.52-4.7-26.73-21.59-5.61 4.9-8.03 12.68-8.11 20.98-3.92-17.11-6.47-34.68-8.84-51.7l-4.37-41.45c6.17 20.57 22.14 37.38 39.26 50.67 26.28 20.36 40.96 30.93 50.73 64.35 4.32 14.81 6.64 35.04 16.26 46.9 8.42 10.38 20.35 11.91 30.76 19.69 9.73 7.28 42.66 66.82 48.42 26.3 11.87 43.08 22.37 87.59 23.99 131.75-3.07-23.34-9.14-48.04-23.4-67.4zm-1023.8 155.9c-23.04 17.63-30.24 46.62-30.54 75.79-0.17 16.71 6.45 33.31 6.7 49.62 0.16 10.07-6.04 18.17-6.76 22.75-2.92 18.39 5.05 35.29 6.65 54.16l21.82 54.53c-12.3-24.26-33.65-40.35-43.03-67.62-7.55-21.95-13.86-47.71-13.8-71.33 4.68 19.88 13 10.9 17.57 1.53 4.09-8.38 1.7-20.88 2.17-30.55 1.06-21.99 3.53-41.95 8.79-63.25 10.3-41.79 46.96-64.81 43.58-110.6 2.98 17.85 13.45 39.73 25.29 53.6-3.49-3.92-8.04-4.03-11.84-5.99-5.28 22.74-10.02 24.66-26.6 37.36zm729.01 657.92c12.59-18.1 21.37-24.15 2.33-41.76-10.47-9.68-28.84-16.57-41.82-19.1-37.52-7.3-72.4 9.24-109.2 11.02-34.3 1.67-74.9-6.55-106.89 3.77-16.25 5.23-29.24 15.07-40.9 27.31-4.55 4.77-7.45 9.65-12.04 14.15-3.08 2.99-0.17 6.84-3.13 9.94-3.73 3.9-10.62-1.22-13.89 1.39-0.57 0.16-1.13 0.32-1.7 0.48 1.6 3.4 0.97 6.69 3.76 10.2-11.88-2.63-36.19-12.48-41.17-23.61l26.17 6.54c-4.63-7.69-11.92-15.8-10.57-25.84 35.88 0.36 58.16-30.83 91.28-41.3 43.07-13.61 93.98 5.72 139.2 3.87 33.87-1.39 86.75-33.43 113.31-8.23 12.77 12.13 7.05 20.39 28.91 17.44 13.05-1.76 30.18-12.79 34.9-20.42-0.48 30.97-30.27 64.48-58.55 74.15zm200.42-237.45c4.89-23.18 5.6-40.11 17.45-61.57 11.89-21.54 23.07-34.24 11.38-58.42-9.24-19.1-26.69-22.85-31.07-44.11-5.06-24.58 7.37-51.06 2.23-75.87-5.99-28.81-22.5-16.97-38.83-28.81-14.11-10.21-15.04-31.5-16.2-47.32-2.75 2.88-9.21 5.47-11.84 8.32 1.7-7.7 1.72-15.76 1.37-23.81l-15.28 45.81c8.73-39.27 13.1-226.88 13.1-220.34 0 6.56 15.26 63.27 15.26 63.27 4.37 28.36 41.46 91.63 65.45 113.45 24 21.81 30.55 102.52 24 146.16-6.54 43.62 17.45 52.35 10.91 91.62-6.55 39.26-34.91 119.97-69.81 161.42-34.9 41.46-93.8 102.53-93.8 102.53 19.13-19.43 34.61-43.32 48.47-67.09 20.71-35.46 58.42-63.69 67.21-105.24zm-667.12 198.51c-18.85-13.98-36.51-28.97-52.89-45.76-13.72-14.03-46.72-35.6-52.41-54.47-2.02-6.74 3.84-15.63 2.22-24.16-1.56-8.22-6.66-16.57-11.39-23.95-11.52-17.97-27.82-31.57-38.71-50.17-8.67-14.81-15.95-36.34-9.27-52.88 6.53-16.24 24.63-24.49 26.71-43.12 4.35-39.24-35.08-84.1-43.14-122.16-4.22-19.94-1.93-27.8 10.96-43.08 14.69-17.41 15.63-20.59 8.51-43.51 17.91 30.03 31.76 61.67 46.03 93.25 10.5 23.25 5.37 55.16 25.04 74.55-0.5-0.17-0.99-0.34-1.49-0.5-6.58 5.77-30.37-12.73-41.11 4.8-9.91 16.2 10.99 48.66 16.48 62.96 8.96 23.33 8.48 28.92-6.49 47.38-7.57 9.37-11.84 3.34-12.71 17.83-0.83 13.79 15.81 28.44 23.62 37.74 15.12 18.04 35.16 36.76 41.92 58.37 5.66 18.08 6.1 25.22 21.83 42.41 35.38 38.68 78 78.59 122.16 105.92l43.63 17.46c-46.47-10.77-82.02-31.11-119.5-58.91zm-88.13-335.24c-0.08-0.08-0.14-0.16-0.21-0.22 0.1 0.03 0.22 0.06 0.32 0.09 0.75 0.87 0.71 0.91-0.11 0.13z"/>
  </clipPath>
  <linearGradient id="linearGradient8174" gradientUnits="userSpaceOnUse" gradientTransform="matrix(0 361.02 361.02 0 2870.9 7061.6)">
   <stop stop-color="#17191a" offset="0"/>
   <stop stop-color="#202c33" offset="1"/>
  </linearGradient>
  <clipPath id="clipPath8184" clipPathUnits="userSpaceOnUse">
   <path d="m3204.8 6251.4c7.22 183.09 63.27 359.72 74.93 542.1 3.39 52.97 1.15 106.3-8.37 158.55-8.07 44.29-24.27 85.65-43.48 126.14-26.82 56.5-74.27 140.44-148.61 130.77-0.42-0.05-0.44-0.68 0-0.66 72.36 2.32 113.97-73.74 141.12-130.14 38.39-79.72 53.47-162.57 52.17-250.88-1.35-92.22-19.98-183.71-34.85-274.45-14.59-89.09-29.13-178.48-35.15-268.63-6.6-99.27-2.5-200.14 26.97-295.73 10.62-34.44 24.78-67.73 41.8-99.54 3.37-0.1 6.87-0.16 10.44-0.16-16.39 28.98-30.53 59.32-41.65 91.35-30.09 86.66-38.91 180.03-35.32 271.28zm182.06-98.62c-30.54 113.44 19.63 311.96 52.36 473.39 32.72 161.42 13.08 355.58 13.08 355.58s-21.81 133.07-137.43 298.86c-115.62 165.8-349.04 235.62-349.04 235.62s-244.33 19.63-449.39-176.71c-162.35-155.44-196.16-305.4-203.19-361.12l1.94 2.86c-0.92-2.9-1.79-5.85-2.64-8.82-1.16-10.89-1.17-16.87-1.17-16.87-50.17-122.15-34.9-244.32-34.9-244.32-69.81-259.6-30.54-390.49-30.54-390.49l4.36 30.54c-19.64 172.34 71.98 405.75 71.98 405.75s-17.44-133.07 6.55-263.96c24-130.89 98.17-246.51 98.17-246.51-1.69 5.02-3.31 9.98-4.89 14.93-24.48 43.55-131.04 253-84.55 526.08 0 0 111.25 196.34 253.05 325.05 0 0-277.05-213.78-331.59-527.92 0 0 17.46 202.87 143.99 388.31 126.52 185.42 294.5 309.77 294.5 309.77s-325.36-235.63-408.22-493.93c-0.97 51.78 8.07 348.3 334.04 465.57 0 0-181.26-54.41-272.29-197.12 19.29 53.98 81.25 201.22 215.67 313.65 10.29 1.08 20.44 2 30.15 3.04 49.83 5.31 100.97 7.57 150.99 4.02 43.68-3.09 91.68-9.68 128.5-35.43 33.45-23.39 34.14-66.68 15.24-99.67-2.66-4.65-4.91-8.34-6.65-13.42s6.09-8.28 8.6-3.62c10.84 20.16 21.32 37.26 21.96 60.94 0.42 15.35-5.45 29.82-15.36 41.32-24.25 28.1-65.14 39.78-99.97 47.1-70.08 14.73-147.1 18.29-219.63 6.93 72.16 56.94 164.05 103.33 279.78 121.46 6.88-2.34 13.7-4.76 20.41-7.25 35.37-13.1 69.6-30.02 99.26-53.57 29.46-23.39 55.8-55.6 56.44-94.9 0.8-47.95-43.47-84.84-79.38-109.29-4.72-3.22-0.67-10.19 4.47-7.65 40.08 19.84 68.15 59.35 77.31 102.58 8.16 38.55-11.15 75.08-36.89 102.55-32.34 34.5-75.79 56.74-121.85 70.32 25.97 3.26 53.05 5.18 81.37 5.43 0 0 29.8-7.39 74.67-26.9 18.1-22.44 29.96-49.14 32.41-80.97 5.08-65.97-30.51-134.49-83.6-172.64-1.08-0.78-0.14-2.49 1.05-1.82 56.64 32.54 89.91 106.75 91.34 169.93 0.62 27.43-6.73 54.1-21.87 76.77 25.42-11.96 54.41-27.41 84.9-47.02 22.92-41.83 32.19-93.27 0.2-128.88-35.01-38.97-104.26-37.67-129.7-86.89-0.44-0.86 0.76-1.91 1.41-1.08 21.27 26.94 48.43 39.28 79.63 51.8 26.21 10.51 52.17 23.73 68.16 47.86 22.52 33.97 13.2 74.23-6.95 108.79 108.52-73.08 231.84-198.82 279.75-406.78-7.88 4.81-15.71 9.7-23.44 14.76-41.69 27.25-80.78 58-117.95 91.12-65.48 58.35-142.13 121.01-236.23 99.75-0.16-0.04-0.09-0.28 0.06-0.24 50.67 10.09 98.68-3.81 142.6-29.15 42.55-24.54 75.02-59.36 110.47-92.52 32.64-30.54 67.62-58.5 105.08-82.91 7.3-4.76 14.79-9.59 22.43-14.39 1.15-5.47 2.28-10.95 3.33-16.52 0 0 30.54-191.97-39.26-497.38 0 0-33.74-130.82-30.81-281.46-8.75 50.85-13.82 102.36-16.79 153.82-9.19 159.62 5.55 319.47 12.79 478.87 0.01 0.13-0.19 0.13-0.2 0-10.88-161.23-28.19-322.44-21.05-484.27 3.19-72.43 12.03-146.7 29.45-218.62 9.91-96.58 38.43-194.26 102.96-265.7 0.4-0.45 0.79-0.87 1.2-1.32 14.32-3.06 22.8-5.23 22.8-5.23-102.54 113.44-113.44 290.14-113.44 290.14zm-95.58 243.74c3.25 48.31 7.93 96.45 10.74 144.8 2.82 48.7 5.63 97.41 10.71 145.93 0.01 0.06-0.09 0.06-0.09 0-5.48-48.52-8.7-97.22-11.89-145.93-3.32-50.52-8.93-100.73-12.94-151.16-6.98-87.78-1.33-176.3 15.44-262.74 14.43-74.4 37.92-147.35 72.33-214.95 5.11-10.03 10.56-20.03 16.28-29.94 4.61-0.58 9.12-1.2 13.55-1.83-47.23 76.64-77.17 164.11-95.69 253.35-18.01 86.79-24.4 173.99-18.44 262.47z"/>
  </clipPath>
  <linearGradient id="linearGradient8190" gradientUnits="userSpaceOnUse" gradientTransform="matrix(0 539.92 539.92 0 2867.6 6908.7)">
   <stop stop-color="#1c222d" offset="0"/>
   <stop stop-color="#2e3e5a" offset="1"/>
  </linearGradient>
  <clipPath id="clipPath8200" clipPathUnits="userSpaceOnUse">
   <path d="m3301.8 5886.7c-135.25 30.54-235.6 91.63-270.51 167.98-34.9 76.35-21.81 377.4-21.81 377.4h-421.03c6.54-78.53 13.09-248.7-32.72-355.59-45.81-106.88-257.42-185.42-257.42-185.42s128.71-10.91 277.05-50.18c148.34-39.26 414.48-13.08 512.65 10.91s213.79 34.9 213.79 34.9z"/>
  </clipPath>
  <linearGradient id="linearGradient8206" gradientUnits="userSpaceOnUse" gradientTransform="matrix(0 452.28 452.28 0 2800.1 5945)">
   <stop stop-color="#f38a5d" offset="0"/>
   <stop stop-color="#d65a36" offset="1"/>
  </linearGradient>
  <clipPath id="clipPath8216" clipPathUnits="userSpaceOnUse">
   <path d="m2478.8 6849.8s49.09 101.44 57.28 117.81l55.62 148.88s129.26 109.61 168.52 116.16c39.27 6.54-65.44-232.32-70.35-248.69-4.91-16.35-173.43-263.42-173.43-263.42l-31.08 6.54z"/>
  </clipPath>
  <linearGradient id="linearGradient8222" gradientUnits="userSpaceOnUse" gradientTransform="matrix(39.266 -52.355 -52.355 -39.266 2647.1 6950.6)">
   <stop stop-color="#100f0d" offset="0"/>
   <stop stop-color="#1a2024" offset="1"/>
  </linearGradient>
  <clipPath id="clipPath8232" clipPathUnits="userSpaceOnUse">
   <path d="m3095.6 7208.1c-67.08 44.18-175.06 65.45-175.06 65.45-50.73-4.91-94.9-16.36-142.35-32.73l-14.72-8.18 17.99-34.36 220.88-32.72z"/>
  </clipPath>
  <linearGradient id="linearGradient8238" gradientUnits="userSpaceOnUse" gradientTransform="matrix(0 42.482 42.482 0 2929.6 7227.2)">
   <stop stop-color="#100f0d" offset="0"/>
   <stop stop-color="#1a2024" offset="1"/>
  </linearGradient>
  <clipPath id="clipPath8248" clipPathUnits="userSpaceOnUse">
   <path d="m2896.8 7270.6c-0.59-0.08-1.17-0.18-1.76-0.26 4.73-9.69 8.48-19.89 10.99-30.65 4.73-20.27 3.94-40.15 2.94-60.34-0.31-6.22-0.64-12.45-0.84-18.75-0.03-1.06 1.68-1.32 1.88-0.26 1.17 6.02 1.98 12.22 2.5 18.49 1.72 20.5 0.12 41.89-4.45 61.4-2.49 10.71-6.34 20.81-11.26 30.37zm106.8-19.95c-4.38-10.01-9.59-19.64-15.4-29.02-4.69-7.6-9.85-14.91-15.14-22.09-2.27-3.11-6.34-11.35-10.34-10.67-1.29 0.23-2.58 0.46-3.86 0.65 12.95 20.77 28.68 40.26 35.34 64.26-1.05 0.34-2.11 0.67-3.15 1.01-0.84-3.07-1.86-5.99-2.77-8.49-7.52-20.49-20.86-39.16-32.93-57.18-0.65-0.96 0.23-1.98 1.19-2.08 1.71-0.2 7.04-0.53 8.25-1.82 0.77-0.81 2.38-0.92 3.13 0 15.86 19.45 30.93 40.44 41.1 63.55-1.81 0.64-3.63 1.27-5.42 1.88zm68.74-28.96c-3.79-5.62-8.19-10.96-13.25-16.15-12.51-12.78-27.43-23.04-42-33.3-0.26-0.18-0.51-0.36-0.76-0.54-1.55-1.09-0.08-3.66 1.5-2.55 4.5 3.13 8.99 6.31 13.42 9.54 16.59 12.15 32.21 25.25 44.05 41.44-0.98 0.53-1.98 1.03-2.96 1.56zm-43.55-16.07c8.43 7.98 16.17 16.72 22.74 26.24-1.55 0.7-3.11 1.41-4.67 2.08-5.73-8.27-12.36-15.97-19.38-23.21-6.09-6.29-12.65-12.11-19.36-17.73-3.2-2.68-4.78-3.5-9.09-3.53-4.15-0.04-11.26 0.74-13.66 0.36 6.63 1.07 14.31 7.15 19.69 10.9 6.74 4.69 12.81 10.28 18.43 16.24 5.99 6.33 10.82 13.25 15.26 20.44-1.1 0.45-2.18 0.9-3.28 1.34-4.8-7.54-10.42-14.62-16.22-20.94-5.36-5.84-11.42-11-17.86-15.61-6.07-4.36-13.27-7.15-19.13-11.68-0.4-0.31-0.15-0.98 0.29-1.09 3.84-0.92 7.68-1.37 11.62-1.7 3.18-0.26 8.7-1.43 11.75-0.41 8.57 2.83 16.43 12.22 22.87 18.3zm-69.68 58.58c0.6-19.43-6.35-39.78-12.29-59.07 0.64 8.79 0.51 17.66-0.14 26.44-0.96 12.69-3.36 25.55-7.54 37.75-1.2 0.29-2.33 0.56-3.44 0.82 3.84-12.55 5.98-25.68 6.98-38.57 1.02-13.25 0.37-26.68-1.86-39.78-0.41-2.38-0.93-4.75-1.51-7.08-2.2-0.01-4.38 0.12-6.54 0.6 1.27 19.86 1.45 39.21-2.96 58.8-2.31 10.24-6 19.98-10.74 29.22-1.08-0.11-2.12-0.25-3.2-0.37 2.46-4.96 4.62-10.09 6.46-15.29 8.21-23.08 9.5-49.43 5.81-73.54-0.14-0.94 0.05-2.18 1.06-2.61 2.78-1.2 5.7-1.82 8.68-2.15-0.37-1.28-0.69-2.56-1.09-3.83-0.03-0.1-0.08-0.2-0.11-0.29-1.76-5.38-5.05-10.39-6.27-15.84-0.36-1.57 1.55-2.82 2.76-1.61 4.03 4.06 6.57 10.28 8.39 16.72 0.41 1.51 0.8 3.02 1.15 4.53 0.25 0 0.49-0.02 0.74-0.02 1.21-0.01 2.5 0.86 2.74 2.09 5.21 24.99 18.95 54.26 18.69 81.5-1.96 0.55-3.9 1.08-5.77 1.58zm-142.41-11.15c2.39-3.15 4.59-6.45 6.63-9.82 6.78-11.23 11.37-24.26 11.37-37.46-6.43 1.35-9.46 9.31-12.07 14.79-3.05 6.37-6.05 12.61-10.92 17.82-3.57 3.8-7.81 6.88-12.43 9.36-1.69-0.54-3.39-1.07-5.08-1.62 8.41-4.47 15.62-10.79 20.15-19.4 4.99-9.46 9.28-26.57 22.75-25.98 1.37 0.06 2.35 1.05 2.41 2.41 0.91 18.46-8.85 36.51-20.68 50.51-0.71-0.2-1.42-0.39-2.13-0.61zm42.7-40.56c-3.44 14.67-9.26 28.91-17.32 41.67-1.07 1.67-2.17 3.32-3.31 4.91-1.74-0.45-3.48-0.87-5.21-1.33 2.23-3.02 4.33-6.2 6.28-9.53 7.11-12.1 11.61-25.56 14.74-39.18 1.69-7.35 2.38-14.7 2.96-22.06 0.5-6.27 0.91-12.54 1.78-18.82 0.41-2.94 4.42-1.77 4.73 0.64 0.71 5.52 0.62 11.34 0.08 17.2-0.84 9.05-2.78 18.19-4.73 26.5zm21.78 55.68c11.69-20.93 13.12-49.25 16.45-71.95-20.65 1.77-16.97 35.95-21.33 50.97-1.99 6.84-6.06 12.86-11.09 18-1.77-0.36-3.52-0.79-5.28-1.17 1.89-2.03 3.71-4.16 5.4-6.39 9.66-12.84 8.31-29.45 11.18-44.5 2.49-13.14 9.76-23.98 24.4-22.64 1.94 0.18 3.1 1.66 2.74 3.59-4.27 23.15-6 52.83-18.38 74.78-1.37-0.21-2.73-0.46-4.09-0.69z"/>
  </clipPath>
  <linearGradient id="linearGradient8254" gradientUnits="userSpaceOnUse" gradientTransform="matrix(0 45.642 45.642 0 2934.8 7223.6)">
   <stop stop-color="#161819" offset="0"/>
   <stop stop-color="#3f5c6f" offset="1"/>
  </linearGradient>
  <clipPath id="clipPath8264" clipPathUnits="userSpaceOnUse">
   <path d="m2778.3 7240.8c35.63 11.89 72.42 20.94 109.51 26.8 9.87 1.56 19.78 2.72 29.71 3.75 2.45 0.25 3.1 0.27 5.29-0.21 6.06-1.29 12.1-2.72 18.11-4.21 53.73-13.25 106.38-31.63 154.21-59.76 1.26-0.74 2.26 1.11 1.12 1.93-24.18 17.38-52.48 29.21-80.3 39.47-24.14 8.91-48.95 16.14-73.97 22.21-6.18 1.5-12.4 2.93-18.63 4.21-9.41 1.96-21.16-1.6-30.55-3.04-39.42-5.99-77.04-17.81-114.53-31.04-0.08-0.02-0.05-0.14 0.03-0.11z"/>
  </clipPath>
  <linearGradient id="linearGradient8270" gradientUnits="userSpaceOnUse" gradientTransform="matrix(0 26.975 26.975 0 2937.4 7246.1)">
   <stop stop-color="#161819" offset="0"/>
   <stop stop-color="#3f5c6f" offset="1"/>
  </linearGradient>
  <clipPath id="clipPath8282" clipPathUnits="userSpaceOnUse">
   <path d="m2631 6951.2c-7.3 3.16 36.16 99.63 39.98 106.21 43.6 75.08 120.45 114.96 204.57 126.29 80.42 10.82 187.84 14.97 246.43-53.3 22.58-26.33 88.91-264.3 58.75-270.82-0.01 0-121.07-26.18-121.07-26.18l-157.07-9.82-98.17 52.35s-173.29 75.21-173.42 75.27z"/>
  </clipPath>
  <linearGradient id="linearGradient8288" gradientUnits="userSpaceOnUse" gradientTransform="matrix(0 531.68 531.68 0 2909.3 6893.8)">
   <stop stop-color="#f38a5d" offset="0"/>
   <stop stop-color="#f9a87b" offset="1"/>
  </linearGradient>
  <clipPath id="clipPath8298" clipPathUnits="userSpaceOnUse">
   <path d="m2647.2 6435.3c81.97 17.75 130.63 114.32 108.67 215.71-21.95 101.37-106.21 169.15-188.18 151.4-24.95-5.4-46.79-18.15-64.52-36.07-1.23-14.42-1.97-24.56-1.97-24.56 0 4.72-0.94 11.72-2.43 19.9-30.73-33.93-47.68-84.27-44.65-138.77 9.08-14.97 20.68-26.72 36.17-31.64l4.37-8.74c3.44-47 22.82-89.46 43.45-121.88 32.56-23.39 71.07-33.58 109.09-25.35z"/>
  </clipPath>
  <radialGradient id="radialGradient8304" gradientUnits="userSpaceOnUse" cy="0" cx="0" gradientTransform="matrix(148.41 32.147 39.748 -183.54 2607.5 6618.9)" r="1">
   <stop stop-color="#f9a87b" offset="0"/>
   <stop stop-color="#f38a5d" offset="1"/>
  </radialGradient>
  <clipPath id="clipPath8314" clipPathUnits="userSpaceOnUse">
   <path d="m3218.6 6783.3c-51.55-12.27-106.1-65.98-137.2-141.81-41.91-102.21-25.34-205.8 37.03-231.37 10.87-4.46 22.42-6.2 34.3-5.58 33.8 39.09 55.27 73.27 55.27 73.27 10.78 110.51 11.58 230.15 10.6 305.49z"/>
  </clipPath>
  <radialGradient id="radialGradient8320" gradientUnits="userSpaceOnUse" cy="0" cx="0" gradientTransform="matrix(112.92 -46.316 -75.886 -185.06 3194.3 6595.2)" r="1">
   <stop stop-color="#f9a87b" offset="0"/>
   <stop stop-color="#f38a5d" offset="1"/>
  </radialGradient>
  <clipPath id="clipPath8330" clipPathUnits="userSpaceOnUse">
   <path d="m2506.6 6758.2-3.57 7.16c-1.19-13.86-1.89-23.52-1.89-23.52 0 8.42-2.95 24.08-6.78 40.84l-0.85 1.7s19.63-88.34 6.54-143.98c-13.09-55.62-22.9-42.53-22.9-42.53l0.01-0.25c4.03-2.65 8.37-4.79 13.07-6.29l4.37-8.74c6.54-89.44 70.78-162.45 91.62-181.06 42.94-38.35 83.42-78.25 126.82-112.42-112.3 116.44-99.03 203.04-147.54 272.76-52.36 75.26-58.9 196.33-58.9 196.33z"/>
  </clipPath>
  <linearGradient id="linearGradient8336" gradientUnits="userSpaceOnUse" gradientTransform="matrix(255.22 -549.71 -549.71 -255.22 2520.2 6610.7)">
   <stop stop-color="#f38a5d" offset="0"/>
   <stop stop-color="#d65a36" offset="1"/>
  </linearGradient>
  <clipPath id="clipPath8346" clipPathUnits="userSpaceOnUse">
   <path d="m3000.8 6440.8c0-52.41-42.48-94.9-94.89-94.9-52.4 0-94.89 42.49-94.89 94.9s42.49 94.9 94.89 94.9c52.41 0 94.89-42.49 94.89-94.9z"/>
  </clipPath>
  <radialGradient id="radialGradient8352" gradientUnits="userSpaceOnUse" cy="0" cx="0" gradientTransform="matrix(94.894 0 0 -94.894 2905.9 6440.8)" r="1">
   <stop stop-color="#f9a87b" offset="0"/>
   <stop stop-color="#f38a5d" offset="1"/>
  </radialGradient>
  <clipPath id="clipPath8362" clipPathUnits="userSpaceOnUse">
   <path d="m3208 6477.8c9.76 100.02 11.33 207.54 10.83 282.91l-25.01-22.22s13.09-255.24-91.62-379.59c-4.73-5.63-8.97-11.19-12.78-16.69 68.08 55.2 118.58 135.59 118.58 135.59z"/>
  </clipPath>
  <linearGradient id="linearGradient8368" gradientUnits="userSpaceOnUse" gradientTransform="matrix(414.57 685.13 685.13 -414.57 3031.4 6328.2)">
   <stop stop-color="#f38a5d" offset="0"/>
   <stop stop-color="#d65a36" offset="1"/>
  </linearGradient>
  <clipPath id="clipPath8378" clipPathUnits="userSpaceOnUse">
   <path d="m3088 7208.6c-71.99-8.73-296.68 21.82-296.68 21.82l-19.63 4.36c-52.36-15.27-170.16-119.99-170.16-119.99-28.36-61.08-61.09-152.7-61.09-152.7s-4.6-18.41-10.08-40.36l22.09 6.54s71.98 72 98.16 134.16c26.19 62.18 104.72 143.99 245.42 137.44 140.71-6.54 196.34-3.28 222.52-29.45 26.17-26.18 71.99-117.8 81.8-307.59 0 0 7.16-2.04 16.41-4.52-0.03 0.82-0.05 1.25-0.05 1.25-13.09 353.4-128.71 349.04-128.71 349.04z"/>
  </clipPath>
  <linearGradient id="linearGradient8384" gradientUnits="userSpaceOnUse" gradientTransform="matrix(0 418.24 418.24 0 2873.6 6884.8)">
   <stop stop-color="#f38a5d" offset="0"/>
   <stop stop-color="#d65a36" offset="1"/>
  </linearGradient>
  <clipPath id="clipPath8394" clipPathUnits="userSpaceOnUse">
   <path d="m2487.8 6661.6s-13.09 32.72-4.09 50.71l4.09 10.64-23.72 55.63 19.63 49.08-6.54 21.27s-45.82-85.08-58.09-119.44c0 0 20.45-101.44 48.27-123.53 0 0-8.18 31.91-4.91 38.46 3.27 6.54 28.63-3.27 28.63 4.08 0 7.37-3.27 13.1-3.27 13.1z"/>
  </clipPath>
  <linearGradient id="linearGradient8400" gradientUnits="userSpaceOnUse" gradientTransform="matrix(175.46 128.39 128.39 -175.46 2351.3 6639)">
   <stop stop-color="#f38a5d" offset="0"/>
   <stop stop-color="#d65a36" offset="1"/>
  </linearGradient>
  <clipPath id="clipPath8410" clipPathUnits="userSpaceOnUse">
   <path d="m2447.8 6684.5s2.45 38.45 7.36 40.9c4.91 2.46 13.9-12.27 13.9-12.27s-4.9-32.71 15.55-37.62l-4.09 22.89 7.36 24.55s-26.18 61.35-35.99 71.99l-4.09-2.46-28.64-62.99 3.28-15.54s13.9 41.72 18.81 45c4.91 3.27 11.45-10.64 11.45-10.64s-20.45-45.81 1.64-83.44z"/>
  </clipPath>
  <linearGradient id="linearGradient8416" gradientUnits="userSpaceOnUse" gradientTransform="matrix(56.524 30.553 30.553 -56.524 2423.5 6711.1)">
   <stop stop-color="#dd6238" offset="0"/>
   <stop stop-color="#cd4c23" offset="1"/>
  </linearGradient>
  <clipPath id="clipPath8426" clipPathUnits="userSpaceOnUse">
   <path d="m2456.7 6790.9 23.73 44.99-3.27 13.09-25.36-53.99z"/>
  </clipPath>
  <linearGradient id="linearGradient8432" gradientUnits="userSpaceOnUse" gradientTransform="matrix(41.382 22.369 22.369 -41.382 2444.6 6807.8)">
   <stop stop-color="#dd6238" offset="0"/>
   <stop stop-color="#cd4c23" offset="1"/>
  </linearGradient>
  <clipPath id="clipPath8442" clipPathUnits="userSpaceOnUse">
   <path d="m2833.7 6595.5c9.76 4.33 18.62 16.66 23.94 26.35 15.79 28.85 17.64 60.55 13.07 92.4-1.35 9.39-5.12 42.96-16.51 46.32-9.42 2.76-15.26-11.77-18.88-18.18-5.8-10.25-11.93-22.26-21.08-30-13.77-11.66-18.23-33.53-18.22-50.6 0.01-19.28 4.34-43.68 16.29-59.3 6.93-9.08 14.39-10.1 21.39-6.99z"/>
  </clipPath>
  <linearGradient id="linearGradient8448" gradientUnits="userSpaceOnUse" gradientTransform="matrix(178.36 -101.45 -101.45 -178.36 2815 6690.8)">
   <stop stop-color="#f38a5d" offset="0"/>
   <stop stop-color="#d65a36" offset="1"/>
  </linearGradient>
  <clipPath id="clipPath8458" clipPathUnits="userSpaceOnUse">
   <path d="m2984.4 6724.4s-11.99-58.91-11.99-81.8c0-22.92 7.63-57.82 17.44-57.82 9.82 0 25.1 40.35 28.37 61.09 3.27 20.72-7.63 78.53-18.55 93.8z"/>
  </clipPath>
  <linearGradient id="linearGradient8464" gradientUnits="userSpaceOnUse" gradientTransform="matrix(-162.51 -49.081 -49.081 162.51 3013.6 6667.8)">
   <stop stop-color="#f38a5d" offset="0"/>
   <stop stop-color="#d65a36" offset="1"/>
  </linearGradient>
  <clipPath id="clipPath8474" clipPathUnits="userSpaceOnUse">
   <path d="m2910 6519.3s-31.09 10.63-33.55 39.26 9.82 160.34 9.82 160.34l85.08-5.73s-9.83-96.53-10.64-134.97c-0.82-38.46-8.18-67.09-50.71-58.9z"/>
  </clipPath>
  <linearGradient id="linearGradient8480" gradientUnits="userSpaceOnUse" gradientTransform="matrix(-13.089 -281.42 -281.42 13.089 2926.1 6697.7)">
   <stop stop-color="#f38a5d" offset="0"/>
   <stop stop-color="#f9a87b" offset="1"/>
  </linearGradient>
  <clipPath id="clipPath8492" clipPathUnits="userSpaceOnUse">
   <path d="m2809.9 6554.2c0.23-8.12 9.38-11.45 16.41-7.93 6.44 3.23 10.09 12.85 12.24 18.83 7.57 21.01-1.73 31.4-23.04 30.38-0.24-13.19-2.35-28.47-6.71-40.19z"/>
  </clipPath>
  <linearGradient id="linearGradient8498" gradientUnits="userSpaceOnUse" gradientTransform="matrix(-39.269 -10.908 -10.908 39.269 2834.9 6574.6)">
   <stop stop-color="#f38a5d" offset="0"/>
   <stop stop-color="#f9a87b" offset="1"/>
  </linearGradient>
  <clipPath id="clipPath8508" clipPathUnits="userSpaceOnUse">
   <path d="m2996.4 6524.8c-12.15 7.85-21.69 12.2-20.72 28.35 0.28 4.73 1.22 14.99 4.4 18.52 4.23 4.69 9.65 2.41 16.4 3.98-0.33-14.03-0.08-28.11-0.08-42.14z"/>
  </clipPath>
  <linearGradient id="linearGradient8514" gradientUnits="userSpaceOnUse" gradientTransform="matrix(34.896 -21.811 -21.811 -34.896 2976.8 6562.5)">
   <stop stop-color="#f38a5d" offset="0"/>
   <stop stop-color="#f9a87b" offset="1"/>
  </linearGradient>
  <clipPath id="clipPath8524" clipPathUnits="userSpaceOnUse">
   <path d="m2808.5 6538.1s8.18-4.1 16.36-4.91c8.18-0.82 40.08 0.81 60.53-14.72 20.46-15.54 51.54-22.09 72 3.27 0 0 22.9 8.18 36.81-5.73 0 0-4.09-16.36-21.27-22.09 0 0-28.63-41.72-67.08-36.81-38.46 4.92-70.35 20.46-87.54 56.44 0 0-9.81 12.27-9.81 24.55z"/>
  </clipPath>
  <linearGradient id="linearGradient8530" gradientUnits="userSpaceOnUse" gradientTransform="matrix(0 85.361 85.361 0 2901.4 6444)">
   <stop stop-color="#f38a5d" offset="0"/>
   <stop stop-color="#d65a36" offset="1"/>
  </linearGradient>
  <clipPath id="clipPath8542" clipPathUnits="userSpaceOnUse">
   <path d="m2611.4 6810.5s-58.9 11.46-63.81 55.63 8.18 80.17 63.81 85.08 78.53-26.18 94.89-34.36 112.89-44.17 112.89-44.17l16.37-34.36s8.18-55.63-21.28-80.18c0 0-65.44 13.1-71.98 11.46s-106.36 35.99-106.36 35.99z"/>
  </clipPath>
  <linearGradient id="linearGradient8548" gradientUnits="userSpaceOnUse" gradientTransform="matrix(34.358 127.62 127.62 -34.358 2680.7 6809.2)">
   <stop stop-color="#f38a5d" offset="0"/>
   <stop stop-color="#d65a36" offset="1"/>
  </linearGradient>
  <clipPath id="clipPath8558" clipPathUnits="userSpaceOnUse">
   <path d="m3028.6 6730.4s-9.82 45.81 13.08 75.25l29.46 22.91 31.08 6.54 55.63 9.82 54 13.1 6.53-4.91s-1.63-80.18 1.64-93.27l-29.44-4.91s-57.27-26.18-62.17-26.18c-4.92 0-99.81 1.65-99.81 1.65z"/>
  </clipPath>
  <linearGradient id="linearGradient8564" gradientUnits="userSpaceOnUse" gradientTransform="matrix(19.633 103.07 103.07 -19.633 3120 6745.4)">
   <stop stop-color="#f38a5d" offset="0"/>
   <stop stop-color="#d65a36" offset="1"/>
  </linearGradient>
  <clipPath id="clipPath8576" clipPathUnits="userSpaceOnUse">
   <path d="m2615.1 6831.9c-0.77 3.33-1.94 12.39 1.79 14.85 2.96 1.93 5.8 3.99 8.81 5.84 6.65 4.09 13.88 7.13 21.25 9.62 14.94 5.05 30.8 6.82 46.52 6.66 33.02-0.33 65.74-10.16 92.82-29.13 0.22-0.16 0.51 0.2 0.3 0.37-24.33 19.23-55.43 29.4-86.14 31.58-28.72 2.05-64.91-3.75-86.56-24.47-0.27-0.25-0.38-0.65-0.27-1 1.26-4.6-0.63-9.78 0.52-14.59 0.15-0.62 1.11-0.36 0.96 0.27z"/>
  </clipPath>
  <linearGradient id="linearGradient8582" gradientUnits="userSpaceOnUse" gradientTransform="matrix(0 -45.614 -45.614 0 2700.1 6988.2)">
   <stop stop-color="#d15629" offset="0"/>
   <stop stop-color="#b13a20" offset="1"/>
  </linearGradient>
  <clipPath id="clipPath8592" clipPathUnits="userSpaceOnUse">
   <path d="m3079.3 6805.6c22.66 12.16 48.11 13.87 72.86 7.87 10.93-2.65 21.37-7.14 31.12-12.7 4.34-2.47 12.63-6.41 12.86-11.86 0.22-5.43 2.14-10.47 1.63-16.02-0.07-0.74 1.15-1.09 1.44-0.39 2.44 5.77 2.01 12.25 1.82 18.39-0.04 1.58-1.55 2.88-3.15 2.41-2.65-0.8-9.84 6.06-11.95 7.36-4.72 2.94-9.73 5.38-14.79 7.61-9.82 4.33-20.25 7.09-30.83 8.69-21.04 3.18-42.7-0.5-61.03-11.32-0.04-0.02-0.01-0.07 0.02-0.04z"/>
  </clipPath>
  <linearGradient id="linearGradient8598" gradientUnits="userSpaceOnUse" gradientTransform="matrix(0 -51.362 -51.362 0 3140.2 6948.7)">
   <stop stop-color="#d15629" offset="0"/>
   <stop stop-color="#b13a20" offset="1"/>
  </linearGradient>
  <clipPath id="clipPath8608" clipPathUnits="userSpaceOnUse">
   <path d="m2998.7 6545.7c-0.64 8.78-0.73 17.19-0.63 25.94 0 0.71-0.99 0.8-1.19 0.16-8.15-25.77 9.69-64.23-24.1-76.53-0.65-0.24-0.38-1.25 0.29-1.04 14.53 4.71 23.28 13.43 25.5 28.74 1.1 7.54 0.69 15.16 0.13 22.73zm-20.39-35.39c-4.72 2.26-12.76 3.36-18.05 0.6 0.85 2.11 1.5 4.3 1.83 6.58 0.11 0.67-0.82 1.22-1.19 0.5-7.36-14.09-15.34-24.08-31.2-28.86-14.47-4.36-31.45-2.31-44.93 4.33-0.46 0.22-0.85-0.42-0.4-0.68 14.07-8.29 30.19-10.39 46.04-6.22 10.76 2.83 21.92 10.13 27.8 20.12 0.1 0 0.19-0.04 0.31-0.02 2.56 0.65 4.84 2.1 7.43 2.82 3.9 1.06 7.94 0.63 11.63-0.92 1-0.43 1.71 1.28 0.73 1.75zm-146.09 12.6c-0.44-0.04-0.45-0.7 0-0.68 21.08 0.79 37.67-9.95 49.91-26.3 0.58-0.8 2.08-0.37 1.71 0.71-7.46 21.32-31.13 28.14-51.62 26.27zm14.72-17.88c-19.74-0.4-32.75 11.77-36.7 30.85-3.5 16.82 7.11 33.48 4.46 50.63-0.09 0.56-0.99 0.42-0.98-0.13 0.41-20.59-14.22-39.33-5.5-59.85 7.03-16.58 20.94-24.25 38.72-22.42 0.57 0.06 0.6 0.93 0 0.92z"/>
  </clipPath>
  <linearGradient id="linearGradient8614" gradientUnits="userSpaceOnUse" gradientTransform="matrix(0 64.792 64.792 0 2902.4 6536.4)">
   <stop stop-color="#c3512b" offset="0"/>
   <stop stop-color="#f38a5d" offset="1"/>
  </linearGradient>
  <clipPath id="clipPath8624" clipPathUnits="userSpaceOnUse">
   <path d="m2485 6708.6c1.62 5.87 5.48 11.14 3.51 17.12-4.32 13.08-10.15 25.93-16.04 38.35-2.6 5.5-5.44 11.15-8.59 16.62v0.4c-0.05 0.66-0.46 1.08-0.95 1.26-3.34 5.63-7.04 11.04-11.24 15.77-0.76 0.85-1.92-0.23-1.49-1.15 3.32-7.06 7.06-13.91 10.69-20.8-1.45-18.05-12.76-34.11-15.99-52.02-3.75-20.7 2.85-41.46 9.24-60.91 0.06-0.18 0.35-0.1 0.3 0.09-6.64 22.99-12.65 44.67-6.53 68.58 3.58 13.96 12.9 25.67 15.42 39.62 1.67-3.28 3.32-6.59 4.84-9.96 3.16-7 6-14.15 8.84-21.28 1.97-4.93 8.41-14.94 6.57-20.36-3.25-9.55-5.41-18.99-3.94-29.04 1.52-10.4 6.16-20.78 8.76-30.94 0.08-0.33 0.56-0.19 0.5 0.12-2.2 10.92-6.2 21.57-6.57 32.75-0.18 5.33 1.26 10.68 2.67 15.78z"/>
  </clipPath>
  <linearGradient id="linearGradient8630" gradientUnits="userSpaceOnUse" gradientTransform="matrix(55.84 30.184 30.184 -55.84 2429.8 6707.4)">
   <stop stop-color="#d15629" offset="0"/>
   <stop stop-color="#b13a20" offset="1"/>
  </linearGradient>
  <clipPath id="clipPath8644" clipPathUnits="userSpaceOnUse">
   <path d="m2806.4 6370.6c4.62 10.04 31.81 10.19 39.52 9.09 30.54-4.36 61.08-13.09 95.99-9.82 10.64 1 62.74 11.37 43.86-13.4-17.65-23.15-58.67-30.67-85.32-30.23-24.71 0.42-50.01 5.6-71.56 18.12-6.6 3.83-15.89 9.06-20.3 15.55-3.03 4.43-3.46 7.93-2.19 10.69z"/>
  </clipPath>
  <radialGradient id="radialGradient8650" gradientUnits="userSpaceOnUse" cy="0" cx="0" gradientTransform="matrix(92.547 0 0 -92.547 2903.1 6339.4)" r="1">
   <stop stop-color="#f68c63" offset="0"/>
   <stop stop-color="#ef4a3a" offset="1"/>
  </radialGradient>
  <clipPath id="clipPath8664" clipPathUnits="userSpaceOnUse">
   <path d="m2547.6 6925s55.63 32.72 99.8 14.73c44.18-18 75.26-44.18 116.17-58.9 40.9-14.73 73.62-45.82 73.62-45.82s1.64 34.36-9.81 57.27c0 0-29.45 6.55-55.63 11.46-26.18 4.9-76.9 32.72-103.08 47.44-26.18 14.73-94.89 4.91-121.07-26.18z"/>
  </clipPath>
  <linearGradient id="linearGradient8670" gradientUnits="userSpaceOnUse" gradientTransform="matrix(0 48.342 48.342 0 2692.4 6905.2)">
   <stop stop-color="#100f0d" offset="0"/>
   <stop stop-color="#1a2024" offset="1"/>
  </linearGradient>
  <clipPath id="clipPath8680" clipPathUnits="userSpaceOnUse">
   <path d="m3258.9 6814.7s-24.34 44.16-59.21 38.08c-34.86-6.08-64.17-23-95.76-26.82-31.6-3.81-63.7-24.93-63.7-24.93s11.07 32.54 26.56 51.19c0 0 21.32-1.05 39.94-2.84 18.64-1.78 61.19 11.89 83.28 19.3 22.1 7.4 62.98-18.52 68.89-53.98z"/>
  </clipPath>
  <linearGradient id="linearGradient8686" gradientUnits="userSpaceOnUse" gradientTransform="matrix(17.064 45.227 -31.199 11.771 3158.4 6831.3)">
   <stop stop-color="#100f0d" offset="0"/>
   <stop stop-color="#1a2024" offset="1"/>
  </linearGradient>
  <clipPath id="clipPath8700" clipPathUnits="userSpaceOnUse">
   <path d="m2750.1 6796.3c0 8.06-2.07 15.63-5.69 22.22-23.47 9.31-49.45 12.48-74.5 9.05-7.57-8.23-12.25-19.19-12.25-31.27 0-20.55 13.43-37.94 31.98-43.96 2.26-0.6 4.55-1.12 6.85-1.62 2.41-0.38 4.88-0.64 7.4-0.64 25.52 0 46.21 20.7 46.21 46.22z"/>
  </clipPath>
  <linearGradient id="linearGradient8706" gradientUnits="userSpaceOnUse" gradientTransform="matrix(0 66.263 66.263 0 2703.9 6760.7)">
   <stop stop-color="#805828" offset="0"/>
   <stop stop-color="#100f0d" offset="1"/>
  </linearGradient>
  <clipPath id="clipPath8716" clipPathUnits="userSpaceOnUse">
   <path d="m2663 6796.3c0-22.59 18.3-40.91 40.9-40.91 22.58 0 40.89 18.32 40.89 40.91 0 9.53-3.28 18.27-8.74 25.23-18.38 6.01-37.98 8.44-57.29 7-9.58-7.48-15.76-19.12-15.76-32.23z"/>
  </clipPath>
  <linearGradient id="linearGradient8724" gradientUnits="userSpaceOnUse" gradientTransform="matrix(0 66.267 66.267 0 2703.9 6760.7)">
   <stop stop-color="#976348" offset="0"/>
   <stop stop-color="#976348" offset=".0057804"/>
   <stop stop-color="#43191b" offset="1"/>
  </linearGradient>
  <clipPath id="clipPath8736" clipPathUnits="userSpaceOnUse">
   <path d="m2721 6796.3c0-9.41-7.64-17.04-17.05-17.04-9.42 0-17.05 7.63-17.05 17.04 0 9.42 7.63 17.06 17.05 17.06 9.41 0 17.05-7.64 17.05-17.06z"/>
  </clipPath>
  <linearGradient id="linearGradient8742" gradientUnits="userSpaceOnUse" gradientTransform="matrix(0 -17.179 -17.179 0 2703.9 6793.4)">
   <stop stop-color="#100f0d" offset="0"/>
   <stop stop-color="#9f8578" offset="1"/>
  </linearGradient>
  <clipPath id="clipPath8764" clipPathUnits="userSpaceOnUse">
   <path d="m3157.5 6751.6c0 11.08-3.91 21.25-10.4 29.21-26.41 5.24-54.78 0.6-79.42-13.99-1.67-4.77-2.62-9.87-2.62-15.22 0-22.09 15.52-40.54 36.24-45.11 3.39-0.49 6.77-0.86 10.13-1.1 25.46 0.08 46.07 20.74 46.07 46.21z"/>
  </clipPath>
  <linearGradient id="linearGradient8770" gradientUnits="userSpaceOnUse" gradientTransform="matrix(0 66.257 66.257 0 3111.3 6716)">
   <stop stop-color="#805828" offset="0"/>
   <stop stop-color="#100f0d" offset="1"/>
  </linearGradient>
  <clipPath id="clipPath8780" clipPathUnits="userSpaceOnUse">
   <path d="m3111.3 6710.7c22.59 0 40.9 18.32 40.9 40.9 0 12.19-5.36 23.11-13.82 30.59-21.14 2.44-43.12-1.32-63.12-11.26-3.1-5.76-4.86-12.33-4.86-19.33 0-22.58 18.31-40.9 40.9-40.9z"/>
  </clipPath>
  <linearGradient id="linearGradient8788" gradientUnits="userSpaceOnUse" gradientTransform="matrix(0 66.264 66.264 0 3111.3 6716)">
   <stop stop-color="#976348" offset="0"/>
   <stop stop-color="#976348" offset=".0057804"/>
   <stop stop-color="#43191b" offset="1"/>
  </linearGradient>
  <clipPath id="clipPath8800" clipPathUnits="userSpaceOnUse">
   <path d="m3128.4 6751.6c0-9.41-7.64-17.05-17.06-17.05-9.4 0-17.04 7.64-17.04 17.05 0 9.43 7.64 17.05 17.04 17.05 9.42 0 17.06-7.62 17.06-17.05z"/>
  </clipPath>
  <linearGradient id="linearGradient8806" gradientUnits="userSpaceOnUse" gradientTransform="matrix(0 -17.179 -17.179 0 3111.3 6748.8)">
   <stop stop-color="#100f0d" offset="0"/>
   <stop stop-color="#9f8578" offset="1"/>
  </linearGradient>
 </defs>
 <metadata>
  <rdf:RDF>
   <cc:Work rdf:about="">
    <dc:format>image/svg+xml</dc:format>
    <dc:type rdf:resource="http://purl.org/dc/dcmitype/StillImage"/>
    <dc:title/>
   </cc:Work>
  </rdf:RDF>
 </metadata>
 <g transform="translate(0,-97)">
  <g stroke-width=".29248" transform="matrix(1.2459 0 0 -1.1677 -248.03 974.53)">
   <path d="m309.39 610.63c0.794-7.327 3.228-12.666 4.816-15.479-1.372 0.792-2.648 1.636-3.811 2.518-1.145 4.377-1.224 9.19-1.005 12.961zm41.018-24.029c-10.012 11.079-11.203 28.533-11.214 28.708-0.002 0.034-0.008 0.068-0.017 0.1-2.616 9.718 0.828 26.069 3.868 40.495 0.475 2.251 0.941 4.465 1.377 6.612 3.248 16.033 1.334 35.514 1.312 35.74-0.023 0.135-2.334 13.611-13.828 30.092-11.529 16.534-34.938 23.686-35.173 23.757-0.034 0.01-0.068 0.016-0.103 0.019-0.029 0.003-0.714 0.056-1.947 0.056-5.8 0-26.069-1.289-43.38-17.864-0.59-0.565-1.157-1.128-1.714-1.689l-0.318-0.329-0.187-0.192c-0.385-0.396-0.765-0.793-1.134-1.188-0.177-0.188-0.353-0.378-0.527-0.567-0.372-0.404-0.734-0.808-1.089-1.212l-0.174-0.196-0.243-0.274c-0.481-0.554-0.948-1.106-1.4-1.657l-0.088-0.107-0.081-0.1c-0.391-0.481-0.772-0.961-1.141-1.436-0.119-0.153-0.234-0.305-0.35-0.457l-0.046-0.062c-0.292-0.383-0.577-0.762-0.853-1.139l-0.077-0.106-0.313-0.429c-0.294-0.409-0.578-0.815-0.857-1.22l-0.124-0.18-0.14-0.202c-0.36-0.53-0.707-1.057-1.041-1.581l-0.088-0.139-0.099-0.16c-0.266-0.421-0.526-0.84-0.774-1.253l-0.209-0.349-0.083-0.142c-0.213-0.361-0.421-0.719-0.621-1.073l-0.267-0.476c-0.226-0.408-0.444-0.811-0.655-1.213l-0.069-0.128-0.074-0.139c-0.255-0.489-0.498-0.972-0.73-1.448l-0.123-0.256-0.039-0.084c-0.175-0.361-0.344-0.721-0.506-1.076l-0.124-0.274-0.08-0.178c-0.144-0.326-0.285-0.646-0.42-0.966l-0.071-0.163-0.104-0.247c-0.164-0.391-0.319-0.776-0.485-1.198l-0.044-0.111c-0.166-0.43-0.324-0.85-0.47-1.261l-0.09-0.254-0.039-0.106c-0.102-0.292-0.203-0.582-0.298-0.868l-0.023-0.067-0.111-0.34c-0.087-0.271-0.171-0.536-0.252-0.797l-0.026-0.082-0.086-0.284c-0.102-0.343-0.2-0.677-0.292-1.006l-0.018-0.071-0.026-0.091c-0.086-0.317-0.168-0.628-0.243-0.93l-0.09-0.369c-0.051-0.207-0.1-0.411-0.144-0.604l-0.087-0.385c-0.041-0.187-0.08-0.372-0.116-0.547l-0.072-0.347c-0.046-0.234-0.089-0.46-0.129-0.682l-0.072-0.418-0.069-0.408-0.04-0.268-0.017-0.114-0.041-0.283c-0.018-0.131-0.036-0.256-0.058-0.434-0.026-0.216-0.051-0.417-0.072-0.605l-0.008-0.079-0.007-0.075c-0.018-0.18-0.034-0.343-0.045-0.488l-0.009-0.122-0.006-0.084-0.012-0.148-0.006-0.108-0.019-0.379-0.004-0.088-0.001-0.062v-0.002c-4.729-11.589-3.628-23.302-3.5-24.502-6.905-25.739-3.187-38.692-3.025-39.23 0.023-0.074 0.059-0.137 0.108-0.192-2.232-26.203-24.991-42.717-25.224-42.885-0.188-0.134-0.261-0.38-0.174-0.596 0.076-0.193 0.263-0.316 0.465-0.316 0.024 0 0.048 0.001 0.071 0.005 1.278 0.178 2.727 0.333 4.305 0.462 0.109 0.009 0.213 0.053 0.295 0.127 3.609 3.216 11.278 10.944 17.5 23.215-2.826-7.218-7.11-15.999-12.93-22.179-0.14-0.149-0.176-0.368-0.092-0.554 0.083-0.181 0.261-0.294 0.459-0.294h0.02c2.651 0.109 5.584 0.164 8.717 0.164 1.217 0 2.393-0.008 3.509-0.022l1.518-0.023c0.437-0.007 0.859-0.015 1.271-0.024 2.411-0.051 4.378-0.122 5.601-0.172l0.087-0.004c0.052-0.023 0.108-0.04 0.169-0.044 0.128-0.011 13.001-1.133 27.619-5.003 5.089-1.347 11.836-2.031 20.055-2.031 12.276 0 25.118 1.569 31.457 3.119 9.667 2.362 21.192 3.468 21.307 3.479 0.156 0.015 0.289 0.099 0.37 0.22 2.609-0.028 5.474-0.24 8.532-0.63 0.456-0.059 0.904-0.119 1.343-0.182 2.996-0.425 5.554-0.929 7.176-1.278l0.308-0.066 0.229-0.051 0.363-0.081 0.162-0.036 0.183-0.041 0.213-0.049c0.003-0.001 0.095-0.023 0.097-0.023l0.168-0.04c0.001 0 0.078-0.019 0.079-0.019l0.067-0.016 0.13-0.031 0.256-0.064c0.043-0.011 0.086-0.016 0.129-0.016 0.172 0 0.336 0.088 0.429 0.241 0.116 0.192 0.093 0.435-0.057 0.599" fill="#100f0d"/>
   <g stroke-width=".29248">
    <g transform="scale(.1)">
     <g stroke-width=".29248" clip-path="url(#clipPath8104)">
      <path d="m2703 6561.8c-3.27 22.91-193.06 304.32-193.06 304.32s-111.26 45.81-199.61-114.53c-88.35-160.33-62.17-422.12-62.17-422.12-16.36-274.87-255.24-445.02-255.24-445.02 13.55 1.89 28.14 3.42 43.35 4.66 44.01 39.24 161.91 158.22 224.98 355.28 0 0-54.52-227.08-172.27-352.12 105.72 4.34 218.08-1.28 218.08-1.28l320.68 6.54c26.18 6.55 88.35 58.91 88.35 58.91l45.81 297.77s-55.63 284.69-58.9 307.59" fill="url(#linearGradient8110)"/>
     </g>
    </g>
    <g transform="scale(.1)">
     <g stroke-width=".29248" clip-path="url(#clipPath8120)">
      <path d="m2490.3 6273.9c-26.17-117.8-124.34-297.77-124.34-297.77s107.99 301.05 107.99 320.68c0 19.64-75.27 212.7-75.27 212.7-26.63-258.33-144.3-525.33-187.17-615.76 10.23-0.13 19.94-0.29 28.99-0.49 37.97 89.58 96.66 233.56 122.19 325.02 0 0-33.06-200.48-68.42-326.66 8.16-0.34 12.79-0.57 12.79-0.57l66.59 1.36c71.89 99.57 102.19 233.89 113.38 270.24 13.09 42.54 3.27 111.25 3.27 111.25zm-176.7 134.17s-6.54-209.43-94.89-454.84c0 0 111.25 251.96 121.08 402.49zm189.79-258.51c-4.4-50.54-45.68-177.82-72.33-255.98l69.78 1.43c14.25 117.98 2.55 254.55 2.55 254.55" fill="url(#linearGradient8126)"/>
     </g>
    </g>
    <g transform="scale(.1)">
     <g stroke-width=".29248" clip-path="url(#clipPath8136)">
      <path d="m2420.5 6724.4s-87.25-200.7 6.55-477.76c0 0-74.17 115.62-98.17 246.51-23.99 130.89-6.55 263.96-6.55 263.96s-91.62-233.41-71.98-405.75l-4.36-30.54s-39.27 130.89 30.54 390.49c0 0-15.27 122.17 34.9 244.32 0 0 0 187.61 205.06 383.95s449.39 176.71 449.39 176.71 233.42-69.82 349.04-235.62c115.62-165.79 137.43-298.86 137.43-298.86s19.64-194.16-13.08-355.58c-32.73-161.43-82.9-359.95-52.36-473.39 0 0 10.9-176.7 113.44-290.14 0 0-111.25 28.36-211.6 26.19-100.36-2.19-128.72 43.62-128.72 43.62s-69.81 91.63-63.26 242.16c0 0-24-119.99 6.54-213.8l-71.99 4.37-296.68 220.33-87.26 303.23-95.99 189.78-130.89 45.82" fill="url(#linearGradient8142)"/>
     </g>
    </g>
    <g transform="scale(.1)">
     <g stroke-width=".29248" clip-path="url(#clipPath8152)">
      <path d="m3102.2 6293.5s-55.62-183.24-39.26-320.68c0.39-3.27 0.81-6.45 1.23-9.62l39.12-2.37c-30.54 93.81-6.54 213.8-6.54 213.8-6.55-150.53 63.26-242.16 63.26-242.16s10.41-16.75 40.81-29.51l-0.45 10.97s-104.71 111.26-98.17 379.57" fill="url(#linearGradient8158)"/>
     </g>
    </g>
    <g transform="scale(.1)">
     <g stroke-width=".29248" clip-path="url(#clipPath8168)">
      <path d="m3400.6 6634.5c-14.19-19.27-25.67-56.96-46.46-68.82-12.59-7.18-24.71-2.8-35.38-11.48-16.3-13.26-21.79-46.68-30-65.42-7.42-16.91-11.47-23.82-26.13-32.78-12.76-7.81-19.52-4.7-26.73-21.59-5.61 4.9-8.03 12.68-8.11 20.98-3.92-17.11-6.47-34.68-8.84-51.7l-4.37-41.45c6.17 20.57 22.14 37.38 39.26 50.67 26.28 20.36 40.96 30.93 50.73 64.35 4.32 14.81 6.64 35.04 16.26 46.9 8.42 10.38 20.35 11.91 30.76 19.69 9.73 7.28 42.66 66.82 48.42 26.3 11.87 43.08 22.37 87.59 23.99 131.75-3.07-23.34-9.14-48.04-23.4-67.4zm-1023.8 155.9c-23.04 17.63-30.24 46.62-30.54 75.79-0.17 16.71 6.45 33.31 6.7 49.62 0.16 10.07-6.04 18.17-6.76 22.75-2.92 18.39 5.05 35.29 6.65 54.16l21.82 54.53c-12.3-24.26-33.65-40.35-43.03-67.62-7.55-21.95-13.86-47.71-13.8-71.33 4.68 19.88 13 10.9 17.57 1.53 4.09-8.38 1.7-20.88 2.17-30.55 1.06-21.99 3.53-41.95 8.79-63.25 10.3-41.79 46.96-64.81 43.58-110.6 2.98 17.85 13.45 39.73 25.29 53.6-3.49-3.92-8.04-4.03-11.84-5.99-5.28 22.74-10.02 24.66-26.6 37.36zm729.01 657.92c12.59-18.1 21.37-24.15 2.33-41.76-10.47-9.68-28.84-16.57-41.82-19.1-37.52-7.3-72.4 9.24-109.2 11.02-34.3 1.67-74.9-6.55-106.89 3.77-16.25 5.23-29.24 15.07-40.9 27.31-4.55 4.77-7.45 9.65-12.04 14.15-3.08 2.99-0.17 6.84-3.13 9.94-3.73 3.9-10.62-1.22-13.89 1.39-0.57 0.16-1.13 0.32-1.7 0.48 1.6 3.4 0.97 6.69 3.76 10.2-11.88-2.63-36.19-12.48-41.17-23.61l26.17 6.54c-4.63-7.69-11.92-15.8-10.57-25.84 35.88 0.36 58.16-30.83 91.28-41.3 43.07-13.61 93.98 5.72 139.2 3.87 33.87-1.39 86.75-33.43 113.31-8.23 12.77 12.13 7.05 20.39 28.91 17.44 13.05-1.76 30.18-12.79 34.9-20.42-0.48 30.97-30.27 64.48-58.55 74.15zm200.42-237.45c4.89-23.18 5.6-40.11 17.45-61.57 11.89-21.54 23.07-34.24 11.38-58.42-9.24-19.1-26.69-22.85-31.07-44.11-5.06-24.58 7.37-51.06 2.23-75.87-5.99-28.81-22.5-16.97-38.83-28.81-14.11-10.21-15.04-31.5-16.2-47.32-2.75 2.88-9.21 5.47-11.84 8.32 1.7-7.7 1.72-15.76 1.37-23.81l-15.28 45.81c8.73-39.27 13.1-226.88 13.1-220.34 0 6.56 15.26 63.27 15.26 63.27 4.37 28.36 41.46 91.63 65.45 113.45 24 21.81 30.55 102.52 24 146.16-6.54 43.62 17.45 52.35 10.91 91.62-6.55 39.26-34.91 119.97-69.81 161.42-34.9 41.46-93.8 102.53-93.8 102.53 19.13-19.43 34.61-43.32 48.47-67.09 20.71-35.46 58.42-63.69 67.21-105.24zm-667.12 198.51c-18.85-13.98-36.51-28.97-52.89-45.76-13.72-14.03-46.72-35.6-52.41-54.47-2.02-6.74 3.84-15.63 2.22-24.16-1.56-8.22-6.66-16.57-11.39-23.95-11.52-17.97-27.82-31.57-38.71-50.17-8.67-14.81-15.95-36.34-9.27-52.88 6.53-16.24 24.63-24.49 26.71-43.12 4.35-39.24-35.08-84.1-43.14-122.16-4.22-19.94-1.93-27.8 10.96-43.08 14.69-17.41 15.63-20.59 8.51-43.51 17.91 30.03 31.76 61.67 46.03 93.25 10.5 23.25 5.37 55.16 25.04 74.55-0.5-0.17-0.99-0.34-1.49-0.5-6.58 5.77-30.37-12.73-41.11 4.8-9.91 16.2 10.99 48.66 16.48 62.96 8.96 23.33 8.48 28.92-6.49 47.38-7.57 9.37-11.84 3.34-12.71 17.83-0.83 13.79 15.81 28.44 23.62 37.74 15.12 18.04 35.16 36.76 41.92 58.37 5.66 18.08 6.1 25.22 21.83 42.41 35.38 38.68 78 78.59 122.16 105.92l43.63 17.46c-46.47-10.77-82.02-31.11-119.5-58.91zm-88.13-335.24c-0.08-0.08-0.14-0.16-0.21-0.22 0.1 0.03 0.22 0.06 0.32 0.09 0.75 0.87 0.71 0.91-0.11 0.13" fill="url(#linearGradient8174)"/>
     </g>
    </g>
    <g transform="scale(.1)">
     <g stroke-width=".29248" clip-path="url(#clipPath8184)">
      <path d="m3204.8 6251.4c7.22 183.09 63.27 359.72 74.93 542.1 3.39 52.97 1.15 106.3-8.37 158.55-8.07 44.29-24.27 85.65-43.48 126.14-26.82 56.5-74.27 140.44-148.61 130.77-0.42-0.05-0.44-0.68 0-0.66 72.36 2.32 113.97-73.74 141.12-130.14 38.39-79.72 53.47-162.57 52.17-250.88-1.35-92.22-19.98-183.71-34.85-274.45-14.59-89.09-29.13-178.48-35.15-268.63-6.6-99.27-2.5-200.14 26.97-295.73 10.62-34.44 24.78-67.73 41.8-99.54 3.37-0.1 6.87-0.16 10.44-0.16-16.39 28.98-30.53 59.32-41.65 91.35-30.09 86.66-38.91 180.03-35.32 271.28zm182.06-98.62c-30.54 113.44 19.63 311.96 52.36 473.39 32.72 161.42 13.08 355.58 13.08 355.58s-21.81 133.07-137.43 298.86c-115.62 165.8-349.04 235.62-349.04 235.62s-244.33 19.63-449.39-176.71c-162.35-155.44-196.16-305.4-203.19-361.12l1.94 2.86c-0.92-2.9-1.79-5.85-2.64-8.82-1.16-10.89-1.17-16.87-1.17-16.87-50.17-122.15-34.9-244.32-34.9-244.32-69.81-259.6-30.54-390.49-30.54-390.49l4.36 30.54c-19.64 172.34 71.98 405.75 71.98 405.75s-17.44-133.07 6.55-263.96c24-130.89 98.17-246.51 98.17-246.51-1.69 5.02-3.31 9.98-4.89 14.93-24.48 43.55-131.04 253-84.55 526.08 0 0 111.25 196.34 253.05 325.05 0 0-277.05-213.78-331.59-527.92 0 0 17.46 202.87 143.99 388.31 126.52 185.42 294.5 309.77 294.5 309.77s-325.36-235.63-408.22-493.93c-0.97 51.78 8.07 348.3 334.04 465.57 0 0-181.26-54.41-272.29-197.12 19.29 53.98 81.25 201.22 215.67 313.65 10.29 1.08 20.44 2 30.15 3.04 49.83 5.31 100.97 7.57 150.99 4.02 43.68-3.09 91.68-9.68 128.5-35.43 33.45-23.39 34.14-66.68 15.24-99.67-2.66-4.65-4.91-8.34-6.65-13.42s6.09-8.28 8.6-3.62c10.84 20.16 21.32 37.26 21.96 60.94 0.42 15.35-5.45 29.82-15.36 41.32-24.25 28.1-65.14 39.78-99.97 47.1-70.08 14.73-147.1 18.29-219.63 6.93 72.16 56.94 164.05 103.33 279.78 121.46 6.88-2.34 13.7-4.76 20.41-7.25 35.37-13.1 69.6-30.02 99.26-53.57 29.46-23.39 55.8-55.6 56.44-94.9 0.8-47.95-43.47-84.84-79.38-109.29-4.72-3.22-0.67-10.19 4.47-7.65 40.08 19.84 68.15 59.35 77.31 102.58 8.16 38.55-11.15 75.08-36.89 102.55-32.34 34.5-75.79 56.74-121.85 70.32 25.97 3.26 53.05 5.18 81.37 5.43 0 0 29.8-7.39 74.67-26.9 18.1-22.44 29.96-49.14 32.41-80.97 5.08-65.97-30.51-134.49-83.6-172.64-1.08-0.78-0.14-2.49 1.05-1.82 56.64 32.54 89.91 106.75 91.34 169.93 0.62 27.43-6.73 54.1-21.87 76.77 25.42-11.96 54.41-27.41 84.9-47.02 22.92-41.83 32.19-93.27 0.2-128.88-35.01-38.97-104.26-37.67-129.7-86.89-0.44-0.86 0.76-1.91 1.41-1.08 21.27 26.94 48.43 39.28 79.63 51.8 26.21 10.51 52.17 23.73 68.16 47.86 22.52 33.97 13.2 74.23-6.95 108.79 108.52-73.08 231.84-198.82 279.75-406.78-7.88 4.81-15.71 9.7-23.44 14.76-41.69 27.25-80.78 58-117.95 91.12-65.48 58.35-142.13 121.01-236.23 99.75-0.16-0.04-0.09-0.28 0.06-0.24 50.67 10.09 98.68-3.81 142.6-29.15 42.55-24.54 75.02-59.36 110.47-92.52 32.64-30.54 67.62-58.5 105.08-82.91 7.3-4.76 14.79-9.59 22.43-14.39 1.15-5.47 2.28-10.95 3.33-16.52 0 0 30.54-191.97-39.26-497.38 0 0-33.74-130.82-30.81-281.46-8.75 50.85-13.82 102.36-16.79 153.82-9.19 159.62 5.55 319.47 12.79 478.87 0.01 0.13-0.19 0.13-0.2 0-10.88-161.23-28.19-322.44-21.05-484.27 3.19-72.43 12.03-146.7 29.45-218.62 9.91-96.58 38.43-194.26 102.96-265.7 0.4-0.45 0.79-0.87 1.2-1.32 14.32-3.06 22.8-5.23 22.8-5.23-102.54 113.44-113.44 290.14-113.44 290.14zm-95.58 243.74c3.25 48.31 7.93 96.45 10.74 144.8 2.82 48.7 5.63 97.41 10.71 145.93 0.01 0.06-0.09 0.06-0.09 0-5.48-48.52-8.7-97.22-11.89-145.93-3.32-50.52-8.93-100.73-12.94-151.16-6.98-87.78-1.33-176.3 15.44-262.74 14.43-74.4 37.92-147.35 72.33-214.95 5.11-10.03 10.56-20.03 16.28-29.94 4.61-0.58 9.12-1.2 13.55-1.83-47.23 76.64-77.17 164.11-95.69 253.35-18.01 86.79-24.4 173.99-18.44 262.47" fill="url(#linearGradient8190)"/>
     </g>
    </g>
    <g transform="scale(.1)">
     <g stroke-width=".29248" clip-path="url(#clipPath8200)">
      <path d="m3301.8 5886.7c-135.25 30.54-235.6 91.63-270.51 167.98-34.9 76.35-21.81 377.4-21.81 377.4h-421.03c6.54-78.53 13.09-248.7-32.72-355.59-45.81-106.88-257.42-185.42-257.42-185.42s128.71-10.91 277.05-50.18c148.34-39.26 414.48-13.08 512.65 10.91s213.79 34.9 213.79 34.9" fill="url(#linearGradient8206)"/>
     </g>
    </g>
    <g transform="scale(.1)">
     <g stroke-width=".29248" clip-path="url(#clipPath8216)">
      <path d="m2478.8 6849.8s49.09 101.44 57.28 117.81l55.62 148.88s129.26 109.61 168.52 116.16c39.27 6.54-65.44-232.32-70.35-248.69-4.91-16.35-173.43-263.42-173.43-263.42l-31.08 6.54-6.56 122.72" fill="url(#linearGradient8222)"/>
     </g>
    </g>
    <g transform="scale(.1)">
     <g stroke-width=".29248" clip-path="url(#clipPath8232)">
      <path d="m3095.6 7208.1c-67.08 44.18-175.06 65.45-175.06 65.45-50.73-4.91-94.9-16.36-142.35-32.73l-14.72-8.18 17.99-34.36 220.88-32.72 93.26 42.54" fill="url(#linearGradient8238)"/>
     </g>
    </g>
    <g transform="scale(.1)">
     <g stroke-width=".29248" clip-path="url(#clipPath8248)">
      <path d="m2896.8 7270.6c-0.59-0.08-1.17-0.18-1.76-0.26 4.73-9.69 8.48-19.89 10.99-30.65 4.73-20.27 3.94-40.15 2.94-60.34-0.31-6.22-0.64-12.45-0.84-18.75-0.03-1.06 1.68-1.32 1.88-0.26 1.17 6.02 1.98 12.22 2.5 18.49 1.72 20.5 0.12 41.89-4.45 61.4-2.49 10.71-6.34 20.81-11.26 30.37zm106.8-19.95c-4.38-10.01-9.59-19.64-15.4-29.02-4.69-7.6-9.85-14.91-15.14-22.09-2.27-3.11-6.34-11.35-10.34-10.67-1.29 0.23-2.58 0.46-3.86 0.65 12.95 20.77 28.68 40.26 35.34 64.26-1.05 0.34-2.11 0.67-3.15 1.01-0.84-3.07-1.86-5.99-2.77-8.49-7.52-20.49-20.86-39.16-32.93-57.18-0.65-0.96 0.23-1.98 1.19-2.08 1.71-0.2 7.04-0.53 8.25-1.82 0.77-0.81 2.38-0.92 3.13 0 15.86 19.45 30.93 40.44 41.1 63.55-1.81 0.64-3.63 1.27-5.42 1.88zm68.74-28.96c-3.79-5.62-8.19-10.96-13.25-16.15-12.51-12.78-27.43-23.04-42-33.3-0.26-0.18-0.51-0.36-0.76-0.54-1.55-1.09-0.08-3.66 1.5-2.55 4.5 3.13 8.99 6.31 13.42 9.54 16.59 12.15 32.21 25.25 44.05 41.44-0.98 0.53-1.98 1.03-2.96 1.56zm-43.55-16.07c8.43 7.98 16.17 16.72 22.74 26.24-1.55 0.7-3.11 1.41-4.67 2.08-5.73-8.27-12.36-15.97-19.38-23.21-6.09-6.29-12.65-12.11-19.36-17.73-3.2-2.68-4.78-3.5-9.09-3.53-4.15-0.04-11.26 0.74-13.66 0.36 6.63 1.07 14.31 7.15 19.69 10.9 6.74 4.69 12.81 10.28 18.43 16.24 5.99 6.33 10.82 13.25 15.26 20.44-1.1 0.45-2.18 0.9-3.28 1.34-4.8-7.54-10.42-14.62-16.22-20.94-5.36-5.84-11.42-11-17.86-15.61-6.07-4.36-13.27-7.15-19.13-11.68-0.4-0.31-0.15-0.98 0.29-1.09 3.84-0.92 7.68-1.37 11.62-1.7 3.18-0.26 8.7-1.43 11.75-0.41 8.57 2.83 16.43 12.22 22.87 18.3zm-69.68 58.58c0.6-19.43-6.35-39.78-12.29-59.07 0.64 8.79 0.51 17.66-0.14 26.44-0.96 12.69-3.36 25.55-7.54 37.75-1.2 0.29-2.33 0.56-3.44 0.82 3.84-12.55 5.98-25.68 6.98-38.57 1.02-13.25 0.37-26.68-1.86-39.78-0.41-2.38-0.93-4.75-1.51-7.08-2.2-0.01-4.38 0.12-6.54 0.6 1.27 19.86 1.45 39.21-2.96 58.8-2.31 10.24-6 19.98-10.74 29.22-1.08-0.11-2.12-0.25-3.2-0.37 2.46-4.96 4.62-10.09 6.46-15.29 8.21-23.08 9.5-49.43 5.81-73.54-0.14-0.94 0.05-2.18 1.06-2.61 2.78-1.2 5.7-1.82 8.68-2.15-0.37-1.28-0.69-2.56-1.09-3.83-0.03-0.1-0.08-0.2-0.11-0.29-1.76-5.38-5.05-10.39-6.27-15.84-0.36-1.57 1.55-2.82 2.76-1.61 4.03 4.06 6.57 10.28 8.39 16.72 0.41 1.51 0.8 3.02 1.15 4.53 0.25 0 0.49-0.02 0.74-0.02 1.21-0.01 2.5 0.86 2.74 2.09 5.21 24.99 18.95 54.26 18.69 81.5-1.96 0.55-3.9 1.08-5.77 1.58zm-142.41-11.15c2.39-3.15 4.59-6.45 6.63-9.82 6.78-11.23 11.37-24.26 11.37-37.46-6.43 1.35-9.46 9.31-12.07 14.79-3.05 6.37-6.05 12.61-10.92 17.82-3.57 3.8-7.81 6.88-12.43 9.36-1.69-0.54-3.39-1.07-5.08-1.62 8.41-4.47 15.62-10.79 20.15-19.4 4.99-9.46 9.28-26.57 22.75-25.98 1.37 0.06 2.35 1.05 2.41 2.41 0.91 18.46-8.85 36.51-20.68 50.51-0.71-0.2-1.42-0.39-2.13-0.61zm42.7-40.56c-3.44 14.67-9.26 28.91-17.32 41.67-1.07 1.67-2.17 3.32-3.31 4.91-1.74-0.45-3.48-0.87-5.21-1.33 2.23-3.02 4.33-6.2 6.28-9.53 7.11-12.1 11.61-25.56 14.74-39.18 1.69-7.35 2.38-14.7 2.96-22.06 0.5-6.27 0.91-12.54 1.78-18.82 0.41-2.94 4.42-1.77 4.73 0.64 0.71 5.52 0.62 11.34 0.08 17.2-0.84 9.05-2.78 18.19-4.73 26.5zm21.78 55.68c11.69-20.93 13.12-49.25 16.45-71.95-20.65 1.77-16.97 35.95-21.33 50.97-1.99 6.84-6.06 12.86-11.09 18-1.77-0.36-3.52-0.79-5.28-1.17 1.89-2.03 3.71-4.16 5.4-6.39 9.66-12.84 8.31-29.45 11.18-44.5 2.49-13.14 9.76-23.98 24.4-22.64 1.94 0.18 3.1 1.66 2.74 3.59-4.27 23.15-6 52.83-18.38 74.78-1.37-0.21-2.73-0.46-4.09-0.69" fill="url(#linearGradient8254)"/>
     </g>
    </g>
    <g transform="scale(.1)">
     <g stroke-width=".29248" clip-path="url(#clipPath8264)">
      <path d="m2778.3 7240.8c35.63 11.89 72.42 20.94 109.51 26.8 9.87 1.56 19.78 2.72 29.71 3.75 2.45 0.25 3.1 0.27 5.29-0.21 6.06-1.29 12.1-2.72 18.11-4.21 53.73-13.25 106.38-31.63 154.21-59.76 1.26-0.74 2.26 1.11 1.12 1.93-24.18 17.38-52.48 29.21-80.3 39.47-24.14 8.91-48.95 16.14-73.97 22.21-6.18 1.5-12.4 2.93-18.63 4.21-9.41 1.96-21.16-1.6-30.55-3.04-39.42-5.99-77.04-17.81-114.53-31.04-0.08-0.02-0.05-0.14 0.03-0.11" fill="url(#linearGradient8270)"/>
     </g>
    </g>
   </g>
   <path d="m321.67 685.96c-1.309 35.34-12.871 34.904-12.871 34.904-7.199-0.873-29.668 2.182-29.668 2.182l-1.963 0.436c-5.236-1.527-17.016-11.999-17.016-11.999-2.836-6.108-6.109-15.27-6.109-15.27s-1.963-7.854-2.617-10.471c-0.655-2.618-1.309-11.563-1.309-11.563 0 2.4-2.399 10.691-2.399 10.691-2.4-3.928-5.89-12.217-5.89-12.217 1.308-3.927 2.398-11.997 7.198-13.525l0.437-0.874c0.654-8.944 7.078-16.245 9.162-18.106 6.108-5.453 11.712-11.227 18.374-15.211 3.855-2.306 7.961-2.97 12.385-3.113 6.762-0.219 10.253 5.672 17.888 11.125 7.636 5.454 13.525 14.835 13.525 14.835 1.745 17.888 0.873 38.176 0.873 38.176" fill="#f38b5d"/>
   <g stroke-width=".29248">
    <g transform="scale(.1)">
     <g stroke-width=".29248" clip-path="url(#clipPath8282)">
      <path d="m2631 6951.2c-7.3 3.16 36.16 99.63 39.98 106.21 43.6 75.08 120.45 114.96 204.57 126.29 80.42 10.82 187.84 14.97 246.43-53.3 22.58-26.33 88.91-264.3 58.75-270.82-0.01 0-121.07-26.18-121.07-26.18l-157.07-9.82-98.17 52.35s-173.29 75.21-173.42 75.27" fill="url(#linearGradient8288)"/>
     </g>
    </g>
    <g transform="scale(.1)">
     <g stroke-width=".29248" clip-path="url(#clipPath8298)">
      <path d="m2647.2 6435.3c81.97 17.75 130.63 114.32 108.67 215.71-21.95 101.37-106.21 169.15-188.18 151.4-24.95-5.4-46.79-18.15-64.52-36.07-1.23-14.42-1.97-24.56-1.97-24.56 0 4.72-0.94 11.72-2.43 19.9-30.73-33.93-47.68-84.27-44.65-138.77 9.08-14.97 20.68-26.72 36.17-31.64l4.37-8.74c3.44-47 22.82-89.46 43.45-121.88 32.56-23.39 71.07-33.58 109.09-25.35" fill="url(#radialGradient8304)"/>
     </g>
    </g>
    <g transform="scale(.1)">
     <g stroke-width=".29248" clip-path="url(#clipPath8314)">
      <path d="m3218.6 6783.3c-51.55-12.27-106.1-65.98-137.2-141.81-41.91-102.21-25.34-205.8 37.03-231.37 10.87-4.46 22.42-6.2 34.3-5.58 33.8 39.09 55.27 73.27 55.27 73.27 10.78 110.51 11.58 230.15 10.6 305.49" fill="url(#radialGradient8320)"/>
     </g>
    </g>
    <g transform="scale(.1)">
     <g stroke-width=".29248" clip-path="url(#clipPath8330)">
      <path d="m2506.6 6758.2-3.57 7.16c-1.19-13.86-1.89-23.52-1.89-23.52 0 8.42-2.95 24.08-6.78 40.84l-0.85 1.7s19.63-88.34 6.54-143.98c-13.09-55.62-22.9-42.53-22.9-42.53l0.01-0.25c4.03-2.65 8.37-4.79 13.07-6.29l4.37-8.74c6.54-89.44 70.78-162.45 91.62-181.06 42.94-38.35 83.42-78.25 126.82-112.42-112.3 116.44-99.03 203.04-147.54 272.76-52.36 75.26-58.9 196.33-58.9 196.33" fill="url(#linearGradient8336)"/>
     </g>
    </g>
    <g transform="scale(.1)">
     <g stroke-width=".29248" clip-path="url(#clipPath8346)">
      <path d="m3000.8 6440.8c0-52.41-42.48-94.9-94.89-94.9-52.4 0-94.89 42.49-94.89 94.9s42.49 94.9 94.89 94.9c52.41 0 94.89-42.49 94.89-94.9" fill="url(#radialGradient8352)"/>
     </g>
    </g>
    <g transform="scale(.1)">
     <g stroke-width=".29248" clip-path="url(#clipPath8362)">
      <path d="m3208 6477.8c9.76 100.02 11.33 207.54 10.83 282.91l-25.01-22.22s13.09-255.24-91.62-379.59c-4.73-5.63-8.97-11.19-12.78-16.69 68.08 55.2 118.58 135.59 118.58 135.59" fill="url(#linearGradient8368)"/>
     </g>
    </g>
    <g transform="scale(.1)">
     <g stroke-width=".29248" clip-path="url(#clipPath8378)">
      <path d="m3088 7208.6c-71.99-8.73-296.68 21.82-296.68 21.82l-19.63 4.36c-52.36-15.27-170.16-119.99-170.16-119.99-28.36-61.08-61.09-152.7-61.09-152.7s-4.6-18.41-10.08-40.36l22.09 6.54s71.98 72 98.16 134.16c26.19 62.18 104.72 143.99 245.42 137.44 140.71-6.54 196.34-3.28 222.52-29.45 26.17-26.18 71.99-117.8 81.8-307.59 0 0 7.16-2.04 16.41-4.52-0.03 0.82-0.05 1.25-0.05 1.25-13.09 353.4-128.71 349.04-128.71 349.04" fill="url(#linearGradient8384)"/>
     </g>
    </g>
    <g transform="scale(.1)">
     <g stroke-width=".29248" clip-path="url(#clipPath8394)">
      <path d="m2487.8 6661.6s-13.09 32.72-4.09 50.71l4.09 10.64-23.72 55.63 19.63 49.08-6.54 21.27s-45.82-85.08-58.09-119.44c0 0 20.45-101.44 48.27-123.53 0 0-8.18 31.91-4.91 38.46 3.27 6.54 28.63-3.27 28.63 4.08 0 7.37-3.27 13.1-3.27 13.1" fill="url(#linearGradient8400)"/>
     </g>
    </g>
    <g transform="scale(.1)">
     <g stroke-width=".29248" clip-path="url(#clipPath8410)">
      <path d="m2447.8 6684.5s2.45 38.45 7.36 40.9c4.91 2.46 13.9-12.27 13.9-12.27s-4.9-32.71 15.55-37.62l-4.09 22.89 7.36 24.55s-26.18 61.35-35.99 71.99l-4.09-2.46-28.64-62.99 3.28-15.54s13.9 41.72 18.81 45c4.91 3.27 11.45-10.64 11.45-10.64s-20.45-45.81 1.64-83.44l-6.54 19.63" fill="url(#linearGradient8416)"/>
     </g>
    </g>
    <g transform="scale(.1)">
     <g stroke-width=".29248" clip-path="url(#clipPath8426)">
      <path d="m2456.7 6790.9 23.73 44.99-3.27 13.09-25.36-53.99 4.9-4.09" fill="url(#linearGradient8432)"/>
     </g>
    </g>
    <g transform="scale(.1)">
     <g stroke-width=".29248" clip-path="url(#clipPath8442)">
      <path d="m2833.7 6595.5c9.76 4.33 18.62 16.66 23.94 26.35 15.79 28.85 17.64 60.55 13.07 92.4-1.35 9.39-5.12 42.96-16.51 46.32-9.42 2.76-15.26-11.77-18.88-18.18-5.8-10.25-11.93-22.26-21.08-30-13.77-11.66-18.23-33.53-18.22-50.6 0.01-19.28 4.34-43.68 16.29-59.3 6.93-9.08 14.39-10.1 21.39-6.99" fill="url(#linearGradient8448)"/>
     </g>
    </g>
    <g transform="scale(.1)">
     <g stroke-width=".29248" clip-path="url(#clipPath8458)">
      <path d="m2984.4 6724.4s-11.99-58.91-11.99-81.8c0-22.92 7.63-57.82 17.44-57.82 9.82 0 25.1 40.35 28.37 61.09 3.27 20.72-7.63 78.53-18.55 93.8l-15.27-15.27" fill="url(#linearGradient8464)"/>
     </g>
    </g>
    <g transform="scale(.1)">
     <g stroke-width=".29248" clip-path="url(#clipPath8474)">
      <path d="m2910 6519.3s-31.09 10.63-33.55 39.26 9.82 160.34 9.82 160.34l85.08-5.73s-9.83-96.53-10.64-134.97c-0.82-38.46-8.18-67.09-50.71-58.9" fill="url(#linearGradient8480)"/>
     </g>
    </g>
   </g>
   <path d="m287.4 658.88s5.809 2.209 8.917-0.736l0.409 0.654-0.245 0.818s-3.354 2.536-9.326 0.327l0.245-1.063" fill="#f38b5d"/>
   <g stroke-width=".29248">
    <g transform="scale(.1)">
     <g stroke-width=".29248" clip-path="url(#clipPath8492)">
      <path d="m2809.9 6554.2c0.23-8.12 9.38-11.45 16.41-7.93 6.44 3.23 10.09 12.85 12.24 18.83 7.57 21.01-1.73 31.4-23.04 30.38-0.24-13.19-2.35-28.47-6.71-40.19l1.1-1.09" fill="url(#linearGradient8498)"/>
     </g>
    </g>
    <g transform="scale(.1)">
     <g stroke-width=".29248" clip-path="url(#clipPath8508)">
      <path d="m2996.4 6524.8c-12.15 7.85-21.69 12.2-20.72 28.35 0.28 4.73 1.22 14.99 4.4 18.52 4.23 4.69 9.65 2.41 16.4 3.98-0.33-14.03-0.08-28.11-0.08-42.14v-8.71" fill="url(#linearGradient8514)"/>
     </g>
    </g>
    <g transform="scale(.1)">
     <g stroke-width=".29248" clip-path="url(#clipPath8524)">
      <path d="m2808.5 6538.1s8.18-4.1 16.36-4.91c8.18-0.82 40.08 0.81 60.53-14.72 20.46-15.54 51.54-22.09 72 3.27 0 0 22.9 8.18 36.81-5.73 0 0-4.09-16.36-21.27-22.09 0 0-28.63-41.72-67.08-36.81-38.46 4.92-70.35 20.46-87.54 56.44 0 0-9.81 12.27-9.81 24.55" fill="url(#linearGradient8530)"/>
     </g>
    </g>
   </g>
   <path d="m295.82 650.87-0.491-0.655c1.635-0.081 1.718 0.9 1.718 0.9zm-11.617 1.309c0.818-1.718 3.109-1.309 3.109-1.309-0.982 0.982-2.782 1.309-2.782 1.309h-0.327" fill="#100f0d"/>
   <g stroke-width=".29248" transform="scale(.1)">
    <g stroke-width=".29248" clip-path="url(#clipPath8542)">
     <path d="m2611.4 6810.5s-58.9 11.46-63.81 55.63 8.18 80.17 63.81 85.08 78.53-26.18 94.89-34.36 112.89-44.17 112.89-44.17l16.37-34.36s8.18-55.63-21.28-80.18c0 0-65.44 13.1-71.98 11.46s-106.36 35.99-106.36 35.99l-24.53 4.91" fill="url(#linearGradient8548)"/>
    </g>
   </g>
   <g stroke-width=".29248" transform="scale(.1)">
    <g stroke-width=".29248" clip-path="url(#clipPath8558)">
     <path d="m3028.6 6730.4s-9.82 45.81 13.08 75.25l29.46 22.91 31.08 6.54 55.63 9.82 54 13.1 6.53-4.91s-1.63-80.18 1.64-93.27l-29.44-4.91s-57.27-26.18-62.17-26.18c-4.92 0-99.81 1.65-99.81 1.65" fill="url(#linearGradient8564)"/>
    </g>
   </g>
   <path d="m249.06 659.24c-2.653 0.896-4.011 3.616-4.927 6.068-0.883 2.365-1.365 4.847-2.131 7.247-0.092 0.291 0.353 0.992 0.488 1.303 0.477 1.095 0.966 2.187 1.464 3.274 1.191 2.601 2.409 5.219 3.895 7.668-0.09 0.011-0.18 0.024-0.27 0.034 0.409-1.415 0.789-2.839 1.153-4.267 0.523-2.048 1.213-4.252 1.238-6.383 0.003-0.196 0.288-0.191 0.302 0 0.157 2.136 0.348 4.27 0.571 6.4 0.278 2.645 0.744 5.157 1.388 7.73 0.64 2.557 1.278 5.113 1.917 7.668 0.437 1.745 1.246 3.461 1.886 5.137 0.7 1.836 1.421 3.662 2.168 5.48 0.399 0.971 0.808 1.937 1.228 2.9 0.189 0.431 0.381 0.861 0.575 1.291 0.082 0.181 0.151 0.492 0.302 0.626 1.323 1.169 2.677 2.304 4.043 3.422 2.455 2.009 4.971 3.959 7.612 5.719 1.16 0.772 2.352 1.505 3.605 2.12 0.497 0.244 1.009 0.458 1.537 0.626 0.369 0.118 1.14-0.215 1.525-0.3 1.003-0.222 2.036-0.311 3.054-0.438 2.515-0.317 5.033-0.609 7.554-0.879 5.877-0.627 11.866-1.312 17.785-1.104 1.435 0.051 2.292 0.252 3.598-0.365 2.208-1.043 3.798-3.129 4.989-5.191 2.709-4.689 3.895-10.233 4.711-15.526 0.89-5.775 1.179-11.619 1.317-17.453 0.186-7.842 0.128-15.697-0.239-23.535-0.112-2.419-0.262-4.839-0.45-7.256-0.046-0.58-0.094-1.159-0.145-1.739-0.025-0.288-0.052-0.577-0.078-0.866-0.015-0.165 0.025-0.647-0.062-0.785-0.089-0.141-0.18-0.28-0.271-0.418-1.498-2.278-3.165-4.449-4.929-6.526-1.315-1.547-2.709-3.029-4.18-4.429-1.671-1.591-3.501-2.936-5.335-4.325-3.403-2.579-6.342-5.785-9.907-8.144-1.548-1.025-3.265-1.754-5.114-1.98-2.216-0.271-4.641 0.07-6.822 0.458-4.945 0.88-9.032 3.626-12.905 6.688-2.94 2.324-5.693 4.875-8.448 7.413-1.951 1.797-4.032 3.493-5.787 5.491-3.924 4.469-6.892 10.179-7.37 16.165-0.012 0.166-0.27 0.167-0.258 0 0.533-6.686 4.08-13.354 8.915-17.967 3.394-3.239 6.903-6.417 10.472-9.463 3.473-2.962 7.254-6.007 11.568-7.624 2.094-0.784 4.317-1.17 6.535-1.38 1.94-0.183 3.881-0.282 5.778 0.233 3.515 0.952 6.313 3.719 8.967 6.058 1.866 1.644 3.762 3.249 5.783 4.702 1.67 1.202 3.225 2.546 4.699 3.978 2.566 2.494 4.869 5.263 6.979 8.148 0.575 0.786 1.134 1.587 1.669 2.4 0.08 0.12 0.158 0.241 0.234 0.362 0.133 0.21 0.083 0.702 0.106 0.945 0.063 0.675 0.121 1.349 0.176 2.024 0.392 4.766 0.608 9.545 0.729 14.324 0.166 6.585 0.147 13.181-0.072 19.765-0.212 6.43-0.708 12.881-2.044 19.184-0.945 4.451-2.312 9.083-4.975 12.838-1.172 1.654-2.702 3.211-4.635 3.938-1.528 0.575-3.17 0.148-4.76 0.144-6.062-0.009-12.145 0.672-18.162 1.341-3.378 0.377-6.766 0.69-10.086 1.429-0.311 0.068-0.88-0.279-1.166-0.4-0.592-0.251-1.163-0.551-1.725-0.862-1.3-0.72-2.541-1.547-3.759-2.398-2.481-1.731-4.858-3.614-7.188-5.542-0.822-0.68-1.636-1.369-2.444-2.065-0.236-0.204-0.773-0.51-0.91-0.804-1.628-3.521-3.056-7.135-4.436-10.758-0.606-1.592-1.352-3.209-1.766-4.867-0.657-2.63-1.315-5.26-1.972-7.891-1.139-4.552-1.535-9.193-1.877-13.867h0.302c-0.025 2.043-0.669 4.141-1.163 6.107-0.387 1.547-0.801 3.09-1.246 4.622-0.035 0.123-0.202 0.145-0.269 0.036-1.553-2.564-2.808-5.316-4.045-8.044-0.487-1.077-0.964-2.16-1.432-3.246-0.2-0.465-0.479-0.825-0.322-1.313 0.839-2.608 1.362-5.297 2.394-7.845 0.927-2.288 2.348-4.65 4.812-5.475 0.136-0.046 0.194 0.168 0.059 0.214" fill="#c3512b"/>
   <g stroke-width=".29248">
    <g transform="scale(.1)">
     <g stroke-width=".29248" clip-path="url(#clipPath8576)">
      <path d="m2615.1 6831.9c-0.77 3.33-1.94 12.39 1.79 14.85 2.96 1.93 5.8 3.99 8.81 5.84 6.65 4.09 13.88 7.13 21.25 9.62 14.94 5.05 30.8 6.82 46.52 6.66 33.02-0.33 65.74-10.16 92.82-29.13 0.22-0.16 0.51 0.2 0.3 0.37-24.33 19.23-55.43 29.4-86.14 31.58-28.72 2.05-64.91-3.75-86.56-24.47-0.27-0.25-0.38-0.65-0.27-1 1.26-4.6-0.63-9.78 0.52-14.59 0.15-0.62 1.11-0.36 0.96 0.27" fill="url(#linearGradient8582)"/>
     </g>
    </g>
    <g transform="scale(.1)">
     <g stroke-width=".29248" clip-path="url(#clipPath8592)">
      <path d="m3079.3 6805.6c22.66 12.16 48.11 13.87 72.86 7.87 10.93-2.65 21.37-7.14 31.12-12.7 4.34-2.47 12.63-6.41 12.86-11.86 0.22-5.43 2.14-10.47 1.63-16.02-0.07-0.74 1.15-1.09 1.44-0.39 2.44 5.77 2.01 12.25 1.82 18.39-0.04 1.58-1.55 2.88-3.15 2.41-2.65-0.8-9.84 6.06-11.95 7.36-4.72 2.94-9.73 5.38-14.79 7.61-9.82 4.33-20.25 7.09-30.83 8.69-21.04 3.18-42.7-0.5-61.03-11.32-0.04-0.02-0.01-0.07 0.02-0.04" fill="url(#linearGradient8598)"/>
     </g>
    </g>
    <g transform="scale(.1)">
     <g stroke-width=".29248" clip-path="url(#clipPath8608)">
      <path d="m2998.7 6545.7c-0.64 8.78-0.73 17.19-0.63 25.94 0 0.71-0.99 0.8-1.19 0.16-8.15-25.77 9.69-64.23-24.1-76.53-0.65-0.24-0.38-1.25 0.29-1.04 14.53 4.71 23.28 13.43 25.5 28.74 1.1 7.54 0.69 15.16 0.13 22.73zm-20.39-35.39c-4.72 2.26-12.76 3.36-18.05 0.6 0.85 2.11 1.5 4.3 1.83 6.58 0.11 0.67-0.82 1.22-1.19 0.5-7.36-14.09-15.34-24.08-31.2-28.86-14.47-4.36-31.45-2.31-44.93 4.33-0.46 0.22-0.85-0.42-0.4-0.68 14.07-8.29 30.19-10.39 46.04-6.22 10.76 2.83 21.92 10.13 27.8 20.12 0.1 0 0.19-0.04 0.31-0.02 2.56 0.65 4.84 2.1 7.43 2.82 3.9 1.06 7.94 0.63 11.63-0.92 1-0.43 1.71 1.28 0.73 1.75zm-146.09 12.6c-0.44-0.04-0.45-0.7 0-0.68 21.08 0.79 37.67-9.95 49.91-26.3 0.58-0.8 2.08-0.37 1.71 0.71-7.46 21.32-31.13 28.14-51.62 26.27zm14.72-17.88c-19.74-0.4-32.75 11.77-36.7 30.85-3.5 16.82 7.11 33.48 4.46 50.63-0.09 0.56-0.99 0.42-0.98-0.13 0.41-20.59-14.22-39.33-5.5-59.85 7.03-16.58 20.94-24.25 38.72-22.42 0.57 0.06 0.6 0.93 0 0.92" fill="url(#linearGradient8614)"/>
     </g>
    </g>
    <g transform="scale(.1)">
     <g stroke-width=".29248" clip-path="url(#clipPath8624)">
      <path d="m2485 6708.6c1.62 5.87 5.48 11.14 3.51 17.12-4.32 13.08-10.15 25.93-16.04 38.35-2.6 5.5-5.44 11.15-8.59 16.62v0.4c-0.05 0.66-0.46 1.08-0.95 1.26-3.34 5.63-7.04 11.04-11.24 15.77-0.76 0.85-1.92-0.23-1.49-1.15 3.32-7.06 7.06-13.91 10.69-20.8-1.45-18.05-12.76-34.11-15.99-52.02-3.75-20.7 2.85-41.46 9.24-60.91 0.06-0.18 0.35-0.1 0.3 0.09-6.64 22.99-12.65 44.67-6.53 68.58 3.58 13.96 12.9 25.67 15.42 39.62 1.67-3.28 3.32-6.59 4.84-9.96 3.16-7 6-14.15 8.84-21.28 1.97-4.93 8.41-14.94 6.57-20.36-3.25-9.55-5.41-18.99-3.94-29.04 1.52-10.4 6.16-20.78 8.76-30.94 0.08-0.33 0.56-0.19 0.5 0.12-2.2 10.92-6.2 21.57-6.57 32.75-0.18 5.33 1.26 10.68 2.67 15.78" fill="url(#linearGradient8630)"/>
     </g>
    </g>
   </g>
   <path d="m272.26 642.99c0.301-0.086 0.795-1.066 0.969-1.291 0.881-1.14 1.843-2.207 2.858-3.229 2.797-2.818 5.797-5.79 9.776-6.776 3.274-0.813 7.63-0.891 10.503 1.152 0 0 4.908 3.49 8.071 8.508 0 0-4.69-1.418-6.435-1.31-1.745 0.109-15.925 1.2-15.925 1.2l-6.762 0.873-3.055 0.873" fill="#f04a3b"/>
   <path d="m289.5 631.97c-5.562 0.326-11.125 4.471-11.125 4.471l-0.113-0.102c2.204-2.063 4.632-3.911 7.607-4.648 3.274-0.813 7.63-0.891 10.503 1.152 0 0 1.08 0.767 2.553 2.1-0.094 0.055-0.153 0.081-0.153 0.081s-3.709-3.381-9.272-3.054zm8.508 8.071c-1.745 0.109-15.925 1.2-15.925 1.2l-6.762 0.873-3.055 0.873c0.301-0.086 0.795-1.066 0.969-1.291 0.167-0.216 0.339-0.426 0.511-0.638 1.291-0.336 6.761-1.738 10.301-2.216 4.035-0.546 6.762-2.073 10.143-0.764 0 0 5.795 0.097 8.933 1.381 0.459 0.601 0.905 1.232 1.32 1.892 0 0-4.69-1.418-6.435-1.31" fill="#dd3e37"/>
   <g stroke-width=".29248" transform="scale(.1)">
    <g stroke-width=".29248" clip-path="url(#clipPath8644)">
     <path d="m2806.4 6370.6c4.62 10.04 31.81 10.19 39.52 9.09 30.54-4.36 61.08-13.09 95.99-9.82 10.64 1 62.74 11.37 43.86-13.4-17.65-23.15-58.67-30.67-85.32-30.23-24.71 0.42-50.01 5.6-71.56 18.12-6.6 3.83-15.89 9.06-20.3 15.55-3.03 4.43-3.46 7.93-2.19 10.69" fill="url(#radialGradient8650)"/>
    </g>
   </g>
   <path d="m303.51 641.51c-3.382-0.994-5.777 3.061-9.141 2.397-0.957-0.188-1.648-1.001-2.494-1.441-1.059-0.553-1.43 0.377-2.173 0.936-0.611 0.46-1.362 0.683-2.111 0.776-1.444 0.176-2.94-0.143-4.315-0.565-1.85-0.57-3.676-1.047-5.617-1.176-4.909-0.327-8.999 2.945-8.999 2.945 5.563-5.236 12.925-4.255 19.633-6.054l0.095-0.002 0.233-0.162c0.654-0.49 1.636-0.653 2.29-0.817 0.673 0.134 1.345 0.383 1.926 0.83l0.365-0.013c3.435-0.163 11.78 0.491 14.725 5.236 0 0-2.563-2.345-4.417-2.89" fill="#dd3e37"/>
   <path d="m307.9 644.42c-1.772-2.419-4.45-3.628-7.289-4.36-2.389-0.615-4.945-0.933-7.412-0.885-0.007 0.001-0.007-0.009 0-0.01 2.58-0.179 5.174 0.034 7.681 0.669 2.673 0.676 5.672 2.034 7.068 4.557 0.018 0.032-0.027 0.057-0.048 0.029zm-14.732-4.871c-0.673-0.417-1.275-0.796-2.051-1.009-0.756-0.209-1.862 0.272-2.469 0.682-0.065 0.043-0.124-0.06-0.061-0.104 0.332-0.225 0.67-0.375 1.048-0.505 0.322-0.111 0.955-0.389 1.273-0.389 0.836 0 1.863 0.582 2.343 1.242 0.036 0.051-0.034 0.113-0.083 0.083zm-9.516 0.845c-1.735 0.252-3.475 0.457-5.207 0.733-3.617 0.577-7.002 1.817-9.776 4.273-0.017 0.015-0.041-0.009-0.025-0.025 2.565-2.474 5.815-3.671 9.246-4.395 1.712-0.361 3.45-0.577 5.181-0.821 1.74-0.247 3.478-0.735 5.219-0.922 0.093-0.01 0.136 0.142 0.049 0.179-1.43 0.617-3.158 0.757-4.687 0.978" fill="#a62e22"/>
   <g stroke-width=".29248" transform="scale(.1)">
    <g stroke-width=".29248" clip-path="url(#clipPath8664)">
     <path d="m2547.6 6925s55.63 32.72 99.8 14.73c44.18-18 75.26-44.18 116.17-58.9 40.9-14.73 73.62-45.82 73.62-45.82s1.64 34.36-9.81 57.27c0 0-29.45 6.55-55.63 11.46-26.18 4.9-76.9 32.72-103.08 47.44-26.18 14.73-94.89 4.91-121.07-26.18" fill="url(#linearGradient8670)"/>
    </g>
   </g>
   <g stroke-width=".29248" transform="scale(.1)">
    <g stroke-width=".29248" clip-path="url(#clipPath8680)">
     <path d="m3258.9 6814.7s-24.34 44.16-59.21 38.08c-34.86-6.08-64.17-23-95.76-26.82-31.6-3.81-63.7-24.93-63.7-24.93s11.07 32.54 26.56 51.19c0 0 21.32-1.05 39.94-2.84 18.64-1.78 61.19 11.89 83.28 19.3 22.1 7.4 62.98-18.52 68.89-53.98" fill="url(#linearGradient8686)"/>
    </g>
   </g>
   <path d="m272.81 674.73s-7.308-1.528-11.889 6.325c0 0-2.727 0.437-4.581 2.291 0 0 3.49-1.091 6.217-0.655 2.726 0.437 10.798 4.254 17.343-4.58l-7.09-3.381" fill="#100f0d"/>
   <path d="m280.93 676.47c-3.763 6.217-12.435 8.18-18.652 4.745l-0.436-0.327 0.599-1.146c3.763-5.235 9.654-5.563 15.544-4.581 0 0 1.255 0.328 1.745 0.437 0.692 0.154 1.637 0.054 1.637 0.054l-0.437 0.818" fill="#fff"/>
   <g stroke-width=".29248" transform="scale(.1)">
    <g stroke-width=".29248" clip-path="url(#clipPath8700)">
     <path d="m2750.1 6796.3c0 8.06-2.07 15.63-5.69 22.22-23.47 9.31-49.45 12.48-74.5 9.05-7.57-8.23-12.25-19.19-12.25-31.27 0-20.55 13.43-37.94 31.98-43.96 2.26-0.6 4.55-1.12 6.85-1.62 2.41-0.38 4.88-0.64 7.4-0.64 25.52 0 46.21 20.7 46.21 46.22" fill="url(#linearGradient8706)"/>
    </g>
   </g>
   <g stroke-width=".29248" transform="scale(.1)">
    <g stroke-width=".29248" clip-path="url(#clipPath8716)">
     <path d="m2663 6796.3c0-22.59 18.3-40.91 40.9-40.91 22.58 0 40.89 18.32 40.89 40.91 0 9.53-3.28 18.27-8.74 25.23-18.38 6.01-37.98 8.44-57.29 7-9.58-7.48-15.76-19.12-15.76-32.23" fill="url(#linearGradient8724)"/>
    </g>
   </g>
   <path d="m272.8 679.63c0-1.332-1.081-2.413-2.413-2.413-1.333 0-2.414 1.081-2.414 2.413 0 1.334 1.081 2.413 2.414 2.413 1.332 0 2.413-1.079 2.413-2.413" fill="#100f0d"/>
   <g stroke-width=".29248" transform="scale(.1)">
    <g stroke-width=".29248" clip-path="url(#clipPath8736)">
     <path d="m2721 6796.3c0-9.41-7.64-17.04-17.05-17.04-9.42 0-17.05 7.63-17.05 17.04 0 9.42 7.63 17.06 17.05 17.06 9.41 0 17.05-7.64 17.05-17.06" fill="url(#linearGradient8742)"/>
    </g>
   </g>
   <path d="m271.38 681.64c0-0.546-0.443-0.989-0.988-0.989-0.546 0-0.99 0.443-0.99 0.989 0 0.545 0.444 0.988 0.99 0.988 0.545 0 0.988-0.443 0.988-0.988" fill="#fff"/>
   <path d="m270.87 677.27c0-0.263-0.214-0.477-0.476-0.477-0.264 0-0.477 0.214-0.477 0.477 0 0.262 0.213 0.476 0.477 0.476 0.262 0 0.476-0.214 0.476-0.476" fill="#fff"/>
   <g fill="#100f0d">
    <path d="m262.29 681.2c3.174 1.549 6.771 1.949 10.207 1.135 3.504-0.829 6.376-2.94 8.358-5.916 0.066-0.099 0.221-0.011 0.161 0.094-3.573 6.261-12.647 8.35-18.738 4.71-0.014-0.01-0.003-0.03 0.012-0.023"/>
    <path d="m262.42 679.73c3.607-5.072 9.874-5.657 15.571-4.594 0.034 0.006 0.019 0.056-0.014 0.051-2.808-0.395-5.638-0.634-8.438-0.04-2.891 0.614-5.305 2.266-7.077 4.608-0.019 0.025-0.061 0.002-0.042-0.025"/>
    <path d="m309.88 670.69s5.848-2.663 11.155 4.325c0 0 2.369-0.005 4.27 1.522 0 0-3.132-0.517-5.339 0.346-2.207 0.862-8.269 5.897-15.405-1.744l5.319-4.449"/>
   </g>
   <path d="m303.38 673.7c4.315 5.51 11.956 6.06 16.534 1.696l0.305-0.391-0.716-1.03c-4.133-4.545-9.136-3.93-13.896-2.029 0 0-0.992 0.521-1.383 0.705-0.553 0.263-1.363 0.314-1.363 0.314l0.519 0.735" fill="#fff"/>
   <g stroke-width=".29248" transform="scale(.1)">
    <g stroke-width=".29248" clip-path="url(#clipPath8764)">
     <path d="m3157.5 6751.6c0 11.08-3.91 21.25-10.4 29.21-26.41 5.24-54.78 0.6-79.42-13.99-1.67-4.77-2.62-9.87-2.62-15.22 0-22.09 15.52-40.54 36.24-45.11 3.39-0.49 6.77-0.86 10.13-1.1 25.46 0.08 46.07 20.74 46.07 46.21" fill="url(#linearGradient8770)"/>
    </g>
   </g>
   <g stroke-width=".29248" transform="scale(.1)">
    <g stroke-width=".29248" clip-path="url(#clipPath8780)">
     <path d="m3111.3 6710.7c22.59 0 40.9 18.32 40.9 40.9 0 12.19-5.36 23.11-13.82 30.59-21.14 2.44-43.12-1.32-63.12-11.26-3.1-5.76-4.86-12.33-4.86-19.33 0-22.58 18.31-40.9 40.9-40.9" fill="url(#linearGradient8788)"/>
    </g>
   </g>
   <path d="m313.54 675.16c0-1.332-1.08-2.412-2.413-2.412-1.332 0-2.413 1.08-2.413 2.412 0 1.334 1.081 2.413 2.413 2.413 1.333 0 2.413-1.079 2.413-2.413" fill="#100f0d"/>
   <g stroke-width=".29248" transform="scale(.1)">
    <g stroke-width=".29248" clip-path="url(#clipPath8800)">
     <path d="m3128.4 6751.6c0-9.41-7.64-17.05-17.06-17.05-9.4 0-17.04 7.64-17.04 17.05 0 9.43 7.64 17.05 17.04 17.05 9.42 0 17.06-7.62 17.06-17.05" fill="url(#linearGradient8806)"/>
    </g>
   </g>
   <g>
    <path d="m312.12 677.17c0-0.546-0.442-0.988-0.989-0.988-0.546 0-0.988 0.442-0.988 0.988s0.442 0.989 0.988 0.989c0.547 0 0.989-0.443 0.989-0.989" fill="#fff"/>
    <path d="m311.61 672.8c0-0.263-0.213-0.477-0.477-0.477-0.263 0-0.476 0.214-0.476 0.477s0.213 0.476 0.476 0.476c0.264 0 0.477-0.213 0.477-0.476" fill="#fff"/>
    <path d="m319.91 675.38c-2.374 2.027-5.318 2.991-8.352 2.739-3.095-0.257-5.898-1.876-8.115-4.483-0.075-0.088-0.188 0.023-0.118 0.117 4.164 5.583 12.167 6.193 16.6 1.646 0.01-0.01-0.003-0.028-0.015-0.019" fill="#100f0d"/>
    <path d="m319.52 673.96c-3.972-4.41-9.339-3.987-13.921-2.038-0.028 0.013-0.006 0.06 0.021 0.049 2.283-0.836 4.612-1.52 7.072-1.38 2.541 0.142 4.874 1.382 6.797 3.401 0.02 0.021 0.05-0.009 0.031-0.032" fill="#100f0d"/>
   </g>
  </g>
 </g>
</svg>
