<?xml version="1.0" encoding="UTF-8" standalone="no"?>
<!-- Created with Inkscape (http://www.inkscape.org/) -->
<svg xmlns:rdf="http://www.w3.org/1999/02/22-rdf-syntax-ns#" xmlns="http://www.w3.org/2000/svg" xml:space="preserve" height="200" viewBox="0 0 249.99999 249.99999" width="250" version="1.1" xmlns:cc="http://creativecommons.org/ns#" xmlns:dc="http://purl.org/dc/elements/1.1/"><metadata><rdf:RDF><cc:Work rdf:about=""><dc:format>image/svg+xml</dc:format><dc:type rdf:resource="http://purl.org/dc/dcmitype/StillImage"/><dc:title/></cc:Work></rdf:RDF></metadata><defs><clipPath id="clipPath480" clipPathUnits="userSpaceOnUse"><path d="m1586.2 6e3c-14.88 0-29.36 1.72-43.25 4.95-14.04 25.72-25.89 52.07-35.95 79.38-26.7 72.47-40.94 152.13-50.03 245.51 33.95 31.43 79.35 50.64 129.23 50.64 0.77 0 1.54-0.01 2.31-0.02 24-17.75 46.71-23.9 77.18-23.9 3.98 0 8.1 0.1 12.36 0.3 58.66-32.41 98.38-94.88 98.38-166.62 0-105.04-85.19-190.24-190.23-190.24"/></clipPath><radialGradient id="radialGradient486" gradientUnits="userSpaceOnUse" cy="0" cx="0" gradientTransform="matrix(189.73 0 0 -189.73 1634.4 6182.6)" r="1"><stop stop-color="#f9b993" offset="0"/><stop stop-color="#fbcd92" offset="1"/></radialGradient><clipPath id="clipPath496" clipPathUnits="userSpaceOnUse"><path d="m2192.8 6e3c-105.04 0-190.23 85.2-190.23 190.24 0 71.74 39.73 134.21 98.38 166.62 4.27-0.2 8.38-0.3 12.37-0.3 30.46 0 53.17 6.15 77.17 23.9 0.77 0.01 1.54 0.02 2.31 0.02 49.9 0 95.3-19.22 129.24-50.65-9.09-93.38-23.32-173.03-50.04-245.5-10.06-27.32-21.91-53.65-35.94-79.38-13.9-3.23-28.38-4.95-43.26-4.95"/></clipPath><radialGradient id="radialGradient502" gradientUnits="userSpaceOnUse" cy="0" cx="0" gradientTransform="matrix(189.75 0 0 -189.75 2190.9 6182.6)" r="1"><stop stop-color="#f9b993" offset="0"/><stop stop-color="#fbcd92" offset="1"/></radialGradient></defs><g transform="matrix(1.3333 0 0 -1.3333 0 250)"><g stroke-width="1.2219" transform="matrix(.83479 0 0 .80237 -23.601 -419.23)"><g fill-rule="evenodd"><path d="m158.52 615.33c-2.764-29.483 1.662-48.004 18.89-57.716 8.828-4.976 21.024-9.647 37.333-8.127 17.491 1.627 32.15-0.705 39.339-16.925 3.907-8.813 6.494-21.969 8.512-35.442-10.475-13.517-23.056-25.32-37.259-34.901-0.32 2.944-0.563 5.801-0.716 8.546-0.526-1.858-1.24-5.481-2.088-10.393-25.012-16.126-54.799-25.484-86.772-25.484-31.823 0-61.479 9.267-86.418 25.25-0.865 5.028-1.595 8.74-2.127 10.627-0.157-2.807-0.4068-5.728-0.7368-8.742-14.204 9.535-26.796 21.286-37.29 34.75 2.0246 13.595 4.6231 26.901 8.5629 35.789 7.1898 16.22 21.848 18.552 39.341 16.925 16.308-1.52 28.503 3.151 37.331 8.127 17.229 9.712 21.653 28.233 18.891 57.716 13.24 0.143 31.966 0.143 45.207 0" fill="#fad097"/><path d="m90.934 664.72c-0.674 0.313-1.393 0.566-2.041 0.708-2.771 0.608-3.293-1.572-3.278-5.424 0.024-6.372 3.644-16.553 4.917-20.669 1.484-4.804 0.781-10.366 3.988-10.77-1.996 11.461-3.332 24.718-3.586 36.155" fill="#f5bd6f"/><path d="m135.97 584.63h-0.099c-1.736 0.008-3.503 0.453-5.177 0.951-5.36 1.596-12.027 6.536-15.959 10.191-18.361 17.056-22.173 33.072-23.921 59.271-1.542 23.152 1.707 50.667 27.232 59.017 7.115 2.328 12.41 3.318 17.876 3.06 5.464 0.258 10.759-0.732 17.874-3.06 25.527-8.35 28.774-35.865 27.233-59.017-1.749-26.199-5.561-42.215-23.919-59.271-3.935-3.655-10.601-8.595-15.962-10.191-1.673-0.498-3.44-0.943-5.178-0.951" fill="#fad097"/><path d="m111.46 579.36c16.761-6.118 34.08-0.947 46.811 10.867-0.209 1.941-0.35 3.956-0.432 6.051-0.239-0.172-0.48-0.343-0.728-0.51l-0.004-0.003c-3.935-3.655-10.601-8.595-15.962-10.191-1.674-0.499-3.44-0.944-5.178-0.951h-0.099c-1.736 0.007-3.503 0.452-5.177 0.951-5.36 1.596-12.027 6.536-15.959 10.191h-0.011c-0.242 0.17-0.484 0.341-0.725 0.513-0.242-6.329-1.055-11.956-2.536-16.918" fill="#f9c27c"/></g><g stroke-width="1.2219" transform="matrix(.1 0 0 .1 -53.03 13.955)"><g stroke-width="1.2219" clip-path="url(#clipPath480)"><path d="m1586.2 6e3c-14.88 0-29.36 1.72-43.25 4.95-14.04 25.72-25.89 52.07-35.95 79.38-26.7 72.47-40.94 152.13-50.03 245.51 33.95 31.43 79.35 50.64 129.23 50.64 0.77 0 1.54-0.01 2.31-0.02 24-17.75 46.71-23.9 77.18-23.9 3.98 0 8.1 0.1 12.36 0.3 58.66-32.41 98.38-94.88 98.38-166.62 0-105.04-85.19-190.24-190.23-190.24" fill="url(#radialGradient486)"/></g></g><g stroke-width="1.2219" transform="matrix(.1 0 0 .1 -53.03 13.955)"><g stroke-width="1.2219" clip-path="url(#clipPath496)"><path d="m2192.8 6e3c-105.04 0-190.23 85.2-190.23 190.24 0 71.74 39.73 134.21 98.38 166.62 4.27-0.2 8.38-0.3 12.37-0.3 30.46 0 53.17 6.15 77.17 23.9 0.77 0.01 1.54 0.02 2.31 0.02 49.9 0 95.3-19.22 129.24-50.65-9.09-93.38-23.32-173.03-50.04-245.5-10.06-27.32-21.91-53.65-35.94-79.38-13.9-3.23-28.38-4.95-43.26-4.95" fill="url(#radialGradient502)"/></g></g><g><path d="m135.87 585.67v0.004h0.099v-0.004c0.792 0.004 1.602 0.108 2.407 0.271 0.815 0.164 1.653 0.395 2.476 0.639 2.282 0.679 4.832 2.006 7.3 3.581 3.117 1.99 6.093 4.375 8.241 6.372 9.048 8.405 14.509 16.546 17.916 25.802 3.428 9.297 4.804 19.765 5.672 32.769 0.762 11.459 0.344 23.983-3.41 34.64-3.707 10.529-10.702 19.254-23.1 23.31-3.504 1.146-6.562 1.965-9.413 2.462-2.825 0.493-5.441 0.673-8.089 0.548l-0.048-0.003-0.051 0.003c-2.645 0.125-5.261-0.055-8.087-0.548-2.852-0.497-5.908-1.316-9.413-2.462-12.398-4.056-19.394-12.781-23.101-23.31-3.753-10.657-4.172-23.181-3.408-34.64 0.868-13.004 2.244-23.472 5.669-32.769 3.409-9.256 8.869-17.397 17.918-25.802 2.146-1.997 5.124-4.381 8.241-6.372 2.467-1.575 5.019-2.902 7.3-3.581 0.822-0.244 1.662-0.475 2.475-0.639 0.806-0.163 1.615-0.267 2.406-0.271m0.099-2.1h-0.099l-0.003 0.004c-0.942 0.005-1.885 0.125-2.814 0.312-0.921 0.185-1.804 0.427-2.654 0.681-2.483 0.738-5.217 2.153-7.837 3.827-3.24 2.069-6.325 4.538-8.544 6.602-9.311 8.649-14.939 17.048-18.46 26.612-3.509 9.522-4.913 20.164-5.793 33.358-0.778 11.692-0.342 24.501 3.525 35.477 3.91 11.103 11.305 20.314 24.431 24.608 3.609 1.18 6.758 2.024 9.699 2.536 2.949 0.516 5.698 0.703 8.501 0.574 2.802 0.129 5.553-0.058 8.499-0.574 2.941-0.512 6.092-1.356 9.699-2.536 13.128-4.294 20.521-13.505 24.432-24.608 3.867-10.976 4.301-23.785 3.524-35.477-0.878-13.192-2.284-23.836-5.791-33.358-3.523-9.564-9.151-17.963-18.459-26.612-2.222-2.064-5.307-4.534-8.547-6.602-2.62-1.673-5.352-3.089-7.835-3.827-0.849-0.254-1.733-0.496-2.656-0.681-0.927-0.187-1.87-0.307-2.813-0.312l-0.005-0.004" fill-rule="evenodd" fill="#f9c27c"/><path d="m135.87 585.67h0.149v0.004h-0.149v-0.149h0.099v0.149h-0.149v-0.154l0.15 0.001c0.804 0.005 1.623 0.11 2.435 0.274 0.822 0.165 1.664 0.398 2.49 0.642 2.302 0.686 4.862 2.019 7.337 3.598 3.127 1.996 6.107 4.386 8.263 6.389 9.061 8.417 14.539 16.581 17.954 25.859 3.436 9.32 4.812 19.803 5.68 32.812 0.199 2.99 0.318 6.054 0.318 9.138 0 8.745-0.953 17.659-3.735 25.56-3.715 10.559-10.75 19.333-23.195 23.402-3.508 1.148-6.573 1.969-9.433 2.468-2.254 0.393-4.378 0.588-6.491 0.588-0.543 0-1.087-0.013-1.631-0.039l-0.041-0.002-0.043 0.002c-0.545 0.026-1.087 0.039-1.631 0.039-2.111 0-4.235-0.195-6.49-0.588-2.861-0.499-5.924-1.32-9.433-2.468-12.445-4.069-19.48-12.843-23.195-23.402-2.782-7.899-3.735-16.811-3.735-25.554 0-3.087 0.119-6.152 0.318-9.144 0.869-13.009 2.245-23.492 5.678-32.812 3.417-9.278 8.894-17.442 17.957-25.859 2.153-2.003 5.135-4.391 8.262-6.389 2.474-1.579 5.035-2.912 7.337-3.598 0.825-0.244 1.669-0.477 2.488-0.642 0.813-0.164 1.632-0.269 2.436-0.274l0.149-0.001v0.15h-0.149l0.001 0.149c-0.778 0.004-1.579 0.107-2.378 0.268-0.805 0.162-1.641 0.392-2.462 0.636-2.259 0.672-4.803 1.993-7.262 3.563-3.108 1.986-6.08 4.366-8.22 6.356-9.036 8.394-14.478 16.511-17.879 25.744-3.418 9.275-4.793 19.729-5.661 32.728-0.199 2.987-0.317 6.046-0.317 9.125 0 8.721 0.952 17.602 3.718 25.455 3.699 10.499 10.655 19.176 23.007 23.218 3.5 1.145 6.549 1.962 9.391 2.457 2.24 0.391 4.346 0.584 6.439 0.584 0.539 0 1.077-0.013 1.616-0.038l0.051-0.003h0.007l0.056 0.003c0.539 0.025 1.077 0.038 1.616 0.038 2.095 0 4.2-0.193 6.44-0.584 2.841-0.495 5.892-1.312 9.392-2.457 12.35-4.042 19.307-12.719 23.006-23.218 2.766-7.854 3.718-16.737 3.718-25.461 0-3.077-0.118-6.134-0.317-9.119-0.867-12.999-2.243-23.453-5.662-32.728-3.4-9.233-8.843-17.35-17.878-25.744-2.142-1.991-5.112-4.372-8.221-6.356-2.459-1.57-5.001-2.891-7.261-3.563-0.821-0.244-1.656-0.474-2.463-0.636-0.799-0.161-1.599-0.264-2.379-0.268l0.001-0.149h0.149v0.153h-0.396v-0.153h0.148l0.001 0.149-0.001-0.149m0.099-2.1v0.149h-0.099v-0.149l0.106 0.106-0.004 0.004-0.044 0.043h-0.061c-0.929 0.005-1.863 0.124-2.785 0.309-0.915 0.184-1.793 0.424-2.641 0.678-2.462 0.731-5.187 2.14-7.798 3.809-3.232 2.063-6.311 4.528-8.524 6.586-9.297 8.638-14.908 17.013-18.421 26.555-3.501 9.5-4.905 20.127-5.784 33.316-0.202 3.027-0.322 6.128-0.322 9.253 0 8.934 0.981 18.056 3.838 26.165 3.902 11.073 11.259 20.235 24.337 24.515 3.605 1.18 6.747 2.021 9.679 2.531 2.342 0.41 4.556 0.612 6.771 0.612 0.565 0 1.13-0.013 1.697-0.04h0.014c0.567 0.027 1.132 0.04 1.696 0.04 2.215 0 4.43-0.202 6.771-0.612 2.931-0.51 6.075-1.351 9.678-2.531 13.081-4.28 20.435-13.442 24.338-24.515 2.856-8.108 3.837-17.229 3.836-26.161 0-3.126-0.12-6.229-0.321-9.257-0.877-13.188-2.282-23.816-5.781-33.316-3.517-9.542-9.127-17.917-18.422-26.555-2.214-2.058-5.294-4.523-8.525-6.586-2.612-1.668-5.335-3.078-7.797-3.809-0.847-0.254-1.727-0.494-2.643-0.678-0.92-0.185-1.854-0.304-2.784-0.309h-0.048l-0.045-0.032 0.088-0.121v0.149-0.149l0.088-0.12 0.005 0.004-0.088 0.12 0.001-0.149c0.955 0.005 1.908 0.127 2.842 0.315 0.929 0.186 1.817 0.43 2.669 0.684 2.503 0.745 5.245 2.167 7.872 3.844 3.249 2.074 6.34 4.549 8.568 6.619 9.322 8.661 14.967 17.083 18.498 26.67 3.515 9.544 4.921 20.202 5.799 33.399 0.202 3.034 0.322 6.143 0.322 9.277 0 8.954-0.981 18.106-3.853 26.26-3.919 11.133-11.351 20.393-24.527 24.699-3.612 1.182-6.769 2.029-9.719 2.542-2.356 0.412-4.589 0.615-6.822 0.615-0.569 0-1.138-0.013-1.71-0.039l0.007-0.149 0.007 0.149c-0.572 0.026-1.141 0.039-1.711 0.039-2.233 0-4.466-0.203-6.822-0.615-2.951-0.513-6.107-1.36-9.72-2.542-13.173-4.306-20.608-13.566-24.526-24.699-2.872-8.155-3.854-17.309-3.855-26.264 0-3.132 0.121-6.24 0.322-9.273 0.881-13.199 2.285-23.855 5.802-33.399 3.529-9.587 9.175-18.01 18.499-26.67 2.226-2.07 5.315-4.544 8.565-6.619 2.628-1.678 5.371-3.1 7.874-3.844 0.852-0.254 1.74-0.498 2.668-0.684 0.935-0.188 1.888-0.31 2.842-0.315l0.001 0.149-0.106-0.105 0.004-0.004 0.044-0.044h0.208l0.04 0.029-0.088 0.12" fill="#f9c27c"/><g fill-rule="evenodd"><path d="m88.893 665.43c7.389 8.262 3.089 8.853 21.263 11.084-1.909 6.332 4.205 20.474 7.623 26.648 0.488-12.98-0.344-22.843 17.381-25.583-1.988 5.973-1.888 11.25-0.06 15.951-0.394-6.082 0.694-10.484 4.511-16.177 14.329 11.783 24.221-0.745 33.44-4.894 4.841-2.178 12.777-12.65 13.949-10.479 12.545 23.27 3.759 44.036-5.549 56.322-21.566 28.462-76.29 24.425-92.16-6.377-5.826-11.308-12.392-27.272-0.398-46.495" fill="#e7ab86"/><path d="m181.98 664.72c0.763 0.312 1.576 0.565 2.31 0.708 3.136 0.607 3.73-1.571 3.712-5.425-0.029-6.37-4.125-16.551-5.565-20.667-1.681-4.805-0.886-10.368-4.516-10.772 2.26 11.461 3.772 24.718 4.059 36.156" fill="#f9c27c"/><path d="m176.52 664c-3.553 1.256-6.334 3.154-10.063 3.912-9.96 2.021-17.455-4.296-19.408-4.914-2.548-3.426-3.981-8.016-4.037-12.271 4.87 0.024 10.778-0.905 13.761-1.069 7.761-0.429 10.489 2.027 19.747 14.342" fill="#f9c27c"/><path d="m147.59 662.47c1.233 0.21 2.595 0.723 3.781 1.138 6.02 2.106 9.367 4.197 13.598 3.764 3.853-0.395 6.469-2.711 10.253-3.656-5.609 4.418-9.513 5.672-14.418 5.213-2.838-0.265-14.285-2.676-15.109-5.295-0.15-0.469-0.089-0.775 0.104-0.968 0.331-0.332 1.058-0.319 1.791-0.196" fill="#a35542"/><path d="m148.57 654.31c3.288 3.489 6.239 5.735 11.263 5.332 3.342-0.269 5.149-1.611 7.304-3.942l1.506 1.228c-5.336 5.533-13.054 6.53-18.649 0.991-2.221-2.197-2.366-4.469-3.149-5.685l0.516 0.668c0.403 0.522 0.799 0.974 1.209 1.408" fill="#6b6c6d"/><path d="m149.64 655.4c-0.922-1.483-0.112-3.807 1.656-4.187 3.045-0.535 6.38-0.704 9.217-0.331 3.249 0.65 4.957 2.186 6.549 4.974-2.155 2.33-3.879 3.517-7.221 3.786-4.478 0.359-7.31-1.388-10.201-4.242" fill="#eeefee"/><path d="m158.23 659.22c1.878 0 3.4-1.638 3.4-3.66 0-2.021-1.522-3.658-3.4-3.658s-3.399 1.637-3.399 3.658c0 2.022 1.521 3.66 3.399 3.66" fill="#7f6e53"/></g><g><path d="m148.48 651.84c-0.46 0.099-0.922 0.167-1.506 0.167-0.098 0-0.199-0.002-0.304-0.006l0.182 0.235c-0.001-0.001-0.001-0.001-0.001-0.002l0.516 0.668c0.403 0.522 0.799 0.974 1.209 1.408 0.015 0.015 0.029 0.03 0.044 0.045 0.015 0.017 0.032 0.035 0.048 0.051 0.011 0.013 0.023 0.025 0.034 0.037 2.983 3.145 5.713 5.246 10.003 5.246 0.366 0 0.744-0.015 1.134-0.047-0.389 0.031-0.766 0.047-1.131 0.047-3.84 0-6.431-1.683-9.07-4.289-0.433-0.698-0.484-1.58-0.232-2.36-0.305-0.383-0.609-0.784-0.926-1.2" fill="#d2a973"/><path d="m146.85 652.23c0 0.001 0 0.001 0.001 0.002l0.515 0.666-0.516-0.668m1.769 2.121c0.015 0.017 0.032 0.035 0.048 0.051-0.016-0.016-0.033-0.034-0.048-0.051m0.082 0.088c2.984 3.145 5.711 5.246 10.003 5.246-4.29 0-7.02-2.101-10.003-5.246" fill="#8b806d"/><path d="m166.74 655.32c0.098 0.16 0.196 0.324 0.293 0.493-0.097-0.169-0.195-0.333-0.293-0.493" fill="#d2a973"/><path d="m167.03 655.81c0.007 0.013 0.015 0.027 0.023 0.041-0.008-0.014-0.016-0.028-0.023-0.041" fill="#8b806d"/><path d="m149.4 653.04c-0.252 0.78-0.201 1.662 0.232 2.36 2.639 2.606 5.23 4.289 9.07 4.289 0.365 0 0.742-0.016 1.131-0.047 3.342-0.269 5.066-1.456 7.221-3.786-0.008-0.014-0.016-0.028-0.023-0.041-0.097-0.169-0.195-0.333-0.293-0.493-0.077-0.125-0.155-0.248-0.233-0.367-1.696 1.106-3.35 1.77-5.177 2.116-0.534 1.267-1.72 2.148-3.097 2.148-1.399 0-2.6-0.909-3.122-2.209-0.619-0.165-1.239-0.392-1.862-0.693-1.315-0.637-2.255-1.441-3.097-2.383-0.257-0.285-0.504-0.584-0.75-0.894" fill="#cbbeaa"/><path d="m155.11 657.01c0.522 1.3 1.723 2.209 3.122 2.209 1.377 0 2.563-0.881 3.097-2.148-0.925 0.176-1.894 0.269-2.936 0.298-0.128 0.003-0.256 0.005-0.383 0.005-0.969 0-1.933-0.106-2.9-0.364" fill="#968060"/><path d="m159.84 659.64-0.012-0.148c3.309-0.272 4.972-1.42 7.124-3.739l0.109 0.101-0.129 0.074c-2.308-4.031-5.864-5.221-9.82-5.227-2.216 0-4.549 0.381-6.829 0.855-1.296 0.269-2.013 0.597-3.307 0.598-0.1 0-0.203-0.002-0.311-0.006l0.006-0.149 0.118-0.091 0.696 0.901c0.401 0.518 0.793 0.966 1.201 1.396 3.03 3.213 5.724 5.331 10.02 5.333 0.362 0 0.736-0.015 1.122-0.046l0.012 0.148 0.012 0.149c-0.394 0.031-0.776 0.047-1.146 0.047-4.407 0.002-7.202-2.202-10.237-5.426-0.412-0.436-0.812-0.893-1.219-1.419l-0.891-1.153 0.318 0.012c0.104 0.004 0.203 0.006 0.299 0.006 1.235 0.001 1.915-0.314 3.246-0.592 2.289-0.475 4.64-0.86 6.89-0.86 4.008-0.005 7.719 1.238 10.078 5.376l0.054 0.095-0.074 0.08c-2.158 2.341-3.943 3.567-7.318 3.834l-0.012-0.149" fill="#535456"/></g><g fill-rule="evenodd"><path d="m158.23 656.79c0.678 0 1.227-0.55 1.227-1.229 0-0.678-0.549-1.226-1.227-1.226s-1.226 0.548-1.226 1.226c0 0.679 0.548 1.229 1.226 1.229" fill="#3d3b3d"/><path d="m156.64 654.63c0.265 0 0.476-0.214 0.476-0.476 0-0.263-0.211-0.477-0.476-0.477-0.261 0-0.476 0.214-0.476 0.477 0 0.262 0.215 0.476 0.476 0.476" fill="#eeefee"/><path d="m158.71 656.86c0.417 0 0.756-0.339 0.756-0.756 0-0.419-0.339-0.756-0.756-0.756s-0.756 0.337-0.756 0.756c0 0.417 0.339 0.756 0.756 0.756" fill="#eeefee"/></g></g><g fill="#a35542" fill-rule="evenodd"><path d="m164.88 658.08c1.469 0.234 2.611 0.991 3.664 1.887-0.645-1.312-1.487-2.284-2.646-2.717-0.338 0.277-0.679 0.554-1.018 0.83"/><path d="m166.04 656.69c1.347 0.391 3.478 1.458 4.576 2.322-0.626-1.138-2.286-2.675-3.519-3.258-0.34 0.277-0.717 0.659-1.057 0.936"/><path d="m163.07 658.92c1.501 0.306 2.452 0.841 3.648 1.785-0.718-1.375-1.344-1.981-2.457-2.461-0.396 0.225-0.794 0.451-1.191 0.676"/><path d="m163.7 652.1c1.148-0.277 2.003-0.946 2.782-1.721-0.428 1.08-1.036 1.9-1.924 2.315-0.286-0.199-0.572-0.395-0.858-0.594"/><path d="m164.71 653.13c1.041-0.394 2.661-1.369 3.476-2.12-0.425 0.938-1.641 2.257-2.583 2.796-0.286-0.197-0.608-0.478-0.893-0.676"/><path d="m162.22 651.55c1.171-0.336 1.888-0.819 2.776-1.641-0.483 1.136-0.94 1.653-1.791 2.101-0.327-0.153-0.657-0.306-0.985-0.46"/></g><g><g fill-rule="evenodd"><path d="m95.324 664c3.552 1.256 6.332 3.154 10.062 3.912 9.959 2.021 17.455-4.296 19.408-4.914 2.547-3.426 3.98-8.016 4.036-12.271-4.869 0.024-10.777-0.905-13.76-1.069-7.762-0.429-10.489 2.027-19.746 14.342" fill="#f9c27c"/><path d="m124.25 662.47c-1.233 0.21-2.596 0.723-3.783 1.138-6.021 2.106-9.367 4.197-13.599 3.764-3.85-0.395-6.468-2.711-10.251-3.656 5.608 4.418 9.513 5.672 14.416 5.213 2.839-0.265 14.287-2.676 15.11-5.295 0.149-0.469 0.089-0.775-0.104-0.968-0.332-0.332-1.057-0.319-1.789-0.196" fill="#a35542"/><path d="m123.26 654.31c-3.287 3.489-6.238 5.735-11.262 5.332-3.342-0.269-5.148-1.611-7.304-3.942l-1.506 1.228c5.338 5.533 13.055 6.53 18.649 0.991 2.222-2.197 2.367-4.469 3.15-5.685l-0.517 0.668c-0.403 0.522-0.8 0.974-1.21 1.408" fill="#6b6c6d"/><path d="m122.2 655.4c0.925-1.483 0.113-3.807-1.656-4.187-3.043-0.535-6.38-0.704-9.217-0.331-3.247 0.65-4.955 2.186-6.547 4.974 2.156 2.33 3.878 3.517 7.22 3.786 4.48 0.359 7.311-1.388 10.2-4.242" fill="#eeefee"/><path d="m113.61 659.22c-1.878 0-3.402-1.638-3.402-3.66 0-2.021 1.524-3.658 3.402-3.658 1.876 0 3.399 1.637 3.399 3.658 0 2.022-1.523 3.66-3.399 3.66" fill="#7f6e53"/></g><g><path d="m123.36 651.84c-0.317 0.416-0.621 0.817-0.926 1.201 0.252 0.779 0.201 1.662-0.234 2.359-2.638 2.606-5.228 4.289-9.068 4.289-0.365 0-0.742-0.016-1.132-0.047 0.39 0.032 0.768 0.047 1.134 0.047 4.35 0 7.096-2.161 10.128-5.379 0.41-0.434 0.807-0.886 1.21-1.408l0.696-0.901c-0.104 0.004-0.205 0.006-0.303 0.006-0.583 0-1.046-0.068-1.505-0.167" fill="#d2a973"/><path d="m123.26 654.31c-3.032 3.218-5.778 5.379-10.128 5.379 4.352 0 7.096-2.161 10.128-5.379" fill="#8b806d"/><path d="m105.23 655.11c-0.143 0.223-0.283 0.457-0.422 0.7 0.139-0.243 0.28-0.476 0.422-0.7" fill="#d2a973"/><path d="m104.81 655.81c-0.008 0.014-0.016 0.027-0.023 0.041 0.007-0.014 0.015-0.027 0.023-0.041" fill="#8b806d"/><path d="m122.44 653.04c-0.246 0.309-0.493 0.608-0.749 0.893-0.845 0.942-1.785 1.746-3.099 2.383-0.623 0.301-1.243 0.528-1.862 0.693-0.522 1.3-1.723 2.209-3.121 2.209-1.377 0-2.564-0.881-3.099-2.148-1.826-0.346-3.48-1.01-5.175-2.116-0.035 0.053-0.07 0.106-0.104 0.16-0.142 0.224-0.283 0.457-0.422 0.7-0.008 0.014-0.016 0.027-0.023 0.041 2.156 2.33 3.878 3.517 7.22 3.786 0.39 0.031 0.767 0.047 1.132 0.047 3.84 0 6.43-1.683 9.068-4.289 0.435-0.697 0.486-1.58 0.234-2.359" fill="#cbbeaa"/><path d="m116.73 657.01c-0.967 0.258-1.931 0.364-2.899 0.364-0.128 0-0.256-0.002-0.384-0.005-1.042-0.029-2.011-0.122-2.937-0.298 0.535 1.267 1.722 2.148 3.099 2.148 1.398 0 2.599-0.909 3.121-2.209" fill="#968060"/></g><g fill-rule="evenodd"><path d="m113.61 656.79c-0.679 0-1.228-0.55-1.228-1.229 0-0.678 0.549-1.226 1.228-1.226 0.677 0 1.227 0.548 1.227 1.226 0 0.679-0.55 1.229-1.227 1.229" fill="#3d3b3d"/><path d="m115.2 654.63c-0.264 0-0.476-0.214-0.476-0.476 0-0.263 0.212-0.477 0.476-0.477 0.263 0 0.478 0.214 0.478 0.477 0 0.262-0.215 0.476-0.478 0.476" fill="#eeefee"/><path d="m113.13 656.86c-0.416 0-0.755-0.339-0.755-0.756 0-0.419 0.339-0.756 0.755-0.756 0.418 0 0.758 0.337 0.758 0.756 0 0.417-0.34 0.756-0.758 0.756" fill="#eeefee"/></g></g><g fill="#a35542" fill-rule="evenodd"><path d="m106.96 658.08c-1.47 0.234-2.61 0.991-3.664 1.887 0.643-1.312 1.487-2.284 2.646-2.717 0.338 0.277 0.678 0.554 1.018 0.83"/><path d="m105.8 656.69c-1.347 0.391-3.479 1.458-4.577 2.322 0.627-1.138 2.287-2.675 3.522-3.258 0.338 0.277 0.716 0.659 1.055 0.936"/><path d="m108.77 658.92c-1.501 0.306-2.451 0.841-3.648 1.785 0.718-1.375 1.345-1.981 2.458-2.461 0.397 0.225 0.794 0.451 1.19 0.676"/></g><path d="m112 659.64-0.012 0.149c-3.375-0.267-5.158-1.493-7.318-3.834l-0.074-0.08 0.054-0.095c2.36-4.138 6.07-5.381 10.079-5.376 2.25 0 4.602 0.385 6.89 0.86 1.329 0.278 2.011 0.593 3.245 0.592 0.096 0 0.195-0.002 0.298-0.006l0.319-0.012-0.891 1.153c-0.407 0.527-0.807 0.983-1.22 1.419-3.033 3.224-5.829 5.428-10.236 5.426-0.37 0-0.752-0.016-1.146-0.047l0.012-0.149 0.012-0.148c0.386 0.031 0.76 0.046 1.122 0.046 4.296-0.002 6.99-2.12 10.02-5.332 0.407-0.431 0.8-0.879 1.201-1.397l0.695-0.901 0.118 0.091 0.006 0.149c-0.107 0.004-0.211 0.006-0.31 0.006-1.293-0.001-2.011-0.329-3.305-0.598-2.28-0.474-4.614-0.855-6.83-0.855-3.956 0.006-7.513 1.196-9.82 5.227l-0.129-0.074 0.109-0.101c2.153 2.319 3.814 3.467 7.123 3.739l-0.012 0.148" fill="#535456"/><g fill="#a35542" fill-rule="evenodd"><path d="m107.42 652.63c-1.176-0.111-2.118-0.653-2.997-1.31 0.575 1.007 1.292 1.734 2.232 2.019 0.255-0.235 0.511-0.472 0.765-0.709"/><path d="m106.57 653.79c-1.086-0.242-2.828-0.98-3.74-1.61 0.553 0.87 1.944 2.005 2.95 2.407 0.257-0.239 0.536-0.56 0.79-0.797"/><path d="m108.82 651.87c-1.207-0.167-1.986-0.545-2.982-1.232 0.638 1.055 1.165 1.503 2.072 1.826 0.303-0.197 0.606-0.396 0.91-0.594"/></g><path d="m153.92 544.19c12.537 5.522 26.991 1.498 40.661 6.091l8.411-1.13c-15.387-5.398-43.545-10.521-59.217-11.475-0.018 0.674-0.036 1.35-0.054 2.024l10.199 4.49" fill-rule="evenodd" fill="#f9c27c"/><path d="m115.51 544.19c-12.54 5.522-26.993 1.498-40.663 6.091l-8.41-1.13c15.386-5.398 43.544-10.521 59.218-11.475 0.016 0.674 0.034 1.35 0.052 2.024l-10.197 4.49" fill-rule="evenodd" fill="#f9c27c"/><g fill="#fff" fill-rule="evenodd"><path d="m107.87 691.95c23.739 1.756 63.932-6.886 70.503-32.776 3.724-14.669 1.649-22.974-1.309-36.13 9.23 5.7 8.182 17.206 11.044 26.76 1.181 3.945 2.692 8.178 3.525 11.526 10.56 42.394-7.474 55.403-8.24 56.83-10.648 10.92-12.285 14.394-24.836 18.169-11.083-3.48-37.447-26.282-50.687-44.379"/><path d="m90.387 708.8c21.406 25.706 68.293 38.246 95.241 10.606-10.135 31.762-46.391 38.617-73.6 29.544-15.103-5.036-33.241-25.092-21.641-40.15"/><path d="m113.09 693.32c21.959 27.371 44.241 24.508 59.231 21.645 6.566-1.254 11.734-2.508 14.863-1.222 0.814 5.549-2.201 12.393-6.369 17.044-18.632 20.787-75.252-0.688-91.944-19.258-17.643-22.678-8.946-41.869-3.395-72.375 1.325-13.615 5.811-13.047 9.432-16.359-8.124 34.61-0.5 44.989 18.182 70.525"/></g><g fill-rule="evenodd"><path d="m97.548 656.1c0-7.236 7.322-13.101 16.355-13.101 9.031 0 16.354 5.865 16.354 13.101 0 17.218-32.709 17.218-32.709 0zm76.762 0c0 17.218-32.707 17.218-32.707 0 0-7.236 7.323-13.101 16.354-13.101 9.032 0 16.353 5.865 16.353 13.101zm-38.381-67.443c-4.386 1.264-7.302 2.389-9.83 3.716-4.116 2.161-7.908 4.953-11.506 8.006-4.208 3.573-7.406 6.986-10.109 10.127-15.206 17.67-16.602 51.261-0.224 63.625 3.186 2.406 8.476 4.221 13.689 4.616 8.234 0.623 10.976-3.088 17.98-5.216 7.006 2.128 9.746 5.839 17.981 5.216 5.213-0.395 10.503-2.21 13.689-4.616 16.377-12.364 14.982-45.955-0.224-63.625-2.702-3.141-5.902-6.554-10.111-10.127-3.596-3.053-7.387-5.845-11.505-8.006-2.528-1.327-5.445-2.452-9.83-3.716zm0 29.781c-6.961-1.516-13.111-1.641-19.49-5.392 5.297-9.184 11.197-12.021 19.49-14.461 8.294 2.44 14.193 5.277 19.49 14.461-6.379 3.751-12.527 3.876-19.49 5.392" fill="#b6da71"/><path d="m146.49 627.73-1.166-0.48c-0.687-0.468-1.118 0.155-2.102 0.397-0.307 0.076-0.671 0.116-1.11 0.071-0.385-0.038-0.76-0.119-1.125-0.309-1.768-0.926-1.83-1.953-2.996-2.837-0.548-0.416-1.496-0.707-2.074-0.71-0.579 0.003-1.527 0.294-2.075 0.71-1.167 0.884-1.229 1.911-2.999 2.837-0.362 0.19-0.738 0.271-1.123 0.309-0.44 0.045-0.802 0.005-1.11-0.071-0.982-0.242-1.414-0.865-2.101-0.397l-1.168 0.48c2.918-2.702 6.447-5.086 10.576-4.827 4.128-0.259 7.656 2.125 10.573 4.827" fill="#f3ba6f"/><path d="m140.71 603.01c-1.429-0.658-2.977-1.025-4.821-1.002-1.841-0.023-3.391 0.344-4.819 1.002-2.639 1.218-4.802 3.222-6.699 5.603-0.176 0.222-0.35 0.446-0.522 0.675l-0.083 0.073c2.437-7.588 5.423-9.87 12.123-10.304 6.702 0.434 9.687 2.716 12.123 10.304l-0.083-0.073c-0.171-0.229-0.346-0.453-0.522-0.675-1.896-2.381-4.058-4.385-6.697-5.603" fill="#f9c27c"/><path d="m135.89 602.09c-1.825 0.022-3.381 0.379-4.825 0.989-2.838 1.202-5.165 3.182-7.208 5.534l-0.079 0.096c-0.858 1.04-4.027 5.477-4.243 5.634 9.641-2.927 8.067-0.109 14.156-0.12 0.652 0 1.351-0.118 2.199-0.385 0.848 0.267 1.546 0.385 2.2 0.385 6.087 0.011 4.515-2.807 14.155 0.12-0.215-0.157-3.384-4.594-4.242-5.634l-0.079-0.096c-2.043-2.352-4.371-4.332-7.21-5.534-1.443-0.61-2.999-0.967-4.824-0.989zm0 7.667c-4.751 0.004-9.439 0.137-11.229 0.414l-0.191 0.03c3.216-1.239 7.314-1.883 11.42-1.927 4.107 0.044 8.204 0.688 11.42 1.927l-0.19-0.03c-1.791-0.277-6.479-0.41-11.23-0.414" fill="#ec484e"/><path d="m135.89 609.76c-4.751 0.004-9.439 0.137-11.229 0.414l-0.191 0.03c3.216-1.239 7.314-1.883 11.42-1.927 4.107 0.044 8.204 0.688 11.42 1.927l-0.19-0.03c-1.791-0.277-6.479-0.41-11.23-0.414" fill="#fff"/></g></g></g></svg>
