<?xml version="1.0" encoding="UTF-8" standalone="no"?>
<!-- Created with Inkscape (http://www.inkscape.org/) -->
<svg xmlns:rdf="http://www.w3.org/1999/02/22-rdf-syntax-ns#" xmlns="http://www.w3.org/2000/svg" height="200px" width="200px" version="1.1" xmlns:cc="http://creativecommons.org/ns#" xmlns:dc="http://purl.org/dc/elements/1.1/" viewBox="0 0 200 200">
 <defs>
  <clipPath id="clipPath2392" clipPathUnits="userSpaceOnUse">
   <path d="m5778.7 2674.6c34.91 161.43 89.44 344.66-24 626.08-113.44 281.41-377.4 368.68-527.92 355.59-150.5-13.1-261.8-106.9-392.7-296.7-130.88-189.78-102.53-545.37-102.53-634.81 0-89.43 17.46-198.52 17.46-198.52-2.19 78.53 17.45 253.05 17.45 253.05-2.19-111.25 2.18-311.94 2.18-311.94-4.37-331.6-163.62-379.58-163.62-379.58 18.88 4.99 43.25 8.57 69.1 11.14 39.47 33.26 118.73 115.1 155.59 259.34 0 0-27.79-192.52-107.98-255.72 60.92 3.46 116.71 2.69 116.71 2.69l128.71 8.73 172.34-2.2 414.47-4.35 109.08-6.55c104.73-6.53 205.07 24 205.07 24-141.81 109.07-124.35 388.3-89.44 549.74z"/>
  </clipPath>
  <linearGradient id="linearGradient2398" gradientUnits="userSpaceOnUse" gradientTransform="matrix(0 477.75 477.75 0 5236.6 2206.7)">
   <stop stop-color="#734333" offset="0"/>
   <stop stop-color="#311f19" offset="1"/>
  </linearGradient>
  <clipPath id="clipPath2408" clipPathUnits="userSpaceOnUse">
   <path d="m5749.3 2619s-37.09-109.07-30.54-237.78 65.43-183.25 65.43-183.25-78.53 181.07-34.89 421.03zm-997-403.6s93.8 141.8 63.27 379.59c0 0-2.19-215.97-63.27-379.59zm883.3 1208.9c-4.66 8.72-6.21 18.76-7.75 28.64 63.56-72.41 122.04-172.34 160.67-310.38 0 0-71.99 479.92-501.76 499.56 0 0 15.8-1.04 41.96-6.86 7.4-3.91 14.82-8.39 17.06-12.24 6.52-11.16-5.05-7.26-4.63-13.01 1.05-14.28 0.07-11.84 15.44-24.07 17.85-14.23 42.17-41.09 15.04-57.24 15.83-14.53 49.2-17.47 70.39-24.11-15.97 7.63-23.88 23.49-33.51 39.38-5.02 8.26-32.73 27.7-29.73 36.64 4.15 12.32 36.9 8.51 63.6 2.43 23.47-9.9 48.93-25.29 62.53-43.98 10.47-14.39 13.32-21.64 28.37-32.67 14.69-10.77 33.15-21.11 39.49-38.77-14.92-10.52-14.47-8.51-6.65-24.01 6.65-13.17 19.66-22.58 28.35-34.42 14.75-20.09 36.58-77.96-6.31-81.52 1.45-19.04 30.74-41.52 41.11-58.47 15.1-24.7 31.52-50.4 44.26-76.39 6.44 40.53-8.65 116.88-29.53 154.32-11.42 20.46-67.36 93.47-8.4 77.17zm-726.23 17.13s-218.15-150.53-163.6-654.45c0 0-4.19 100.28 9.39 226.41 18.14 21.9 28.5-33.65 30.4-43.04 5.06-24.89 9.46-49.6 14.74-74.28 6.19-29.02 14.3-33.15 33.14-52.27 17.19-17.43 26-44.96 32.65-68.63-4.32 19.67-0.82 44.09-2.58 63.69-1.61 17.7 1.86 55.76-11.29 70.44-9.66 10.79-23.4 3.69-34.52 9-15.39 7.35-18.21 21.67-21.34 38.31-6.26 33.35-3.28 67.29-4.67 100.99-0.65 15.6 1.79 44.44-4.43 58.83-6.73 15.57-11.84 5.22-11.45 30.34 23.2 111.63 63.57 223.83 133.56 294.66zm-43.28-666.26c0.54-2.47 1.18-4.87 2-7.16-0.64 2.33-1.31 4.72-2 7.16z"/>
  </clipPath>
  <linearGradient id="linearGradient2414" gradientUnits="userSpaceOnUse" gradientTransform="matrix(0 477.75 477.75 0 5262.8 2206.7)">
   <stop stop-color="#6d4031" offset="0"/>
   <stop stop-color="#4a2c23" offset="1"/>
  </linearGradient>
  <clipPath id="clipPath2424" clipPathUnits="userSpaceOnUse">
   <path d="m5345.7 3157.8c30.54-24 170.15-71.99 170.15-71.99l159.26 17.46 37.08 93.79c-102.54 281.42-375.21 331.61-375.21 331.61l-133-157c13.1-30.53 111.26-189.79 141.8-213.79zm327.22-643.54c32.72 111.26 85.07 394.86 85.07 394.86l-327.21-364.32c-63.27-85.07-80.73-157.08-95.98-224.69-11.1-49.11 64.07-151.09 119.43-211.64l99.79-1.05 17.7-1.06c12.86 106.99 44.48 196.3 44.48 196.3-9.09-68.14-8.12-142.77-5.09-198.66l40.13-2.41c-34.08 143.61-11.04 303.6-11.04 303.6 1.27-134.55 33.55-240.27 60.34-305.18 11.63 0.16 23.05 0.71 34.13 1.51-59.99 73.78-91.48 311.67-61.75 412.74zm-621.72 1044.9c-63.27-37.08-191.97-198.52-224.7-503.93-32.72-305.4 19.63-545.36 17.45-695.89-1.81-125.97-64.73-225.9-85.21-255.19 18.45 0.65 35.23 0.92 48.6 1.04 17.32 47.59 42.31 122.8 51.89 184.33 0 0-0.04-73.66-27.89-184.26 4.59-0.03 7.16-0.06 7.16-0.06l128.71 8.73 172.34-2.2 86.32-0.9c14.65 15.72 28.04 32.59 39.11 49.99 45.81 71.99 54.54 554.09 54.54 554.09l-78.54 534.49s-126.52 346.84-189.78 309.76z"/>
  </clipPath>
  <linearGradient id="linearGradient2430" gradientUnits="userSpaceOnUse" gradientTransform="matrix(0 477.75 477.75 0 5258.3 2206.7)">
   <stop stop-color="#593025" offset="0"/>
   <stop stop-color="#311d17" offset="1"/>
  </linearGradient>
  <clipPath id="clipPath2440" clipPathUnits="userSpaceOnUse">
   <path d="m5662.2 2103.6c-74.5 19.63-137.56 45.82-171.94 127.61-54.48 130.88-28.67 255.24-28.67 392.68h-432.78c0-137.44 25.79-261.8-28.66-392.68-34.39-81.79-97.45-107.98-171.97-127.61h5.74c126.09 0 246.39-46.88 369.72-58.9 235.03-22.92 295.21 45.81 464.31 55.63z"/>
  </clipPath>
  <linearGradient id="linearGradient2446" gradientUnits="userSpaceOnUse" gradientTransform="matrix(0 -278.2 -278.2 0 5248.1 2535.1)">
   <stop stop-color="#d37663" offset="0"/>
   <stop stop-color="#fab79e" offset="1"/>
  </linearGradient>
  <clipPath id="clipPath2456" clipPathUnits="userSpaceOnUse">
   <path d="m5217 3650.8-24.01-6.54c-192-54.6-294.5-279.3-325.1-458.1l2.39-0.96c-22.91-100.92-25.36-209.84-26.38-319.72l3.07 8.93c-8.65-202.39 23.01-409.43 71.1-600.12l0.2 0.99c9.39-94.26 19.44-160.23 19.44-160.23 6.53 78.53 15.27 157.06 21.81 235.59 5.68 81.25 26.04 180.47 21.49 265.12l89.74 486.88 19.65-8.1c6.56 2.17 95.99 117.8 95.99 117.8l170.17 174.52c2.17 74.17-17.46 277.06-139.61 263.95z"/>
  </clipPath>
  <linearGradient id="linearGradient2462" gradientUnits="userSpaceOnUse" gradientTransform="matrix(1e-7 1122.9 1122.9 -1e-7 5100.3 2357.1)">
   <stop stop-color="#734333" offset="0"/>
   <stop stop-color="#311f19" offset="1"/>
  </linearGradient>
  <clipPath id="clipPath2472" clipPathUnits="userSpaceOnUse">
   <path d="m5278 3545.6c-6.68 24.22-9.04 35.22-34.89 45.8-22.86 9.36-42.86 7.42-32.25 37.09 3.44 9.63 11.48 14.88 9.82 22.61-1.25-0.09-2.49-0.17-3.75-0.32l-24.01-6.54c-14.57-4.14-28.6-9.26-42.14-15.26h2.88c19.51 14.02 55.41 1.78 35.67-24.14 12.63-3.62 31.9-10.77 39.03-23.74 12.5-22.78-12.98-38.26-9.35-59.18 5.19-30.01 51.79 4.29 68.21-21.48 8.44 6.44 18.22 13.69 27.11 20.05-24.5 5.27-29.26-0.46-36.33 25.11zm-226.86-306.6c-34.64 27.93-9.12 77.9-5.58 117.46 43.56 50.69 77.56 76.18 77.56 76.18-29.28-16.9-55.15-36.18-78.11-56.99-0.11 0.67-0.22 1.36-0.38 2.02-5.95 26.37-29.81 24.45-41.84 32.03 43.5 42.97 85.44 79.67 85.44 79.67-36.47-17.4-67.54-43.92-92.1-70.13-1.01 5.29 0.19 12.75 4.71 23.83 6.39 15.65 63.84 91.44 48.33 98.98 9.96 22.05 31.49 43.51 53.29 60.53-43.72-28.68-81.12-67.06-112.57-110.91 0.6-0.8 1.18-1.64 1.86-2.42 9.24-10.58 14.42-0.16 11.44-19.51-0.85-5.55-8.73-18.43-11.44-24-8.41-17.28-10.96-27.88-12.16-45.15-29.75-35.56-46.27-66.1-46.27-66.1 12.61 15.86 28.61 33.51 45.55 51.05-0.84-25.51 2.49-23.23 26.49-38.52 2.4-1.53 4.51-3.15 6.34-4.85-116.12-129.29-138.49-298.13-142.78-355.91-2.28-1.51-4.8-4.51-7.57-9.52-12.09 24.88-6.26 56.14-9.96 83.76-4.38-48.51-6.09-98.08-6.91-148.08 9.13 1.19 17.89-1.64 26.06-11.95 15.92-20.08 14.64-52.62 19.16-76.39 2.41-12.74 11.12-33.19 26.7-36.26 20.94-4.13 31.23 22.62 54.02 7.88 18.12-11.74 23.62-35.24 33.97-53.07l5.1 27.7c1.94 30.57 2.84 69.35-12.79 77.82-7.34 3.99-24.57-2.7-32.83-2.32-13.55 0.63-23.83 3.77-35.38 10.85-33.21 20.35-35.8 62.9-41.51 97.83-1.91 11.66-6.59 34.63-15.56 32.84 26.72 151.78 92.38 265.1 149.95 339.46 4.56-14.47 0.95-31.86-0.78-48.99-3.85-37.95-7.15-75.97-8.73-113.97-0.31-8.05-3.98-31.74 0.44-38.84 6.02-9.68 14.13-4.44 21.38-10.33 20.86-16.99 5.05-42.65 2.09-67.37 11.13 13.62 22.05 28.1 32.69 43.08l2.27 12.22 4.88-2.02c29.73 43 57.05 89.67 80.06 133.37-27.43-7.81-79.53-15.13-104.53 5.04z"/>
  </clipPath>
  <linearGradient id="linearGradient2478" gradientUnits="userSpaceOnUse" gradientTransform="matrix(0 663.96 663.96 0 5079.4 2885.8)">
   <stop stop-color="#6d4031" offset="0"/>
   <stop stop-color="#4a2c23" offset="1"/>
  </linearGradient>
  <clipPath id="clipPath2488" clipPathUnits="userSpaceOnUse">
   <path d="m5264.4 3543.4c-9.66 21.59-8.75 32.57-32.72 45.81l-8.2 3.29c19.57-21.51 26.74-42.06 19.89-70.11 12.86-0.69 40.77 6.01 43.85-11.21 2.23 1.56 7.36 6.5 9.37 8.95-12.81 3.18-26.78 11.21-32.19 23.27zm-68.72 93.26v-3.27c5.59-7.37 5.94-17.07 3.48-25.89 2.79-0.66 7.82-0.96 10.67-0.37-10.58 10.81-0.07 23.24 1.96 34.23-5.13-0.95-10.95-2.64-16.11-4.7zm-181.61-148.88-1.63-9.82c17.6 21.28 9.53 49.76 23.07 71.42-7.79-13.51-20.15-22.27-27.77-35.06 11.16-4.31 7.55-17.23 6.33-26.54zm16.35-176.7c-1.07 21.39 1.15 44.14-6.86 63.45-9.64 23.24-32.39 9.71-39.02 34.14-1.57-27.7 1.44-35.77 24.62-50.15 24.55-15.23 19.26-34.5 18.03-60.55-1.84-39.45-12.25-101.18 3.23-137.41l44.19 45.8c-49.59 10.59-42.1 63.51-44.19 104.72zm-104.6-470.19c-16.46-3.29-28.27 32.6-32.82 44.8-3.46 9.26-23.64 77.77-34.36 57.25l-3.27-21.27c44.73-13.49 28.12-106.87 68.43-112.71 3.39 10.01 1.78 21.34 2.02 31.93z"/>
  </clipPath>
  <linearGradient id="linearGradient2494" gradientUnits="userSpaceOnUse" gradientTransform="matrix(0 608.36 608.36 0 5076 2940.1)">
   <stop stop-color="#7f4a37" offset="0"/>
   <stop stop-color="#5b352a" offset="1"/>
  </linearGradient>
  <clipPath id="clipPath2504" clipPathUnits="userSpaceOnUse">
   <path d="m4870.3 3185.2c26.18 115.47 79.15 220.4 187.42 304.24 0 0-89.76-42.04-154.92-168.97-15.97-45.41-27.5-91.17-34.88-134.27l2.39-0.96c0-0.02 0-0.03-0.01-0.04zm268.13 284.59s-205.06-82.06-282.35-366.39c-9.84-76.91-11.4-157.14-12.15-237.88l3.07 8.93c-0.01-0.04-0.01-0.08-0.01-0.12 2.72 63.92 9.42 127.38 20.93 189.72 28.37 165.78 124.36 314.13 270.51 405.74zm203.89 51.04c-65.29-20.02-158.08-199.37-158.08-199.37-32.71-50.18-172.33-189.78-205.06-268.31-32.72-78.55-47.97-274.87-47.97-274.87-15.28-150.53 6.54-503.94 6.54-503.94l1.66-0.18c-1.06-10.91-1.67-17.27-1.67-17.27-24 87.27-28.36 455.94-28.36 455.94-14.95-137.19-3.56-312.85 8.97-438.19 0.27-2.59 0.52-5.19 0.78-7.74 0.03-0.32 0.06-0.63 0.09-0.94 5.86-57.33 11.83-103.27 15.35-128.79 0.02-0.14 0.05-0.29 0.07-0.41 0.17-1.21 0.33-2.36 0.48-3.47v-0.05c0.17-1.16 0.32-2.27 0.47-3.32v-0.04c0.43-3.07 0.8-5.66 1.12-7.79 0.01-0.1 0.02-0.22 0.05-0.33 0.09-0.66 0.18-1.27 0.26-1.83 0.01-0.06 0.04-0.13 0.04-0.2 0.06-0.47 0.12-0.89 0.18-1.29 0.03-0.22 0.07-0.46 0.1-0.66 0.03-0.26 0.06-0.5 0.1-0.72 0.04-0.25 0.08-0.51 0.1-0.71 0.03-0.1 0.05-0.22 0.06-0.31 0.09-0.61 0.14-0.95 0.14-0.95 0.99 11.95 2.05 23.88 3.12 35.81 0.37 4.02 0.75 8.02 1.11 12.02 0.73 7.82 1.46 15.63 2.2 23.44 0.51 5.4 1.01 10.81 1.54 16.23 0.16 1.64 0.32 3.31 0.49 4.97 2.09 21.73 4.2 43.46 6.3 65.19 2.48 25.98 4.89 51.96 7.05 77.93 5.68 81.25 26.04 180.47 21.49 265.12l89.74 486.88 19.65-8.1c6.56 2.17 95.99 117.8 95.99 117.8l170.17 174.52c0.89 30.73-1.96 83.53-14.27 133.93z"/>
  </clipPath>
  <linearGradient id="linearGradient2510" gradientUnits="userSpaceOnUse" gradientTransform="matrix(0 1027.4 1027.4 0 5100.3 2336.5)">
   <stop stop-color="#593025" offset="0"/>
   <stop stop-color="#311d17" offset="1"/>
  </linearGradient>
  <clipPath id="clipPath2520" clipPathUnits="userSpaceOnUse">
   <path d="m5340.8 3535.9c-13.1 45.62-38.22 99.89-88.21 113.4-11.64 3.14-23.78 3.07-35.64 1.6-0.13-0.01-0.13-0.17 0-0.16 26.41 2.01 51.49-6.93 70.86-24.93 19.67-18.28 32.08-43.56 41.08-68.48 18.06-49.99 24.23-104.21 25.39-157.11 0.11-4.45 0.15-8.91 0.14-13.36 0-2.77 4.11-2.73 4.26 0 2.72 49.61-4.18 101.41-17.88 149.04zm-148.1 109.26c-143.18-36.89-234.64-173.32-284.43-304-19.12-50.17-32.3-101.99-40.47-154.97-0.03-0.13 0.17-0.18 0.2-0.05 13.5 71.09 35.75 141.49 66.78 206.87 31.7 66.86 74.07 129.76 130.23 178.48 37.34 32.4 81.08 56.9 128.18 71.9 1.12 0.35 0.67 2.06-0.49 1.77zm-348.7-779.7c3.51 157.34 6.49 324.8 82.3 467 32.53 60.98 77.94 113.45 131.92 156.42 0.61 0.5-0.22 1.59-0.86 1.1-64.02-48.69-115.3-111.3-149.28-184.26-32.33-69.42-48.26-145.53-56.46-221.31-7.89-72.83-8.01-145.8-7.75-218.95 0-0.09 0.13-0.09 0.13 0zm294.09 604.88c-139.66-86.15-237.68-230.52-269.56-391.14-38.98-196.5-29.28-400.43 3.57-597.05 11.4-68.23 26.33-135.52 43.84-202.37 0.81-8.34 1.63-16.66 2.49-24.98 4.83-46.87 10.18-93.76 17.2-140.34 0.39-2.61 4.09-1.71 4.3 0.57 4.22 49.52 9.19 98.99 13.94 148.46 4.4 45.7 7.54 91.53 12.66 137.16 9.34 83.5 25.91 169.61 11.35 253.46-0.2 1.14-1.91 0.64-1.74-0.49 12.6-83.64-4.34-169.89-14.01-252.97-5.3-45.59-8.38-91.46-12.76-137.16-4.17-43.2-8.47-86.41-12.19-129.66-13.11 89.16-21.81 179.21-27.74 269.07-6.83 103.3-8.25 206.67 0.79 309.87 0.09 1.08-1.57 1.04-1.7 0-9.97-77.88-8.87-157.6-6.05-235.92 2.21-62.03 6.59-123.99 12.41-185.81-44.97 192-74.3 389.12-65.64 586.71 2.26 51.22 7.24 102.32 15.17 152.98 6.69 42.76 15.41 84.97 29.23 126.04 26.59 78.98 69.84 152.08 126.33 213.33 35.03 37.99 75.37 71.11 118.79 99.04 0.76 0.48 0.08 1.66-0.68 1.2z"/>
  </clipPath>
  <linearGradient id="linearGradient2526" gradientUnits="userSpaceOnUse" gradientTransform="matrix(1e-7 1124.8 1124.8 -1e-7 5101.2 2355.4)">
   <stop stop-color="#582c20" offset="0"/>
   <stop stop-color="#1d1512" offset="1"/>
  </linearGradient>
  <clipPath id="clipPath2538" clipPathUnits="userSpaceOnUse">
   <path d="m5082.8 2969.1 193.06-13.09 242.15 22.89 79.87 67.59c-0.83 1.41-1.33 2.22-1.33 2.22l-386.14 281.97c-14.72-37.64-50.72-65.44-71.99-96.54 0 0-117.8-125.97-140.7-183.24-4.17-10.45-8.68-25.41-13.24-42.87l6.7-9.49z"/>
  </clipPath>
  <linearGradient id="linearGradient2544" gradientUnits="userSpaceOnUse" gradientTransform="matrix(0 -329.22 -329.22 0 5291.2 3348.1)">
   <stop stop-color="#fcd3b5" offset="0"/>
   <stop stop-color="#fab79e" offset="1"/>
  </linearGradient>
  <clipPath id="clipPath2554" clipPathUnits="userSpaceOnUse">
   <path d="m5120.7 2503.8c69.48 46.74 69.1 168.95-0.84 272.98-43.67 64.94-104.11 107.44-160.28 118.86-10.17-51.71-17.52-95.06-17.52-95.06s16.37-211.07 78.53-291.23c5.7-7.35 12.41-14.89 19.94-22.54 29.39-3.65 57.18 1.54 80.17 16.99z"/>
  </clipPath>
  <radialGradient id="radialGradient2560" gradientUnits="userSpaceOnUse" cy="0" cx="0" gradientTransform="matrix(121.28 81.551 122.11 -181.61 4992.3 2685.2)" r="1">
   <stop stop-color="#f78d88" offset="0"/>
   <stop stop-color="#fab79e" offset="1"/>
  </radialGradient>
  <clipPath id="clipPath2570" clipPathUnits="userSpaceOnUse">
   <path d="m5679.4 2839.3c-1.68 17.29-5.84 35.73-11.41 54.21-43.94-23.11-86.12-65.25-115.98-120.87-59.31-110.46-47.58-232.1 26.19-271.73 13.24-7.09 27.58-11.02 42.55-12.13 11.83 14.09 21.62 29.83 27.12 50.33 0 0 40.26 210.75 31.53 300.19z"/>
  </clipPath>
  <radialGradient id="radialGradient2576" gradientUnits="userSpaceOnUse" cy="0" cx="0" gradientTransform="matrix(128.76 -69.148 -103.54 -192.79 5678.5 2699.2)" r="1">
   <stop stop-color="#f78d88" offset="0"/>
   <stop stop-color="#fab79e" offset="1"/>
  </radialGradient>
  <clipPath id="clipPath2586" clipPathUnits="userSpaceOnUse">
   <path d="m5515.8 2551.4c0-40.96-56.64-74.16-126.52-74.16s-126.54 33.2-126.54 74.16c0 40.97 56.66 74.18 126.54 74.18s126.52-33.21 126.52-74.18z"/>
  </clipPath>
  <radialGradient id="radialGradient2592" gradientUnits="userSpaceOnUse" cy="0" cx="0" gradientTransform="matrix(126.53 0 0 -74.173 5389.3 2551.4)" r="1">
   <stop stop-color="#fcd3b5" offset="0"/>
   <stop stop-color="#fab79e" offset="1"/>
  </radialGradient>
  <clipPath id="clipPath2602" clipPathUnits="userSpaceOnUse">
   <path d="m5029.4 2890.6s-58.9 53.44-29.45 99.26c0 0 44.72 46.9 135.25 22.91 90.54-24 142.89-45.81 142.89-45.81s21.82-94.91-33.81-125.43z"/>
  </clipPath>
  <linearGradient id="linearGradient2608" gradientUnits="userSpaceOnUse" gradientTransform="matrix(0 -210.8 -210.8 0 5137 3058)">
   <stop stop-color="#d37663" offset="0"/>
   <stop stop-color="#fab79e" offset="1"/>
  </linearGradient>
  <clipPath id="clipPath2618" clipPathUnits="userSpaceOnUse">
   <path d="m5454.8 2832.8s-42.54 73.07-8.72 133.07l25.08-3.27 39.27 24s63.27 18.54 64.35 10.91c1.09-7.64 64.37-69.82 64.37-69.82l3.27-45.8-26.19-13.1-88.34-19.62z"/>
  </clipPath>
  <linearGradient id="linearGradient2624" gradientUnits="userSpaceOnUse" gradientTransform="matrix(0 -197.16 -197.16 0 5537.7 3035.3)">
   <stop stop-color="#d37663" offset="0"/>
   <stop stop-color="#fab79e" offset="1"/>
  </linearGradient>
  <clipPath id="clipPath2634" clipPathUnits="userSpaceOnUse">
   <path d="m5679.4 2839.3c-8.72 89.42-82.88 209.42-82.88 209.42l-386.14 281.97c-14.72-37.64-50.72-65.44-71.99-96.54 0 0-117.8-125.97-140.7-183.24-6.87-17.15-14.6-46.46-22.06-79.13 12.01 14.1 41.65 50.82 53.69 83.48 12.97 35.22 129.87 161.78 176.79 231.14 27.29-40.49 175.01-254.64 283.5-311.85 0 0 117.81-65.45 126.53-122.16 8.66-56.34 51.71-200.92 3.14-365.33 12.5 14.54 22.85 30.71 28.59 52.05 0 0 40.26 210.75 31.53 300.19z"/>
  </clipPath>
  <linearGradient id="linearGradient2640" gradientUnits="userSpaceOnUse" gradientTransform="matrix(-167.98 -233.43 -233.43 167.98 5437.8 2952.5)">
   <stop stop-color="#d37663" offset="0"/>
   <stop stop-color="#f89d8c" offset="1"/>
  </linearGradient>
  <clipPath id="clipPath2650" clipPathUnits="userSpaceOnUse">
   <path d="m5392.6 2616.8s-57.8 2.19-54.54 57.82 6.54 145.06 6.54 145.06l66.55-3.27s3.26-80.72 7.63-101.45c4.36-20.71 19.63-51.25 16.36-70.89-3.28-19.63-15.27-27.27-42.54-27.27z"/>
  </clipPath>
  <linearGradient id="linearGradient2656" gradientUnits="userSpaceOnUse" gradientTransform="matrix(0 153.48 153.48 0 5386.7 2671.8)">
   <stop stop-color="#fcd3b5" offset="0"/>
   <stop stop-color="#fab79e" offset="1"/>
  </linearGradient>
  <clipPath id="clipPath2668" clipPathUnits="userSpaceOnUse">
   <path d="m5268.2 2623.3c2.72-18.67 19.64 2.64 22.11 9.58 3.48 9.73 7.59 28.17 0.51 37.36-20.62 26.79-23.72-34.41-23.72-44.76z"/>
  </clipPath>
  <linearGradient id="linearGradient2674" gradientUnits="userSpaceOnUse" gradientTransform="matrix(16.364 -1.0899 -1.0899 -16.364 5269.4 2647)">
   <stop stop-color="#fcd3b5" offset="0"/>
   <stop stop-color="#fab79e" offset="1"/>
  </linearGradient>
  <clipPath id="clipPath2684" clipPathUnits="userSpaceOnUse">
   <path d="m5475.8 2616.7c-4.64-15.37-12.83 4.58-13.44 10.74-0.88 8.59-0.87 24.56 5.28 31.45 17.95 20.02 10.78-31.78 9.22-40.49z"/>
  </clipPath>
  <linearGradient id="linearGradient2690" gradientUnits="userSpaceOnUse" gradientTransform="matrix(-11.288 .91357 -2.1739 -16.348 5478.7 2636.7)">
   <stop stop-color="#fcd3b5" offset="0"/>
   <stop stop-color="#fab79e" offset="1"/>
  </linearGradient>
  <clipPath id="clipPath2702" clipPathUnits="userSpaceOnUse">
   <path d="m5275.9 2605.9s26.18 14.74 67.08 9.83c0 0 49.09-32.73 94.9 3.27 0 0 26.18-3.27 32.72-16.36 0 0-9.81-18-21.27-19.64 0 0-26.18-31.09-71.99-31.09s-91.62 37.63-91.62 37.63-9.82 3.28-9.82 16.36z"/>
  </clipPath>
  <linearGradient id="linearGradient2708" gradientUnits="userSpaceOnUse" gradientTransform="matrix(0 -78.135 -78.135 0 5373.2 2607.2)">
   <stop stop-color="#d37663" offset="0"/>
   <stop stop-color="#fab79e" offset="1"/>
  </linearGradient>
  <clipPath id="clipPath2726" clipPathUnits="userSpaceOnUse">
   <path d="m5274.8 2475s49.08-30.53 109.08-24c59.99 6.55 82.89 25.09 83.98 32.74 1.1 7.63-40.35 1.08-80.71 2.16-40.36 1.11-111.26 2.2-112.35-10.9z"/>
  </clipPath>
  <radialGradient id="radialGradient2732" gradientUnits="userSpaceOnUse" cy="0" cx="0" gradientTransform="matrix(95.844 0 0 -95.844 5378.8 2460.8)" r="1">
   <stop stop-color="#f47b69" offset="0"/>
   <stop stop-color="#f25950" offset="1"/>
  </radialGradient>
  <clipPath id="clipPath2746" clipPathUnits="userSpaceOnUse">
   <path d="m5442.5 2625.6c-0.08-0.32 0.38-0.46 0.49-0.14 7.92 24.18-0.94 44.95-7.9 68.11-4.18 13.91-8.02 26.8-9.54 41.38-1.55 14.74-1.55 29.58-2.1 44.37-0.01 0.44-0.66 0.44-0.68 0-0.93-25.38-0.58-50.95 6.26-75.58 7.01-25.34 20.11-51.38 13.47-78.14zm36.73 31.02c-0.06 0.63-0.93 0.63-0.98 0-2.99-26.57-0.51-57.99-29.49-71.12-1.04-0.47-0.28-2.27 0.79-1.86 29.33 11.18 32.78 45.39 29.68 72.98zm-23.2-60.34c-6.41 5.02-14.68 8.84-22.76 7.5 2.76 3.8 5.04 8.24 6.69 13.43 0.19 0.59-0.62 0.87-0.93 0.4-9.48-14.44-20.13-24.77-37.47-28.51-16.42-3.53-34.38-0.01-50.26 4.37-0.86 0.22-1.15-1.01-0.36-1.31 25.27-9.52 60.72-12.5 79.43 8.06 9.15 1.04 17.13 1.54 25.33-4.38 0.25-0.19 0.58 0.25 0.33 0.44zm-107.67 2.32c-16.95 10.41-39.12 7.51-56.32-0.56-0.39-0.17-0.11-0.84 0.29-0.67 18.63 7.27 36.69 5.67 55.24-0.64 1.13-0.39 1.75 1.27 0.79 1.87zm-77.3 18.86c-4.81 16.96-2.2 35.03-0.96 52.24 0.07 0.88-1.38 1.08-1.54 0.22-3.05-18.36-5.49-38.59-0.25-56.76 5.66-19.65 21.71-27.68 40.26-31.89 0.1-0.01 0.13 0.13 0.04 0.16-17.88 5.4-32.39 17.92-37.55 36.03z"/>
  </clipPath>
  <linearGradient id="linearGradient2752" gradientUnits="userSpaceOnUse" gradientTransform="matrix(0 93.647 93.647 0 5372.7 2672.6)">
   <stop stop-color="#a74737" offset="0"/>
   <stop stop-color="#e99981" offset="1"/>
  </linearGradient>
  <clipPath id="clipPath2762" clipPathUnits="userSpaceOnUse">
   <path d="m4996.1 2987.1s37.63 34.36 114.52 22.91 109.63-62.17 143.97-58.89c0 0 14.74 4.91 26.19 16.35 0 0-54 18-93.27 32.73s-130.88 53.98-191.41-13.1z"/>
  </clipPath>
  <linearGradient id="linearGradient2768" gradientUnits="userSpaceOnUse" gradientTransform="matrix(0 -49.08 -49.08 0 5138.4 3037.8)">
   <stop stop-color="#582c20" offset="0"/>
   <stop stop-color="#1d1512" offset="1"/>
  </linearGradient>
  <clipPath id="clipPath2778" clipPathUnits="userSpaceOnUse">
   <path d="m5670.2 2987.1s-29.63 34.36-90.18 22.91c-60.54-11.45-86.3-62.17-113.36-58.89 0 0-11.6 4.91-20.61 16.35 0 0 42.51 18 73.43 32.73 30.91 14.73 103.04 53.98 150.72-13.1z"/>
  </clipPath>
  <linearGradient id="linearGradient2784" gradientUnits="userSpaceOnUse" gradientTransform="matrix(0 -49.08 -49.08 0 5558.1 3037.8)">
   <stop stop-color="#582c20" offset="0"/>
   <stop stop-color="#1d1512" offset="1"/>
  </linearGradient>
  <clipPath id="clipPath2794" clipPathUnits="userSpaceOnUse">
   <path d="m5760.2 2957.1c0 89.45-26.18 202.89-71.99 283.61-71.99 133.06-187.61 220.32-335.95 259.6l-17.44-4.37c-21.83-15.28-34.91-34.91-78.54-80.72-43.63-45.82-54.54-87.25-54.54-87.25 71.99-80.71 122.16-172.35 200.7-250.88 39.26-39.26 80.71-80.71 126.52-109.08 32.72-19.62 76.36-37.08 98.16-67.63 0 0 74.18-200.68 4.38-397.02 0 0 61.75 114.15 84.73 217.68l0.35-1.71c30.53 74.16 43.62 157.06 43.62 237.77z"/>
  </clipPath>
  <linearGradient id="linearGradient2800" gradientUnits="userSpaceOnUse" gradientTransform="matrix(0 728.62 728.62 0 5480.9 2660.4)">
   <stop stop-color="#734333" offset="0"/>
   <stop stop-color="#311f19" offset="1"/>
  </linearGradient>
  <clipPath id="clipPath2810" clipPathUnits="userSpaceOnUse">
   <path d="m5693.8 2885.4c-6.36 75.47-36.44 215.27-164.1 330.82 7.03 9.47 15.75 17.68 27.1 24.06 18.65 10.49 38.93 6.58 57.26 13.63 5.15 1.98 8.61 4.66 11.05 7.73 47.18-69.67 93.17-165.5 109.13-287.22-0.26-2.69-0.48-5.47-0.68-8.42-1.9-27.38-13.78-64.85-39.76-80.6zm55.71 179.55c-0.39-12.51-1.76-25.11-5.11-38.02-1.27-4.9-2.41-9.36-3.44-13.61-8.09 61.84-32.7 173.57-107.46 270.46 1.57 4.58 3.83 8.84 8.26 12.16 2.61 1.95 6.18 2.8 10.18 2.95-28.63 40-62.04 74.77-99.77 104.25 2.69-4.72 5.02-9.44 6.86-14.14 4.43-11.37 4.29-22.41 5-33.51-19.65 16.15-41.43 31.14-65.6 44.52 0 0 29.68-21.39 68.26-63.91 8.92-58.67-26.67-59.08-79.76-72.92-4.41-1.16-8.3-2.32-11.74-3.61-13.27 9.28-27.29 18.31-42.2 27.01 0 0 14.72-9.78 37.2-29.16-11.18-5.4-16.55-13.28-19.75-29.2-4.06-20.21 3.72-48.41-17.47-57.26-18.63-7.77-45.42 6.41-65.43 4.35-17.67-1.81-22.65-7.43-41.44 2.19l-0.84-10.14c19.22-25.29 39.34-50.23 61.67-74.11 2.88 18.83 9.58 35.21 30.79 42.26 17.84 5.92 34.43-0.15 52.25 0.54 27.74 1.07 31.01 16.07 39.91 40.8 3.76 10.4 7.99 20.31 13.26 29.37 62.03-66.95 137.88-175.34 164.56-324-1.25-0.54-2.53-1.06-3.84-1.51-14.94-5.12-31.15 9.61-39.32-6.7-3.16 2.69-7.69 5.19-11.39 7.91 4.94-16.52 12.03-43.3 17.91-77.13 2.41 7.65 4.58 15.11 7.1 20.95 8.18 18.87 18.06 32.38 31.56 44.66 2.06-12.95 3.77-26.21 5.05-39.76 0 0 1.5 16.56-0.18 44.01 2.65 2.24 5.44 4.46 8.36 6.64 16.66 12.5 38.07 35.66 56.26 38.4 0.66 12.52 1 25.02 1 37.47 0 33.55-3.67 70.47-10.7 107.79z"/>
  </clipPath>
  <linearGradient id="linearGradient2816" gradientUnits="userSpaceOnUse" gradientTransform="matrix(0 437.31 437.31 0 5542.7 2899)">
   <stop stop-color="#6d4031" offset="0"/>
   <stop stop-color="#4a2c23" offset="1"/>
  </linearGradient>
  <clipPath id="clipPath2826" clipPathUnits="userSpaceOnUse">
   <path d="m5641.3 2851.2c1.08-4.41 2.18-9.1 3.26-14.03 14.79 15.84 32.72 30.42 47.29 41.95-8.59-5.01-17.39-9.18-25.34-14.36-8.21-5.34-16.56-11.22-25.21-13.56zm117.42 142.89c-0.2 0.88-0.39 1.77-0.57 2.66-18.05-33.31-20.12-76.12-47.37-103.47 8.41 5.44 17.45 10.45 24.85 16.89 6.9 5.99 14.75 20.26 24.04 23.11 0.28 7.95 0.46 15.87 0.46 23.78 0 11.97-0.49 24.36-1.41 37.03zm-199.46 273.08c-25.38-12.67-68.17-9.85-85.49-33.05-16.74-22.43 5.99-66.97-24.5-76.89-32.42-10.57-81.82 10.36-116.55 0.2 7.66-9.93 15.5-19.75 23.56-29.48 20.3 12.85 42.6 21.88 66.81 24.37 19.99 2.05 40.99-1.6 60.38-2.94-6.05 18.65-4.44 46.45 3.03 65.06 9.94 24.79 25.58 31.07 49.49 38.03 19.52 5.68 41.74 6.88 58.82 19.61 17.59 13.13 24.3 36.28 34.84 55.53-10.37 12.53-21.3 24.41-32.69 35.74 6.22-36.25-7.9-81.31-37.7-96.18zm132.59-388.05c2.59 1.51 5.18 3.1 7.71 4.83 4.18 2.85 7.88 5.99 11.22 9.33-3.17-2.06-6.27-4.16-9.14-6.42-3.01-2.38-6.31-4.98-9.79-7.74z"/>
  </clipPath>
  <linearGradient id="linearGradient2832" gradientUnits="userSpaceOnUse" gradientTransform="matrix(0 384.56 384.56 0 5546.4 2920.1)">
   <stop stop-color="#7f4a37" offset="0"/>
   <stop stop-color="#5b352a" offset="1"/>
  </linearGradient>
  <clipPath id="clipPath2842" clipPathUnits="userSpaceOnUse">
   <path d="m5489.7 3005.1c-28.36 17.45-128.71 124.36-161.43 178.89-29.45 49.09-108.35 135.24-123.83 151.97-1.92-5.08-2.7-7.99-2.7-7.99 71.99-80.71 122.16-172.35 200.7-250.88 39.26-39.26 80.71-80.71 126.52-109.08 23.78-14.26 53.28-27.39 76.02-45.22-5.95 8.8-87.61 65.28-115.28 82.31zm198.51 235.61c-10.99 20.31-23.01 39.54-36 57.72 140.76-240.86 89.47-455.8 73.02-509.5 1.52 135.95-59.13 296.46-89.37 345.42-34.36 55.63-112.91 109.63-112.91 109.63 142.36-122.71 173.44-292.86 183.27-422.12 8.24-108.61-48.2-257.66-66.44-302.48 17.62 34.95 58.64 121.47 76.45 201.66l0.35-1.71c30.53 74.16 43.62 157.06 43.62 237.77 0 89.45-26.18 202.89-71.99 283.61zm-346.86 54.53c174.52-148.35 232.35-317.39 232.35-317.39l0.15-0.73c-3.8 3.53-7.83 7.05-12.17 10.53-50.16 40.36-125.43 92.72-202.88 198.51 0 0 83.99-115.61 98.18-128.71 14.17-13.08 37.08-38.18 76.35-61.07 32.99-19.26 66.78-59.32 79.95-78.07l0.32-2.81c5.06-4.69 9.66-9.69 13.52-15.12 0 0 0.9-2.41 2.4-6.97 0.56-1.1 0.89-1.76 0.89-1.76-12.01 64.37-138.53 257.44-138.53 257.44-75.26 109.06-150.53 146.15-150.53 146.15z"/>
  </clipPath>
  <linearGradient id="linearGradient2848" gradientUnits="userSpaceOnUse" gradientTransform="matrix(0 596.8 596.8 0 5480.9 2648)">
   <stop stop-color="#593025" offset="0"/>
   <stop stop-color="#311d17" offset="1"/>
  </linearGradient>
  <clipPath id="clipPath2858" clipPathUnits="userSpaceOnUse">
   <path d="m5628.8 2902.3c0.32-0.57 1.08-0.07 0.84 0.49-23.44 55.43-51.86 109.74-81.78 161.92-30.42 53.11-66.34 103.11-108.38 147.65-0.06 0.06-0.14-0.03-0.09-0.09 41.25-45.38 75.44-95.95 105.94-149.04 30.13-52.47 53.88-108.25 83.47-160.93zm131.47 96.57c-6.88 86.2-31.42 171.24-73.08 246.99-34.56 62.84-81.61 118.25-138.5 161.94-57.91 44.48-125.62 75.54-196.07 94.04-2.05 0.55-2.92-2.59-0.89-3.14 78.6-21.3 152.52-56.9 214.92-109.61 61.93-52.31 110.5-120.55 142.45-194.9 62.7-145.91 63.45-314.29 11.09-463.34 1.97 10.37 3.56 20.81 4.56 31.29 3.37 35.47 0.4 71.5-4.46 106.66-7.01 50.66-19.26 100.69-35.34 149.2-13.79 41.66-30.51 82.68-53.13 120.38-0.31 0.52-1.13 0.05-0.82-0.48 17.67-30.26 30.92-63.21 42.66-96.15 13.58-38.08 24.43-77.18 32.97-116.68 8.38-38.76 14.23-78.25 15.59-117.93 1.27-37.33-4.01-73.25-13.68-109.29-16.27-60.76-40.68-120.66-69.64-176.83 25.39 82.46 28.98 170.24 17.69 255.58-4.01 30.34-10 60.44-17.93 90-2.29 8.57-4.79 17.09-7.51 25.52-0.83 2.54-1.42 6.63-3.05 8.87-1.69 2.29-3.5 4.48-5.33 6.61-18.49 29.89-45.17 54.53-73.11 75.43-26.4 19.76-53.97 37.32-78.3 59.77-56.05 51.69-89.24 122.74-140.96 178.29-0.06 0.08-0.15-0.03-0.08-0.1 50.48-55.64 84.3-124.45 138.27-177.19 22.22-21.74 47.87-38.75 72.95-56.88 14.05-10.14 27.51-20.99 40.09-32.9 12.74-12.09 23.62-25.56 34.37-39.3-23.72 23.15-56.32 36.55-84.54 53.03-42.73 24.93-78.97 60.89-113.83 95.48-35.44 35.16-67.58 72.5-97.59 112.39-28.25 37.54-55.08 76.09-84.21 112.96-9.59 12.12-19.48 24.01-29.66 35.62-2.05 2.33-3.97 2.48-3.14 5.24 0.63 2 1.33 3.97 2.05 5.92 8.12 22.02 21 42.3 35.44 60.64 17.61 22.34 38.36 42.53 57.23 63.85 11.41 12.88 22.93 25.92 37.05 35.93 0.17 0.09 0.02 0.41-0.17 0.27-23.34-16.53-41.35-40.09-60.69-60.84-27.16-29.09-53.41-57.76-68.89-95.01-1.39-3.37-2.65-6.8-3.77-10.28-1.06-3.4 1.02-4.09 3.59-7.02 16.49-18.74 31.98-38.34 47.08-58.23 28.4-37.43 55.19-76.07 84.09-113.14 30.26-38.85 63.89-74.19 99.23-108.42 33.5-32.45 68.75-63.08 109.79-85.62 18.39-10.07 37.09-19.65 54.17-31.9 9.12-6.52 23.55-16.64 27.4-27.74 5.8-16.71 10.35-33.88 14.42-51.07 26.57-112.25 27.45-233.49-11.2-343.03-0.61-1.73 2.09-2.83 2.95-1.24 25.27 46.68 46.6 96.06 64.17 146.1 8.54 24.27 16.29 49.23 21.66 74.59 18.97 43.84 30.37 90.02 36.94 137.35 6.35 45.67 8.38 92.33 4.7 138.32z"/>
  </clipPath>
  <linearGradient id="linearGradient2864" gradientUnits="userSpaceOnUse" gradientTransform="matrix(0 730.97 730.97 0 5481.6 2659.4)">
   <stop stop-color="#582c20" offset="0"/>
   <stop stop-color="#1d1512" offset="1"/>
  </linearGradient>
  <clipPath id="clipPath2878" clipPathUnits="userSpaceOnUse">
   <path d="m5169.2 2882.9c0 5.23-0.89 10.22-2.49 14.91-16.63 5.82-35 9.16-55.96 9.86-8.09 0.45-17.91-0.26-27.97-2.01-3.8-6.72-6.01-14.47-6.01-22.76 0-20.12 12.9-37.22 30.87-43.55 6.21-1.16 12.51-1.95 18.82-2.48 23.91 1.79 42.74 21.68 42.74 46.03z"/>
  </clipPath>
  <linearGradient id="linearGradient2884" gradientUnits="userSpaceOnUse" gradientTransform="matrix(0 66.246 66.246 0 5123 2847.3)">
   <stop stop-color="#321714" offset="0"/>
   <stop stop-color="#100f0d" offset="1"/>
  </linearGradient>
  <clipPath id="clipPath2894" clipPathUnits="userSpaceOnUse">
   <path d="m5123 2842c22.58 0 40.9 18.32 40.9 40.89 0 6.11-1.38 11.89-3.78 17.09-14.85 4.5-31.15 7.07-49.36 7.68-6.21 0.35-13.43 0-20.98-0.96-4.81-6.71-7.69-14.91-7.69-23.81 0-22.57 18.31-40.89 40.91-40.89z"/>
  </clipPath>
  <linearGradient id="linearGradient2902" gradientUnits="userSpaceOnUse" gradientTransform="matrix(0 66.261 66.261 0 5123 2847.3)">
   <stop stop-color="#5f1f17" offset="0"/>
   <stop stop-color="#5f1f17" offset=".0057804"/>
   <stop stop-color="#211212" offset="1"/>
  </linearGradient>
  <clipPath id="clipPath2914" clipPathUnits="userSpaceOnUse">
   <path d="m5140 2882.9c0-9.41-7.63-17.05-17.04-17.05s-17.05 7.64-17.05 17.05c0 9.42 7.64 17.06 17.05 17.06s17.04-7.64 17.04-17.06z"/>
  </clipPath>
  <linearGradient id="linearGradient2920" gradientUnits="userSpaceOnUse" gradientTransform="matrix(0 -17.182 -17.182 0 5123 2880)">
   <stop stop-color="#100f0d" offset="0"/>
   <stop stop-color="#6f6c67" offset="1"/>
  </linearGradient>
  <clipPath id="clipPath2942" clipPathUnits="userSpaceOnUse">
   <path d="m5533.2 2828c23.8 0 43.08 20.7 43.08 46.22 0 7.27-1.62 14.12-4.4 20.25-1.91 0.11-3.77 0.17-5.52 0.14-30.25-0.05-54.48-8.38-76.06-24.67 2.03-23.51 20.45-41.94 42.9-41.94z"/>
  </clipPath>
  <linearGradient id="linearGradient2948" gradientUnits="userSpaceOnUse" gradientTransform="matrix(0 66.264 66.264 0 5533.2 2838.6)">
   <stop stop-color="#321714" offset="0"/>
   <stop stop-color="#100f0d" offset="1"/>
  </linearGradient>
  <clipPath id="clipPath2958" clipPathUnits="userSpaceOnUse">
   <path d="m5533.2 2833.3c21.06 0 38.13 18.31 38.13 40.89 0 7.43-1.88 14.39-5.1 20.39-27.99-0.08-50.79-7.27-71.13-21.28 0.45-22.17 17.31-40 38.1-40z"/>
  </clipPath>
  <linearGradient id="linearGradient2966" gradientUnits="userSpaceOnUse" gradientTransform="matrix(0 66.258 66.258 0 5533.2 2838.6)">
   <stop stop-color="#5f1f17" offset="0"/>
   <stop stop-color="#5f1f17" offset=".0057804"/>
   <stop stop-color="#211212" offset="1"/>
  </linearGradient>
  <clipPath id="clipPath2978" clipPathUnits="userSpaceOnUse">
   <path d="m5549 2874.2c0-9.41-7.11-17.05-15.89-17.05-8.76 0-15.89 7.64-15.89 17.05s7.13 17.04 15.89 17.04c8.78 0 15.89-7.63 15.89-17.04z"/>
  </clipPath>
  <linearGradient id="linearGradient2984" gradientUnits="userSpaceOnUse" gradientTransform="matrix(0 -17.177 -17.177 0 5533.2 2871.4)">
   <stop stop-color="#100f0d" offset="0"/>
   <stop stop-color="#6f6c67" offset="1"/>
  </linearGradient>
 </defs>
 <metadata>
  <rdf:RDF>
   <cc:Work rdf:about="">
    <dc:format>image/svg+xml</dc:format>
    <dc:type rdf:resource="http://purl.org/dc/dcmitype/StillImage"/>
    <dc:title/>
   </cc:Work>
  </rdf:RDF>
 </metadata>
 <g transform="translate(0,-97)">
  <g stroke-width=".26709" transform="matrix(1.4451 0 0 -1.2072 -657.31 541.47)">
   <path d="m587.11 212.88c-13 10.001-12.847 35.6-8.764 54.482 0.253 1.165 0.515 2.342 0.778 3.531 3.46 15.523 7.38 33.115-3.202 59.363-4.795 11.895-12.862 21.565-23.329 27.964-8.349 5.103-18.163 8.03-26.929 8.03-1.039 0-2.06-0.043-3.031-0.127-7.612-0.662-14.168-3.303-20.629-8.311-6.044-4.683-12.082-11.537-19.001-21.57-11.62-16.847-10.784-46.744-10.428-59.512 0.047-1.71 0.088-3.188 0.088-4.247 0-8.88 1.735-19.821 1.752-19.931 0.039-0.24 0.245-0.412 0.484-0.412 0.015 0 0.031 0.001 0.047 0.003 0.257 0.024 0.452 0.244 0.445 0.501-0.103 3.659 0.278 9.472 0.71 14.598 0.044-9.937 0.268-20.362 0.272-20.494-0.224-16.932-4.575-26.23-8.19-31.05-3.895-5.195-7.785-6.432-7.823-6.445-0.256-0.078-0.403-0.346-0.328-0.603 0.06-0.215 0.255-0.357 0.469-0.357 0.042 0 0.084 0.005 0.126 0.016 1.696 0.448 3.994 0.819 6.834 1.1 0.1 0.009 0.193 0.048 0.269 0.112 3.381 2.853 8.904 8.55 12.891 17.842-1.628-5.909-4.421-13.305-8.753-16.717-0.168-0.135-0.23-0.359-0.155-0.56 0.073-0.191 0.256-0.317 0.459-0.317h0.029c1.168 0.067 2.415 0.123 3.701 0.167 0.678 0.021 1.334 0.039 1.986 0.056 0.418 0.009 0.82 0.017 1.226 0.024h0.044l0.48 0.009h0.096l0.491 0.008 0.472 0.005h0.035c0.645 0.005 1.211 0.006 1.675 0.006h0.042c0.089-0.102 0.223-0.167 0.369-0.167h0.574c7.203 0 14.347-1.571 21.255-3.089 5.116-1.124 10.404-2.286 15.669-2.799 3.179-0.311 6.223-0.468 9.051-0.468 9.046 0 15.171 1.582 21.096 3.111 4.834 1.248 9.831 2.538 16.36 2.918 0.04 0.002 0.077 0.009 0.115 0.021 0.798-0.038 1.615-0.058 2.433-0.058 0.79 0 1.598 0.018 2.403 0.053l0.041 0.002c0.556 0.025 1.123 0.06 1.682 0.1 7.43 0.543 13.397 2.336 13.456 2.354 0.176 0.055 0.307 0.2 0.338 0.381 0.035 0.182-0.037 0.365-0.181 0.477" fill="#100f0d"/>
   <g stroke-width=".26709" transform="scale(.1)">
    <g stroke-width=".26709" clip-path="url(#clipPath2392)">
     <path d="m5778.7 2674.6c34.91 161.43 89.44 344.66-24 626.08-113.44 281.41-377.4 368.68-527.92 355.59-150.5-13.1-261.8-106.9-392.7-296.7-130.88-189.78-102.53-545.37-102.53-634.81 0-89.43 17.46-198.52 17.46-198.52-2.19 78.53 17.45 253.05 17.45 253.05-2.19-111.25 2.18-311.94 2.18-311.94-4.37-331.6-163.62-379.58-163.62-379.58 18.88 4.99 43.25 8.57 69.1 11.14 39.47 33.26 118.73 115.1 155.59 259.34 0 0-27.79-192.52-107.98-255.72 60.92 3.46 116.71 2.69 116.71 2.69l128.71 8.73 172.34-2.2 414.47-4.35 109.08-6.55c104.73-6.53 205.07 24 205.07 24-141.81 109.07-124.35 388.3-89.44 549.74" fill="url(#linearGradient2398)"/>
    </g>
   </g>
   <g stroke-width=".26709">
    <g stroke-width=".26709">
     <g transform="scale(.1)">
      <g stroke-width=".26709" clip-path="url(#clipPath2408)">
       <path d="m5749.3 2619s-37.09-109.07-30.54-237.78 65.43-183.25 65.43-183.25-78.53 181.07-34.89 421.03zm-997-403.6s93.8 141.8 63.27 379.59c0 0-2.19-215.97-63.27-379.59zm883.3 1208.9c-4.66 8.72-6.21 18.76-7.75 28.64 63.56-72.41 122.04-172.34 160.67-310.38 0 0-71.99 479.92-501.76 499.56 0 0 15.8-1.04 41.96-6.86 7.4-3.91 14.82-8.39 17.06-12.24 6.52-11.16-5.05-7.26-4.63-13.01 1.05-14.28 0.07-11.84 15.44-24.07 17.85-14.23 42.17-41.09 15.04-57.24 15.83-14.53 49.2-17.47 70.39-24.11-15.97 7.63-23.88 23.49-33.51 39.38-5.02 8.26-32.73 27.7-29.73 36.64 4.15 12.32 36.9 8.51 63.6 2.43 23.47-9.9 48.93-25.29 62.53-43.98 10.47-14.39 13.32-21.64 28.37-32.67 14.69-10.77 33.15-21.11 39.49-38.77-14.92-10.52-14.47-8.51-6.65-24.01 6.65-13.17 19.66-22.58 28.35-34.42 14.75-20.09 36.58-77.96-6.31-81.52 1.45-19.04 30.74-41.52 41.11-58.47 15.1-24.7 31.52-50.4 44.26-76.39 6.44 40.53-8.65 116.88-29.53 154.32-11.42 20.46-67.36 93.47-8.4 77.17zm-726.23 17.13s-218.15-150.53-163.6-654.45c0 0-4.19 100.28 9.39 226.41 18.14 21.9 28.5-33.65 30.4-43.04 5.06-24.89 9.46-49.6 14.74-74.28 6.19-29.02 14.3-33.15 33.14-52.27 17.19-17.43 26-44.96 32.65-68.63-4.32 19.67-0.82 44.09-2.58 63.69-1.61 17.7 1.86 55.76-11.29 70.44-9.66 10.79-23.4 3.69-34.52 9-15.39 7.35-18.21 21.67-21.34 38.31-6.26 33.35-3.28 67.29-4.67 100.99-0.65 15.6 1.79 44.44-4.43 58.83-6.73 15.57-11.84 5.22-11.45 30.34 23.2 111.63 63.57 223.83 133.56 294.66zm-43.28-666.26c0.54-2.47 1.18-4.87 2-7.16-0.64 2.33-1.31 4.72-2 7.16" fill="url(#linearGradient2414)"/>
      </g>
     </g>
     <g transform="scale(.1)">
      <g stroke-width=".26709" clip-path="url(#clipPath2424)">
       <path d="m5345.7 3157.8c30.54-24 170.15-71.99 170.15-71.99l159.26 17.46 37.08 93.79c-102.54 281.42-375.21 331.61-375.21 331.61l-133-157c13.1-30.53 111.26-189.79 141.8-213.79zm327.22-643.54c32.72 111.26 85.07 394.86 85.07 394.86l-327.21-364.32c-63.27-85.07-80.73-157.08-95.98-224.69-11.1-49.11 64.07-151.09 119.43-211.64l99.79-1.05 17.7-1.06c12.86 106.99 44.48 196.3 44.48 196.3-9.09-68.14-8.12-142.77-5.09-198.66l40.13-2.41c-34.08 143.61-11.04 303.6-11.04 303.6 1.27-134.55 33.55-240.27 60.34-305.18 11.63 0.16 23.05 0.71 34.13 1.51-59.99 73.78-91.48 311.67-61.75 412.74zm-621.72 1044.9c-63.27-37.08-191.97-198.52-224.7-503.93-32.72-305.4 19.63-545.36 17.45-695.89-1.81-125.97-64.73-225.9-85.21-255.19 18.45 0.65 35.23 0.92 48.6 1.04 17.32 47.59 42.31 122.8 51.89 184.33 0 0-0.04-73.66-27.89-184.26 4.59-0.03 7.16-0.06 7.16-0.06l128.71 8.73 172.34-2.2 86.32-0.9c14.65 15.72 28.04 32.59 39.11 49.99 45.81 71.99 54.54 554.09 54.54 554.09l-78.54 534.49s-126.52 346.84-189.78 309.76" fill="url(#linearGradient2430)"/>
      </g>
     </g>
     <g transform="scale(.1)">
      <g stroke-width=".26709" clip-path="url(#clipPath2440)">
       <path d="m5662.2 2103.6c-74.5 19.63-137.56 45.82-171.94 127.61-54.48 130.88-28.67 255.24-28.67 392.68h-432.78c0-137.44 25.79-261.8-28.66-392.68-34.39-81.79-97.45-107.98-171.97-127.61h5.74c126.09 0 246.39-46.88 369.72-58.9 235.03-22.92 295.21 45.81 464.31 55.63l-5.75 3.27" fill="url(#linearGradient2446)"/>
      </g>
     </g>
     <g transform="scale(.1)">
      <g stroke-width=".26709" clip-path="url(#clipPath2456)">
       <path d="m5217 3650.8-24.01-6.54c-192-54.6-294.5-279.3-325.1-458.1l2.39-0.96c-22.91-100.92-25.36-209.84-26.38-319.72l3.07 8.93c-8.65-202.39 23.01-409.43 71.1-600.12l0.2 0.99c9.39-94.26 19.44-160.23 19.44-160.23 6.53 78.53 15.27 157.06 21.81 235.59 5.68 81.25 26.04 180.47 21.49 265.12l89.74 486.88 19.65-8.1c6.56 2.17 95.99 117.8 95.99 117.8l170.17 174.52c2.17 74.17-17.46 277.06-139.61 263.95" fill="url(#linearGradient2462)"/>
      </g>
     </g>
     <g transform="scale(.1)">
      <g stroke-width=".26709" clip-path="url(#clipPath2472)">
       <path d="m5278 3545.6c-6.68 24.22-9.04 35.22-34.89 45.8-22.86 9.36-42.86 7.42-32.25 37.09 3.44 9.63 11.48 14.88 9.82 22.61-1.25-0.09-2.49-0.17-3.75-0.32l-24.01-6.54c-14.57-4.14-28.6-9.26-42.14-15.26h2.88c19.51 14.02 55.41 1.78 35.67-24.14 12.63-3.62 31.9-10.77 39.03-23.74 12.5-22.78-12.98-38.26-9.35-59.18 5.19-30.01 51.79 4.29 68.21-21.48 8.44 6.44 18.22 13.69 27.11 20.05-24.5 5.27-29.26-0.46-36.33 25.11zm-226.86-306.6c-34.64 27.93-9.12 77.9-5.58 117.46 43.56 50.69 77.56 76.18 77.56 76.18-29.28-16.9-55.15-36.18-78.11-56.99-0.11 0.67-0.22 1.36-0.38 2.02-5.95 26.37-29.81 24.45-41.84 32.03 43.5 42.97 85.44 79.67 85.44 79.67-36.47-17.4-67.54-43.92-92.1-70.13-1.01 5.29 0.19 12.75 4.71 23.83 6.39 15.65 63.84 91.44 48.33 98.98 9.96 22.05 31.49 43.51 53.29 60.53-43.72-28.68-81.12-67.06-112.57-110.91 0.6-0.8 1.18-1.64 1.86-2.42 9.24-10.58 14.42-0.16 11.44-19.51-0.85-5.55-8.73-18.43-11.44-24-8.41-17.28-10.96-27.88-12.16-45.15-29.75-35.56-46.27-66.1-46.27-66.1 12.61 15.86 28.61 33.51 45.55 51.05-0.84-25.51 2.49-23.23 26.49-38.52 2.4-1.53 4.51-3.15 6.34-4.85-116.12-129.29-138.49-298.13-142.78-355.91-2.28-1.51-4.8-4.51-7.57-9.52-12.09 24.88-6.26 56.14-9.96 83.76-4.38-48.51-6.09-98.08-6.91-148.08 9.13 1.19 17.89-1.64 26.06-11.95 15.92-20.08 14.64-52.62 19.16-76.39 2.41-12.74 11.12-33.19 26.7-36.26 20.94-4.13 31.23 22.62 54.02 7.88 18.12-11.74 23.62-35.24 33.97-53.07l5.1 27.7c1.94 30.57 2.84 69.35-12.79 77.82-7.34 3.99-24.57-2.7-32.83-2.32-13.55 0.63-23.83 3.77-35.38 10.85-33.21 20.35-35.8 62.9-41.51 97.83-1.91 11.66-6.59 34.63-15.56 32.84 26.72 151.78 92.38 265.1 149.95 339.46 4.56-14.47 0.95-31.86-0.78-48.99-3.85-37.95-7.15-75.97-8.73-113.97-0.31-8.05-3.98-31.74 0.44-38.84 6.02-9.68 14.13-4.44 21.38-10.33 20.86-16.99 5.05-42.65 2.09-67.37 11.13 13.62 22.05 28.1 32.69 43.08l2.27 12.22 4.88-2.02c29.73 43 57.05 89.67 80.06 133.37-27.43-7.81-79.53-15.13-104.53 5.04" fill="url(#linearGradient2478)"/>
      </g>
     </g>
     <g transform="scale(.1)">
      <g stroke-width=".26709" clip-path="url(#clipPath2488)">
       <path d="m5264.4 3543.4c-9.66 21.59-8.75 32.57-32.72 45.81l-8.2 3.29c19.57-21.51 26.74-42.06 19.89-70.11 12.86-0.69 40.77 6.01 43.85-11.21 2.23 1.56 7.36 6.5 9.37 8.95-12.81 3.18-26.78 11.21-32.19 23.27zm-68.72 93.26v-3.27c5.59-7.37 5.94-17.07 3.48-25.89 2.79-0.66 7.82-0.96 10.67-0.37-10.58 10.81-0.07 23.24 1.96 34.23-5.13-0.95-10.95-2.64-16.11-4.7zm-181.61-148.88-1.63-9.82c17.6 21.28 9.53 49.76 23.07 71.42-7.79-13.51-20.15-22.27-27.77-35.06 11.16-4.31 7.55-17.23 6.33-26.54zm16.35-176.7c-1.07 21.39 1.15 44.14-6.86 63.45-9.64 23.24-32.39 9.71-39.02 34.14-1.57-27.7 1.44-35.77 24.62-50.15 24.55-15.23 19.26-34.5 18.03-60.55-1.84-39.45-12.25-101.18 3.23-137.41l44.19 45.8c-49.59 10.59-42.1 63.51-44.19 104.72zm-104.6-470.19c-16.46-3.29-28.27 32.6-32.82 44.8-3.46 9.26-23.64 77.77-34.36 57.25l-3.27-21.27c44.73-13.49 28.12-106.87 68.43-112.71 3.39 10.01 1.78 21.34 2.02 31.93" fill="url(#linearGradient2494)"/>
      </g>
     </g>
     <g transform="scale(.1)">
      <g stroke-width=".26709" clip-path="url(#clipPath2504)">
       <path d="m4870.3 3185.2c26.18 115.47 79.15 220.4 187.42 304.24 0 0-89.76-42.04-154.92-168.97-15.97-45.41-27.5-91.17-34.88-134.27l2.39-0.96c0-0.02 0-0.03-0.01-0.04zm268.13 284.59s-205.06-82.06-282.35-366.39c-9.84-76.91-11.4-157.14-12.15-237.88l3.07 8.93c-0.01-0.04-0.01-0.08-0.01-0.12 2.72 63.92 9.42 127.38 20.93 189.72 28.37 165.78 124.36 314.13 270.51 405.74zm203.89 51.04c-65.29-20.02-158.08-199.37-158.08-199.37-32.71-50.18-172.33-189.78-205.06-268.31-32.72-78.55-47.97-274.87-47.97-274.87-15.28-150.53 6.54-503.94 6.54-503.94l1.66-0.18c-1.06-10.91-1.67-17.27-1.67-17.27-24 87.27-28.36 455.94-28.36 455.94-14.95-137.19-3.56-312.85 8.97-438.19 0.27-2.59 0.52-5.19 0.78-7.74 0.03-0.32 0.06-0.63 0.09-0.94 5.86-57.33 11.83-103.27 15.35-128.79 0.02-0.14 0.05-0.29 0.07-0.41 0.17-1.21 0.33-2.36 0.48-3.47v-0.05c0.17-1.16 0.32-2.27 0.47-3.32v-0.04c0.43-3.07 0.8-5.66 1.12-7.79 0.01-0.1 0.02-0.22 0.05-0.33 0.09-0.66 0.18-1.27 0.26-1.83 0.01-0.06 0.04-0.13 0.04-0.2 0.06-0.47 0.12-0.89 0.18-1.29 0.03-0.22 0.07-0.46 0.1-0.66 0.03-0.26 0.06-0.5 0.1-0.72 0.04-0.25 0.08-0.51 0.1-0.71 0.03-0.1 0.05-0.22 0.06-0.31 0.09-0.61 0.14-0.95 0.14-0.95 0.99 11.95 2.05 23.88 3.12 35.81 0.37 4.02 0.75 8.02 1.11 12.02 0.73 7.82 1.46 15.63 2.2 23.44 0.51 5.4 1.01 10.81 1.54 16.23 0.16 1.64 0.32 3.31 0.49 4.97 2.09 21.73 4.2 43.46 6.3 65.19 2.48 25.98 4.89 51.96 7.05 77.93 5.68 81.25 26.04 180.47 21.49 265.12l89.74 486.88 19.65-8.1c6.56 2.17 95.99 117.8 95.99 117.8l170.17 174.52c0.89 30.73-1.96 83.53-14.27 133.93" fill="url(#linearGradient2510)"/>
      </g>
     </g>
     <g transform="scale(.1)">
      <g stroke-width=".26709" clip-path="url(#clipPath2520)">
       <path d="m5340.8 3535.9c-13.1 45.62-38.22 99.89-88.21 113.4-11.64 3.14-23.78 3.07-35.64 1.6-0.13-0.01-0.13-0.17 0-0.16 26.41 2.01 51.49-6.93 70.86-24.93 19.67-18.28 32.08-43.56 41.08-68.48 18.06-49.99 24.23-104.21 25.39-157.11 0.11-4.45 0.15-8.91 0.14-13.36 0-2.77 4.11-2.73 4.26 0 2.72 49.61-4.18 101.41-17.88 149.04zm-148.1 109.26c-143.18-36.89-234.64-173.32-284.43-304-19.12-50.17-32.3-101.99-40.47-154.97-0.03-0.13 0.17-0.18 0.2-0.05 13.5 71.09 35.75 141.49 66.78 206.87 31.7 66.86 74.07 129.76 130.23 178.48 37.34 32.4 81.08 56.9 128.18 71.9 1.12 0.35 0.67 2.06-0.49 1.77zm-348.7-779.7c3.51 157.34 6.49 324.8 82.3 467 32.53 60.98 77.94 113.45 131.92 156.42 0.61 0.5-0.22 1.59-0.86 1.1-64.02-48.69-115.3-111.3-149.28-184.26-32.33-69.42-48.26-145.53-56.46-221.31-7.89-72.83-8.01-145.8-7.75-218.95 0-0.09 0.13-0.09 0.13 0zm294.09 604.88c-139.66-86.15-237.68-230.52-269.56-391.14-38.98-196.5-29.28-400.43 3.57-597.05 11.4-68.23 26.33-135.52 43.84-202.37 0.81-8.34 1.63-16.66 2.49-24.98 4.83-46.87 10.18-93.76 17.2-140.34 0.39-2.61 4.09-1.71 4.3 0.57 4.22 49.52 9.19 98.99 13.94 148.46 4.4 45.7 7.54 91.53 12.66 137.16 9.34 83.5 25.91 169.61 11.35 253.46-0.2 1.14-1.91 0.64-1.74-0.49 12.6-83.64-4.34-169.89-14.01-252.97-5.3-45.59-8.38-91.46-12.76-137.16-4.17-43.2-8.47-86.41-12.19-129.66-13.11 89.16-21.81 179.21-27.74 269.07-6.83 103.3-8.25 206.67 0.79 309.87 0.09 1.08-1.57 1.04-1.7 0-9.97-77.88-8.87-157.6-6.05-235.92 2.21-62.03 6.59-123.99 12.41-185.81-44.97 192-74.3 389.12-65.64 586.71 2.26 51.22 7.24 102.32 15.17 152.98 6.69 42.76 15.41 84.97 29.23 126.04 26.59 78.98 69.84 152.08 126.33 213.33 35.03 37.99 75.37 71.11 118.79 99.04 0.76 0.48 0.08 1.66-0.68 1.2" fill="url(#linearGradient2526)"/>
      </g>
     </g>
    </g>
    <path d="m521.04 333.07c-1.472-3.764-5.072-6.544-7.199-9.654 0 0-11.78-12.597-14.07-18.324-2.291-5.726-5.563-25.033-5.563-25.033s1.637-21.107 7.853-29.123c6.218-8.019 24.486-18.435 31.195-19.58 4.659-0.794 8.944-0.649 12.871 1.964 4.103 2.727 7.757 7.054 11.072 10.58 3.051 3.245 6.366 5.46 7.59 10.012 0 0 4.026 21.075 3.153 30.019-0.872 8.942-8.288 20.942-8.288 20.942l-38.614 28.197" fill="#fab79e"/>
    <g stroke-width=".26709">
     <g transform="scale(.1)">
      <g stroke-width=".26709" clip-path="url(#clipPath2538)">
       <path d="m5082.8 2969.1 193.06-13.09 242.15 22.89 79.87 67.59c-0.83 1.41-1.33 2.22-1.33 2.22l-386.14 281.97c-14.72-37.64-50.72-65.44-71.99-96.54 0 0-117.8-125.97-140.7-183.24-4.17-10.45-8.68-25.41-13.24-42.87l6.7-9.49 91.62-29.44" fill="url(#linearGradient2544)"/>
      </g>
     </g>
     <g transform="scale(.1)">
      <g stroke-width=".26709" clip-path="url(#clipPath2554)">
       <path d="m5120.7 2503.8c69.48 46.74 69.1 168.95-0.84 272.98-43.67 64.94-104.11 107.44-160.28 118.86-10.17-51.71-17.52-95.06-17.52-95.06s16.37-211.07 78.53-291.23c5.7-7.35 12.41-14.89 19.94-22.54 29.39-3.65 57.18 1.54 80.17 16.99" fill="url(#radialGradient2560)"/>
      </g>
     </g>
     <g transform="scale(.1)">
      <g stroke-width=".26709" clip-path="url(#clipPath2570)">
       <path d="m5679.4 2839.3c-1.68 17.29-5.84 35.73-11.41 54.21-43.94-23.11-86.12-65.25-115.98-120.87-59.31-110.46-47.58-232.1 26.19-271.73 13.24-7.09 27.58-11.02 42.55-12.13 11.83 14.09 21.62 29.83 27.12 50.33 0 0 40.26 210.75 31.53 300.19" fill="url(#radialGradient2576)"/>
      </g>
     </g>
     <g transform="scale(.1)">
      <g stroke-width=".26709" clip-path="url(#clipPath2586)">
       <path d="m5515.8 2551.4c0-40.96-56.64-74.16-126.52-74.16s-126.54 33.2-126.54 74.16c0 40.97 56.66 74.18 126.54 74.18s126.52-33.21 126.52-74.18" fill="url(#radialGradient2592)"/>
      </g>
     </g>
     <g transform="scale(.1)">
      <g stroke-width=".26709" clip-path="url(#clipPath2602)">
       <path d="m5029.4 2890.6s-58.9 53.44-29.45 99.26c0 0 44.72 46.9 135.25 22.91 90.54-24 142.89-45.81 142.89-45.81s21.82-94.91-33.81-125.43l-214.88 49.07" fill="url(#linearGradient2608)"/>
      </g>
     </g>
     <g transform="scale(.1)">
      <g stroke-width=".26709" clip-path="url(#clipPath2618)">
       <path d="m5454.8 2832.8s-42.54 73.07-8.72 133.07l25.08-3.27 39.27 24s63.27 18.54 64.35 10.91c1.09-7.64 64.37-69.82 64.37-69.82l3.27-45.8-26.19-13.1-88.34-19.62-73.09-16.37" fill="url(#linearGradient2624)"/>
      </g>
     </g>
     <g transform="scale(.1)">
      <g stroke-width=".26709" clip-path="url(#clipPath2634)">
       <path d="m5679.4 2839.3c-8.72 89.42-82.88 209.42-82.88 209.42l-386.14 281.97c-14.72-37.64-50.72-65.44-71.99-96.54 0 0-117.8-125.97-140.7-183.24-6.87-17.15-14.6-46.46-22.06-79.13 12.01 14.1 41.65 50.82 53.69 83.48 12.97 35.22 129.87 161.78 176.79 231.14 27.29-40.49 175.01-254.64 283.5-311.85 0 0 117.81-65.45 126.53-122.16 8.66-56.34 51.71-200.92 3.14-365.33 12.5 14.54 22.85 30.71 28.59 52.05 0 0 40.26 210.75 31.53 300.19" fill="url(#linearGradient2640)"/>
      </g>
     </g>
     <g transform="scale(.1)">
      <g stroke-width=".26709" clip-path="url(#clipPath2650)">
       <path d="m5392.6 2616.8s-57.8 2.19-54.54 57.82 6.54 145.06 6.54 145.06l66.55-3.27s3.26-80.72 7.63-101.45c4.36-20.71 19.63-51.25 16.36-70.89-3.28-19.63-15.27-27.27-42.54-27.27" fill="url(#linearGradient2656)"/>
      </g>
     </g>
    </g>
    <path d="m533.37 268.99s5.236 2.291 9.489 0.545l-0.109 0.982s-3.709 1.418-9.49-0.545l0.11-0.982" fill="#fab79e"/>
    <g stroke-width=".26709" transform="scale(.1)">
     <g stroke-width=".26709" clip-path="url(#clipPath2668)">
      <path d="m5268.2 2623.3c2.72-18.67 19.64 2.64 22.11 9.58 3.48 9.73 7.59 28.17 0.51 37.36-20.62 26.79-23.72-34.41-23.72-44.76l1.1-2.18" fill="url(#linearGradient2674)"/>
     </g>
    </g>
    <g stroke-width=".26709" transform="scale(.1)">
     <g stroke-width=".26709" clip-path="url(#clipPath2684)">
      <path d="m5475.8 2616.7c-4.64-15.37-12.83 4.58-13.44 10.74-0.88 8.59-0.87 24.56 5.28 31.45 17.95 20.02 10.78-31.78 9.22-40.49l-1.06-1.7" fill="url(#linearGradient2690)"/>
     </g>
    </g>
    <path d="m521 333.08c-0.872-2.138-2.342-3.916-3.862-5.625-0.672-0.757-1.353-1.504-2.011-2.275-0.469-0.553-0.86-1.218-1.352-1.744-1.096-1.17-2.166-2.365-3.227-3.567-2.043-2.316-4.038-4.678-5.933-7.115-1.698-2.179-3.413-4.446-4.624-6.941-1.01-2.08-1.516-4.444-2.064-6.677-0.749-3.059-1.391-6.144-2.004-9.233-0.506-2.547-0.98-5.099-1.437-7.655-0.134-0.76-0.429-1.628-0.364-2.406 0.379-4.448 1.048-8.886 1.955-13.257 1.188-5.728 2.734-12.061 6.63-16.607 2.091-2.44 4.619-4.509 7.177-6.438 2.983-2.246 6.129-4.276 9.36-6.147 5.271-3.057 10.913-6.081 17.092-6.522 3.181-0.229 6.334 0.312 9.119 1.901 2.997 1.71 5.512 4.32 7.866 6.799 2.248 2.368 4.432 4.775 6.768 7.061 2.131 2.088 3.967 4.332 4.783 7.256 0.031 0.107-0.136 0.153-0.167 0.046-1.208-4.28-4.647-6.874-7.579-9.963-3.264-3.436-6.329-7.108-10.166-9.938-1.912-1.41-4.026-2.364-6.37-2.773-2.413-0.421-4.908-0.196-7.304 0.202-2.528 0.423-4.976 1.551-7.279 2.624-6.57 3.067-12.907 6.988-18.502 11.605-2.317 1.913-4.625 4.023-6.242 6.582-1.656 2.623-2.694 5.632-3.56 8.593-1.616 5.522-2.553 11.261-3.177 16.975-0.082 0.745-0.299 1.729-0.184 2.4 0.295 1.722 0.606 3.444 0.925 5.163 1.083 5.836 2.154 11.735 3.839 17.433 1.586 5.371 5.5 9.802 9.036 14.017 1.791 2.133 3.631 4.228 5.519 6.276 0.136 0.15 0.25 0.281 0.367 0.45 0.797 1.147 1.748 2.185 2.675 3.226 1.7 1.906 3.41 3.854 4.375 6.252 0.021 0.049-0.058 0.069-0.078 0.022" fill="#a74737"/>
    <g stroke-width=".26709" transform="scale(.1)">
     <g stroke-width=".26709" clip-path="url(#clipPath2702)">
      <path d="m5275.9 2605.9s26.18 14.74 67.08 9.83c0 0 49.09-32.73 94.9 3.27 0 0 26.18-3.27 32.72-16.36 0 0-9.81-18-21.27-19.64 0 0-26.18-31.09-71.99-31.09s-91.62 37.63-91.62 37.63-9.82 3.28-9.82 16.36" fill="url(#linearGradient2708)"/>
     </g>
    </g>
    <g>
     <path d="m530.91 260.32s2.618 0 3.217-0.274c0 0-1.799-0.708-3.217 0.274" fill="#100f0d"/>
     <path d="m542.69 259.88 0.763 0.383 1.255-0.22s-0.927-0.598-2.018-0.163" fill="#100f0d"/>
     <path d="m519.08 253.39s5.889-6.546 14.398-9.653c0 0 6.871-1.31 10.471 1.144 3.598 2.454 4.416 4.909 8.342 8.182 0 0-7.035-1.308-8.016-1.308s-9.161-0.819-9.161-0.819l-6.872 0.49-3.273 0.163-5.889 1.801" fill="#f25950"/>
     <path d="m528.9 245.86-0.011-0.024c1.42-0.781 2.956-1.505 4.593-2.103 0 0 6.871-1.31 10.471 1.144 0.93 0.636 1.675 1.273 2.338 1.922-0.073-0.041-0.14-0.077-0.211-0.121-7.526-4.582-17.18-0.818-17.18-0.818zm15.379 5.891c-0.981 0-9.161-0.819-9.161-0.819l-6.872 0.49-3.273 0.163-5.889 1.801s1.064-1.182 2.938-2.778l0.17-0.003s17.506-3.6 27.323 0.327c0.287 0.114 0.563 0.227 0.834 0.338 0.565 0.57 1.198 1.164 1.946 1.789 0 0-7.035-1.308-8.016-1.308" fill="#f14848"/>
    </g>
    <g stroke-width=".26709" transform="scale(.1)">
     <g stroke-width=".26709" clip-path="url(#clipPath2726)">
      <path d="m5274.8 2475s49.08-30.53 109.08-24c59.99 6.55 82.89 25.09 83.98 32.74 1.1 7.63-40.35 1.08-80.71 2.16-40.36 1.11-111.26 2.2-112.35-10.9" fill="url(#radialGradient2732)"/>
     </g>
    </g>
    <path d="m550.82 253.23c-1.473-0.491-1.963-0.491-4.091 0-2.126 0.49-4.745 0.326-4.745 0.326l-2.78-0.817c-0.983 0.817-3.763 0.981-3.763 0.981-5.236 0.163-6.709-1.472-9.982-1.472-3.271 0-9.979 2.454-9.979 2.454 3.271-1.309 6.708-2.781 10.144-3.599 3.379-0.805 6.758-0.345 10.137-0.485l0.334-0.333c0.654-0.328 1.472-0.492 2.29-0.656 0.634 0.091 1.267 0.284 1.872 0.519l0.255-0.026c3.109 0.981 11.617 0.817 13.253 5.07 0 0-1.474-1.472-2.945-1.962" fill="#f14848"/>
    <path d="m553.71 255.22c-1.185-2.362-3.853-3.129-6.253-3.667-1.998-0.449-4.098-0.599-6.085-1.126 0.129 0.08 0.255 0.165 0.372 0.257 0.103 0.082-0.01 0.235-0.122 0.208-0.929-0.234-1.783-0.721-2.72-0.963-0.474-0.123-0.829-0.186-1.32-0.089-0.509 0.102-1.007 0.241-1.488 0.445-0.004 0.002-0.008-0.005-0.004-0.008 0.392-0.195 0.786-0.337 1.207-0.456 0.364-0.103 1.058-0.403 1.425-0.335 0.695 0.131 1.459 0.341 2.138 0.664 2.366 0.595 4.866 0.617 7.245 1.195 2.144 0.522 4.971 1.488 5.717 3.827 0.021 0.067-0.08 0.111-0.112 0.048zm-17.78-4.51c-1.65 0.169-3.344 0.044-4.998 0.038-1.876-0.007-3.745 0.101-5.578 0.522-3.392 0.779-6.628 2.218-9.867 3.461-0.041 0.014-0.057-0.048-0.018-0.066 3.229-1.348 6.443-2.687 9.831-3.594 3.415-0.914 7.129-0.628 10.63-0.564 0.132 0.001 0.127 0.19 0 0.203" fill="#c31d36"/>
    <g stroke-width=".26709">
     <g transform="scale(.1)">
      <g stroke-width=".26709" clip-path="url(#clipPath2746)">
       <path d="m5442.5 2625.6c-0.08-0.32 0.38-0.46 0.49-0.14 7.92 24.18-0.94 44.95-7.9 68.11-4.18 13.91-8.02 26.8-9.54 41.38-1.55 14.74-1.55 29.58-2.1 44.37-0.01 0.44-0.66 0.44-0.68 0-0.93-25.38-0.58-50.95 6.26-75.58 7.01-25.34 20.11-51.38 13.47-78.14zm36.73 31.02c-0.06 0.63-0.93 0.63-0.98 0-2.99-26.57-0.51-57.99-29.49-71.12-1.04-0.47-0.28-2.27 0.79-1.86 29.33 11.18 32.78 45.39 29.68 72.98zm-23.2-60.34c-6.41 5.02-14.68 8.84-22.76 7.5 2.76 3.8 5.04 8.24 6.69 13.43 0.19 0.59-0.62 0.87-0.93 0.4-9.48-14.44-20.13-24.77-37.47-28.51-16.42-3.53-34.38-0.01-50.26 4.37-0.86 0.22-1.15-1.01-0.36-1.31 25.27-9.52 60.72-12.5 79.43 8.06 9.15 1.04 17.13 1.54 25.33-4.38 0.25-0.19 0.58 0.25 0.33 0.44zm-107.67 2.32c-16.95 10.41-39.12 7.51-56.32-0.56-0.39-0.17-0.11-0.84 0.29-0.67 18.63 7.27 36.69 5.67 55.24-0.64 1.13-0.39 1.75 1.27 0.79 1.87zm-77.3 18.86c-4.81 16.96-2.2 35.03-0.96 52.24 0.07 0.88-1.38 1.08-1.54 0.22-3.05-18.36-5.49-38.59-0.25-56.76 5.66-19.65 21.71-27.68 40.26-31.89 0.1-0.01 0.13 0.13 0.04 0.16-17.88 5.4-32.39 17.92-37.55 36.03" fill="url(#linearGradient2752)"/>
      </g>
     </g>
     <g transform="scale(.1)">
      <g stroke-width=".26709" clip-path="url(#clipPath2762)">
       <path d="m4996.1 2987.1s37.63 34.36 114.52 22.91 109.63-62.17 143.97-58.89c0 0 14.74 4.91 26.19 16.35 0 0-54 18-93.27 32.73s-130.88 53.98-191.41-13.1" fill="url(#linearGradient2768)"/>
      </g>
     </g>
     <g transform="scale(.1)">
      <g stroke-width=".26709" clip-path="url(#clipPath2778)">
       <path d="m5670.2 2987.1s-29.63 34.36-90.18 22.91c-60.54-11.45-86.3-62.17-113.36-58.89 0 0-11.6 4.91-20.61 16.35 0 0 42.51 18 73.43 32.73 30.91 14.73 103.04 53.98 150.72-13.1" fill="url(#linearGradient2784)"/>
      </g>
     </g>
     <g transform="scale(.1)">
      <g stroke-width=".26709" clip-path="url(#clipPath2794)">
       <path d="m5760.2 2957.1c0 89.45-26.18 202.89-71.99 283.61-71.99 133.06-187.61 220.32-335.95 259.6l-17.44-4.37c-21.83-15.28-34.91-34.91-78.54-80.72-43.63-45.82-54.54-87.25-54.54-87.25 71.99-80.71 122.16-172.35 200.7-250.88 39.26-39.26 80.71-80.71 126.52-109.08 32.72-19.62 76.36-37.08 98.16-67.63 0 0 74.18-200.68 4.38-397.02 0 0 61.75 114.15 84.73 217.68l0.35-1.71c30.53 74.16 43.62 157.06 43.62 237.77" fill="url(#linearGradient2800)"/>
      </g>
     </g>
     <g transform="scale(.1)">
      <g stroke-width=".26709" clip-path="url(#clipPath2810)">
       <path d="m5693.8 2885.4c-6.36 75.47-36.44 215.27-164.1 330.82 7.03 9.47 15.75 17.68 27.1 24.06 18.65 10.49 38.93 6.58 57.26 13.63 5.15 1.98 8.61 4.66 11.05 7.73 47.18-69.67 93.17-165.5 109.13-287.22-0.26-2.69-0.48-5.47-0.68-8.42-1.9-27.38-13.78-64.85-39.76-80.6zm55.71 179.55c-0.39-12.51-1.76-25.11-5.11-38.02-1.27-4.9-2.41-9.36-3.44-13.61-8.09 61.84-32.7 173.57-107.46 270.46 1.57 4.58 3.83 8.84 8.26 12.16 2.61 1.95 6.18 2.8 10.18 2.95-28.63 40-62.04 74.77-99.77 104.25 2.69-4.72 5.02-9.44 6.86-14.14 4.43-11.37 4.29-22.41 5-33.51-19.65 16.15-41.43 31.14-65.6 44.52 0 0 29.68-21.39 68.26-63.91 8.92-58.67-26.67-59.08-79.76-72.92-4.41-1.16-8.3-2.32-11.74-3.61-13.27 9.28-27.29 18.31-42.2 27.01 0 0 14.72-9.78 37.2-29.16-11.18-5.4-16.55-13.28-19.75-29.2-4.06-20.21 3.72-48.41-17.47-57.26-18.63-7.77-45.42 6.41-65.43 4.35-17.67-1.81-22.65-7.43-41.44 2.19l-0.84-10.14c19.22-25.29 39.34-50.23 61.67-74.11 2.88 18.83 9.58 35.21 30.79 42.26 17.84 5.92 34.43-0.15 52.25 0.54 27.74 1.07 31.01 16.07 39.91 40.8 3.76 10.4 7.99 20.31 13.26 29.37 62.03-66.95 137.88-175.34 164.56-324-1.25-0.54-2.53-1.06-3.84-1.51-14.94-5.12-31.15 9.61-39.32-6.7-3.16 2.69-7.69 5.19-11.39 7.91 4.94-16.52 12.03-43.3 17.91-77.13 2.41 7.65 4.58 15.11 7.1 20.95 8.18 18.87 18.06 32.38 31.56 44.66 2.06-12.95 3.77-26.21 5.05-39.76 0 0 1.5 16.56-0.18 44.01 2.65 2.24 5.44 4.46 8.36 6.64 16.66 12.5 38.07 35.66 56.26 38.4 0.66 12.52 1 25.02 1 37.47 0 33.55-3.67 70.47-10.7 107.79" fill="url(#linearGradient2816)"/>
      </g>
     </g>
     <g transform="scale(.1)">
      <g stroke-width=".26709" clip-path="url(#clipPath2826)">
       <path d="m5641.3 2851.2c1.08-4.41 2.18-9.1 3.26-14.03 14.79 15.84 32.72 30.42 47.29 41.95-8.59-5.01-17.39-9.18-25.34-14.36-8.21-5.34-16.56-11.22-25.21-13.56zm117.42 142.89c-0.2 0.88-0.39 1.77-0.57 2.66-18.05-33.31-20.12-76.12-47.37-103.47 8.41 5.44 17.45 10.45 24.85 16.89 6.9 5.99 14.75 20.26 24.04 23.11 0.28 7.95 0.46 15.87 0.46 23.78 0 11.97-0.49 24.36-1.41 37.03zm-199.46 273.08c-25.38-12.67-68.17-9.85-85.49-33.05-16.74-22.43 5.99-66.97-24.5-76.89-32.42-10.57-81.82 10.36-116.55 0.2 7.66-9.93 15.5-19.75 23.56-29.48 20.3 12.85 42.6 21.88 66.81 24.37 19.99 2.05 40.99-1.6 60.38-2.94-6.05 18.65-4.44 46.45 3.03 65.06 9.94 24.79 25.58 31.07 49.49 38.03 19.52 5.68 41.74 6.88 58.82 19.61 17.59 13.13 24.3 36.28 34.84 55.53-10.37 12.53-21.3 24.41-32.69 35.74 6.22-36.25-7.9-81.31-37.7-96.18zm132.59-388.05c2.59 1.51 5.18 3.1 7.71 4.83 4.18 2.85 7.88 5.99 11.22 9.33-3.17-2.06-6.27-4.16-9.14-6.42-3.01-2.38-6.31-4.98-9.79-7.74" fill="url(#linearGradient2832)"/>
      </g>
     </g>
     <g transform="scale(.1)">
      <g stroke-width=".26709" clip-path="url(#clipPath2842)">
       <path d="m5489.7 3005.1c-28.36 17.45-128.71 124.36-161.43 178.89-29.45 49.09-108.35 135.24-123.83 151.97-1.92-5.08-2.7-7.99-2.7-7.99 71.99-80.71 122.16-172.35 200.7-250.88 39.26-39.26 80.71-80.71 126.52-109.08 23.78-14.26 53.28-27.39 76.02-45.22-5.95 8.8-87.61 65.28-115.28 82.31zm198.51 235.61c-10.99 20.31-23.01 39.54-36 57.72 140.76-240.86 89.47-455.8 73.02-509.5 1.52 135.95-59.13 296.46-89.37 345.42-34.36 55.63-112.91 109.63-112.91 109.63 142.36-122.71 173.44-292.86 183.27-422.12 8.24-108.61-48.2-257.66-66.44-302.48 17.62 34.95 58.64 121.47 76.45 201.66l0.35-1.71c30.53 74.16 43.62 157.06 43.62 237.77 0 89.45-26.18 202.89-71.99 283.61zm-346.86 54.53c174.52-148.35 232.35-317.39 232.35-317.39l0.15-0.73c-3.8 3.53-7.83 7.05-12.17 10.53-50.16 40.36-125.43 92.72-202.88 198.51 0 0 83.99-115.61 98.18-128.71 14.17-13.08 37.08-38.18 76.35-61.07 32.99-19.26 66.78-59.32 79.95-78.07l0.32-2.81c5.06-4.69 9.66-9.69 13.52-15.12 0 0 0.9-2.41 2.4-6.97 0.56-1.1 0.89-1.76 0.89-1.76-12.01 64.37-138.53 257.44-138.53 257.44-75.26 109.06-150.53 146.15-150.53 146.15" fill="url(#linearGradient2848)"/>
      </g>
     </g>
     <g transform="scale(.1)">
      <g stroke-width=".26709" clip-path="url(#clipPath2858)">
       <path d="m5628.8 2902.3c0.32-0.57 1.08-0.07 0.84 0.49-23.44 55.43-51.86 109.74-81.78 161.92-30.42 53.11-66.34 103.11-108.38 147.65-0.06 0.06-0.14-0.03-0.09-0.09 41.25-45.38 75.44-95.95 105.94-149.04 30.13-52.47 53.88-108.25 83.47-160.93zm131.47 96.57c-6.88 86.2-31.42 171.24-73.08 246.99-34.56 62.84-81.61 118.25-138.5 161.94-57.91 44.48-125.62 75.54-196.07 94.04-2.05 0.55-2.92-2.59-0.89-3.14 78.6-21.3 152.52-56.9 214.92-109.61 61.93-52.31 110.5-120.55 142.45-194.9 62.7-145.91 63.45-314.29 11.09-463.34 1.97 10.37 3.56 20.81 4.56 31.29 3.37 35.47 0.4 71.5-4.46 106.66-7.01 50.66-19.26 100.69-35.34 149.2-13.79 41.66-30.51 82.68-53.13 120.38-0.31 0.52-1.13 0.05-0.82-0.48 17.67-30.26 30.92-63.21 42.66-96.15 13.58-38.08 24.43-77.18 32.97-116.68 8.38-38.76 14.23-78.25 15.59-117.93 1.27-37.33-4.01-73.25-13.68-109.29-16.27-60.76-40.68-120.66-69.64-176.83 25.39 82.46 28.98 170.24 17.69 255.58-4.01 30.34-10 60.44-17.93 90-2.29 8.57-4.79 17.09-7.51 25.52-0.83 2.54-1.42 6.63-3.05 8.87-1.69 2.29-3.5 4.48-5.33 6.61-18.49 29.89-45.17 54.53-73.11 75.43-26.4 19.76-53.97 37.32-78.3 59.77-56.05 51.69-89.24 122.74-140.96 178.29-0.06 0.08-0.15-0.03-0.08-0.1 50.48-55.64 84.3-124.45 138.27-177.19 22.22-21.74 47.87-38.75 72.95-56.88 14.05-10.14 27.51-20.99 40.09-32.9 12.74-12.09 23.62-25.56 34.37-39.3-23.72 23.15-56.32 36.55-84.54 53.03-42.73 24.93-78.97 60.89-113.83 95.48-35.44 35.16-67.58 72.5-97.59 112.39-28.25 37.54-55.08 76.09-84.21 112.96-9.59 12.12-19.48 24.01-29.66 35.62-2.05 2.33-3.97 2.48-3.14 5.24 0.63 2 1.33 3.97 2.05 5.92 8.12 22.02 21 42.3 35.44 60.64 17.61 22.34 38.36 42.53 57.23 63.85 11.41 12.88 22.93 25.92 37.05 35.93 0.17 0.09 0.02 0.41-0.17 0.27-23.34-16.53-41.35-40.09-60.69-60.84-27.16-29.09-53.41-57.76-68.89-95.01-1.39-3.37-2.65-6.8-3.77-10.28-1.06-3.4 1.02-4.09 3.59-7.02 16.49-18.74 31.98-38.34 47.08-58.23 28.4-37.43 55.19-76.07 84.09-113.14 30.26-38.85 63.89-74.19 99.23-108.42 33.5-32.45 68.75-63.08 109.79-85.62 18.39-10.07 37.09-19.65 54.17-31.9 9.12-6.52 23.55-16.64 27.4-27.74 5.8-16.71 10.35-33.88 14.42-51.07 26.57-112.25 27.45-233.49-11.2-343.03-0.61-1.73 2.09-2.83 2.95-1.24 25.27 46.68 46.6 96.06 64.17 146.1 8.54 24.27 16.29 49.23 21.66 74.59 18.97 43.84 30.37 90.02 36.94 137.35 6.35 45.67 8.38 92.33 4.7 138.32" fill="url(#linearGradient2864)"/>
      </g>
     </g>
    </g>
    <path d="m503.36 288.5-0.552 0.632s3.559 3.308 10.13 2.479 10.371-6.245 10.371-6.245l-19.949 3.134" fill="#100f0d"/>
    <path d="m524.41 284.1c-3.542 4.225-7.427 6.472-13.339 6.671-2.327 0.127-6.09-0.678-7.714-2.271l0.456-0.855c4.201-4.854 11.77-4.334 16.8-3.478l1.885 0.293 1.912-0.36" fill="#fff"/>
    <g stroke-width=".26709" transform="scale(.1)">
     <g stroke-width=".26709" clip-path="url(#clipPath2878)">
      <path d="m5169.2 2882.9c0 5.23-0.89 10.22-2.49 14.91-16.63 5.82-35 9.16-55.96 9.86-8.09 0.45-17.91-0.26-27.97-2.01-3.8-6.72-6.01-14.47-6.01-22.76 0-20.12 12.9-37.22 30.87-43.55 6.21-1.16 12.51-1.95 18.82-2.48 23.91 1.79 42.74 21.68 42.74 46.03" fill="url(#linearGradient2884)"/>
     </g>
    </g>
    <g stroke-width=".26709" transform="scale(.1)">
     <g stroke-width=".26709" clip-path="url(#clipPath2894)">
      <path d="m5123 2842c22.58 0 40.9 18.32 40.9 40.89 0 6.11-1.38 11.89-3.78 17.09-14.85 4.5-31.15 7.07-49.36 7.68-6.21 0.35-13.43 0-20.98-0.96-4.81-6.71-7.69-14.91-7.69-23.81 0-22.57 18.31-40.89 40.91-40.89" fill="url(#linearGradient2902)"/>
     </g>
    </g>
    <path d="m514.71 288.29c0-1.333-1.081-2.413-2.413-2.413-1.333 0-2.413 1.08-2.413 2.413s1.08 2.413 2.413 2.413c1.332 0 2.413-1.08 2.413-2.413" fill="#100f0d"/>
    <g stroke-width=".26709" transform="scale(.1)">
     <g stroke-width=".26709" clip-path="url(#clipPath2914)">
      <path d="m5140 2882.9c0-9.41-7.63-17.05-17.04-17.05s-17.05 7.64-17.05 17.05c0 9.42 7.64 17.06 17.05 17.06s17.04-7.64 17.04-17.06" fill="url(#linearGradient2920)"/>
     </g>
    </g>
    <g>
     <path d="m512.3 289.31c0.546 0 0.99 0.443 0.99 0.989 0 0.104-0.023 0.203-0.052 0.296-0.58 0.077-1.187 0.127-1.812 0.158-0.071-0.136-0.114-0.29-0.114-0.454 0-0.546 0.442-0.989 0.988-0.989" fill="#fff"/>
     <path d="m512.78 285.93c0-0.265-0.212-0.475-0.476-0.475-0.263 0-0.476 0.21-0.476 0.475 0 0.263 0.213 0.476 0.476 0.476 0.264 0 0.476-0.213 0.476-0.476" fill="#fff"/>
     <path d="m503.38 288.48c1.454 1.294 3.619 1.81 5.471 2.073 1.986 0.28 4.057 0.07 6.011-0.36 3.894-0.858 6.825-3.229 9.497-6.165 0.068-0.074 0.196 0.035 0.135 0.115-2.507 3.193-5.917 5.459-9.807 6.309-2.054 0.45-4.21 0.571-6.285 0.237-1.798-0.288-3.71-0.852-5.052-2.179-0.021-0.02 0.01-0.048 0.03-0.03" fill="#100f0d"/>
     <path d="m503.8 287.62c3.995-4.75 11.375-4.587 16.831-3.508 0.058 0.011 0.039 0.109-0.015 0.102-5.76-0.801-12.376-1.288-16.782 3.445-0.023 0.026-0.055-0.013-0.034-0.039" fill="#ed9aa5"/>
     <path d="m562.79 286.94 0.487 0.614s-2.717 3.417-8.121 2.802c-5.405-0.613-8.808-5.896-8.808-5.896l16.442 2.48" fill="#100f0d"/>
     <path d="m545.38 283.23c3.126 4.103 6.42 6.22 11.252 6.228 1.904 0.048 4.927-0.877 6.162-2.52l-0.42-0.838c-3.697-4.71-9.841-3.943-13.893-2.926l-1.522 0.354-1.579-0.298" fill="#fff"/>
    </g>
    <g stroke-width=".26709" transform="scale(.1)">
     <g stroke-width=".26709" clip-path="url(#clipPath2942)">
      <path d="m5533.2 2828c23.8 0 43.08 20.7 43.08 46.22 0 7.27-1.62 14.12-4.4 20.25-1.91 0.11-3.77 0.17-5.52 0.14-30.25-0.05-54.48-8.38-76.06-24.67 2.03-23.51 20.45-41.94 42.9-41.94" fill="url(#linearGradient2948)"/>
     </g>
    </g>
    <g stroke-width=".26709" transform="scale(.1)">
     <g stroke-width=".26709" clip-path="url(#clipPath2958)">
      <path d="m5533.2 2833.3c21.06 0 38.13 18.31 38.13 40.89 0 7.43-1.88 14.39-5.1 20.39-27.99-0.08-50.79-7.27-71.13-21.28 0.45-22.17 17.31-40 38.1-40" fill="url(#linearGradient2966)"/>
     </g>
    </g>
    <path d="m555.56 287.42c0-1.334-1.008-2.414-2.25-2.414-1.243 0-2.25 1.08-2.25 2.414 0 1.333 1.007 2.412 2.25 2.412 1.242 0 2.25-1.079 2.25-2.412" fill="#100f0d"/>
    <g stroke-width=".26709" transform="scale(.1)">
     <g stroke-width=".26709" clip-path="url(#clipPath2978)">
      <path d="m5549 2874.2c0-9.41-7.11-17.05-15.89-17.05-8.76 0-15.89 7.64-15.89 17.05s7.13 17.04 15.89 17.04c8.78 0 15.89-7.63 15.89-17.04" fill="url(#linearGradient2984)"/>
     </g>
    </g>
    <g>
     <path d="m553.32 288.44c0.454 0 0.831 0.354 0.906 0.82-0.573-0.098-1.126-0.232-1.655-0.403 0.165-0.252 0.439-0.417 0.749-0.417" fill="#fff"/>
     <path d="m553.76 285.06c0-0.263-0.198-0.476-0.444-0.476-0.245 0-0.443 0.213-0.443 0.476 0 0.265 0.198 0.476 0.443 0.476 0.246 0 0.444-0.211 0.444-0.476" fill="#fff"/>
     <path d="m562.78 286.93c-1.115 1.338-2.85 1.923-4.347 2.245-1.603 0.346-3.303 0.203-4.92-0.163-3.225-0.728-5.748-3-8.09-5.845-0.06-0.072-0.158 0.043-0.102 0.122 2.221 3.103 5.13 5.254 8.349 5.977 1.701 0.384 3.465 0.434 5.138 0.032 1.449-0.347 2.978-0.971 3.998-2.339 0.016-0.02-0.012-0.046-0.026-0.029" fill="#100f0d"/>
     <path d="m562.39 286.08c-3.523-4.611-9.532-4.208-13.921-2.955-0.045 0.014-0.026 0.112 0.02 0.103 4.65-0.989 10.018-1.69 13.875 2.891 0.021 0.027 0.046-0.013 0.026-0.039" fill="#ed9aa5"/>
     <path d="m511.23 281.04s6.707-0.164 8.999 1.146c0 0-3.764-3.437-8.999-1.146" fill="#e38d78"/>
     <path d="m556.55 280.64s-5.096-0.536-6.935 0.643c0 0 3.114-3.218 6.935-0.643" fill="#e38d78"/>
    </g>
   </g>
  </g>
 </g>
</svg>
