<?xml version="1.0" encoding="UTF-8" standalone="no"?>
<!-- Created with Inkscape (http://www.inkscape.org/) -->
<svg xmlns:rdf="http://www.w3.org/1999/02/22-rdf-syntax-ns#" xmlns="http://www.w3.org/2000/svg" xml:space="preserve" height="300" viewBox="0 0 300 300" width="300" version="1.1" xmlns:cc="http://creativecommons.org/ns#" xmlns:dc="http://purl.org/dc/elements/1.1/"><metadata><rdf:RDF><cc:Work rdf:about=""><dc:format>image/svg+xml</dc:format><dc:type rdf:resource="http://purl.org/dc/dcmitype/StillImage"/><dc:title/></cc:Work></rdf:RDF></metadata><g transform="matrix(1.3333 0 0 -1.3333 0 300)"><path d="m433.7 400.9s0.612-0.099 1.758-0.285c1.139-0.23 2.833-0.511 4.936-1.125 1.053-0.304 2.217-0.667 3.465-1.161 1.256-0.475 2.577-1.124 3.931-2.04 0.673-0.465 1.35-1.02 1.972-1.743 0.625-0.704 1.173-1.68 1.37-2.836l0.061-0.44 0.012-0.111c0.01 0.107-0.003-0.208-0.003-0.189l-0.001-0.04-0.006-0.16-0.012-0.322-0.008-0.161-0.049-0.247c-0.073-0.321-0.153-0.698-0.266-0.973l-0.36-0.799c-0.559-0.999-1.295-1.801-2.077-2.526-3.202-2.737-7.116-4.355-11.268-5.735-4.163-1.359-8.619-2.444-13.269-3.235-4.646-0.812-9.477-1.386-14.396-1.737-4.912-0.373-9.942-0.491-14.914-0.455-5.037 0.082-10.021 0.316-14.941 0.824-4.914 0.475-9.735 1.214-14.366 2.197-4.631 0.996-9.067 2.271-13.169 4.038-2.044 0.903-4.026 1.893-5.819 3.279-0.889 0.702-1.739 1.514-2.449 2.522-0.356 0.505-0.653 1.087-0.883 1.706-0.092 0.33-0.182 0.657-0.246 0.987l-0.04 0.516-0.015 0.256-0.005 0.128-0.003 0.063c-0.011-0.149 0.013 0.278 0.014 0.247l0.113 0.682c0.004 0.085 0.07 0.294 0.125 0.464l0.183 0.522c0.125 0.372 0.281 0.625 0.437 0.863 0.16 0.239 0.302 0.512 0.484 0.71 0.358 0.405 0.703 0.83 1.091 1.134 0.372 0.343 0.756 0.64 1.149 0.887 1.553 1.041 3.092 1.727 4.546 2.286 2.91 1.113 5.518 1.664 7.655 2.104 2.142 0.416 3.838 0.629 4.991 0.774 1.156 0.126 1.773 0.193 1.773 0.193s-0.592-0.183-1.702-0.527c-1.109-0.33-2.72-0.88-4.749-1.579-2.012-0.739-4.448-1.689-7.031-3.035-1.279-0.682-2.594-1.496-3.732-2.489-0.585-0.486-1.067-1.042-1.448-1.598-0.11-0.136-0.142-0.283-0.222-0.421-0.08-0.143-0.146-0.282-0.139-0.351l-0.041-0.122c-0.016-0.046-0.049-0.047-0.05-0.194l-0.046-0.69c-0.003-0.059 0.021 0.339 0.014 0.161l0.006-0.023 0.012-0.045 0.019-0.091 0.029-0.18c0.047-0.122 0.104-0.243 0.142-0.367 0.139-0.25 0.295-0.509 0.526-0.77 0.461-0.52 1.084-1.034 1.813-1.496 1.465-0.927 3.238-1.718 5.127-2.383 3.8-1.331 8.081-2.225 12.526-2.987 4.461-0.735 9.128-1.258 13.89-1.633 4.756-0.361 9.638-0.578 14.469-0.625 4.895-0.069 9.738 0.028 14.522 0.259 4.777 0.243 9.468 0.624 13.971 1.19 4.499 0.575 8.827 1.278 12.809 2.281 1.993 0.496 3.887 1.091 5.655 1.749 1.761 0.66 3.392 1.438 4.695 2.368 0.625 0.474 1.169 0.979 1.538 1.496 0.07 0.13 0.145 0.258 0.225 0.385 0.068 0.122 0.069 0.179 0.132 0.268l0.041 0.063 0.023 0.16 0.051 0.318 0.025 0.158 0.007 0.039c0.004 0.046-0.01-0.242-0.005-0.109l-0.003 0.047-0.003 0.192c0.007 1.035-0.874 2.239-1.9 3.127-1.031 0.915-2.183 1.649-3.279 2.279-1.096 0.637-2.158 1.154-3.129 1.6-1.95 0.88-3.534 1.49-4.617 1.899-1.09 0.401-1.672 0.614-1.672 0.614" fill="#fff"/><g transform="translate(-14.824 .87198)"><g stroke-width=".97802" transform="matrix(.91287 .10688 -.085951 1.1352 -111.35 -440.02)"><path d="m306.01 393.44c0-10.889-25.072-19.716-56-19.716-30.927 0-56 8.827-56 19.716 0 10.89 25.073 19.717 56 19.717 30.928 0 56-8.827 56-19.717" fill="#a9d81b"/><path d="m249.82 393.75s-17.666-9.775-33.063-4.193-22.696 24.407-22.696 24.407 17.666 9.775 33.064 4.193c15.397-5.582 22.695-24.407 22.695-24.407" fill="#f57fc5"/><g stroke-width=".97802"><g fill="#f57fc5"><path d="m250.19 393.75s17.667-9.775 33.063-4.193c15.398 5.582 22.696 24.407 22.696 24.407s-17.666 9.775-33.064 4.193c-15.396-5.582-22.695-24.407-22.695-24.407"/><path d="m247.06 397.1s19.43 5.489 26.438 20.291c7.01 14.802-1.054 33.311-1.054 33.311s-19.43-5.489-26.439-20.291c-7.01-14.802 1.055-33.311 1.055-33.311"/><path d="m252.95 397.1s-19.429 5.489-26.439 20.291 1.055 33.311 1.055 33.311 19.43-5.489 26.439-20.291c7.01-14.802-1.055-33.311-1.055-33.311"/></g><path d="m250.8 394.84s-15.21 13.277-15.21 29.655 15.21 29.655 15.21 29.655 15.211-13.277 15.211-29.655-15.211-29.655-15.211-29.655" fill="#ee4eaf"/><path d="m250.24 393.89s20.144-1.368 31.725 10.213c11.58 11.581 10.213 31.725 10.213 31.725s-20.143 1.367-31.724-10.214c-11.581-11.58-10.214-31.724-10.214-31.724" fill="#f799d1"/><path d="m249.77 393.89s-20.144-1.368-31.724 10.213c-11.581 11.581-10.214 31.725-10.214 31.725s20.144 1.367 31.725-10.214c11.581-11.58 10.213-31.724 10.213-31.724" fill="#f799d1"/></g></g><g stroke-width=".55871" transform="matrix(1.7563 -.63128 .70613 1.5702 -76.945 30.366)"><path d="m105.54 142.33c3.093-0.659 5.548-1.439 5.203-3.059l-22.734-106.74c-0.3454-1.6199-2.9047-1.332-5.9981-0.673-3.093 0.659-5.548 1.439-5.2027 3.059l22.735 106.74c0.3454 1.62 2.9052 1.332 5.9982 0.674" fill="#b75d1e"/><g fill="#96511d"><path d="m88.47 43.14c-0.9601 0-2.1703 0.1688-3.9418 0.5457-1.9871 0.4231-3.2226 0.7973-4.1308 1.252-1.8516 0.9293-2.0235 2.1402-1.8418 2.993 0.1152 0.541 0.6469 0.8812 1.1867 0.7703 0.5398-0.1153 0.8848-0.6461 0.7695-1.186-0.0191-0.089-0.0761-0.3582 0.7821-0.7882 0.9449-0.4739 2.4476-0.829 3.6507-1.084 1.2039-0.2571 2.7168-0.5418 3.7766-0.4981 0.959 0.0422 1.016 0.3121 1.0352 0.4 0.1156 0.5403 0.6488 0.884 1.1859 0.7699 0.5406-0.1148 0.8852-0.6457 0.7699-1.1859-0.1808-0.8527-0.832-1.8891-2.9012-1.9828-0.1105-0.0039-0.2238-0.0059-0.341-0.0059"/><path d="m94.609 71.96c-0.9606 0-2.1707 0.1687-3.9426 0.5457-1.9867 0.4242-3.2222 0.798-4.1305 1.2531-1.8515 0.9281-2.0234 2.139-1.8417 2.9922 0.1152 0.541 0.6445 0.884 1.1867 0.7699 0.5398-0.1152 0.8847-0.6461 0.7695-1.1859-0.0191-0.0891-0.0762-0.3571 0.782-0.7883 0.945-0.4739 2.4473-0.8278 3.6504-1.084 1.2035-0.257 2.7188-0.5359 3.777-0.4981 0.959 0.0434 1.016 0.3122 1.0351 0.4 0.1153 0.5403 0.6461 0.8832 1.1864 0.7711 0.5402-0.1148 0.8847-0.6468 0.7695-1.1867-0.1816-0.8531-0.8324-1.8883-2.9016-1.982-0.1101-0.0051-0.2234-0.007-0.3402-0.007"/><path d="m99.838 96.511c-0.9605 0-2.1707 0.1692-3.9422 0.5461-1.9871 0.4231-3.2226 0.7969-4.1308 1.2532-1.8516 0.9277-2.0235 2.1388-1.8418 2.9918 0.1152 0.541 0.6441 0.884 1.1867 0.77 0.5398-0.115 0.8847-0.646 0.7695-1.186-0.0191-0.089-0.0762-0.358 0.782-0.788 0.945-0.4742 2.4481-0.8281 3.6512-1.0839 1.2035-0.2571 2.7199-0.5411 3.7759-0.4981 0.959 0.043 1.016 0.3121 1.035 0.4 0.115 0.5391 0.65 0.8832 1.187 0.7711 0.54-0.116 0.885-0.6473 0.77-1.1871-0.182-0.8531-0.832-1.8891-2.902-1.982-0.11-0.0051-0.2233-0.0071-0.3405-0.0071"/><path d="m105.94 125.33c-1.32 0-2.784 0.312-3.905 0.55-2.461 0.524-6.5785 1.402-5.9727 4.246 0.1153 0.54 0.6446 0.882 1.1867 0.771 0.5399-0.116 0.8848-0.647 0.7696-1.187-0.0707-0.332 0.4109-1.017 4.4334-1.873 4.024-0.857 4.74-0.427 4.811-0.097 0.115 0.541 0.647 0.882 1.187 0.771 0.54-0.115 0.884-0.647 0.769-1.187-0.33-1.549-1.701-1.994-3.279-1.994"/></g><g fill="#c8e211"><path d="m108.13 127.02s4.613-2.403 9.35-1.292c4.737 1.109 7.804 5.31 7.804 5.31s-4.614 2.402-9.35 1.292c-4.738-1.11-7.804-5.31-7.804-5.31"/><path d="m105.76 125.84s0.788-5.141 4.482-8.308c3.693-3.166 8.895-3.159 8.895-3.159s-0.788 5.142-4.482 8.309c-3.694 3.166-8.895 3.158-8.895 3.158"/><path d="m81.119 106.93s-0.1781-5.198 2.8649-8.994c3.0433-3.7961 8.1562-4.7519 8.1562-4.7519s0.1782 5.198-2.8648 8.9939c-3.0434 3.796-8.1563 4.752-8.1563 4.752"/><path d="m91.849 78.059s4.5899-2.4469 9.3368-1.3828c4.748 1.0617 7.856 5.2328 7.856 5.2328s-4.59 2.4469-9.3373 1.384c-4.7481-1.0641-7.8555-5.234-7.8555-5.234"/></g><path d="m61.418 131.91c-3.093-0.659-5.5481-1.438-5.2028-3.058l22.735-106.74c0.3453-1.6199 2.9055-1.332 5.9981-0.6719 3.0929 0.6578 5.548 1.4379 5.2031 3.0578l-22.735 106.74c-0.3453 1.621-2.9051 1.333-5.998 0.674" fill="#b75d1e"/><g fill="#96511d"><path d="m78.523 32.717c-1.5781 0-2.9492 0.4449-3.2792 1.9937-0.1153 0.5403 0.2292 1.0711 0.7695 1.186 0.5398 0.1152 1.0711-0.2289 1.1863-0.7699 0.0715-0.3301 0.7887-0.7622 4.8121 0.0972 4.0215 0.8559 4.5035 1.541 4.4324 1.8727-0.1148 0.5402 0.2297 1.0711 0.7696 1.1863 0.5422 0.1148 1.0715-0.2293 1.1867-0.7703 0.6059-2.8438-3.5117-3.7219-5.9723-4.2457-1.1207-0.2391-2.5855-0.55-3.9051-0.55"/><path d="m72.348 61.541c-0.1172 0-0.2309 0.002-0.3414 0.007-2.0688 0.0942-2.7196 1.1301-2.9012 1.9829-0.1153 0.5402 0.2293 1.0722 0.7695 1.1871 0.5391 0.1129 1.0711-0.2301 1.1863-0.7711 0.0192-0.0879 0.0762-0.3571 1.0356-0.4008 1.0496-0.0352 2.5719 0.241 3.7762 0.498 4.0218 0.8559 4.5039 1.5411 4.4336 1.8719-0.1153 0.5399 0.2292 1.0711 0.7699 1.1871 0.5359 0.1149 1.0711-0.2312 1.1859-0.7711 0.6051-2.8429-3.5125-3.7211-5.9726-4.2449-1.772-0.377-2.982-0.546-3.942-0.546"/><path d="m67.118 86.092c-0.1172 0-0.2305 0.0019-0.3403 0.007-2.0691 0.093-2.7203 1.1289-2.9019 1.9817-0.1153 0.5402 0.2297 1.0711 0.7695 1.1871 0.5399 0.114 1.0715-0.2301 1.1867-0.7711 0.0192-0.0879 0.0762-0.3567 1.0352-0.4 1.0633-0.0379 2.5726 0.241 3.7762 0.498 1.2039 0.2563 2.7062 0.6102 3.6511 1.084 0.8582 0.4301 0.8012 0.6992 0.7821 0.7883-0.1153 0.5398 0.2297 1.0707 0.7695 1.1859 0.5414 0.116 1.0715-0.2289 1.1867-0.7699 0.1817-0.8531 0.0098-2.0641-1.8418-2.9922-0.9082-0.4551-2.1437-0.8289-4.1308-1.2531-1.7715-0.377-2.9817-0.5457-3.9422-0.5457"/><path d="m60.98 114.91c-0.1172 0-0.2305 0.002-0.341 0.007-2.0692 0.094-2.7203 1.13-2.9012 1.982-0.1152 0.54 0.2293 1.072 0.7699 1.187 0.5375 0.113 1.0707-0.231 1.186-0.771 0.0191-0.088 0.0761-0.357 1.0351-0.4 1.0586-0.045 2.5734 0.24 3.7758 0.498 4.0223 0.856 4.5039 1.54 4.4336 1.872-0.1153 0.54 0.2297 1.071 0.7703 1.187 0.5355 0.114 1.0707-0.231 1.1859-0.771 0.6055-2.845-3.5129-3.721-5.973-4.245-1.7711-0.377-2.9817-0.546-3.9414-0.546"/></g><g fill="#c8e211"><path d="m58.825 116.6s-4.6137-2.403-9.3504-1.292c-4.7375 1.109-7.8039 5.31-7.8039 5.31s4.6133 2.403 9.3508 1.292c4.7367-1.109 7.8035-5.31 7.8035-5.31"/><path d="m61.194 115.43s-0.7879-5.142-4.4821-8.308c-3.6937-3.167-8.8949-3.159-8.8949-3.159s0.7875 5.142 4.4816 8.308c3.6938 3.166 8.8954 3.159 8.8954 3.159"/><path d="m85.836 96.507s0.1789-5.198-2.8648-8.9941c-3.0434-3.7957-8.1555-4.752-8.1555-4.752s-0.1789 5.1981 2.8645 8.9942c3.0429 3.7961 8.1558 4.7519 8.1558 4.7519"/><path d="m75.107 67.64s-4.5898-2.4472-9.3379-1.3832c-4.7476 1.0629-7.855 5.234-7.855 5.234s4.5898 2.4461 9.3375 1.3828c4.7472-1.0629 7.8554-5.2336 7.8554-5.2336"/></g></g><g stroke-width=".97802" transform="matrix(.91691 0 0 1.1402 -249.78 -208.48)"><path d="m426.06 279.77h-15.097v11.058c0 2.001 1.623 3.624 3.624 3.624h7.848c2.002 0 3.625-1.623 3.625-3.624v-11.06" fill="#4f5252"/><path d="m413.31 287.11h10.064v15.728h-10.06z" fill="#4f5252"/><path d="m428.4 302.84h-21.331c-1.375 0-2.489 1.114-2.489 2.489v2.739c0 1.374 1.114 2.488 2.489 2.488h21.331v-7.716" fill="#787b7b"/><path d="m442.83 197.56v63.395c0 14.084-11.527 25.95-25.608 25.683-13.65-0.259-24.636-11.405-24.636-25.117v-63.961c0-1.3 1.054-2.354 2.353-2.354h45.537c1.3 0 2.354 1.054 2.354 2.354" fill="#a3da5f"/><path d="m398.16 201.51h39v58.205h-39z" fill="#c8e211"/><path d="m417.23 252.06c-0.075 0.126-0.147 0.257-0.251 0.362-0.106 0.104-0.235 0.175-0.361 0.251 0.035 0.143 0.077 0.285 0.077 0.434 0 0.148-0.042 0.29-0.077 0.433 0.126 0.076 0.255 0.147 0.361 0.252 0.104 0.105 0.176 0.235 0.251 0.361 0.143-0.035 0.285-0.077 0.434-0.077s0.291 0.042 0.433 0.077c0.076-0.126 0.147-0.256 0.252-0.361 0.106-0.105 0.235-0.176 0.361-0.252-0.035-0.143-0.077-0.285-0.077-0.433 0-0.149 0.042-0.291 0.077-0.434-0.126-0.076-0.255-0.147-0.361-0.251-0.105-0.105-0.176-0.236-0.252-0.362-0.142 0.035-0.284 0.078-0.433 0.078s-0.291-0.043-0.434-0.078zm12.616 1.047c0 1.565-2.04 2.853-4.706 3.097 1.713 2.056 2.245 4.41 1.139 5.517-1.108 1.107-3.461 0.575-5.518-1.138-0.243 2.666-1.532 4.706-3.097 4.706s-2.854-2.04-3.097-4.706c-2.057 1.713-4.41 2.245-5.518 1.138-1.106-1.107-0.574-3.461 1.139-5.517-2.666-0.244-4.706-1.532-4.706-3.097s2.04-2.854 4.706-3.097c-1.713-2.057-2.245-4.411-1.139-5.518 1.108-1.106 3.461-0.575 5.518 1.138 0.243-2.665 1.532-4.706 3.097-4.706s2.854 2.041 3.097 4.706c2.057-1.713 4.41-2.244 5.518-1.138 1.106 1.107 0.574 3.461-1.139 5.518 2.666 0.243 4.706 1.532 4.706 3.097" fill="#fff"/></g></g></g></svg>
